<?xml version="1.0" encoding="UTF-8"?>
<svg xmlns="http://www.w3.org/2000/svg" xmlns:xlink="http://www.w3.org/1999/xlink" viewBox="0 0 500 500">
  <defs>
    <style>
      .cls-1 {
        fill: url(#Degradado_sin_nombre_6);
      }

      .cls-2 {
        mix-blend-mode: lighten;
      }

      .cls-3 {
        fill: url(#Degradado_sin_nombre_6-12);
      }

      .cls-4 {
        fill: url(#Degradado_sin_nombre_6-4);
      }

      .cls-5 {
        fill: url(#Degradado_sin_nombre_6-13);
      }

      .cls-6 {
        fill: url(#Degradado_sin_nombre_6-8);
      }

      .cls-7 {
        fill: url(#Degradado_sin_nombre_452-2);
      }

      .cls-8 {
        fill: url(#Degradado_sin_nombre_6-15);
      }

      .cls-9 {
        fill: url(#Degradado_sin_nombre_6-3);
      }

      .cls-10 {
        fill: url(#Degradado_sin_nombre_6-9);
      }

      .cls-11 {
        fill: none;
      }

      .cls-12 {
        fill: url(#Degradado_sin_nombre_6-5);
      }

      .cls-13 {
        fill: url(#Degradado_sin_nombre_6-10);
      }

      .cls-14 {
        isolation: isolate;
      }

      .cls-15 {
        opacity: .7;
      }

      .cls-15, .cls-16 {
        mix-blend-mode: overlay;
      }

      .cls-17 {
        mix-blend-mode: screen;
      }

      .cls-18 {
        fill: #e44534;
      }

      .cls-19 {
        fill: url(#Degradado_sin_nombre_6-6);
      }

      .cls-20 {
        fill: url(#Degradado_sin_nombre_6-7);
      }

      .cls-21 {
        fill: url(#Degradado_sin_nombre_452-3);
      }

      .cls-22 {
        fill: url(#Degradado_sin_nombre_452);
      }

      .cls-16 {
        opacity: .3;
      }

      .cls-23 {
        fill: url(#Degradado_sin_nombre_6-11);
      }

      .cls-24 {
        clip-path: url(#clippath);
      }

      .cls-25 {
        fill: url(#Degradado_sin_nombre_6-2);
      }

      .cls-26 {
        fill: url(#Degradado_sin_nombre_6-14);
      }
    </style>
    <clipPath id="clippath">
      <rect class="cls-11" x="-17.4" y="-22.01" width="534.8" height="950.76"/>
    </clipPath>
    <linearGradient id="Degradado_sin_nombre_6" data-name="Degradado sin nombre 6" x1="-302.32" y1="-402.73" x2="-217" y2="-270.48" gradientUnits="userSpaceOnUse">
      <stop offset="0" stop-color="#16428f"/>
      <stop offset=".55" stop-color="#1d3873"/>
      <stop offset="1" stop-color="#223361"/>
    </linearGradient>
    <linearGradient id="Degradado_sin_nombre_6-2" data-name="Degradado sin nombre 6" x1="328.52" y1="397.07" x2="117.34" y2="4.57" xlink:href="#Degradado_sin_nombre_6"/>
    <linearGradient id="Degradado_sin_nombre_6-3" data-name="Degradado sin nombre 6" x1="387.16" y1="463.33" x2="25.79" y2="-208.31" gradientTransform="translate(-61.31 13.19) rotate(2.44)" xlink:href="#Degradado_sin_nombre_6"/>
    <linearGradient id="Degradado_sin_nombre_6-4" data-name="Degradado sin nombre 6" x1="391.75" y1="457.8" x2="30.37" y2="-213.84" gradientTransform="translate(-61.31 13.19) rotate(2.44)" xlink:href="#Degradado_sin_nombre_6"/>
    <linearGradient id="Degradado_sin_nombre_6-5" data-name="Degradado sin nombre 6" x1="396.33" y1="452.27" x2="34.96" y2="-219.37" gradientTransform="translate(-61.31 13.19) rotate(2.44)" xlink:href="#Degradado_sin_nombre_6"/>
    <linearGradient id="Degradado_sin_nombre_6-6" data-name="Degradado sin nombre 6" x1="400.91" y1="446.74" x2="39.54" y2="-224.9" gradientTransform="translate(-61.31 13.19) rotate(2.44)" xlink:href="#Degradado_sin_nombre_6"/>
    <linearGradient id="Degradado_sin_nombre_6-7" data-name="Degradado sin nombre 6" x1="405.5" y1="441.21" x2="44.13" y2="-230.43" gradientTransform="translate(-61.31 13.19) rotate(2.44)" xlink:href="#Degradado_sin_nombre_6"/>
    <linearGradient id="Degradado_sin_nombre_6-8" data-name="Degradado sin nombre 6" x1="410.08" y1="435.69" x2="48.71" y2="-235.96" gradientTransform="translate(-61.31 13.19) rotate(2.44)" xlink:href="#Degradado_sin_nombre_6"/>
    <linearGradient id="Degradado_sin_nombre_6-9" data-name="Degradado sin nombre 6" x1="414.67" y1="430.16" x2="53.29" y2="-241.48" gradientTransform="translate(-61.31 13.19) rotate(2.44)" xlink:href="#Degradado_sin_nombre_6"/>
    <linearGradient id="Degradado_sin_nombre_6-10" data-name="Degradado sin nombre 6" x1="419.25" y1="424.63" x2="57.88" y2="-247.01" gradientTransform="translate(-61.31 13.19) rotate(2.44)" xlink:href="#Degradado_sin_nombre_6"/>
    <linearGradient id="Degradado_sin_nombre_6-11" data-name="Degradado sin nombre 6" x1="423.83" y1="419.1" x2="62.46" y2="-252.54" gradientTransform="translate(-61.31 13.19) rotate(2.44)" xlink:href="#Degradado_sin_nombre_6"/>
    <linearGradient id="Degradado_sin_nombre_6-12" data-name="Degradado sin nombre 6" x1="428.42" y1="413.57" x2="67.05" y2="-258.07" gradientTransform="translate(-61.31 13.19) rotate(2.44)" xlink:href="#Degradado_sin_nombre_6"/>
    <linearGradient id="Degradado_sin_nombre_6-13" data-name="Degradado sin nombre 6" x1="433" y1="408.04" x2="71.63" y2="-263.6" gradientTransform="translate(-61.31 13.19) rotate(2.44)" xlink:href="#Degradado_sin_nombre_6"/>
    <linearGradient id="Degradado_sin_nombre_6-14" data-name="Degradado sin nombre 6" x1="437.59" y1="402.51" x2="76.21" y2="-269.13" gradientTransform="translate(-61.31 13.19) rotate(2.44)" xlink:href="#Degradado_sin_nombre_6"/>
    <linearGradient id="Degradado_sin_nombre_6-15" data-name="Degradado sin nombre 6" x1="214.09" y1="188.5" x2="135.17" y2="-80.27" xlink:href="#Degradado_sin_nombre_6"/>
    <linearGradient id="Degradado_sin_nombre_452" data-name="Degradado sin nombre 452" x1="274.05" y1="268.33" x2="182.33" y2="-79.37" gradientUnits="userSpaceOnUse">
      <stop offset="0" stop-color="#fff"/>
      <stop offset="1" stop-color="#fff"/>
    </linearGradient>
    <linearGradient id="Degradado_sin_nombre_452-2" data-name="Degradado sin nombre 452" x1="276.18" y1="190.76" x2="158.86" y2="-184.67" xlink:href="#Degradado_sin_nombre_452"/>
    <linearGradient id="Degradado_sin_nombre_452-3" data-name="Degradado sin nombre 452" x1="-32.25" y1="-7.13" x2="348.27" y2="-7.13" xlink:href="#Degradado_sin_nombre_452"/>
  </defs>
  <g class="cls-14">
    <g id="Capa_1" data-name="Capa 1">
      <g class="cls-24">
        <rect class="cls-1" x="-17.4" y="-22.01" width="534.8" height="950.76"/>
        <g class="cls-2">
          <path class="cls-25" d="M-319.72,312.57c27.08,69.68,101.55,105.43,169.73,100.26,68.18-5.17,130.7-43.48,186.6-87.14,55.9-43.66,108.2-93.82,169.1-128.26,60.9-34.44,133.82-51.85,197.84-25.29,66.35,27.53,115.45,98.52,185.15,112.55,56.99,11.47,117.95-21.66,148.45-76.35,30.49-54.68,30.96-127.1,5.09-184.65-25.87-57.55-76.05-99.74-131.89-116.82-71.98-22.02-148.22-4.46-222.12,7.4-124.07,19.92-250.27,23.35-375.07,10.22-89.47-9.42-180.27-27.26-268.42-7.8-88.15,19.46-175.28,87.78-189.69,186.29"/>
        </g>
        <g class="cls-17">
          <g class="cls-2">
            <path class="cls-9" d="M-361.25,333.15c25.44,73.32,103.44,113.76,178.46,106.73,96.49-9.05,174.92-76.27,249.17-132.13,75.72-56.96,169.25-118.5,268.96-95.06,43.31,10.18,77.09,38.6,109.95,66.99,29.58,25.55,60.54,53.04,99.11,63.61,36.57,10.02,75.58,1.11,106.88-19.43,34.75-22.8,58.24-58.56,69.02-98.4,22.57-83.48-8.43-174.21-76.85-226.79-35.51-27.29-78.11-41.26-122.52-44.68-51.29-3.95-102.5,4.43-153.28,10.51-108.34,12.96-218.07,13.58-326.53,1.61-53.92-5.95-107.11-16.38-160.79-23.95-51.83-7.31-104.78-11.33-156.72-2.71-74.59,12.37-146.86,56.99-182.38,125.1-8.82,16.91-15.04,35.02-18.69,53.73-.06.32.44.39.5.07,15.45-79.31,78.94-139.2,153.1-165.99,94.65-34.19,197.85-10.62,293.8,4.61,103.22,16.39,207.94,21.94,312.29,15.72,51.77-3.09,102.9-10.73,154.45-15.91,50.74-5.1,103.44-6.11,151.94,11.98,81.15,30.27,136.46,109.47,138.4,195.78,1,44.4-11.2,90.37-39.25,125.4-25.23,31.52-63.07,54-103.76,56.78-84.32,5.77-135.75-77.15-201.17-115.4-80.98-47.35-176.9-16.48-250.68,29.73-81.05,50.75-149.74,121.67-239.15,158.66-39.89,16.51-84.02,25.55-126.97,17.54-37.68-7.02-73.44-26.1-98.63-55.21-12.47-14.42-21.96-31.09-28.2-49.09-.11-.31-.58-.11-.47.2h0Z"/>
          </g>
          <g class="cls-2">
            <path class="cls-4" d="M-356.43,327.82c25.44,73.32,103.44,113.76,178.46,106.73,96.49-9.05,174.92-76.27,249.17-132.13,75.72-56.96,169.25-118.5,268.96-95.06,43.31,10.18,77.09,38.6,109.95,66.99,29.58,25.55,60.54,53.04,99.11,63.61,36.57,10.02,75.58,1.11,106.88-19.43,34.75-22.8,58.24-58.56,69.02-98.4,22.57-83.48-8.43-174.21-76.85-226.79-35.51-27.29-78.11-41.26-122.52-44.68-51.29-3.95-102.5,4.43-153.28,10.51-108.34,12.96-218.07,13.58-326.53,1.61-53.92-5.95-107.11-16.38-160.79-23.95-51.83-7.31-104.78-11.33-156.72-2.71-74.59,12.37-146.86,56.99-182.38,125.1-8.82,16.91-15.04,35.02-18.69,53.73-.06.32.44.39.5.07,15.45-79.31,78.94-139.2,153.1-165.99,94.65-34.19,197.85-10.62,293.8,4.61,103.22,16.39,207.94,21.94,312.29,15.72,51.77-3.09,102.9-10.73,154.45-15.91,50.74-5.1,103.44-6.11,151.94,11.98,81.15,30.27,136.46,109.47,138.4,195.78,1,44.4-11.2,90.37-39.25,125.4-25.23,31.52-63.07,54-103.76,56.78-84.32,5.77-135.75-77.15-201.17-115.4-80.98-47.35-176.9-16.48-250.68,29.73-81.05,50.75-149.74,121.67-239.15,158.66-39.89,16.51-84.02,25.55-126.97,17.54-37.68-7.02-73.44-26.1-98.63-55.21-12.47-14.42-21.96-31.09-28.2-49.09-.11-.31-.58-.11-.47.2h0Z"/>
          </g>
          <g class="cls-2">
            <path class="cls-12" d="M-351.62,322.49c25.44,73.32,103.44,113.76,178.46,106.73,96.49-9.05,174.92-76.27,249.17-132.13,75.72-56.96,169.25-118.5,268.96-95.06,43.31,10.18,77.09,38.6,109.95,66.99,29.58,25.55,60.54,53.04,99.11,63.61,36.57,10.02,75.58,1.11,106.88-19.43,34.75-22.8,58.24-58.56,69.02-98.4,22.57-83.48-8.43-174.21-76.85-226.79-35.51-27.29-78.11-41.26-122.52-44.68-51.29-3.95-102.5,4.43-153.28,10.51-108.34,12.96-218.07,13.58-326.53,1.61-53.92-5.95-107.11-16.38-160.79-23.95-51.83-7.31-104.78-11.33-156.72-2.71-74.59,12.37-146.86,56.99-182.38,125.1-8.82,16.91-15.04,35.02-18.69,53.73-.06.32.44.39.5.07,15.45-79.31,78.94-139.2,153.1-165.99,94.65-34.19,197.85-10.62,293.8,4.61,103.22,16.39,207.94,21.94,312.29,15.72,51.77-3.09,102.9-10.73,154.45-15.91,50.74-5.1,103.44-6.11,151.94,11.98,81.15,30.27,136.46,109.47,138.4,195.78,1,44.4-11.2,90.37-39.25,125.4-25.23,31.52-63.07,54-103.76,56.78-84.32,5.77-135.75-77.15-201.17-115.4-80.98-47.35-176.9-16.48-250.68,29.73C60.75,301.13-7.94,372.05-97.35,409.04c-39.89,16.51-84.02,25.55-126.97,17.54-37.68-7.02-73.44-26.1-98.63-55.21-12.47-14.42-21.96-31.09-28.2-49.09-.11-.31-.58-.11-.47.2h0Z"/>
          </g>
          <g class="cls-2">
            <path class="cls-19" d="M-346.8,317.16c25.44,73.32,103.44,113.76,178.46,106.73,96.49-9.05,174.92-76.27,249.17-132.13,75.72-56.96,169.25-118.5,268.96-95.06,43.31,10.18,77.09,38.6,109.95,66.99,29.58,25.55,60.54,53.04,99.11,63.61,36.57,10.02,75.58,1.11,106.88-19.43,34.75-22.8,58.24-58.56,69.02-98.4,22.57-83.48-8.43-174.21-76.85-226.79-35.51-27.29-78.11-41.26-122.52-44.68-51.29-3.95-102.5,4.43-153.28,10.51-108.34,12.96-218.07,13.58-326.53,1.61-53.92-5.95-107.11-16.38-160.79-23.95-51.83-7.31-104.78-11.33-156.72-2.71-74.59,12.37-146.86,56.99-182.38,125.1-8.82,16.91-15.04,35.02-18.69,53.73-.06.32.44.39.5.07,15.45-79.31,78.94-139.2,153.1-165.99,94.65-34.19,197.85-10.62,293.8,4.61,103.22,16.39,207.94,21.94,312.29,15.72,51.77-3.09,102.9-10.73,154.45-15.91,50.74-5.1,103.44-6.11,151.94,11.98,81.15,30.27,136.46,109.47,138.4,195.78,1,44.4-11.2,90.37-39.25,125.4-25.23,31.52-63.07,54-103.76,56.78-84.32,5.77-135.75-77.15-201.17-115.4-80.98-47.35-176.9-16.48-250.68,29.73C65.57,295.81-3.13,366.72-92.53,403.72c-39.89,16.51-84.02,25.55-126.97,17.54-37.68-7.02-73.44-26.1-98.63-55.21-12.47-14.42-21.96-31.09-28.2-49.09-.11-.31-.58-.11-.47.2h0Z"/>
          </g>
          <g class="cls-2">
            <path class="cls-20" d="M-341.99,311.84c25.44,73.32,103.44,113.76,178.46,106.73,96.49-9.05,174.92-76.27,249.17-132.13,75.72-56.96,169.25-118.5,268.96-95.06,43.31,10.18,77.09,38.6,109.95,66.99,29.58,25.55,60.54,53.04,99.11,63.61,36.57,10.02,75.58,1.11,106.88-19.43,34.75-22.8,58.24-58.56,69.02-98.4,22.57-83.48-8.43-174.21-76.85-226.79-35.51-27.29-78.11-41.26-122.52-44.68-51.29-3.95-102.5,4.43-153.28,10.51-108.34,12.96-218.07,13.58-326.53,1.61-53.92-5.95-107.11-16.38-160.79-23.95-51.83-7.31-104.78-11.33-156.72-2.71-74.59,12.37-146.86,56.99-182.38,125.1-8.82,16.91-15.04,35.02-18.69,53.73-.06.32.44.39.5.07,15.45-79.31,78.94-139.2,153.1-165.99,94.65-34.19,197.85-10.62,293.8,4.61,103.22,16.39,207.94,21.94,312.29,15.72,51.77-3.09,102.9-10.73,154.45-15.91,50.74-5.1,103.44-6.11,151.94,11.98,81.15,30.27,136.46,109.47,138.4,195.78,1,44.4-11.2,90.37-39.25,125.4-25.23,31.52-63.07,54-103.76,56.78-84.32,5.77-135.75-77.15-201.17-115.4-80.98-47.35-176.9-16.48-250.68,29.73C70.38,290.48,1.69,361.39-87.71,398.39c-39.89,16.51-84.02,25.55-126.97,17.54-37.68-7.02-73.44-26.1-98.63-55.21-12.47-14.42-21.96-31.09-28.2-49.09-.11-.31-.58-.11-.47.2h0Z"/>
          </g>
          <g class="cls-2">
            <path class="cls-6" d="M-337.17,306.51c25.44,73.32,103.44,113.76,178.46,106.73,96.49-9.05,174.92-76.27,249.17-132.13,75.72-56.96,169.25-118.5,268.96-95.06,43.31,10.18,77.09,38.6,109.95,66.99,29.58,25.55,60.54,53.04,99.11,63.61,36.57,10.02,75.58,1.11,106.88-19.43,34.75-22.8,58.24-58.56,69.02-98.4,22.57-83.48-8.43-174.21-76.85-226.79-35.51-27.29-78.11-41.26-122.52-44.68-51.29-3.95-102.5,4.43-153.28,10.51-108.34,12.96-218.07,13.58-326.53,1.61-53.92-5.95-107.11-16.38-160.79-23.95-51.83-7.31-104.78-11.33-156.72-2.71-74.59,12.37-146.86,56.99-182.38,125.1-8.82,16.91-15.04,35.02-18.69,53.73-.06.32.44.39.5.07,15.45-79.31,78.94-139.2,153.1-165.99,94.65-34.19,197.85-10.62,293.8,4.61,103.22,16.39,207.94,21.94,312.29,15.72,51.77-3.09,102.9-10.73,154.45-15.91,50.74-5.1,103.44-6.11,151.94,11.98,81.15,30.27,136.46,109.47,138.4,195.78,1,44.4-11.2,90.37-39.25,125.4-25.23,31.52-63.07,54-103.76,56.78-84.32,5.77-135.75-77.15-201.17-115.4-80.98-47.35-176.9-16.48-250.68,29.73-81.05,50.75-149.74,121.67-239.15,158.66-39.89,16.51-84.02,25.55-126.97,17.54-37.68-7.02-73.44-26.1-98.63-55.21-12.47-14.42-21.96-31.09-28.2-49.09-.11-.31-.58-.11-.47.2h0Z"/>
          </g>
          <g class="cls-2">
            <path class="cls-10" d="M-332.36,301.18c25.44,73.32,103.44,113.76,178.46,106.73,96.49-9.05,174.92-76.27,249.17-132.13,75.72-56.96,169.25-118.5,268.96-95.06,43.31,10.18,77.09,38.6,109.95,66.99,29.58,25.55,60.54,53.04,99.11,63.61,36.57,10.02,75.58,1.11,106.88-19.43,34.75-22.8,58.24-58.56,69.02-98.4,22.57-83.48-8.43-174.21-76.85-226.79-35.51-27.29-78.11-41.26-122.52-44.68-51.29-3.95-102.5,4.43-153.28,10.51-108.34,12.96-218.07,13.58-326.53,1.61-53.92-5.95-107.11-16.38-160.79-23.95-51.83-7.31-104.78-11.33-156.72-2.71-74.59,12.37-146.86,56.99-182.38,125.1-8.82,16.91-15.04,35.02-18.69,53.73-.06.32.44.39.5.07,15.45-79.31,78.94-139.2,153.1-165.99,94.65-34.19,197.85-10.62,293.8,4.61,103.22,16.39,207.94,21.94,312.29,15.72,51.77-3.09,102.9-10.73,154.45-15.91,50.74-5.1,103.44-6.11,151.94,11.98,81.15,30.27,136.46,109.47,138.4,195.78,1,44.4-11.2,90.37-39.25,125.4-25.23,31.52-63.07,54-103.76,56.78-84.32,5.77-135.75-77.15-201.17-115.4-80.98-47.35-176.9-16.48-250.68,29.73-81.05,50.75-149.74,121.67-239.15,158.66-39.89,16.51-84.02,25.55-126.97,17.54-37.68-7.02-73.44-26.1-98.63-55.21-12.47-14.42-21.96-31.09-28.2-49.09-.11-.31-.58-.11-.47.2h0Z"/>
          </g>
          <g class="cls-2">
            <path class="cls-13" d="M-327.54,295.85c25.44,73.32,103.44,113.76,178.46,106.73,96.49-9.05,174.92-76.27,249.17-132.13,75.72-56.96,169.25-118.5,268.96-95.06,43.31,10.18,77.09,38.6,109.95,66.99,29.58,25.55,60.54,53.04,99.11,63.61,36.57,10.02,75.58,1.11,106.88-19.43,34.75-22.8,58.24-58.56,69.02-98.4,22.57-83.48-8.43-174.21-76.85-226.79-35.51-27.29-78.11-41.26-122.52-44.68-51.29-3.95-102.5,4.43-153.28,10.51-108.34,12.96-218.07,13.58-326.53,1.61-53.92-5.95-107.11-16.38-160.79-23.95-51.83-7.31-104.78-11.33-156.72-2.71-74.59,12.37-146.86,56.99-182.38,125.1-8.82,16.91-15.04,35.02-18.69,53.73-.06.32.44.39.5.07C-427.78,1.74-364.3-58.16-290.13-84.95c94.65-34.19,197.85-10.62,293.8,4.61,103.22,16.39,207.94,21.94,312.29,15.72,51.77-3.09,102.9-10.73,154.45-15.91,50.74-5.1,103.44-6.11,151.94,11.98,81.15,30.27,136.46,109.47,138.4,195.78,1,44.4-11.2,90.37-39.25,125.4-25.23,31.52-63.07,54-103.76,56.78-84.32,5.77-135.75-77.15-201.17-115.4-80.98-47.35-176.9-16.48-250.68,29.73-81.05,50.75-149.74,121.67-239.15,158.66-39.89,16.51-84.02,25.55-126.97,17.54-37.68-7.02-73.44-26.1-98.63-55.21-12.47-14.42-21.96-31.09-28.2-49.09-.11-.31-.58-.11-.47.2h0Z"/>
          </g>
          <g class="cls-2">
            <path class="cls-23" d="M-322.73,290.52c25.44,73.32,103.44,113.76,178.46,106.73,96.49-9.05,174.92-76.27,249.17-132.13,75.72-56.96,169.25-118.5,268.96-95.06,43.31,10.18,77.09,38.6,109.95,66.99,29.58,25.55,60.54,53.04,99.11,63.61,36.57,10.02,75.58,1.11,106.88-19.43,34.75-22.8,58.24-58.56,69.02-98.4,22.57-83.48-8.43-174.21-76.85-226.79-35.51-27.29-78.11-41.26-122.52-44.68-51.29-3.95-102.5,4.43-153.28,10.51-108.34,12.96-218.07,13.58-326.53,1.61-53.92-5.95-107.11-16.38-160.79-23.95-51.83-7.31-104.78-11.33-156.72-2.71-74.59,12.37-146.86,56.99-182.38,125.1-8.82,16.91-15.04,35.02-18.69,53.73-.06.32.44.39.5.07,15.45-79.31,78.94-139.2,153.1-165.99,94.65-34.19,197.85-10.62,293.8,4.61,103.22,16.39,207.94,21.94,312.29,15.72,51.77-3.09,102.9-10.73,154.45-15.91,50.74-5.1,103.44-6.11,151.94,11.98,81.15,30.27,136.46,109.47,138.4,195.78,1,44.4-11.2,90.37-39.25,125.4-25.23,31.52-63.07,54-103.76,56.78-84.32,5.77-135.75-77.15-201.17-115.4-80.98-47.35-176.9-16.48-250.68,29.73-81.05,50.75-149.74,121.67-239.15,158.66-39.89,16.51-84.02,25.55-126.97,17.54-37.68-7.02-73.44-26.1-98.63-55.21-12.47-14.42-21.96-31.09-28.2-49.09-.11-.31-.58-.11-.47.2h0Z"/>
          </g>
          <g class="cls-2">
            <path class="cls-3" d="M-317.91,285.19c25.44,73.32,103.44,113.76,178.46,106.73,96.49-9.05,174.92-76.27,249.17-132.13,75.72-56.96,169.25-118.5,268.96-95.06,43.31,10.18,77.09,38.6,109.95,66.99,29.58,25.55,60.54,53.04,99.11,63.61,36.57,10.02,75.58,1.11,106.88-19.43,34.75-22.8,58.24-58.56,69.02-98.4,22.57-83.48-8.43-174.21-76.85-226.79-35.51-27.29-78.11-41.26-122.52-44.68-51.29-3.95-102.5,4.43-153.28,10.51-108.34,12.96-218.07,13.58-326.53,1.61-53.92-5.95-107.11-16.38-160.79-23.95-51.83-7.31-104.78-11.33-156.72-2.71-74.59,12.37-146.86,56.99-182.38,125.1-8.82,16.91-15.04,35.02-18.69,53.73-.06.32.44.39.5.07,15.45-79.31,78.94-139.2,153.1-165.99,94.65-34.19,197.85-10.62,293.8,4.61,103.22,16.39,207.94,21.94,312.29,15.72,51.77-3.09,102.9-10.73,154.45-15.91,50.74-5.1,103.44-6.11,151.94,11.98,81.15,30.27,136.46,109.47,138.4,195.78,1,44.4-11.2,90.37-39.25,125.4-25.23,31.52-63.07,54-103.76,56.78-84.32,5.77-135.75-77.15-201.17-115.4-80.98-47.35-176.9-16.48-250.68,29.73-81.05,50.75-149.74,121.67-239.15,158.66-39.89,16.51-84.02,25.55-126.97,17.54-37.68-7.02-73.44-26.1-98.63-55.21-12.47-14.42-21.96-31.09-28.2-49.09-.11-.31-.58-.11-.47.2h0Z"/>
          </g>
          <g class="cls-2">
            <path class="cls-5" d="M-313.1,279.87c25.44,73.32,103.44,113.76,178.46,106.73,96.49-9.05,174.92-76.27,249.17-132.13,75.72-56.96,169.25-118.5,268.96-95.06,43.31,10.18,77.09,38.6,109.95,66.99,29.58,25.55,60.54,53.04,99.11,63.61,36.57,10.02,75.58,1.11,106.88-19.43,34.75-22.8,58.24-58.56,69.02-98.4,22.57-83.48-8.43-174.21-76.85-226.79-35.51-27.29-78.11-41.26-122.52-44.68-51.29-3.95-102.5,4.43-153.28,10.51-108.34,12.96-218.07,13.58-326.53,1.61-53.92-5.95-107.11-16.38-160.79-23.95-51.83-7.31-104.78-11.33-156.72-2.71-74.59,12.37-146.86,56.99-182.38,125.1-8.82,16.91-15.04,35.02-18.69,53.73-.06.32.44.39.5.07,15.45-79.31,78.94-139.2,153.1-165.99,94.65-34.19,197.85-10.62,293.8,4.61,103.22,16.39,207.94,21.94,312.29,15.72,51.77-3.09,102.9-10.73,154.45-15.91,50.74-5.1,103.44-6.11,151.94,11.98,81.15,30.27,136.46,109.47,138.4,195.78,1,44.4-11.2,90.37-39.25,125.4-25.23,31.52-63.07,54-103.76,56.78-84.32,5.77-135.75-77.15-201.17-115.4-80.98-47.35-176.9-16.48-250.68,29.73-81.05,50.75-149.74,121.67-239.15,158.66-39.89,16.51-84.02,25.55-126.97,17.54-37.68-7.02-73.44-26.1-98.63-55.21-12.47-14.42-21.96-31.09-28.2-49.09-.11-.31-.58-.11-.47.2h0Z"/>
          </g>
          <g class="cls-2">
            <path class="cls-26" d="M-308.28,274.54c25.44,73.32,103.44,113.76,178.46,106.73,96.49-9.05,174.92-76.27,249.17-132.13,75.72-56.96,169.25-118.5,268.96-95.06,43.31,10.18,77.09,38.6,109.95,66.99,29.58,25.55,60.54,53.04,99.11,63.61,36.57,10.02,75.58,1.11,106.88-19.43,34.75-22.8,58.24-58.56,69.02-98.4,22.57-83.48-8.43-174.21-76.85-226.79-35.51-27.29-78.11-41.26-122.52-44.68-51.29-3.95-102.5,4.43-153.28,10.51-108.34,12.96-218.07,13.58-326.53,1.61-53.92-5.95-107.11-16.38-160.79-23.95-51.83-7.31-104.78-11.33-156.72-2.71-74.59,12.37-146.86,56.99-182.38,125.1-8.82,16.91-15.04,35.02-18.69,53.73-.06.32.44.39.5.07,15.45-79.31,78.94-139.2,153.1-165.99,94.65-34.19,197.85-10.62,293.8,4.61,103.22,16.39,207.94,21.94,312.29,15.72,51.77-3.09,102.9-10.73,154.45-15.91,50.74-5.1,103.44-6.11,151.94,11.98,81.15,30.27,136.46,109.47,138.4,195.78,1,44.4-11.2,90.37-39.25,125.4-25.23,31.52-63.07,54-103.76,56.78-84.32,5.77-135.75-77.15-201.17-115.4-80.98-47.35-176.9-16.48-250.68,29.73-81.05,50.75-149.74,121.67-239.15,158.66-39.89,16.51-84.02,25.55-126.97,17.54-37.68-7.02-73.44-26.1-98.63-55.21-12.47-14.42-21.96-31.09-28.2-49.09-.11-.31-.58-.11-.47.2h0Z"/>
          </g>
        </g>
        <g class="cls-2">
          <path class="cls-8" d="M-268.96,129.84c-39.28,44.73-20.96,120.97,26.55,156.83,47.51,35.87,113.27,38.07,171.03,23.7,88.13-21.93,163.57-76.96,241.45-123.69,77.88-46.73,166.46-87.14,256.43-74.79,45.73,6.28,88.39,25.84,130.85,43.93,42.47,18.1,86.63,35.19,132.78,36.07,46.15.88,95.24-17.5,119.59-56.72,23.04-37.1,19.39-87.11-3.3-124.43-22.69-37.32-61.92-62.59-103.76-75.08-118.23-35.29-242.71,24.3-366.07,27.16C192.17-33.84,56.69-108.34-87.21-120.96c-146.28-12.83-299.95,44.93-391.78,159.52"/>
        </g>
        <g class="cls-15">
          <path class="cls-22" d="M-283.54,134.97c7.95-50.59,52.06-93.28,102.88-99.58,44.15-5.47,87.45,13.97,125.88,36.38,38.43,22.41,75.78,48.69,119.01,59.16,115.05,27.87,228.78-62.91,346.92-55.42,42.71,2.71,83.39,18.19,124.68,29.44,41.29,11.25,85.95,18.18,126.32,3.99,40.37-14.19,73.88-55.43,66.3-97.55-7.32-40.69-49.45-67.34-90.54-72-41.08-4.65-81.95,7.33-122.28,16.46-132.59,29.99-271.97,29.54-404.37-1.31C40.48-61.95-28.95-87.09-101.49-91.47c-72.55-4.37-151.87,16.4-195.41,74.59"/>
        </g>
        <g class="cls-15">
          <path class="cls-7" d="M-290.68,114.79c-6.62-39.86,20.66-80.15,57.26-97.28C-196.83.38-153.56,3.04-115.01,15.13-76.45,27.23-41.33,48.03-5.67,67.04c35.66,19.01,73.03,36.63,113.15,41.46,115.03,13.84,219.13-78.51,334.98-80.23,39.28-.58,77.83,9.37,116.57,15.91,38.74,6.54,79.63,9.51,116.35-4.45,36.72-13.96,67.93-48.81,66.52-88.07-1.22-34.14-27.05-64.16-58.57-77.35-31.51-13.19-67.48-11.79-100.69-3.78-33.21,8.01-64.52,22.24-96.43,34.43C333.78-36.8,163.86-25.33,4.98-62.52c-51.87-12.14-103-29.4-156.16-32.92-53.16-3.53-110.54,8.93-147.15,47.63"/>
        </g>
        <g class="cls-16">
          <path class="cls-21" d="M-32.25-41.04C10.6,23.32,89.59,61.75,166.68,55.76,243.77,49.77,315.87-.42,348.27-70.63"/>
        </g>
      </g>
      <g>
        <path class="cls-18" d="M237.75,398.61c.91-2.54,14.68-41.92,3.23-49.17-2.89-1.82-9.69-3.08-13.91.14-2.41,1.84-3.23,4.56-3.93,6.88-.76,2.52-2.42,7.99.7,12.5,2.39,3.46,6.23,4.41,7.16,4.64.99.24,3.76.89,6.74-.14,5.53-1.91,7.2-8,8.29-7.59,1.04.39-.68,5.88-1.69,13.63-1.47,11.27.39,13.3-2.11,16.58-3.19,4.19-9.14,4.67-17.12,5.31-3.44.28-9.24.69-16.47-1.27-4.22-1.15-12.53-3.52-19.09-11.06-3.68-4.23-5.36-8.43-6.18-10.54-2.36-6.05-2.71-11.42-2.67-14.75-.43-4-.43-9.55,1.4-15.73.94-3.17,3.56-11.56,11.52-18.12,5.16-4.25,10.25-5.84,12.65-6.56,1.62-.49,16.76-4.83,31.39,1.44,2.61,1.12,6.37,3.07,7.23,2.03.8-.97-1.33-4.02-2.25-5.34-2.14-3.06-4.55-4.91-5.76-5.76-3.64-2.56-7.02-3.5-9.13-4.07-4.86-1.32-8.79-1.21-11.24-1.12-4.79.17-8.3,1.09-11.66,1.97-4.18,1.09-7.7,2.42-10.48,3.62-2.5-11.04-5-22.08-7.5-33.12,1.58-.87,3.78-2.05,6.46-3.37,3.48-1.72,6.03-2.97,9.41-4.21,4.09-1.5,7.51-2.28,9.41-2.67,5.51-1.12,9.76-1.2,13.77-1.26,2.12-.03,6.97-.04,13.2.7,4.39.52,8.83,1.05,14.33,2.81,0,0,6.12,1.96,10.96,4.78,13.08,7.62,18.83,26.08,19.81,29.36.96,5.27,2.21,13.02,3.09,22.48.87,9.34,1.1,17.25.98,48.46-.02,6.36-.07,14.4-.14,23.74-10.68-.05-21.35-.09-32.03-.14h-11.24v-8.57c-2.39,1.17-4.78,2.34-7.16,3.51Z"/>
        <path class="cls-18" d="M246.67,196.27c-.38,3.59-4.03,34.66-25,45.5-7.67,3.96-18.47,5.64-19.25,5.76-4.3.65-12.37,1.79-22.48-.28-10.69-2.19-18.57-6.92-23.32-10.4-3.02-2.76-6.23-6.31-9.09-10.79-5.06-7.93-6.74-15.23-7.76-19.83-1.2-5.43-1.61-10.23-1.69-14.05-.19-25.75-.37-51.51-.56-77.26h45.51c.14,26.78.28,53.57.42,80.35-.08,1.24-.1,4.19,1.68,7.16.69,1.14,1.96,3.26,4.5,4.22,3.34,1.26,7.78.12,9.83-3.09,1.24-1.94,1.2-3.99,1.12-4.92.05-28,.09-56,.14-84.01,15.31.05,30.62.09,45.94.14v81.5Z"/>
        <path class="cls-18" d="M473.95,341.22c0,34.56-25.38,62.58-56.68,62.58s-56.68-28.02-56.68-62.58,25.38-62.58,56.68-62.58,56.68,28.02,56.68,62.58ZM416.01,319.5c-8.38.29-15.1,11.84-14.99,21.72.12,10.12,7.45,21.93,16.24,21.7,8.35-.22,14.83-11.21,15.17-20.44.4-10.85-7.55-23.29-16.42-22.99Z"/>
        <path class="cls-18" d="M365.85,166.67v-44.25c14.05.14,28.1.28,42.14.42.21,3.65.42,7.3.63,10.96,2.71-3.81,5.65-6.1,7.59-7.38,3.37-2.23,6.36-3.16,9.03-3.99,4.87-1.51,8.71-1.8,9.75-1.86,3.4-.21,6.17-.38,9.48.69,3.33,1.08,5.49,2.78,7.72,4.82,3.02,2.76,6.23,6.31,9.09,10.79,5.06,7.93,6.74,15.23,7.76,19.83,1.2,5.43,1.61,10.23,1.69,14.05.19,25.75.37,51.51.56,77.26h-45.51c-.53-26.76-1.05-53.53-1.58-80.29-.05-1.36-.35-3.83-1.9-6.32-.75-1.22-1.69-2.72-3.58-3.58-2.17-.99-4.79-.76-6.74.42-2.38,1.44-3.12,3.92-3.76,6.05-.64,2.13-.66,3.86-.67,4.28-.04,4.3.15,36.09.53,79.73-14.15.04-28.31.09-42.46.13.07-27.25.14-54.5.21-81.76Z"/>
        <g>
          <rect class="cls-18" x="24.21" y="77.92" width="44.67" height="170.5"/>
          <path class="cls-18" d="M131.4,191.11c.6-5.65.81-14.51-2.04-24.72-.37-1.32-3.02-10.55-9.2-19.67-.68-1-2.67-3.87-5.69-7.23-2.36-2.63-4.16-4.6-7.1-6.62-2.77-1.9-5.22-2.95-6.45-3.42-3.35-1.3-6.11-1.69-8.15-1.97-2.27-.31-3.94-.34-6.81-.41-2.62-.06-4.22-.11-6.46.13-2.03.21-3.99.42-6.46,1.26-1.78.61-3.18,1.34-4.14,1.9v34.7c.17-.67.48-1.66,1.12-2.74.46-.77,1.65-2.71,4.07-3.79,1.75-.78,3.31-.73,4.07-.7,2.71.11,4.69,1.31,5.66,2.03,1.91,1.41,2.8,3.09,3.4,4.22.26.49.99,1.93,1.69,5.27.7,3.37.82,6.01.84,6.53.18,4.36.06,14.91-.56,28.94-.47,2.13-1.56,5.39-4.28,8.15-1.16,1.17-2.46,2.45-4.5,2.81-1.95.34-3.56-.34-5.41-1.12-2.67-1.13-4.44-2.6-4.97-3.05-5.69-4.85-6.74-9.8-7.81-9.59-2.37.48-6.05,26.47,9.13,38.21,4.75,3.67,9.69,4.67,12.29,5.2.71.14,16.09,3,28.8-6.88,6.42-4.99,9.13-10.83,12.15-17.35,2.79-6.02,6.52-16.24,6.81-30.06Z"/>
        </g>
        <path class="cls-18" d="M355.95,210.11c-1.51,3.75-3.93,8.86-7.8,14.33-3.13,4.43-8.25,11.66-17.28,17.07-14.2,8.51-29.83,7.59-38.56,5.48-6.94-1.68-13.73-5.14-14.5-5.54-2.49-1.28-5.85-3.02-9.1-5.63-8.28-6.66-11.5-15.58-13.91-22.55-.68-1.95-3.19-9.47-4-20.86-.85-11.89-1.72-24.04,4.64-37.3,6.55-13.65,17.14-20.91,21.49-23.81,4.1-2.73,9.41-6.21,17.28-8.01,15.16-3.47,27.66,2.05,31.61,4,12.01,5.95,18.03,15.21,21.07,20.02,9.7,15.35,9.85,30.95,9.48,37.72-22.2,5.9-44.39,11.8-66.59,17.7.96,1.71,3.4,5.45,8.01,7.37,4.91,2.05,9.46.85,13.49-.21,2.68-.71,7.12-2.25,11.8-5.9,10.96,2.04,21.91,4.07,32.87,6.11ZM314.3,159.24c-5.93-6.01-15.6-3.26-16.62-2.96-1.52.46-7.55,2.37-10.78,8.48-1.65,3.13-1.91,6.1-1.92,7.77l32.73-6.98c-.4-1.62-1.28-4.15-3.42-6.31Z"/>
        <rect class="cls-18" x="110.47" y="278.64" width="42.42" height="125.16"/>
        <path class="cls-18" d="M184.36,323.65c-1.49-1.85-4.3-4.84-8.71-7.02-1.55-.77-6.33-3.14-10.11-2.53-6.58,1.06-12.27,11.47-12.64,25.57v-50.29c2.25-2.62,8.18-8.76,17.93-11.19,5.46-1.36,10.19-1.07,13.26-.61.09,15.36.19,30.72.28,46.08Z"/>
        <path class="cls-18" d="M84.06,403.24c-2.14.32-4.91.6-8.15.56-5.07-.06-8.93-.88-10.42-1.23-5.05-1.17-8.64-2.01-11.87-4.66-3.4-2.79-4.63-6.12-6.64-11.81-1.5-4.24-3.3-10.63-3.93-18.82,0-16.67,0-33.34,0-50.01-3.18-.09-6.37-.19-9.55-.28.09-12.27.19-24.54.28-36.8,3.09-.09,6.18-.19,9.27-.28,0-5.43,0-10.86,0-16.3,14.05-5.34,28.1-10.68,42.14-16.01.32,11.02.64,22.04.96,33.06,4.64-.16,9.28-.31,13.93-.47.75,12.64,1.5,25.29,2.25,37.93h-18.82c.43,11.43.85,22.85,1.28,34.28.47.85,2.11,3.56,5.47,4.78,3.54,1.28,7.63.39,10.68-2.25-.28,12.74-.56,25.47-.84,38.21-1.27,1.67-3.26,3.89-6.18,5.9-3.82,2.64-7.52,3.73-9.83,4.21Z"/>
        <path class="cls-18" d="M337.58,403.24c-2.14.32-4.91.6-8.15.56-5.07-.06-8.93-.88-10.42-1.23-5.05-1.17-8.64-2.01-11.87-4.66-3.4-2.79-4.63-6.12-6.64-11.81-1.5-4.24-3.3-10.63-3.93-18.82,0-16.67,0-33.34,0-50.01-3.18-.09-6.37-.19-9.55-.28.09-12.27.19-24.54.28-36.8,3.09-.09,6.18-.19,9.27-.28,0-5.43,0-10.86,0-16.3,14.05-5.34,28.1-10.68,42.14-16.01.32,11.02.64,22.04.96,33.06,4.64-.16,9.28-.31,13.93-.47.75,12.64,1.5,25.29,2.25,37.93h-18.82c.43,11.43.85,22.85,1.28,34.28.47.85,2.11,3.56,5.47,4.78,3.54,1.28,7.63.39,10.68-2.25-.28,12.74-.56,25.47-.84,38.21-1.27,1.67-3.26,3.89-6.18,5.9-3.82,2.64-7.52,3.73-9.83,4.21Z"/>
      </g>
    </g>
  </g>
</svg>