<?xml version="1.0" encoding="UTF-8"?>
<svg xmlns="http://www.w3.org/2000/svg" xmlns:xlink="http://www.w3.org/1999/xlink" viewBox="0 0 300 300">
  <defs>
    <style>
      .cls-1 {
        fill: url(#linear-gradient-15);
      }

      .cls-2 {
        fill: url(#linear-gradient-13);
      }

      .cls-3 {
        fill: url(#linear-gradient-28);
      }

      .cls-4 {
        fill: url(#linear-gradient-53);
      }

      .cls-5 {
        fill: url(#linear-gradient-42);
      }

      .cls-6 {
        fill: url(#linear-gradient-46);
      }

      .cls-7 {
        fill: url(#linear-gradient-2);
      }

      .cls-8, .cls-9 {
        stroke: url(#_Безымянный_градиент_52);
        stroke-miterlimit: 10;
        stroke-width: 3.46px;
      }

      .cls-8, .cls-10 {
        fill: url(#_Безымянный_градиент_49);
      }

      .cls-11 {
        fill: url(#linear-gradient-43);
      }

      .cls-12 {
        fill: url(#linear-gradient-25);
      }

      .cls-13 {
        fill: url(#linear-gradient-10);
      }

      .cls-14 {
        fill: url(#linear-gradient-12);
      }

      .cls-15 {
        fill: url(#linear-gradient-40);
      }

      .cls-16 {
        fill: url(#linear-gradient-27);
      }

      .cls-9 {
        fill: none;
      }

      .cls-17 {
        fill: url(#linear-gradient-37);
      }

      .cls-18 {
        fill: url(#linear-gradient-39);
      }

      .cls-19 {
        fill: url(#linear-gradient-52);
      }

      .cls-20 {
        fill: url(#linear-gradient-47);
      }

      .cls-21 {
        fill: url(#linear-gradient-26);
      }

      .cls-22 {
        fill: #2a3c60;
      }

      .cls-23 {
        fill: url(#linear-gradient-4);
      }

      .cls-24 {
        fill: url(#linear-gradient-35);
      }

      .cls-25 {
        fill: url(#linear-gradient-30);
      }

      .cls-26 {
        fill: url(#radial-gradient);
      }

      .cls-27 {
        fill: url(#linear-gradient-44);
      }

      .cls-28 {
        fill: url(#linear-gradient-49);
      }

      .cls-29 {
        fill: url(#linear-gradient-3);
      }

      .cls-30 {
        fill: url(#linear-gradient-34);
      }

      .cls-31 {
        fill: url(#linear-gradient-5);
      }

      .cls-32 {
        fill: url(#linear-gradient-38);
      }

      .cls-33 {
        fill: url(#linear-gradient-22);
      }

      .cls-34 {
        fill: url(#linear-gradient-24);
      }

      .cls-35 {
        isolation: isolate;
      }

      .cls-36 {
        fill: url(#linear-gradient-33);
      }

      .cls-37 {
        fill: url(#linear-gradient-51);
      }

      .cls-38 {
        fill: url(#linear-gradient-8);
      }

      .cls-39 {
        fill: #dc4993;
      }

      .cls-40 {
        fill: url(#linear-gradient-14);
      }

      .cls-41 {
        fill: url(#linear-gradient-29);
      }

      .cls-42 {
        fill: url(#linear-gradient-20);
      }

      .cls-43 {
        fill: url(#linear-gradient-17);
      }

      .cls-44 {
        fill: url(#linear-gradient-50);
      }

      .cls-45 {
        fill: url(#linear-gradient-7);
      }

      .cls-46 {
        fill: url(#linear-gradient-9);
      }

      .cls-47 {
        fill: url(#linear-gradient-11);
      }

      .cls-48 {
        fill: url(#linear-gradient-19);
      }

      .cls-49 {
        fill: url(#linear-gradient-6);
      }

      .cls-50 {
        fill: url(#linear-gradient-36);
      }

      .cls-51 {
        fill: url(#linear-gradient-21);
      }

      .cls-52 {
        fill: url(#linear-gradient-45);
      }

      .cls-53 {
        fill: #f08187;
        mix-blend-mode: multiply;
        opacity: .5;
      }

      .cls-54 {
        fill: url(#linear-gradient-48);
      }

      .cls-55 {
        fill: url(#linear-gradient-32);
      }

      .cls-56 {
        fill: url(#linear-gradient-41);
      }

      .cls-57 {
        fill: url(#linear-gradient-16);
      }

      .cls-58 {
        fill: url(#linear-gradient);
      }

      .cls-59 {
        fill: #082627;
      }

      .cls-60 {
        fill: url(#linear-gradient-23);
      }

      .cls-61 {
        fill: url(#linear-gradient-31);
      }

      .cls-62 {
        clip-path: url(#clippath);
      }

      .cls-63 {
        fill: #a4ca64;
      }

      .cls-64 {
        fill: url(#linear-gradient-18);
      }
    </style>
    <linearGradient id="_Безымянный_градиент_49" data-name="Безымянный градиент 49" x1="18.93" y1="153.68" x2="272.29" y2="153.68" gradientUnits="userSpaceOnUse">
      <stop offset="0" stop-color="#ccc"/>
      <stop offset="1" stop-color="#fff"/>
    </linearGradient>
    <linearGradient id="_Безымянный_градиент_52" data-name="Безымянный градиент 52" x1="17.78" y1="153.68" x2="279.22" y2="153.68" gradientUnits="userSpaceOnUse">
      <stop offset="0" stop-color="#fff"/>
      <stop offset=".19" stop-color="#f6f6f6"/>
      <stop offset=".49" stop-color="#dfdfdf"/>
      <stop offset=".87" stop-color="#bababa"/>
      <stop offset="1" stop-color="#ababab"/>
    </linearGradient>
    <clipPath id="clippath">
      <circle class="cls-8" cx="148.5" cy="153.68" r="128.99"/>
    </clipPath>
    <linearGradient id="linear-gradient" x1="211.83" y1="114.09" x2="177.35" y2="119.99" gradientUnits="userSpaceOnUse">
      <stop offset="0" stop-color="#a6ca64"/>
      <stop offset="1" stop-color="#098594"/>
    </linearGradient>
    <linearGradient id="linear-gradient-2" x1="158.38" y1="74.25" x2="176.61" y2="106.41" xlink:href="#linear-gradient"/>
    <linearGradient id="linear-gradient-3" x1="157.84" y1="110.49" x2="204.78" y2="110.49" gradientUnits="userSpaceOnUse">
      <stop offset="0" stop-color="#135d6e"/>
      <stop offset="1" stop-color="#098594"/>
    </linearGradient>
    <linearGradient id="linear-gradient-4" x1="170.08" y1="74" x2="229.47" y2="74" gradientUnits="userSpaceOnUse">
      <stop offset="0" stop-color="#b3423a"/>
      <stop offset="1" stop-color="#e35545"/>
    </linearGradient>
    <linearGradient id="linear-gradient-5" x1="177.73" y1="71.49" x2="194.57" y2="71.49" gradientUnits="userSpaceOnUse">
      <stop offset="0" stop-color="#fbb818"/>
      <stop offset="1" stop-color="#f07f3a"/>
    </linearGradient>
    <linearGradient id="linear-gradient-6" x1="192.55" y1="68.17" x2="216.57" y2="68.17" xlink:href="#linear-gradient-5"/>
    <linearGradient id="linear-gradient-7" x1="198.33" y1="80.99" x2="222.17" y2="80.99" xlink:href="#linear-gradient-5"/>
    <linearGradient id="linear-gradient-8" x1="200.21" y1="92.11" x2="222.7" y2="92.11" xlink:href="#linear-gradient-5"/>
    <linearGradient id="linear-gradient-9" x1="181.26" y1="84.33" x2="210.2" y2="84.33" xlink:href="#linear-gradient-3"/>
    <linearGradient id="linear-gradient-10" x1="96.54" y1="111.9" x2="154.06" y2="111.9" xlink:href="#linear-gradient-5"/>
    <linearGradient id="linear-gradient-11" x1="101.66" y1="151.38" x2="118.95" y2="152.5" gradientTransform="translate(-16.11 12.14) rotate(-7.49)" xlink:href="#linear-gradient"/>
    <linearGradient id="linear-gradient-12" x1="85.33" y1="64.67" x2="84.25" y2="103.44" gradientTransform="translate(-16.11 12.14) rotate(-7.49)" xlink:href="#linear-gradient"/>
    <radialGradient id="radial-gradient" cx="110.38" cy="134.3" fx="110.38" fy="134.3" r="26.26" gradientTransform="translate(-16.11 12.14) rotate(-7.49)" gradientUnits="userSpaceOnUse">
      <stop offset="0" stop-color="#098594"/>
      <stop offset="1" stop-color="#a6ca64"/>
    </radialGradient>
    <linearGradient id="linear-gradient-13" x1="74.26" y1="115.18" x2="124.89" y2="115.18" gradientTransform="translate(-16.11 12.14) rotate(-7.49)" xlink:href="#linear-gradient-3"/>
    <linearGradient id="linear-gradient-14" x1="134.67" y1="127.41" x2="187.22" y2="127.41" xlink:href="#linear-gradient-4"/>
    <linearGradient id="linear-gradient-15" x1="64.14" y1="150.53" x2="69.98" y2="150.53" xlink:href="#linear-gradient-5"/>
    <linearGradient id="linear-gradient-16" x1="62.34" y1="139.96" x2="66.58" y2="139.96" xlink:href="#linear-gradient-5"/>
    <linearGradient id="linear-gradient-17" x1="51.73" y1="137.58" x2="54.69" y2="137.58" xlink:href="#linear-gradient-5"/>
    <linearGradient id="linear-gradient-18" x1="208.64" y1="133.62" x2="215.7" y2="133.62" xlink:href="#linear-gradient-5"/>
    <linearGradient id="linear-gradient-19" x1="219.29" y1="130.2" x2="222.63" y2="130.2" xlink:href="#linear-gradient-5"/>
    <linearGradient id="linear-gradient-20" x1="151.93" y1="57.39" x2="158.74" y2="57.39" xlink:href="#linear-gradient-5"/>
    <linearGradient id="linear-gradient-21" x1="160.73" y1="48.69" x2="163.51" y2="48.69" xlink:href="#linear-gradient-5"/>
    <linearGradient id="linear-gradient-22" x1="137.67" y1="57.63" x2="140.6" y2="57.63" xlink:href="#linear-gradient-5"/>
    <linearGradient id="linear-gradient-23" x1="135.8" y1="131.5" x2="138.31" y2="131.5" gradientUnits="userSpaceOnUse">
      <stop offset="0" stop-color="#532131"/>
      <stop offset="1" stop-color="#7a3349"/>
    </linearGradient>
    <linearGradient id="linear-gradient-24" x1="103.59" y1="137.02" x2="103.61" y2="137.02" xlink:href="#linear-gradient-23"/>
    <linearGradient id="linear-gradient-25" x1="103.56" y1="137.03" x2="103.56" y2="137.03" xlink:href="#linear-gradient-23"/>
    <linearGradient id="linear-gradient-26" x1="100.44" y1="137.97" x2="100.52" y2="137.97" xlink:href="#linear-gradient-23"/>
    <linearGradient id="linear-gradient-27" x1="15.2" y1="213.96" x2="293.27" y2="213.96" xlink:href="#linear-gradient-23"/>
    <linearGradient id="linear-gradient-28" x1="76.93" y1="150.11" x2="93.88" y2="150.11" xlink:href="#linear-gradient-23"/>
    <linearGradient id="linear-gradient-29" x1="93.95" y1="139.83" x2="97.42" y2="139.83" xlink:href="#linear-gradient-23"/>
    <linearGradient id="linear-gradient-30" x1="92.07" y1="139.84" x2="102.2" y2="139.84" xlink:href="#linear-gradient-23"/>
    <linearGradient id="linear-gradient-31" x1="94.4" y1="141.41" x2="94.41" y2="141.41" xlink:href="#linear-gradient-23"/>
    <linearGradient id="linear-gradient-32" x1="94.26" y1="139.79" x2="99.7" y2="139.79" xlink:href="#linear-gradient-23"/>
    <linearGradient id="linear-gradient-33" x1="95.55" y1="137.97" x2="107.07" y2="137.97" xlink:href="#linear-gradient-23"/>
    <linearGradient id="linear-gradient-34" x1="203.21" y1="171.17" x2="246.47" y2="171.17" xlink:href="#linear-gradient-23"/>
    <linearGradient id="linear-gradient-35" x1="54.02" y1="179.66" x2="92.61" y2="179.66" xlink:href="#linear-gradient-23"/>
    <linearGradient id="linear-gradient-36" x1="144.53" y1="212.61" x2="144.53" y2="330.14" xlink:href="#linear-gradient-23"/>
    <linearGradient id="linear-gradient-37" x1="47.8" y1="234.88" x2="86.17" y2="234.88" xlink:href="#linear-gradient-23"/>
    <linearGradient id="linear-gradient-38" x1="206.2" y1="225.95" x2="228.54" y2="225.95" xlink:href="#linear-gradient-23"/>
    <linearGradient id="linear-gradient-39" x1="233.12" y1="267.95" x2="247.5" y2="267.95" xlink:href="#linear-gradient-23"/>
    <linearGradient id="linear-gradient-40" x1="120.22" y1="262.39" x2="171.37" y2="262.39" gradientUnits="userSpaceOnUse">
      <stop offset="0" stop-color="#fac6ab"/>
      <stop offset="1" stop-color="#f08581"/>
    </linearGradient>
    <linearGradient id="linear-gradient-41" x1="78.85" y1="192.5" x2="211.82" y2="192.5" xlink:href="#linear-gradient-40"/>
    <linearGradient id="linear-gradient-42" x1="88.55" y1="159.08" x2="198.36" y2="159.08" xlink:href="#linear-gradient-23"/>
    <linearGradient id="linear-gradient-43" x1="110.81" y1="148.39" x2="167.17" y2="148.39" xlink:href="#linear-gradient-23"/>
    <linearGradient id="linear-gradient-44" x1="162.67" y1="157.93" x2="190.99" y2="157.93" xlink:href="#linear-gradient-23"/>
    <linearGradient id="linear-gradient-45" x1="96.5" y1="152.3" x2="163.56" y2="152.3" xlink:href="#linear-gradient-23"/>
    <linearGradient id="linear-gradient-46" x1="168.71" y1="151.56" x2="198.18" y2="151.56" xlink:href="#linear-gradient-23"/>
    <linearGradient id="linear-gradient-47" x1="137.39" y1="131.81" x2="157.89" y2="131.81" xlink:href="#linear-gradient-23"/>
    <linearGradient id="linear-gradient-48" x1="131.47" y1="183.82" x2="146.49" y2="183.82" xlink:href="#linear-gradient-23"/>
    <linearGradient id="linear-gradient-49" x1="112.08" y1="193.43" x2="129.48" y2="193.43" xlink:href="#linear-gradient-23"/>
    <linearGradient id="linear-gradient-50" x1="108.65" y1="169.31" x2="133.5" y2="169.31" xlink:href="#linear-gradient-23"/>
    <linearGradient id="linear-gradient-51" x1="160.52" y1="192.28" x2="177.92" y2="192.28" xlink:href="#linear-gradient-23"/>
    <linearGradient id="linear-gradient-52" x1="156.5" y1="168.15" x2="181.35" y2="168.15" xlink:href="#linear-gradient-23"/>
    <linearGradient id="linear-gradient-53" x1="134.95" y1="211.19" x2="158.47" y2="211.19" xlink:href="#linear-gradient-23"/>
  </defs>
  <g class="cls-35">
    <g id="Capa_1" data-name="Capa 1">
      <g>
        <circle class="cls-10" cx="148.5" cy="153.68" r="128.99"/>
        <g class="cls-62">
          <g>
            <g>
              <g>
                <path class="cls-58" d="M201.46,107.84c-2.27,0-4.6.34-6.92,1.02-4.15,1.22-8.15,3.55-11.89,6.93-3.31,2.99-6.22,6.69-8.66,10.99-.03.05-.03.11-.02.18.02.07.07.13.13.16.03.02.07.03.11.03.09,0,.18-.05.22-.14.11-.19.22-.39.33-.57.13.22.27.33.44.36.04,0,.08.01.12.01.13,0,.24-.04.37-.11.1-.05.2-.1.3-.15,1.71-.83,3.64-1.45,5.75-1.86h-.19c3.01-.53,6.01-.6,8.28-.6,1.25,0,2.51.02,3.76.05,1.24.02,2.47.05,3.7.05h.26c3.12,0,5.66-.21,7.97-.65,1.19-.23,2.23-.52,3.17-.89.9-.35,1.71-.78,2.42-1.25.9-.61,2.09-1.67,2.64-3.23.21-.59.32-1.21.31-1.86,0-.57-.11-1.18-.32-1.81-.4-1.19-1.2-2.34-2.3-3.33-1.13-1.02-2.54-1.83-4.18-2.41-.85-.3-1.75-.53-2.69-.68-.94-.15-1.95-.23-3.12-.23"/>
                <path class="cls-7" d="M157.36,65.75h-.02c-2.05,0-4.07.67-5.7,1.9-.82.61-1.55,1.41-2.17,2.36-.3.46-.56.96-.8,1.49-.22.5-.41,1.08-.57,1.75-.51,2.05-.36,4.38.45,6.91.34,1.07.82,2.14,1.47,3.3.57,1.01,1.24,2.01,2,2.96.68.85,1.47,1.68,2.35,2.47.76.68,1.56,1.3,2.53,2.02,1.91,1.41,3.94,2.7,5.91,3.94,1.54.97,3.12,1.98,4.64,3.03,2.04,1.42,3.73,2.82,5.15,4.27h0c1.27,1.3,2.39,2.77,3.29,4.32.86,1.53,1.52,3.14,1.98,4.81.03.11.15.16.24.16,0,0,.1-.02.1-.02.13-.05.18-.18.14-.34-.11-.39-.22-.77-.35-1.14h0c.34,0,.64-.27.68-.6.24-1.94.4-3.77.47-5.57.08-1.95.06-3.96-.04-5.97-.22-4.23-.86-8.28-1.93-12.05-1.16-4.09-2.84-7.7-4.99-10.76-1.12-1.59-2.42-3.05-3.86-4.33-1.43-1.29-3.06-2.4-4.85-3.31-.43-.22-.87-.43-1.33-.62-.47-.2-.98-.37-1.66-.56-.98-.27-2.01-.41-3.16-.41"/>
                <g>
                  <path class="cls-22" d="M181.33,107.71s.01-.03.02-.04c0,.01,0,.02-.01.03,0,0,0,0,0,.01Z"/>
                  <path class="cls-22" d="M181.35,107.67c.02-.05.04-.1.07-.15-.02.04-.03.08-.05.12v.03Z"/>
                  <path class="cls-22" d="M173.13,94.72c.02.05.04.1.06.15,0,0,0,0,0-.01-.02-.05-.04-.09-.06-.14Z"/>
                  <path class="cls-29" d="M204.77,114.54c-.03-.14-.16-.22-.3-.22-.02,0-.03,0-.05,0-3.93.58-7.87,1.13-11.74,2-1.05.23-2.1.48-3.14.75-1.03.28-2.06.6-3.07.94-2.02.68-3.99,1.49-5.83,2.55-.66.38-1.3.8-1.91,1.24-.66.47-1.29.97-1.89,1.51-.05.04-.08.09-.13.13.35-1.81.75-3.6,1.2-5.39.45-1.8.95-3.6,1.53-5.36.56-1.69,1.21-3.34,1.89-4.99,0-.02.02-.04.03-.06l.07-.16s0,.02-.01.04c1.14-2.69,2.43-5.3,3.89-7.83,1.5-2.6,3.18-5.1,5.01-7.49,1.24-1.61,2.55-3.17,3.93-4.66.21-.22.22-.57,0-.79-.11-.11-.25-.16-.4-.16s-.29.05-.39.16c-1.83,1.97-3.57,4.01-5.22,6.14-1.63,2.12-3.14,4.33-4.55,6.6-1.41,2.25-2.7,4.59-3.88,6.97-.32.66-.64,1.32-.94,1.99-.1-.98-.22-1.95-.38-2.91-.38-2.29-.98-4.54-1.76-6.72-.77-2.14-1.71-4.22-2.81-6.21-1.08-1.96-2.3-3.85-3.62-5.65-1.74-2.37-3.6-4.66-5.56-6.86-1.02-1.15-2.08-2.27-3.14-3.39-1.1-1.15-2.22-2.29-3.35-3.41-.05-.05-.1-.07-.16-.07-.18,0-.35.24-.18.41,1.47,1.47,2.93,2.96,4.32,4.51,1.34,1.48,2.61,3.01,3.84,4.59l-.02-.03c.72.93,1.41,1.88,2.07,2.85.66.97,1.28,1.97,1.87,2.99.59,1,1.16,2.02,1.69,3.06.52,1.03,1,2.07,1.45,3.13,0-.02-.01-.03-.02-.05.03.06.05.13.08.19v.02s0,0,0,0c.92,2.22,1.7,4.5,2.33,6.83.69,2.54,1.18,5.14,1.54,7.76.11.84.21,1.67.3,2.51-.26.64-.51,1.28-.77,1.92-1.94,4.97-3.29,10.14-4.04,15.42-.39,2.74-.63,5.48-.71,8.25-.04,1.34-.04,2.67,0,4.01.04,1.34.12,2.68.28,4.01.04.39.1.79.17,1.17.07.23.19.44.36.61.26.26.62.41.98.41.77,0,1.37-.63,1.39-1.39.03-1.5-.04-3-.04-4.49,0-1.5.03-2.99.09-4.49.12-2.87.38-5.74.74-8.58.06-.44.13-.88.2-1.32.01-.01.03-.03.04-.04.2-.23.4-.45.6-.68.38-.43.77-.85,1.17-1.26.85-.86,1.78-1.65,2.75-2.36,1.26-.9,2.59-1.69,3.95-2.41,1.5-.78,3.04-1.45,4.61-2.06,2.59-.98,5.25-1.77,7.95-2.39,2.47-.57,4.96-1.03,7.46-1.4.16-.02.25-.2.21-.35Z"/>
                </g>
              </g>
              <path class="cls-23" d="M195.91,44.11c-.26,0-.51.02-.76.06-.81.12-1.63.45-2.36.98-1.83,1.3-2.74,3.35-3.18,4.85-.75,2.54-.46,5.23-.13,7.29.24,1.51.64,3.1,1.27,5.16.42,1.37.91,2.74,1.37,4.02-.76-1.62-1.64-3.18-2.6-4.63-.52-.79-1.07-1.56-1.65-2.26-.43-.53-.96-1.13-1.67-1.89-1.43-1.5-2.92-2.81-4.45-3.91-.83-.59-1.68-1.09-2.52-1.5-.81-.4-1.67-.69-2.57-.87-.46-.07-.85-.11-1.18-.11-.44,0-.89.05-1.31.16-.74.17-1.46.51-2.14,1.02-.83.62-1.45,1.47-1.74,2.38-.27.89-.28,1.88-.02,2.96.24.99.68,2.03,1.37,3.19.64,1.09,1.43,2.21,2.42,3.42.85,1.02,1.88,2.15,3.15,3.44,2.52,2.53,5.17,4.87,7.43,6.82l1.69,1.45c1.71,1.47,3.33,2.85,4.9,4.3l.11.06.35.35.13.13c.43.41.86.83,1.27,1.27l.1.11c.07.07.13.14.2.21-.12.13-.15.3-.1.48.05.16.16.29.31.36.82.43,1.68.92,2.72,1.56.84.52,1.66,1.05,2.51,1.65,2.01,1.43,4.03,3.04,6.17,4.94,1.01.9,2.01,1.82,2.99,2.75l.15.14c.7.66,1.58,1.48,2.4,2.32l.68.7.07.07.07.07c1.27,1.28,2.58,2.61,4.03,3.74.98.76,1.9,1.33,2.81,1.75.44.21.93.39,1.45.53.5.14,1.03.22,1.63.25.09,0,.17,0,.26,0,.36,0,.75-.04,1.28-.12.59-.11,1.1-.27,1.55-.47.87-.38,1.6-.96,2.1-1.7.48-.68.77-1.53.85-2.45.09-.92-.03-1.9-.34-2.99-.23-.77-.57-1.54-1.03-2.36-.36-.64-.83-1.32-1.42-2-1.03-1.19-2.33-2.29-3.86-3.25-.99-.63-2.1-1.19-3.37-1.73.04,0,.08,0,.11,0,.36,0,.73-.02,1.09-.04,1.34-.1,2.69-.31,4.02-.65,1.11-.28,2.11-.64,2.99-1.07.37-.18.74-.38,1.13-.63.33-.21.65-.46.98-.74,1.04-.89,1.68-2.04,1.8-3.22.06-.54,0-1.1-.16-1.68-.15-.52-.42-1.05-.8-1.56-.73-1-1.82-1.84-3.17-2.44-1.42-.65-3.03-.98-4.8-.98-3.44,0-6.65,1.43-8.76,2.51.66-.5,1.4-1.21,2.32-2.23,1.64-1.83,3.08-3.71,4.26-5.59,1.52-2.42,2.48-4.63,2.93-6.76.24-1.16.29-2.32.15-3.46-.05-.47-.17-.99-.37-1.63-.18-.56-.42-1.08-.7-1.55-.5-.88-1.16-1.55-1.96-2-.35-.2-.72-.35-1.18-.46-.34-.1-.72-.15-1.18-.15h-.2c-.42.02-.86.1-1.37.24-.48.12-.99.32-1.57.63-.73.37-1.46.87-2.17,1.46-1.74,1.48-3.18,3.59-4.4,6.45-.34-4.73-1.55-8.82-3.59-12.14-.65-1.06-1.36-1.99-2.12-2.76-.38-.39-.81-.75-1.32-1.11-.4-.28-.86-.53-1.44-.77-.6-.25-1.28-.38-1.95-.38"/>
              <path class="cls-31" d="M179.26,59.12c-.18,0-.36.03-.51.09-.19.07-.35.17-.5.31-.17.16-.27.37-.35.55-.06.15-.1.31-.13.53-.04.28-.05.55-.04.85.02.32.06.64.11.96.06.41.15.82.25,1.22.2.81.53,1.62,1.01,2.5.77,1.42,1.82,2.66,2.55,3.46,1.03,1.14,2.16,2.2,3.32,3.27.38.35.76.69,1.14,1.04,1.96,1.78,3.99,3.62,5.65,5.75.07.39.13.76.19,1.13.04.12.09.22.18.3.13.13.3.2.48.2.09,0,.18-.02.25-.05.36.6.66,1.18.91,1.76.08.18.17.43.27.68.04.12.15.2.27.2.15-.03.21-.08.25-.16.03-.06.04-.14.02-.2-.32-.91-.77-1.82-1.32-2.71.03-.07.04-.15.03-.22-.34-3.02-.97-5.91-1.87-8.58-.23-.67-.46-1.22-.73-1.72-.23-.43-.5-.86-.88-1.42-.72-1.07-1.58-2.18-2.61-3.41-1-1.19-2.04-2.3-3.08-3.29-.51-.49-1.02-.94-1.52-1.33-.51-.41-.99-.75-1.45-1.03-.46-.28-.88-.46-1.27-.57-.2-.06-.41-.09-.6-.09"/>
              <path class="cls-49" d="M197.5,52.21c-.63,0-1.32.22-2.05.65-.8.46-1.43,1.27-1.93,2.47-.54,1.3-.73,2.7-.84,3.91-.14,1.44-.16,2.96-.08,4.93.07,1.64.22,3.36.47,5.43.41,3.44,1.01,6.88,1.59,10.08l.06.33.06.32-.03.09-.06.15-.15.35-.15.36.08-.09c-.08.1-.11.16-.13.21-.05.15-.05.28-.02.42.05.18.17.34.34.44.11.06.24.1.37.1.06,0,.1,0,.14-.01l.03.27c.07.43.14.87.21,1.31.02.13.16.21.28.21.26-.06.29-.23.27-.36-.05-.35-.11-.7-.17-1.05.04.04.11.05.17.05.09,0,.16-.03.22-.08.26-.23.53-.5.84-.85.03.02.08.03.12.04h.11s.11.01.11.01c.16-.01.3-.07.42-.15.38-.2.75-.46,1.1-.71l.15-.11c.7-.5,1.43-1.04,2.3-1.71,2.15-1.66,4.25-3.41,6.25-5.21,1.94-1.73,4.18-3.82,6.1-6.14.84-1.02,1.51-1.96,2.04-2.9.25-.44.43-.83.56-1.2.13-.36.26-.78.29-1.23.03-.52-.02-.91-.16-1.26-.17-.4-.43-.74-.76-1-.34-.26-.75-.44-1.29-.58-.2-.05-.42-.09-.63-.11-.23-.02-.46-.04-.68-.04-.08,0-.15,0-.23,0-.5.03-1.04.18-1.57.43-.54.26-1.06.59-1.56,1.02-1.25,1.04-2.24,2.33-2.97,3.33-.71.99-1.42,2.08-2.31,3.54-.81,1.34-1.59,2.74-2.27,3.94l-.81,1.47c-1.05,1.91-2.14,3.89-3.32,5.77-.17.28-.35.55-.54.82-.2.15-.41.3-.62.44-.32.2-.46.56-.38.92-.21.25-.43.49-.68.72l-.07.07h0s0,0,0,0c-.02,0-.03-.04-.04-.07l.05-.09c.17-.38.34-.76.48-1.15.12-.33.23-.66.33-.99.27-.84.54-1.77.85-2.92.72-2.65,1.36-5.41,1.89-8.2.3-1.55.55-3.06.74-4.49.22-1.61.36-3.01.43-4.29.07-1.38.05-2.51-.06-3.56-.1-.84-.27-1.82-.74-2.69-.39-.7-.99-1.18-1.67-1.31-.15-.03-.31-.04-.47-.04"/>
              <path class="cls-45" d="M216.54,77.08c-1.56,0-3.11.39-4.13.68-1.55.44-3.18,1.07-5.13,1.95-1.6.72-3.13,1.49-4.82,2.34l-.5.25c-1.08.54-2.19,1.11-3.32,1.57-.12.05-.22.15-.27.28-.05.14-.05.29,0,.42.09.19.27.31.49.31.07,0,.15-.01.22-.04.37-.15.73-.32,1.09-.48.11.16.3.26.5.26.03,0,.07,0,.1,0,.23-.04.46-.06.7-.07.23-.02.45-.03.68-.04l.31-.02h0s.07,0,.07-.01c0,0,.06-.01.05-.01l2.11-.07c1.73-.07,3.45-.14,5.17-.25,1.54-.1,2.93-.21,4.25-.36,1.5-.17,2.71-.35,3.81-.59.54-.11,1.07-.26,1.63-.43.46-.14.85-.3,1.21-.49.4-.21.72-.45.97-.73.23-.25.38-.57.42-.91.04-.31-.04-.68-.23-1.01-.25-.43-.6-.77-.92-1.04-.51-.43-1.06-.77-1.66-1.02-.64-.27-1.41-.43-2.28-.48-.18,0-.36-.02-.53-.02"/>
              <path class="cls-38" d="M202.1,85.31s-.08,0-.12.01c-.18.03-.35.13-.45.29-.11.15-.15.34-.12.53.03.16.13.38.29.46.05.02.09.05.14.08-.37-.07-.75-.11-1.13-.15h0c-.26,0-.46.18-.48.41-.02.24.16.46.41.48.92.11,1.83.23,2.75.35l.13.09h0c.7.54,1.38,1.08,2.07,1.62l.86.68c2.21,1.74,4.71,3.72,7.33,5.5,1.33.9,2.47,1.6,3.59,2.18.83.43,1.83.9,2.88,1.04.13.02.26.03.39.03.78,0,1.41-.31,1.75-.85.22-.35.33-.78.34-1.26,0-.61-.1-1.23-.34-1.89-.2-.55-.53-1.1-.98-1.66-.38-.48-.88-.94-1.51-1.42-.54-.41-1.15-.79-1.88-1.17-.68-.36-1.42-.69-2.25-1.02-1.42-.55-2.99-1.02-4.96-1.48-1.56-.36-3.19-.68-4.96-.96-.31-.05-.62-.1-.93-.14l-.48-.36-.09-.07c-.62-.46-1.26-.94-1.97-1.27-.08-.03-.16-.04-.24-.04"/>
              <path class="cls-46" d="M191.23,70.44c-.23,0-.46.04-.7.12-.28.08-.54.24-.78.45-.21.19-.36.46-.48.8-.12.32-.14.67-.15.91-.01.4.05.8.12,1.14.13.66.35,1.3.53,1.78.14.37.29.74.46,1.1-.31-.35-.71-.71-1.27-1.17-.76-.61-1.44-1.1-2.07-1.5-.69-.44-1.33-.75-1.95-.98-.49-.18-.96-.28-1.39-.28-.12,0-.23,0-.35.02-.28.04-.54.11-.78.23-.22.11-.45.3-.64.53-.18.22-.32.47-.44.76-.07.18-.09.41-.05.68.05.31.19.62.43.99.27.43.62.82.88,1.1.85.91,1.83,1.73,2.69,2.46l.08.07,1.02.84.14.12c.64.53,1.27,1.05,1.9,1.59.45.39.9.79,1.33,1.2.45.43.78.79,1.05,1.14l.1.13c-.56.95-.96,1.86-1.21,2.77-.24.84-.33,1.64-.27,2.38.05.65.22,1.24.52,1.76.27.48.68.89,1.19,1.17.45.25.98.38,1.58.39.6,0,1.2-.14,1.93-.45.61-.26,1.23-.67,1.94-1.29.52-.45,1.02-1.01,1.55-1.7.11.09.23.18.36.28l-.05-.12c.62.56,1.19,1.16,1.62,1.63.59.64,1.14,1.29,1.7,1.95l.1.12c.6.7,1.2,1.41,1.83,2.09.65.7,1.24,1.26,1.8,1.69.31.23.56.39.81.52.31.16.62.27.91.32.13.02.26.03.39.03.22,0,.38-.03.53-.06.17-.04.33-.11.5-.17.19-.08.37-.16.55-.28.54-.35.9-.89.99-1.48.03-.16.04-.31.04-.47,0-.13-.02-.25-.04-.38l-.02-.1c-.05-.29-.16-.61-.32-.98-.24-.58-.59-1.15-1.12-1.85-.47-.62-1.01-1.24-1.66-1.91-.13-.13-.26-.26-.4-.39-.1-.1-.21-.19-.32-.28l-.15-.14-.18-.16-.35-.31c.24.08.53.11.89.11.67,0,1.21-.11,1.64-.32.36-.18.62-.53.68-.89.06-.39-.05-.8-.32-1.24-.24-.39-.58-.77-1.07-1.18-.47-.39-1.02-.75-1.68-1.09-.64-.33-1.36-.61-2.13-.82-.41-.11-.82-.19-1.24-.27.54-.29,1.05-.68,1.58-1.15.66-.6,1.17-1.24,1.52-1.91.31-.58.47-1.17.45-1.73-.02-.27-.07-.52-.16-.73-.1-.25-.23-.46-.41-.65-.15-.16-.35-.3-.57-.41-.22-.11-.48-.18-.8-.23-.12-.01-.24-.02-.36-.02-.42,0-.89.09-1.38.27-.66.24-1.29.61-2.06,1.22l-.11.1c.22-.37.41-.8.62-1.35.34-.9.53-1.69.6-2.44.07-.79-.07-1.42-.41-1.86-.16-.21-.38-.39-.68-.54-.27-.14-.56-.23-.88-.26-.05,0-.1,0-.15,0-.19,0-.39.04-.6.1-.23.07-.46.2-.72.4-.2.16-.38.35-.57.61-.18.23-.35.51-.54.88-.29.55-.54,1.19-.79,2.05-.2.65-.37,1.4-.53,2.29-.04-.57-.16-1.13-.26-1.6-.21-.9-.43-1.69-.68-2.41-.28-.84-.58-1.51-.94-2.11-.38-.63-.81-1.09-1.29-1.37-.24-.14-.51-.23-.8-.27-.07,0-.15-.02-.23-.02"/>
              <path class="cls-63" d="M184.84,76.17c-.06.1-.07.22-.04.33.04.16.16.24.3.3.09.03.18.07.27.11-.03-.01-.07-.03-.1-.04.92.39,1.76.9,2.56,1.5,0,0,0,0,0,0,0,0,0,0,0,0,.02.01.04.03.06.04-.01,0-.02-.01-.03-.02.48.38.94.77,1.38,1.2.47.47.91.97,1.32,1.5.55.71,1.03,1.46,1.44,2.26.06.11.22.15.33.09.11-.07.14-.21.09-.32-.76-1.48-1.76-2.81-2.92-4-.59-.62-1.24-1.17-1.92-1.69-.68-.53-1.4-.98-2.15-1.4-.07-.04-.14-.06-.22-.06-.15,0-.29.07-.37.21M187.85,78.38s-.02-.01-.03-.02h0s.02.01.03.02"/>
              <path class="cls-63" d="M191,73.79c-.18.11-.24.34-.14.52.41.72.78,1.46,1.11,2.22-.01-.03-.02-.05-.03-.08.67,1.6,1.16,3.28,1.4,5,0-.02,0-.04-.01-.06.05.38.09.76.11,1.14,0,.13.1.24.24.24.12,0,.24-.11.24-.24-.2-2.99-1.06-5.93-2.39-8.61-.06-.12-.2-.19-.33-.19-.07,0-.14.02-.19.05"/>
              <path class="cls-63" d="M198.19,75.18c-.07.04-.14.13-.15.22-.06.68-.16,1.35-.3,2.02-.14.66-.33,1.31-.55,1.95,0-.01,0-.02.01-.04-.49,1.4-1.12,2.73-1.87,4.01-.07.11,0,.26.11.32.12.06.25,0,.32-.1.34-.59.66-1.19.96-1.8.32-.67.6-1.35.86-2.04.5-1.35.87-2.75,1.12-4.17.03-.18-.08-.36-.26-.4-.02,0-.04,0-.07,0-.06,0-.13.02-.18.06"/>
              <path class="cls-63" d="M202.59,79.01c-1.64,1.87-3.32,3.72-5.22,5.34.02-.01.03-.03.05-.04-.18.15-.36.3-.54.44-.05.04-.09.09-.1.15-.02.06,0,.13.03.18.07.1.23.15.33.07,1.05-.86,2.07-1.75,3.04-2.69,1-.97,1.96-1.98,2.88-3.02.12-.13.11-.33-.02-.45-.06-.06-.14-.08-.22-.08-.09,0-.18.03-.24.1"/>
              <path class="cls-63" d="M197.96,86.12s-.07.11-.06.18c0,.06.03.12.08.16.06.05.11.06.18.06.1,0,.19.01.29.02h0c2.2.14,4.41.36,6.51,1.05.16.06.32.11.48.18.08.03.16.04.24.01.08-.03.14-.08.18-.16.04-.07.04-.16.02-.24-.02-.05-.05-.1-.09-.13-.04-.04-.09-.06-.14-.07-.61-.2-1.23-.37-1.86-.51-.63-.14-1.27-.24-1.91-.32-1.24-.16-2.5-.23-3.75-.31h0c-.06,0-.12.04-.16.08M204.99,87.6s.02,0,.03,0c0,0-.02,0-.03,0"/>
              <path class="cls-63" d="M199.95,88.66c-.07.11-.02.25.08.33.51.35,1,.72,1.49,1.1h0s.01,0,.02,0c.01,0,.02.02.03.03,0,0,0,0,0,0,.69.55,1.36,1.13,1.99,1.75.63.63,1.22,1.29,1.76,2,.3.4.58.82.84,1.26.13.22.42.31.65.18.21-.12.33-.44.18-.66-.4-.6-.85-1.18-1.33-1.72-.53-.59-1.12-1.13-1.74-1.65-1.16-.97-2.4-1.84-3.64-2.7-.03-.02-.07-.04-.11-.04-.08,0-.17.05-.21.12M201.56,90.11s-.02-.02-.03-.02c0,0,0,0-.01,0,.01.01.03.02.04.03"/>
            </g>
            <g>
              <path class="cls-13" d="M136.13,68.77h0c-.18.04-.35.13-.47.26-2.19,2.24-4.1,4.77-5.52,6.73l-.96,1.33c-1.17,1.63-2.51,3.48-3.9,5.15l-.06.1c-1.84,2.12-3.72,3.85-5.74,5.29-.57.4-1.15.79-1.73,1.17l-1.2.81c-1,.68-1.99,1.37-2.97,2.07-2.17,1.54-3.8,2.81-5.29,4.09-1.68,1.46-3.22,3.01-4.55,4.63-1.38,1.67-2.57,3.5-3.54,5.43-2.23,4.42-3.45,9.69-3.62,15.65-.16,5.72.77,11.82,2.76,18.15.66,2.09,1.45,4.24,2.43,6.56.06.15.23.26.42.26.04,0,.08,0,.12-.01.4.76.92,1.57,1.54,2.4.92,1.22,2.04,2.32,3.31,3.25,1.14.84,2.45,1.52,3.89,2.03,1.72.61,3.64.92,5.69.92,1,0,2.07-.08,3.19-.23,1.45-.2,2.91-.55,4.47-1.05,1.56-.5,3.16-1.14,4.75-1.9,2.94-1.41,5.93-3.33,8.88-5.68,2.71-2.16,5.27-4.69,7.61-7.52,2.2-2.66,3.98-5.43,5.3-8.24.41-.86.74-1.63,1.02-2.37.33-.85.62-1.78.92-2.91.77-2.87,1.17-5.83,1.2-8.81.02-2.79-.31-5.66-.97-8.52-.61-2.64-1.51-5.31-2.75-8.17-1.08-2.48-2.42-4.99-4.1-7.68-.76-1.23-1.65-2.54-2.88-4.27-.37-.48-.73-.95-1.09-1.43-1.17-1.56-2.66-3.66-3.86-5.99-1.18-2.31-1.91-4.41-2.23-6.44-.19-1.23-.25-2.34-.19-3.42.03-.57.08-1.11.16-1.62,0,0-.02-.02-.03-.02"/>
              <g>
                <path class="cls-39" d="M110.45,108.9s0,.02.01.03c0,0,0-.01,0-.02,0,0,0-.01,0-.02Z"/>
                <path class="cls-39" d="M102.23,120.88s0,.01.01.02c0,0,0-.01-.01-.02,0,0,0,0,0,0Z"/>
                <path class="cls-39" d="M102.22,120.86s0,0,0,.01c0,0,0,0,0,0,0,0,0,0,0-.01Z"/>
                <polygon class="cls-39" points="135.41 102.04 135.41 102.04 135.41 102.04 135.41 102.04"/>
                <polygon class="cls-39" points="135.4 102.05 135.41 102.04 135.41 102.04 135.4 102.05"/>
                <path class="cls-53" d="M145.42,110.32s-.11-.07-.18-.07c-.06,0-.12.02-.16.06-.77.78-1.61,1.48-2.5,2.12-1.59,1.13-3.32,2.06-5.07,2.9-1.8.85-3.63,1.64-5.44,2.45-1.79.79-3.54,1.66-5.19,2.72-1.64,1.06-3.17,2.32-4.43,3.82-.54.64-1.03,1.32-1.47,2.04.02-.59.04-1.17.08-1.76.09-1.47.25-2.93.44-4.39.21-1.67.52-3.32.87-4.96.05-.04.1-.08.12-.14.56-1.26,1.3-2.44,2.16-3.52.9-1.1,1.92-2.07,3.01-2.98,1.12-.94,2.29-1.81,3.47-2.67,0,0,0,0-.01,0,.8-.58,1.61-1.15,2.41-1.72-.01,0-.02.02-.04.03.64-.46,1.27-.94,1.89-1.42.66-.5,1.3-1.02,1.93-1.56,1.18-1.02,2.26-2.14,3.18-3.4.08-.11.02-.27-.08-.33-.04-.02-.08-.03-.12-.03-.08,0-.16.04-.21.11-.13.18-.27.35-.41.53-1.22,1.49-2.71,2.75-4.27,3.88,0,0,0,0,.01,0,0,0-.01,0-.02.01h0c-.64.46-1.3.88-1.95,1.31-.67.43-1.35.86-2.03,1.29-1.39.87-2.77,1.76-4.09,2.72-1.27.93-2.47,1.99-3.51,3.17-.15.18-.3.36-.44.55,1.25-4.66,2.86-9.22,4.47-13.77.07-.21.15-.42.22-.63,0,0,0,0,0,0,.16-.04.26-.13.35-.26.27-.36.54-.73.83-1.08,0,0-.01.02-.02.02.02-.03.05-.06.07-.09h0s0,0,0,0c1.38-1.68,2.94-3.2,4.44-4.77.75-.79,1.48-1.59,2.16-2.43.71-.88,1.35-1.8,1.9-2.79.06-.11.03-.26-.08-.33-.04-.02-.08-.03-.12-.03-.08,0-.16.04-.2.11-.39.69-.83,1.34-1.32,1.95-.65.8-1.36,1.54-2.1,2.25-.75.71-1.53,1.39-2.3,2.07-.9.8-1.78,1.62-2.59,2.5,1.26-3.61,2.48-7.23,3.52-10.91.73-2.58,1.36-5.18,1.86-7.82.02-.13-.09-.25-.21-.26,0,0-.02,0-.03,0-.12,0-.21.09-.24.21-.25,1.28-.55,2.55-.88,3.81h0c-1.26,4.85-3.02,9.56-4.88,14.2-.11.28-.23.56-.34.83.06-1.37.1-2.75.04-4.13-.04-.93-.13-1.84-.28-2.76-.17-1.03-.43-2.05-.77-3.04-.04-.11-.12-.18-.23-.18-.02,0-.04,0-.05,0-.12.03-.22.16-.18.29.17.5.31,1.01.43,1.54.11.54.18,1.08.23,1.63.11,1.38.06,2.77-.02,4.16-.08,1.43-.17,2.87-.13,4.31,0,.11.03.2.1.29-1.5,3.69-3.02,7.38-4.44,11.1-.47,1.22-.92,2.45-1.35,3.68-.12-.28-.24-.56-.35-.84-.36-1.02-.62-2.07-.81-3.13-.2-1.11-.32-2.24-.42-3.37-.15-1.77-.24-3.54-.47-5.3-.11-.88-.27-1.76-.49-2.63-.22-.88-.51-1.74-.86-2.58-.04-.08-.13-.13-.21-.13-.04,0-.08,0-.11.03-.12.07-.15.2-.1.32.08.18.15.36.22.54.47,1.31.71,2.69.84,4.08v-.02s0,.05,0,.08c0-.02,0-.04,0-.06,0,.02,0,.05,0,.07.11,1.27.14,2.55.16,3.83.02,1.31.02,2.62.1,3.92.08,1.28.24,2.56.56,3.81.16.62.38,1.23.63,1.83.2.46.45.9.72,1.32-.17.52-.36,1.04-.52,1.57-.74,2.42-1.43,4.86-1.91,7.34-.23,1.16-.42,2.32-.57,3.49-1.34-2.04-2.38-4.27-3.24-6.55-1.68-4.55-2.86-9.33-5.35-13.52-.05-.08-.13-.13-.21-.13-.04,0-.07,0-.11.03-.11.06-.16.21-.1.32.71,1.21,1.29,2.48,1.78,3.8,0,0,0,.02,0,.02,0,0,0-.01,0-.02,0,.01,0,.02.01.03,0,0,0,.02,0,.03,0,0,0,0,0,0,.59,1.63,1.03,3.3,1.45,4.97.44,1.74.84,3.49,1.35,5.21.51,1.72,1.11,3.41,1.96,5,.43.81.93,1.57,1.48,2.31.23.31.48.6.73.88-.04.48-.07.96-.09,1.45-.08,2.44.04,4.89.41,7.31-.4-.04-.81-.08-1.21-.15-1.02-.2-2-.5-2.94-.94-.74-.38-1.44-.82-2.09-1.35-1.02-.88-1.87-1.92-2.65-3.02-1.25-1.8-2.28-3.73-3.37-5.62-1.13-1.93-2.32-3.85-3.78-5.56-.05-.05-.11-.08-.18-.08-.06,0-.12.02-.17.06-.1.09-.1.24-.01.34.3.36.59.73.87,1.11,0,0,0,0,0,0,0,0,0,.01.01.02,0,0,0,0,0,0,0,0,.01.02.02.03,0,0,0,0,0-.01,2.01,2.89,3.1,6.29,4.73,9.39.39.75.8,1.49,1.27,2.19.48.72,1,1.41,1.58,2.05.58.64,1.24,1.22,1.94,1.73.74.53,1.56.95,2.41,1.27.69.26,1.4.41,2.12.54.62.11,1.24.15,1.87.15.19.82.4,1.64.64,2.44.2.66.43,1.31.7,1.95.29.72.66,1.39,1.06,2.05.15.19.34.34.56.43.33.13.7.13,1.03,0,.57-.24.89-.83.82-1.44-.17-1.27-.47-2.53-.72-3.78-.26-1.27-.5-2.55-.7-3.84-.31-2.06-.51-4.13-.58-6.21.03-.03.07-.06.09-.1.36-.76.74-1.51,1.17-2.23.41-.67.86-1.31,1.35-1.92.55-.67,1.14-1.29,1.78-1.88.66-.61,1.36-1.17,2.09-1.69,1.39-.99,2.86-1.87,4.35-2.71.79-.44,1.59-.88,2.4-1.31.81-.42,1.63-.84,2.43-1.27,3.14-1.68,6.26-3.52,8.78-6.06.09-.09.1-.24,0-.33Z"/>
              </g>
            </g>
            <g>
              <path class="cls-47" d="M112.02,144.52s-.06.01-.06.01h0c-.47.06-.97.17-1.54.34-.98.29-1.89.77-2.57,1.15-.77.44-1.52.94-2.24,1.42-.81.54-1.65,1.1-2.52,1.57-.75.39-1.48.68-2.21.86-.2.04-.39.08-.59.1-.37.05-.75.07-1.13.06-.34-.02-.68-.06-1.02-.12-.31-.05-.61-.14-.91-.22l-.14-.04-.13-.03h0c-.07-.03-.15-.04-.22-.03-.14.02-.25.1-.3.23-.04.1-.05.2-.01.3.04.11.11.17.21.23,1.08.63,2.11,1.12,3.16,1.51.97.36,2.02.63,3.12.79,1.71.27,3.64.26,5.9-.01l.37-.05c1.27-.17,2.55-.41,3.79-.64.58-.11,1.16-.22,1.74-.32.65-.11,1.31-.22,1.97-.3,1.6-.21,3.02-.3,4.35-.26.75.02,1.59.09,2.43.22.11.1.31.15.49.14h0c.2-.03.36-.12.47-.25.12-.15.18-.33.16-.52-.02-.17-.1-.32-.25-.47-2.7-2.62-6.37-5.64-10.81-5.73-.5-.02-1.01,0-1.51.07"/>
              <path class="cls-14" d="M84.38,51.87c-.58.9-1.07,1.87-1.54,2.81-.17.34-.34.69-.52,1.02-.44.86-.93,1.74-1.5,2.67-1.09,1.82-2.3,3.58-3.45,5.22-.5.7-.99,1.4-1.49,2.1-1.9,2.66-3.86,5.42-5.52,8.31-1.1,1.95-1.96,3.76-2.62,5.55-.7,1.88-1.16,3.86-1.38,5.87-.22,2.08-.11,4.21.33,6.32.22,1.05.54,2.14,1,3.45.43,1.2.89,2.28,1.4,3.31.97,1.93,2.2,3.76,3.66,5.43,1.23,1.41,2.73,2.79,4.6,4.22,2.65,2.04,5.55,3.8,8.37,5.51.85.52,1.7,1.03,2.54,1.55,1.13.7,2.13,1.34,3.05,1.96l.07.08c.42.19.85.39,1.27.58.03-.02.06-.04.09-.07.13-.12.22-.3.23-.49,0-.21-.08-.36-.18-.52l-.07-.1c-1.14-1.66-2.22-3.3-2.91-5.16-.21-.62-.37-1.2-.48-1.77-.12-.56-.2-1.17-.25-1.91-.09-1.64.04-3.42.4-5.43l.02-.13c.31-1.59.72-3.18,1.12-4.72.22-.85.43-1.69.64-2.54.32-1.35.57-2.6.74-3.8.2-1.42.27-2.86.21-4.31-.06-1.27-.23-2.58-.53-3.89-.31-1.35-.75-2.65-1.12-3.63-.66-1.8-1.47-3.58-2.25-5.29-.31-.68-.62-1.35-.91-2.03-.44-1-.9-2.07-1.3-3.19-.75-2.15-1.23-4.37-1.41-6.55l-.02-.12h0c-.16-2.57.03-5.39.62-8.57,0,0,0-.01,0-.02h0s.01,0,.01,0c0-.02,0-.03,0-.03,0,0,0-.04,0-.04.07-.28.13-.56.2-.85l.06-.25c.03-.12.04-.22.02-.33-.04-.17-.14-.32-.29-.41-.13-.08-.28-.12-.44-.1-.19.02-.36.13-.46.29"/>
              <path class="cls-26" d="M111.99,80.43c-.19.03-.35.15-.4.33-.3.91-.56,1.87-.81,2.95-.2.88-.37,1.77-.54,2.66l-.09.5.06-.11c-.55,2.64-1.04,4.82-2.04,6.9-.5,1-1.14,1.98-2.01,3.09-.47.61-.97,1.2-1.47,1.79l-.23.28c-.23.27-.46.54-.68.82-.93,1.13-1.61,2.1-2.16,3.06-.64,1.11-1.16,2.41-1.56,3.87-.35,1.27-.53,2.61-.56,3.99-.03,1.2.1,2.5.37,3.85.47,2.3,1.42,4.71,2.9,7.35,1.51,2.69,3.33,5.17,5.06,7.45-1.18-.76-2.48-1.44-3.85-2.04-1.19-.51-2.41-.92-3.64-1.23-.95-.24-1.95-.36-2.99-.36-.6,0-1.24.04-1.91.13-1.25.16-2.59.48-4.09.98-1.74.58-3.46,1.31-5.12,2.02-1.39.6-2.9,1.25-4.41,1.79l-.09.04c-1.55.52-2.82.84-3.98,1-.2.03-.39.05-.59.07-.85.05-1.6.01-2.3-.11-.34-.07-.67-.15-1.02-.26-.22-.07-.44-.16-.66-.26l-.36-.15c-.17-.09-.34-.19-.51-.29-.12-.07-.26-.1-.39-.08-.12.02-.23.07-.31.14-.23.21-.25.57-.04.82,1.77,2.04,3.21,3.52,4.67,4.8,1.52,1.34,3,2.36,4.51,3.12.75.38,1.54.71,2.33.96.73.24,1.52.42,2.42.56,1.55.23,3.23.23,5.11-.02l.16-.02c1.16-.16,2.37-.41,3.7-.76.92-.25,1.84-.54,2.73-.83l.23-.07c.45-.14.89-.29,1.33-.43,2.84-.89,5.45-1.48,7.98-1.81.6-.08,1.21-.14,1.81-.19,2.36-.16,4.41-.07,6.31.28l.22.05.13.13.14.14c.15.16.38.24.61.21.14-.02.27-.08.37-.17.1.02.15.02.2,0,.13-.02.23-.1.27-.22.03-.08.02-.18-.03-.27-.04-.08-.11-.13-.19-.15-.09-.17-.14-.26-.22-.34-1.76-1.94-3.67-3.71-5.68-5.27-.54-.42-1.1-.82-1.67-1.21.06-.06.08-.17.04-.28.03-.02.16-.13.19-.28.18-.78.39-1.48.62-2.15.23-.65.51-1.33.88-2.08.85-1.71,1.93-3.4,2.87-4.88l.7-1.1c1.21-1.92,2.46-4.01,3.34-6.33.46-1.2.81-2.52,1.09-4.06.22-1.25.32-2.58.3-3.96-.04-2.25-.44-4.68-1.25-7.43-.61-2.07-1.37-4.1-2.11-6.07l-.03-.09c-.42-1.12-.84-2.24-1.23-3.37-.4-1.16-.75-2.26-1.05-3.36-.16-.57-.3-1.15-.44-1.72-.08-.33-.15-.66-.22-.98l-.05-.25-.15-.7c-.04-.21-.23-.37-.45-.39h-.09Z"/>
              <path class="cls-2" d="M128.51,158.83c-.47-1.59-1.01-3.16-1.61-4.71-1.19-3.1-2.65-6.1-4.25-9.01-.8-1.46-1.63-2.92-2.53-4.33-.79-1.23-1.64-2.43-2.55-3.58-1.78-2.27-3.78-4.36-5.88-6.34-.58-.54-1.18-1.06-1.77-1.59-.13-.31-.27-.62-.39-.94-.28-.68-.53-1.36-.75-2.06-.41-1.27-.75-2.57-.99-3.88-.05-.29-.08-.58-.12-.87.75-.68,1.45-1.41,2.11-2.17.37-.43.71-.88,1.06-1.33.39-.52.77-1.05,1.12-1.6.33-.5.64-1.01.94-1.52.3-.51.57-1.04.84-1.56.52-1.04.98-2.11,1.37-3.2.04-.12-.05-.26-.17-.29-.03,0-.06,0-.09,0-.09.01-.17.08-.2.17-.15.42-.31.84-.49,1.25-.43,1.01-.93,2-1.49,2.95-.3.51-.62,1.02-.95,1.52-.32.48-.67.95-1.02,1.41-.59.76-1.22,1.48-1.89,2.17-.41.42-.85.82-1.29,1.21-.19-1.93-.19-3.88-.03-5.8,0,.01,0,.02,0,.03.08-.9.21-1.79.35-2.68.28-.26.57-.53.84-.8.43-.42.84-.86,1.23-1.32.38-.43.73-.88,1.07-1.34.36-.48.7-.98,1.03-1.49,1.25-1.96,2.18-4.13,2.77-6.38.03-.12-.04-.26-.17-.29-.03,0-.06,0-.09,0-.09.01-.17.08-.2.17-.27,1.01-.6,2-1,2.96-.37.87-.79,1.71-1.26,2.53-.5.87-1.07,1.7-1.68,2.5,0,0,.01-.01.02-.02-.73.93-1.54,1.8-2.42,2.58.16-.91.34-1.81.53-2.72.23-1.09.47-2.18.73-3.27.26-1.1.53-2.19.79-3.29.17-.73.34-1.46.52-2.19.01,0,.03,0,.04-.02.67-.85,1.32-1.72,1.88-2.64.59-.97,1.06-2,1.39-3.09.04-.12-.04-.26-.17-.29-.03,0-.06,0-.09,0-.09.01-.18.08-.2.17-.12.39-.25.78-.41,1.16,0,0,0,0,0,0,0,0,0,.01,0,.02,0,.01-.01.03-.01.04,0,0,0,0,0,0-.14.32-.29.64-.45.95-.17.32-.36.64-.55.96-.36.59-.77,1.15-1.18,1.7.26-1.13.51-2.27.73-3.41.43-2.24.71-4.52.79-6.81.03-.84.03-1.69.01-2.54,0-.16-.14-.23-.27-.22-.11.01-.21.1-.21.24.03,1.16-.01,2.31-.11,3.45,0,0,0,0,0,0,0,.01,0,.03,0,.04,0,0,0,.02,0,.03,0,0,0,0,0,0-.21,2.27-.64,4.51-1.17,6.72-.19.78-.41,1.54-.62,2.31-.13-.35-.27-.7-.38-1.06-.16-.55-.27-1.11-.34-1.68-.01-.11-.02-.22-.04-.33,0-.06-.02-.12-.07-.17-.04-.04-.11-.07-.17-.07-.01,0-.02,0-.04,0-.05,0-.1.03-.13.07-.04.04-.08.11-.07.17.03.31.07.62.13.93.06.4.17.8.27,1.2.16.58.38,1.15.62,1.7-.34,1.17-.7,2.33-1.07,3.48-.68,2.13-1.38,4.27-1.96,6.43-.11.42-.22.84-.32,1.26-.07-.13-.14-.25-.21-.38-.17-.33-.33-.67-.47-1.02,0,0,0,0,0,0-.32-.78-.59-1.58-.8-2.41-.21-.81-.36-1.63-.47-2.46-.05-.44-.1-.88-.13-1.33-.01-.13-.1-.24-.24-.24,0,0-.02,0-.03,0-.11.01-.22.12-.21.24.05.69.13,1.39.23,2.08.11.78.28,1.56.48,2.33.19.71.43,1.4.71,2.08.27.64.59,1.24.96,1.82-.34,1.47-.62,2.95-.82,4.44-.17,1.26-.26,2.53-.26,3.81,0,.26.02.52.03.78-.04-.05-.09-.1-.14-.16.01.01.03.03.04.05-.4-.51-.75-1.06-1.07-1.62-.33-.56-.6-1.15-.86-1.75-.57-1.37-1-2.78-1.36-4.22-.03-.12-.15-.19-.26-.17,0,0-.02,0-.03,0-.13.04-.2.17-.17.29.21.82.43,1.62.69,2.42.27.84.59,1.66.96,2.46.38.82.82,1.61,1.34,2.35.27.39.57.76.89,1.11.05.77.13,1.54.26,2.29.16.98.39,1.94.68,2.88-1.88-1.5-3.79-2.96-5.7-4.43-1.93-1.48-3.84-2.99-5.72-4.52-.98-.8-1.95-1.61-2.91-2.44-.93-.81-1.86-1.63-2.74-2.5-1.67-1.68-3.15-3.52-4.46-5.5,1.15-1.88,1.74-4.05,2.19-6.19.49-2.35.74-4.75.89-7.14,0-.13-.12-.23-.25-.23,0,0-.01,0-.02,0-.13.02-.2.12-.2.25-.04.57-.08,1.14-.13,1.71,0-.02,0-.04,0-.06-.12,1.29-.29,2.58-.53,3.86-.24,1.33-.59,2.63-1.04,3.9-.4,1.07-.89,2.1-1.42,3.1-.11-.18-.23-.34-.33-.52-1-1.7-1.88-3.46-2.64-5.28-.75-1.78-1.37-3.62-1.88-5.48,0,.01,0,.02,0,.03-.01-.04-.02-.08-.03-.12,0,0,0-.01,0-.02h0c-.03-.1-.05-.21-.08-.32.11,0,.22-.04.3-.12.96-1,1.76-2.13,2.45-3.32.71-1.22,1.27-2.52,1.78-3.83,1-2.6,1.75-5.27,2.48-7.95.03-.12-.06-.26-.18-.29-.03,0-.05,0-.08,0-.1.01-.18.09-.21.19-.54,1.95-1.1,3.91-1.79,5.82,0,0,0-.02,0-.02-.91,2.47-2.07,4.84-3.58,7-.43.6-.89,1.17-1.38,1.74-.76-3.13-1.22-6.35-1.24-9.57,0-1.35.11-2.7.28-4.03.08-.01.16-.05.22-.11.61-.61,1.15-1.28,1.65-1.98.53-.74.99-1.52,1.43-2.31.45-.81.84-1.65,1.23-2.49.39-.83.75-1.67,1.12-2.51.05-.12.02-.26-.1-.32-.04-.02-.1-.03-.14-.02-.08.01-.15.05-.18.12-.5,1.14-1.04,2.26-1.64,3.34-.61,1.09-1.27,2.15-1.99,3.16-.3.41-.6.83-.92,1.23-.16.2-.33.39-.49.59.33-2.03.79-4.05,1.34-6.04,0,0,0,0,0,.02,1.21-4.37,2.67-8.68,3.51-13.14.03-.18-.12-.28-.26-.26-.09.01-.18.07-.2.19-.31,1.62-.69,3.21-1.13,4.8h0c-.78,2.79-1.7,5.55-2.53,8.34-.6,2.03-1.12,4.07-1.5,6.15-.06-.11-.13-.23-.19-.34-.2-.39-.39-.79-.56-1.2-.36-.85-.66-1.73-.91-2.62-.25-.9-.43-1.83-.56-2.76-.03-.19-.05-.39-.07-.58,0-.07-.02-.12-.07-.17-.04-.04-.11-.07-.17-.07,0,0-.02,0-.02,0-.11.01-.22.12-.21.24.08.67.18,1.34.3,2.01.14.77.33,1.52.55,2.27.21.72.47,1.42.76,2.1.3.67.63,1.33,1.03,1.95-.08.48-.16.96-.21,1.45-.17,1.5-.24,3.01-.21,4.51.03,1.48.19,2.96.39,4.43.19,1.37.44,2.73.75,4.08-.4-.34-.79-.67-1.16-1.04-.51-.51-.97-1.05-1.42-1.61-1.19-1.54-2.14-3.25-2.92-5.04,0,0,0,.02,0,.02-.86-2.01-1.5-4.11-1.88-6.25-.02-.12-.15-.18-.26-.17-.01,0-.02,0-.03,0-.06.02-.11.06-.14.11-.03.06-.03.12-.02.19.5,2.83,1.37,5.59,2.63,8.17.63,1.29,1.38,2.53,2.27,3.65.45.57.93,1.11,1.46,1.61.26.25.53.47.82.69.26.2.54.39.82.57.01,0,.03,0,.04,0,.3,1.21.64,2.42,1.02,3.6.92,2.85,2.09,5.59,3.54,8.2.12.21.24.41.36.62-1.29-.6-2.5-1.34-3.64-2.19,0,0,0,0,.02.01-.01-.01-.03-.02-.04-.03,0,0-.01,0-.02-.01,0,0,0,0,0,0,0,0,0,0-.01,0-1.96-1.52-3.66-3.33-5.19-5.27-1.74-2.25-3.24-4.7-4.37-7.31,0,.02.02.04.02.06-.04-.11-.09-.22-.14-.32-.03-.06-.05-.11-.11-.14-.04-.02-.09-.03-.15-.03-.01,0-.02,0-.04,0-.11.03-.21.17-.16.29.68,1.63,1.48,3.19,2.39,4.7.5.83,1.03,1.64,1.59,2.43.58.82,1.2,1.63,1.84,2.4,1.27,1.51,2.7,2.91,4.27,4.11.72.55,1.48,1.06,2.27,1.49.4.22.81.42,1.24.59.19.07.39.15.58.22.09.03.19.06.29.09,1.2,1.94,2.54,3.79,4.08,5.47,1.97,2.16,4.1,4.17,6.3,6.09,2.12,1.85,4.34,3.59,6.54,5.35,2.81,2.25,5.61,4.52,8.26,6.96-.52-.18-1.04-.35-1.57-.49,0,0,0-.02,0-.03-.02-.08-.07-.12-.14-.17-.63-.46-1.3-.88-1.98-1.27-.71-.41-1.45-.77-2.21-1.1-.68-.29-1.39-.54-2.09-.74-.8-.23-1.62-.39-2.45-.51-.04,0-.07,0-.1,0-.03,0-.06.01-.08.03-.05.03-.09.08-.11.14-.03.12.04.27.17.29,1.33.19,2.62.56,3.87,1.07,0,0-.01,0-.02,0,.8.33,1.57.71,2.33,1.12.48.26.94.55,1.4.84-.73-.15-1.47-.29-2.21-.38-1.15-.14-2.32-.21-3.48-.17-1.06.03-2.11.16-3.15.34-.02-.04-.03-.07-.06-.1-.04-.04-.08-.06-.14-.08-.63-.25-1.27-.44-1.93-.59-.62-.14-1.25-.22-1.87-.28-1.39-.14-2.79-.13-4.18-.13,0,0-.02,0-.03,0-.12.02-.21.12-.21.24,0,.13.11.23.24.23,1.4,0,2.79,0,4.18.17,1.04.13,2.06.36,3.04.72-1.18.25-2.34.56-3.49.91-1.27.38-2.54.79-3.82,1.16-1.1.32-2.21.6-3.34.81-.01-.01-.02-.03-.03-.04-.67-.34-1.37-.62-2.08-.86-.74-.26-1.51-.45-2.28-.63-.03,0-.06,0-.09,0-.09.01-.18.08-.2.18-.03.12.04.26.17.29.55.13,1.09.26,1.63.42.52.16,1.03.33,1.54.53.19.08.37.17.56.25-.56.08-1.12.15-1.68.19.02,0,.04,0,.07,0-1.27.07-2.53-.02-3.77-.27-.99-.22-1.94-.54-2.87-.95-.03-.02-.07-.02-.1-.02-.09.01-.17.08-.2.16-.05.13.03.25.14.3.94.43,1.91.75,2.92.98.9.2,1.82.3,2.74.32.71.02,1.42-.02,2.12-.09-.75.43-1.51.85-2.3,1.2.02,0,.04-.02.06-.02-.48.21-.96.39-1.45.56-.13.04-.2.16-.16.29.03.12.17.2.29.16.78-.27,1.54-.59,2.28-.95.82-.4,1.61-.87,2.4-1.35.01,0,.01-.02.02-.03.74-.11,1.47-.24,2.19-.41,1.86-.42,3.68-.97,5.52-1.45.81-.21,1.62-.4,2.44-.57-.71.41-1.39.87-2.04,1.37-1.55,1.19-2.98,2.53-4.48,3.79-.1.08-.08.25,0,.34.05.04.11.07.17.07.07,0,.12-.03.17-.07,1.15-.96,2.27-1.95,3.44-2.89,0,0,0,0,0,0,.7-.55,1.42-1.07,2.17-1.55.74-.47,1.52-.89,2.33-1.25.12-.05.25-.09.37-.14.36-.04.73-.08,1.09-.11,1.93-.1,3.86.06,5.75.43,1,.21,1.98.48,2.95.8-1.03.34-2.06.7-3.06,1.1-1.58.63-3.11,1.36-4.57,2.22-.11.06-.15.21-.08.32.07.11.21.14.32.08.94-.55,1.91-1.04,2.91-1.49,0,0,0,0-.01,0,1.74-.76,3.54-1.35,5.34-1.93.61.23,1.21.48,1.8.76,1.03.52,2,1.15,2.92,1.84.72.8,1.42,1.61,2.1,2.45,1.37,1.7,2.61,3.5,3.73,5.38.83,1.43,1.61,2.9,2.34,4.39-.76-.22-1.55-.38-2.33-.47-.22-.03-.45-.02-.68-.04-.02-.06-.05-.11-.11-.13-.88-.44-1.78-.86-2.71-1.2-.45-.17-.91-.3-1.38-.41-.49-.12-1-.19-1.5-.23-.01,0-.02,0-.04,0-.05,0-.1.04-.13.07-.05.04-.07.11-.07.17,0,.06.03.12.07.17.05.04.11.06.17.07.1,0,.21.02.31.03.52.07,1.03.17,1.53.31.51.14,1,.32,1.48.51.47.19.93.42,1.38.64-.31,0-.62.01-.93.03-.47.03-.94.08-1.41.14-.43.06-.87.12-1.3.2-.64.11-1.28.26-1.91.41-.03-.03-.05-.06-.09-.07-.67-.15-1.35-.29-2.03-.38-.65-.09-1.3-.12-1.96-.09,0,0-.01,0-.02,0-.12.02-.21.11-.21.24,0,.13.11.24.24.23.29,0,.57,0,.86,0,.29,0,.57.04.86.07-.02,0-.04,0-.07-.01.49.06.98.15,1.46.24-.82.21-1.63.43-2.44.65-1.71.48-3.43.99-5.16,1.38-.13.03-.21.15-.19.28.02.12.15.22.28.19,1.88-.41,3.74-.91,5.62-1.34.59-.14,1.19-.26,1.78-.38-.71.41-1.42.81-2.17,1.14-.35.15-.71.29-1.08.41-.44.14-.9.24-1.35.31-.06,0-.11.06-.14.11-.03.05-.04.12-.02.18.01.06.06.11.11.14.06.04.12.03.18.02.23-.03.46-.08.69-.13.28-.06.56-.15.83-.24.46-.15.9-.34,1.33-.54.94-.43,1.83-.98,2.72-1.51.05-.03.07-.07.09-.12.9-.15,1.81-.26,2.73-.32.81-.04,1.62-.03,2.43.03-.24.17-.47.35-.71.51-.47.31-.97.58-1.48.81-.05.03-.09.09-.1.14-.02.06,0,.13.02.18.03.06.09.09.14.11.07.02.12,0,.18-.03.46-.21.9-.45,1.34-.72.46-.29.89-.61,1.32-.94.44.05.88.11,1.32.2.52.11,1.03.25,1.54.42.54.18,1.07.41,1.59.65.05.02.09.05.14.07.5,1.1.98,2.21,1.43,3.34.69,1.72,1.31,3.47,1.88,5.23.29.89.56,1.79.82,2.69.28.98.54,1.96.83,2.94.1.23.25.43.45.58.3.23.68.34,1.06.29.75-.1,1.38-.84,1.24-1.61-.32-1.72-.8-3.43-1.3-5.1Z"/>
            </g>
            <g>
              <path class="cls-40" d="M187.21,138.1c-.04-2.52-.28-5.03-.7-7.45-.11-.65-.25-1.25-.44-1.82-.25-.79-.57-1.54-.79-2.04-.57-1.35-1.23-2.59-1.96-3.7-.91-1.4-1.79-2.38-2.78-3.09-.27-.19-.82-.54-1.5-.66-.19-.04-.38-.06-.57-.06-.08,0-.16,0-.24.02-.18.02-.36.04-.53.1-.17.05-.34.13-.5.2-.27.12-.51.32-.73.51l-.09.08c.04-.36.03-.75.01-1.12-.07-1.5-.26-3.44-1.06-5.16-.15-.32-.33-.61-.54-.87-.13-.17-.26-.33-.4-.47-.16-.16-.35-.3-.53-.43-.26-.18-.58-.34-.98-.46-.31-.1-.66-.15-1-.15-.11,0-.23,0-.35.02-1.91.19-3.17,1.76-3.88,3.04l.03-.27-.03-.29c-.17-1.59-.44-3.68-1.06-5.67-.64-2.04-1.49-3.46-2.6-4.36-.67-.54-1.47-.92-2.38-1.11-.33-.07-.64-.1-.93-.1-.54,0-1.06.11-1.52.32-1.32.6-2.14,2.03-2.44,4.27l-.02.17c-.41-.9-.91-1.86-1.52-2.93-1.08-1.92-2.07-3.4-3.12-4.67-1.45-1.77-2.9-2.86-4.42-3.3-.41-.12-.84-.18-1.28-.18s-.92.07-1.35.2c-.9.26-1.79.83-2.65,1.69-.62.62-1.14,1.4-1.52,2.24-.38.86-.61,1.82-.72,2.94-.08.86-.03,1.78.14,2.98.13.92.36,1.9.7,2.99.57,1.85,1.41,3.76,2.54,5.84.46.85.96,1.69,1.48,2.5-.28-.11-.61-.19-1.04-.26-.5-.08-.99-.13-1.45-.14h-.19c-.35,0-.72.03-1.2.09-1.49.21-2.73,1.03-3.29,2.2-.76,1.55-.28,3.22.07,4.08.53,1.29,1.41,2.55,2.64,3.74-.08-.06-.17-.06-.27-.06-.33,0-.68.03-1.16.1-.44.06-.89.2-1.46.44-.87.37-1.63,1.04-2.15,1.89-.24.39-.4.86-.51,1.2-.11.32-.19.67-.25,1.08-.11.74-.09,1.49.04,2.27.11.63.34,1.27.72,2.02.58,1.18,1.51,2.32,2.83,3.48,1.14,1.01,2.51,1.94,4.18,2.86.93.51,1.89.98,2.91,1.43.48.43.99.84,1.48,1.26,1.3,1.07,2.67,2.14,4.19,3.26,3.11,2.3,6.06,4.14,9.01,5.66,1.52.78,3.14,1.5,4.83,2.15,1.47.56,3,1.01,4.54,1.33,1.46.3,2.84.44,4.12.44.14,0,.27,0,.41,0,1.52-.04,2.92-.29,4.16-.73.14-.05.28-.1.42-.16h0s-.04-.18-.04-.18c-.14-.55-.29-1.07-.44-1.6-.19-.63-.38-1.26-.58-1.89l2.76-1.2c.19.6.37,1.21.54,1.82l.09.32c.11.4.22.81.35,1.2.25-.17.47-.35.7-.55.49-.44.95-.94,1.41-1.53.55-.71,1-1.4,1.37-2.1.9-1.68,1.53-3.61,1.94-5.91.41-2.35.59-4.89.54-7.76Z"/>
              <path class="cls-53" d="M145.24,100.95c-.05,0-.1.01-.16.04-.16.08-.22.28-.14.46,1.69,3.51,3.83,7.05,6.53,10.83.63.87,1.26,1.72,1.91,2.56l-.5-.35-1.08-.7-.6-.39-.61-.4c-1.06-.7-1.86-1.25-2.6-1.81-.83-.64-1.54-1.24-2.18-1.84-.43-.4-.85-.83-1.25-1.28-.28-.32-.55-.64-.81-.97l-.1-.13-.1-.13c-.05-.07-.13-.11-.21-.11-.04,0-.07,0-.11.03-.06.03-.1.09-.12.16-.01.04-.01.09,0,.13l.3.39c.18.23.37.46.56.69.16.2.33.39.5.58.43.51.92,1.02,1.6,1.67.56.55,1.17,1.1,1.87,1.69.48.4,1.01.83,1.58,1.28.51.4,1.04.8,1.59,1.21.4.29.81.59,1.23.9.27.2.56.4.85.6l.58.4.26.18.14.09.29.2.63.43.33.23.13.09.1.07.22.27c.96,1.17,1.89,2.3,2.83,3.41l.13.16.16.19.13.15.96,1.14c.74.89,1.49,1.8,2.22,2.71l.21.26c.2.24.4.49.59.73-.45-.21-.98-.4-1.55-.59-.65-.21-1.36-.39-2.14-.56l-.46-.09c-.94-.18-1.88-.33-2.82-.48-.43-.07-.86-.13-1.29-.19l-.37-.06-1.03-.15c-.94-.14-1.89-.3-2.82-.48-.98-.19-1.87-.39-2.73-.63-.93-.26-1.77-.55-2.57-.87-.65-.28-1.28-.59-1.88-.92-.4-.23-.79-.46-1.15-.7-.03-.02-.07-.03-.11-.03-.1,0-.17.05-.21.12-.08.12-.01.25.08.32l.47.31c.31.2.63.39.95.57.31.18.64.35.96.51.41.2.85.4,1.33.6.35.14.7.27,1.08.41,1.79.64,3.62,1.07,5.34,1.44l1.32.29,1.32.28c.66.14,1.21.26,1.73.39.36.09.7.17,1.05.26,1.72.45,3.43,1.01,5.06,1.67.87.36,1.71.77,2.51,1.24l.12.17c2.24,3.1,4.3,6.38,6.11,9.77,1.71,3.18,3.22,6.5,4.51,9.87.8,2.12,1.52,4.29,2.16,6.46.16.53.3,1.06.44,1.6l.04.17c.49,1.79.94,3.65,1.33,5.25.15.63.73,1.09,1.38,1.09.11,0,.22-.01.32-.04.36-.09.68-.32.88-.63.19-.3.25-.66.18-1.07-.36-1.95-.81-3.95-1.4-6.14-.12-.4-.24-.8-.35-1.2l-.09-.32c-.72-2.52-1.56-4.98-2.54-7.52-.51-1.3-1.07-2.67-1.69-4.06l-.16-.36c.25-.03.47-.18.59-.4,1.33-2.41,2.05-5.38,2.16-8.84.02-.7.03-1.4.03-2.1,0-.76-.01-1.52-.04-2.29-.03-.94-.03-1.65-.01-2.3.02-.71.08-1.49.18-2.32,0-.05,0-.1-.05-.15-.05-.05-.12-.08-.18-.08-.13,0-.22.09-.24.24-.16,1.3-.28,2.61-.38,3.88l-.07.9c-.02.26-.04.51-.06.76l-.02.38-.07.84-.03.46v.1c-.04.43-.07.82-.11,1.17-.03.26-.06.51-.1.74l-.04.29c-.11.99-.25,1.83-.44,2.67-.21.91-.48,1.76-.8,2.55-.13.3-.27.6-.42.9-.14.27-.29.55-.46.83l-.17.3c-1.3-2.66-2.77-5.21-4.35-7.58l-.09-.13c.19-1.08.3-2.08.36-3.13.08-1.39.03-2.79-.03-3.97l-.07-1.34c-.06-.91-.11-1.76-.13-2.62-.04-1.37.02-2.71.16-3.89.14-1.03.34-2,.6-2.88.01-.05,0-.11-.01-.15-.08-.1-.13-.13-.21-.14h0c-.1,0-.2.07-.23.17-.19.64-.35,1.28-.48,1.97-.16.78-.26,1.6-.31,2.04-.13,1.13-.22,2.29-.29,4.14-.04.84-.06,1.67-.08,2.5-.03,1.37-.07,3.04-.23,4.7-.03.37-.07.72-.11,1.07-.19-.3-.41-.59-.64-.89-.92-1.24-1.89-2.46-2.97-3.75-1.16-1.39-2.36-2.65-3.59-3.93,0-.67-.02-1.3-.07-1.92-.07-.94-.2-1.93-.41-3.11-.13-.76-.28-1.52-.43-2.29l-.13-.68c-.21-1.06-.37-2.05-.53-3.12-.24-1.84-.28-3.48-.11-4.89.05-.34.1-.68.17-1.02.01-.06,0-.12-.03-.17,0,0,0,0-.07-.07-.04-.02-.08-.04-.12-.05-.12,0-.21.07-.24.17-.19.95-.31,1.94-.35,2.93-.03.87,0,1.83.09,2.94l.02.23c.07.84.2,1.74.32,2.5v.11s.06.3.06.3c.06.46.13.92.21,1.37.09.6.18,1.19.26,1.72.07.48.13.97.18,1.45.06.5.09,1,.13,1.5v.13c.02.25.03.49.02.74v.17s-.22-.25-.22-.25l-.65-.66c-2.64-2.71-5.43-5.6-7.95-8.63-1.01-1.21-1.9-2.35-2.71-3.45l-.1-.13c-.37-.52-.71-1.01-1.04-1.49-.88-1.3-1.7-2.64-2.44-3.96-.45-.81-.88-1.64-1.29-2.47-.05-.11-.17-.18-.3-.18"/>
            </g>
            <g>
              <path class="cls-1" d="M67.55,148.08c-.18-.09-.36-.18-.55-.23-.22-.07-.46-.09-.69-.1-.04,0-.09,0-.13,0-.19,0-.38.02-.56.06-.3.06-.54.18-.78.35-.68.46-.83,1.38-.6,2.12.07.21.14.41.24.61s.24.39.37.57c.25.35.6.65.94.9.27.2.6.35.92.46.04.01.07.02.11.03.27.18.57.33.89.4.39.1.79.09,1.16-.06.42-.17.76-.47.96-.87.37-.76.06-1.69-.36-2.36-.47-.75-1.12-1.46-1.92-1.87Z"/>
              <path class="cls-57" d="M65.64,141.85c.18-.04.34-.11.47-.23.06-.05.11-.11.16-.17.18-.15.28-.4.3-.62.02-.21-.04-.41-.1-.6-.08-.24-.18-.46-.3-.67-.29-.51-.8-.89-1.32-1.14-.29-.14-.58-.23-.9-.3-.2-.04-.39-.05-.59-.05-.11,0-.22,0-.33.01-.22.01-.44.19-.56.37-.13.19-.16.41-.13.63.04.3.12.6.25.87.16.32.4.6.66.84.53.49,1.17.84,1.87,1.02.16.06.33.07.51.04Z"/>
              <path class="cls-43" d="M54.13,137.04c-.17-.24-.42-.44-.66-.62-.25-.18-.56-.3-.85-.39-.07-.02-.15-.04-.22-.04-.16,0-.31.05-.44.16-.19.16-.25.39-.22.63.03.24.1.47.19.7.09.23.24.43.38.63.14.2.33.37.51.53.18.16.37.29.58.4.17.09.33.15.53.11.09-.01.17-.05.24-.09.09.02.18.02.28-.03.12-.06.23-.19.23-.34.01-.3-.02-.58-.13-.87-.1-.29-.25-.54-.43-.79Z"/>
              <path class="cls-64" d="M214.74,130.74c-.28-.17-.48-.24-.8-.32-.15-.04-.29-.04-.44-.04-.07,0-.13,0-.2,0-.42,0-.84.14-1.23.29-.29.11-.57.29-.84.45-.24.15-.47.31-.69.49-.47.38-.92.83-1.27,1.33-.18.25-.33.52-.46.8-.07.16-.1.36-.14.51-.04.19-.03.36-.03.56,0,.09.02.18.04.27.04.2.1.42.2.61.07.15.17.33.28.46.22.27.4.39.71.54.51.27,1.17.2,1.7-.02.19-.04.37-.09.56-.15.39-.13.76-.35,1.1-.57.37-.23.71-.51,1.02-.82.3-.3.59-.61.83-.95.27-.38.46-.79.57-1.24.19-.8-.2-1.78-.92-2.21Z"/>
              <path class="cls-48" d="M222.49,128.91c-.08-.1-.17-.17-.29-.22-.08-.03-.17-.05-.25-.05-.03,0-.06,0-.09,0-.19,0-.38.02-.56.07-.1-.01-.2.02-.29.07-.07.05-.14.09-.21.14-.11.07-.23.14-.33.22-.11.08-.21.17-.3.27-.13.12-.25.24-.36.38-.05.06-.1.13-.14.2-.08.09-.15.19-.22.28-.16.19-.19.44-.12.67-.01.1-.02.2-.03.3-.01.31.21.53.52.51.29-.02.57-.06.84-.15.29-.09.56-.24.82-.42.25-.18.47-.43.64-.68.2-.29.34-.62.47-.94.09-.22.06-.47-.09-.66Z"/>
              <path class="cls-42" d="M157.78,53.74c-.32-.29-.73-.42-1.15-.51-.11-.02-.22-.03-.33-.03-.32,0-.65.09-.95.19-.35.11-.68.34-.97.56-.35.27-.66.61-.93.96-.23.28-.42.6-.6.92-.23.41-.44.82-.6,1.26-.14.38-.24.78-.29,1.18-.02.14-.03.28-.02.42,0,.24,0,.47.06.7.03.11.06.22.09.32.04.35.19.68.39.98.23.35.61.58.98.76.33.16.72.18,1.08.14.33-.03.67-.16.96-.32.37-.2.7-.45,1-.74.65-.64,1.15-1.39,1.57-2.19.18-.34.33-.71.44-1.08.13-.4.22-.82.24-1.24.02-.42-.04-.8-.17-1.2-.14-.42-.46-.77-.79-1.06Z"/>
              <path class="cls-51" d="M163.1,47.14c-.09-.05-.19-.07-.29-.07-.06,0-.13,0-.18.03-.27.08-.52.18-.77.31-.12.07-.24.18-.34.27-.09.08-.16.16-.23.24-.16.19-.29.42-.37.66-.02.04-.03.08-.04.12-.06.11-.09.23-.11.35,0,.02,0,.04,0,.06-.02.16-.03.32-.04.47-.01.19.12.41.25.53.1.09.23.15.36.18.13.03.26.02.39-.02.19-.03.37-.1.53-.2.01,0,.03,0,.04,0,.28-.06.51-.2.72-.4.23-.22.37-.54.44-.84.1-.43.04-.88-.04-1.31-.03-.16-.18-.3-.32-.37Z"/>
              <path class="cls-33" d="M140.09,56.21c-.09-.05-.18-.08-.29-.11-.09-.03-.23-.04-.32-.04,0,0-.02,0-.03,0-.11,0-.2.02-.31.04-.41.07-.8.33-1.05.67-.18.24-.3.5-.37.8-.04.15-.05.32-.06.47,0,.14,0,.28.03.42.03.22.09.39.26.55.16.14.36.21.57.2.11,0,.23-.01.34-.04.1-.02.23-.06.33-.11.02,0,.04-.02.05-.02.28-.12.5-.31.7-.54.12-.14.22-.3.33-.45.08-.12.15-.24.21-.38.16-.36.2-.84-.07-1.17-.1-.12-.17-.2-.31-.28Z"/>
            </g>
            <g>
              <path class="cls-60" d="M135.8,131.57c.72,0,1.43,0,2.15,0,.12,0,.25-.07.36-.15-.84.04-1.67.09-2.51.14"/>
              <path class="cls-34" d="M103.61,137.02s0,0-.01,0c0,0,.01,0,.02,0,0,0,0,0,0,0"/>
              <polygon class="cls-12" points="103.56 137.03 103.56 137.03 103.56 137.03 103.56 137.03"/>
              <path class="cls-21" d="M100.44,137.99s.06-.02.08-.03c-.03,0-.06.02-.08.03"/>
              <path class="cls-16" d="M268.59,241.12c-21.8-9.19-20.59-27.89-22.13-38.83l-.5,1.25c-.03-.96-.04-1.87-.05-2.75,0-.26-.05-.45-.17-.62-.13-.17-.31-.28-.5-.29-.94-2.39-2.11-4.63-3.47-6.66-1.45-2.16-3.24-4.27-5.33-6.26-.92-.87-1.9-1.73-3.02-2.62-1.19-.95-2.27-1.72-3.3-2.36-1.54-.97-3.18-1.84-4.63-2.59-.83-.44-1.67-.88-2.5-1.34-1.56-.87-2.82-1.67-3.96-2.52-1.42-1.1-2.62-2.28-3.65-3.61-1.15-1.55-2.11-3.25-2.98-5.26-.28-.68-.55-1.37-.81-2.07-1.11-3.71-1.73-7.65-2.33-11.46-.14-.93-.29-1.86-.45-2.79-.41-2.47-.94-5.39-1.76-8.27-.49-1.73-1.08-3.36-1.74-4.85-1.63-1.04-3.32-1.97-5.03-2.83,0,0,.02,0,.02.01-4.45-2.19-9.08-3.87-13.77-5.21-4.82-1.38-9.71-2.41-14.63-3.19h.01c-7.9-1.23-15.88-1.82-23.86-1.82h-.09c-8.07,0-16.14.57-24.13,1.81h0c-5.02.79-10.01,1.84-14.92,3.26-4.54,1.32-9.02,2.93-13.34,5.04-.22.16-.43.32-.65.48-.92.69-1.84,1.45-2.75,2.25-.13.12-.27.27-.32.52-.04.22-.01.45.09.65-1.1,1.06-2.03,2.17-2.77,3.3-.41.59-.81,1.2-1.2,1.81-.36.56-.7,1.13-1.05,1.7-1.13,1.84-2.3,3.74-3.68,5.38-.57.66-1.13,1.22-1.71,1.72-.57.49-1.23,1-2.02,1.54l-.08.09h0c-1.18.75-2.39,1.45-3.56,2.13-.94.54-1.81,1.04-2.67,1.58-1.15.71-2.15,1.41-3.06,2.15-.96.78-1.87,1.7-2.71,2.74-.68.85-1.35,1.88-1.99,3.07-.55,1.03-1.03,2.09-1.41,3.17-.69,1.95-1.14,4.12-1.32,6.43-.32,4.02.17,8.07.7,11.87l.24,1.72c.46,3.24.94,6.58.98,9.93l.04-.21c-.02,2.18-.2,4.09-.56,5.82l-.02.14c-.35,1.46-.84,2.87-1.47,4.19-.7,1.38-1.58,2.71-2.61,3.94-1.38,1.59-2.9,2.97-4.52,4.09-1.62,1.08-3.44,1.98-5.54,2.74,0,0-.01,0-.02,0-.3.11-.6.21-.91.31-.02,0-.04.03-.06.04-20.07,7.52-50.61,28.33-22.26,65.01l15.98-.43v-.04c.24.46.5.93.78,1.42,1.26,2.17,2.95,4.2,5.03,6.04,1.73,1.52,3.79,2.87,6.32,4.12,5.04,2.48,10.58,3.51,15.38,4.28,6.21,1,12.93,1.74,20.53,2.24,6.25.41,12.86.65,20.79.73,2.2.03,4.39.04,6.58.04,1.24,0,2.48,0,3.72-.01,1.43,0,2.85-.01,4.27-.03h1.22c1.62-.02,3.25-.03,4.87-.03,8.21,0,16.56.21,24.63.4h.27s.85.03.85.03c5.53.13,11.25.27,16.87.34,2.47.03,4.93.05,7.4.05,13.53,0,24.62-.54,34.88-1.69.67-.07,1.33-.15,1.99-.23l.18-.02,1.81-.21,1.86-.2,1.85-.2c1.73-.2,4.32-.51,6.86-1.02,2.26-.46,4.27-1.06,6.15-1.86,1.9-.8,3.66-1.9,5.22-3.29,1.56-1.38,2.89-3.17,3.97-5.32,0,0,26.63,20.38,40.21,1.99,13.58-18.39,3.22-41.37-18.58-50.56Z"/>
              <path class="cls-3" d="M91.73,141.59c-.63,1.16-1.29,2.3-1.99,3.42.03-.06.07-.11.1-.16-2.32,3.7-5.01,7.21-8.22,10.18.04-.04.09-.08.14-.12-1.4,1.29-2.9,2.47-4.53,3.47-.33.2-.38.69-.17.99.23.33.66.37.99.17,1.77-1.09,3.37-2.39,4.89-3.8,1.61-1.51,3.08-3.17,4.45-4.9,1.38-1.76,2.64-3.6,3.81-5.5.96-1.55,1.86-3.14,2.68-4.77-.72.33-1.44.67-2.15,1.03"/>
              <path class="cls-41" d="M95.31,139.94s0,0,0,0c-.46.2-.91.4-1.37.6.16.06.34.07.51-.01.98-.5,1.97-.98,2.97-1.44-.71.27-1.41.56-2.11.85"/>
              <path class="cls-25" d="M95.33,139.93s-.01,0-.02,0c0,0,.01,0,.02,0,0,0,.01,0,.02-.01-1.1.47-2.2.97-3.28,1.5-.03.2.02.42.13.57.11.15.28.25.46.27.2.03.37-.03.53-.14.4-.24.79-.48,1.19-.71,0,0,0,0,0,0,2.35-1.32,4.82-2.4,7.37-3.3.29-.1.46-.41.44-.71-2.32.74-4.62,1.57-6.87,2.52"/>
              <path class="cls-61" d="M94.4,141.42s0,0,.01,0c0,0,0,0-.01,0"/>
              <path class="cls-55" d="M95.33,139.93s-.01,0-.02,0c0,0,.01,0,.02,0,0,0,.01,0,.02-.01-.36.15-.72.31-1.08.47-.03.14-.02.29.04.42.07.17.21.31.37.38.16.07.4.1.55,0,1.27-.72,2.61-1.27,4.01-1.65.17-.04.32-.23.39-.37.07-.18.08-.38,0-.56-.04-.11-.12-.2-.21-.28-1.38.49-2.75,1.02-4.1,1.59"/>
              <path class="cls-36" d="M95.55,139.84c.19.12.44.16.65.06,2.36-1.13,4.77-2.16,7.3-2.85-.02,0-.04.01-.07.01.03,0,.06-.01.09-.02,0,0-.02,0-.02,0,.02,0,.04,0,.06-.01,0,0,0,0,0,0t0,0s0,0,0,0c0,0,0,0,.01,0,0,0,0,0-.01,0,0,0,.01,0,.02,0,0,0,.01,0,.02,0h0s0,0,.02,0c0,0,0,0,.01,0,0,0,0,0,0,0,.95-.23,1.91-.42,2.87-.54.28-.03.5-.23.59-.49-3.92,1.04-7.78,2.28-11.52,3.84"/>
              <path class="cls-30" d="M204.24,139.58c-.36.12-.67.41-.86.8-.16.35-.24.86-.11,1.24,1.04,3.05,1.71,6.25,2.48,9.4.64,2.65,1.44,5.23,2.6,7.63,1.69,3.5,4.07,6.5,6.69,9.05,5.27,5.13,11.6,8.39,17.36,12.65.92.68,1.83,1.4,2.71,2.14-.03-.03-.07-.06-.1-.08,2.19,1.88,4.24,4.01,5.95,6.49,1.16,1.72,2.14,3.6,2.9,5.6,0,0,0,0,0-.01,0,.01,0,.02.01.03.01.04.03.07.04.11,0,0,0-.02-.01-.03.73,2.03,1.24,4.17,1.52,6.35,0-.04-.01-.09-.02-.14.06.5.12,1.01.16,1.51.03.29.2.53.47.52.23,0,.47-.26.44-.54-.19-2.18-.54-4.34-1.11-6.42-.52-1.89-1.22-3.71-2.09-5.42-1.66-3.29-3.94-6.1-6.46-8.53-2.61-2.52-5.45-4.68-8.29-6.82-2.81-2.11-5.65-4.17-8.35-6.46-2.57-2.21-5.02-4.64-7.05-7.53-1.29-1.92-2.39-4.01-3.25-6.24-.83-2.28-1.31-4.68-1.78-7.09-.51-2.58-1.1-5.15-2.24-7.46-.25-.51-.73-.8-1.22-.8-.13,0-.26.02-.38.06M209.75,154.55c.04.09.07.19.11.29-.04-.1-.07-.19-.11-.29M212.94,160.85c.04.06.09.12.13.19-.04-.06-.09-.12-.13-.19M243.89,194.59s-.02-.05-.03-.07c0,0,0-.01,0-.02.01.03.02.07.04.1"/>
              <path class="cls-24" d="M92.08,137.42c-1.45,2.34-2.92,4.67-4.51,6.89-1.55,2.17-3.23,4.22-5.05,6.07-1.02,1.02-2.08,1.97-3.2,2.83-1.03.79-2.11,1.51-3.19,2.19-1.06.67-2.14,1.31-3.21,1.95-1.07.63-2.12,1.3-3.15,1.99-2.11,1.4-4.1,3.04-5.85,5.01-.93,1.05-1.74,2.22-2.47,3.46-.63,1.07-1.17,2.18-1.64,3.35-.9,2.26-1.46,4.69-1.75,7.15-.29,2.46-.31,4.96-.22,7.44.19,4.86.87,9.68,1.22,14.53.16,2.2.23,4.42.11,6.62-.14,2.02-.46,4-1.02,5.92-.55,1.74-1.27,3.4-2.15,4.94-.53.86-1.14,1.65-1.75,2.43-.29.36-.31.92-.09,1.33.14.24.35.41.59.47.23.06.52.02.7-.16.94-.87,1.78-1.85,2.59-2.89.75-.97,1.41-2.05,1.98-3.18.55-1.11.96-2.29,1.32-3.5.32-1.08.55-2.21.71-3.34.18-1.26.27-2.53.31-3.79.04-1.17.01-2.35-.04-3.53-.12-2.41-.42-4.81-.74-7.2-.66-4.83-1.43-9.69-1.18-14.59.14-2.09.48-4.14,1.06-6.13.5-1.58,1.15-3.07,1.95-4.47-.02.04-.04.08-.07.11.03-.05.05-.09.08-.14.03-.05.06-.1.09-.16-.02.04-.05.08-.07.12,1-1.65,2.18-3.14,3.49-4.46,1.76-1.72,3.71-3.17,5.68-4.53,2.07-1.43,4.15-2.84,6.13-4.44,2.18-1.77,4.17-3.83,5.98-6.1,1.83-2.29,3.46-4.78,5.05-7.3.93-1.47,1.84-2.96,2.76-4.44.1-.16.11-.37-.02-.51-.05-.06-.14-.09-.22-.09s-.17.04-.21.12M82.47,150.44s-.03.03-.05.05c.02-.02.03-.03.05-.05M61.42,173.84s-.02.06-.03.09c0-.03.02-.06.03-.09M63.43,169.21s0,.02-.01.02c.01-.02.02-.04.03-.06,0,.01-.01.02-.02.03"/>
              <polyline class="cls-59" points="66.86 224.89 66.86 224.89 66.86 224.89 66.86 224.89"/>
              <path class="cls-50" d="M245.86,288.37c-.17-.66-.35-1.31-.54-1.96-.2-.63-.41-1.26-.63-1.89-.51-1.36-1.02-2.55-1.54-3.61-.56-1.14-1.15-2.18-1.79-3.18-.56-.84-1.11-1.55-1.66-2.17-.27-.3-.54-.59-.81-.87-.27-.27-.54-.53-.82-.79-.89-.8-1.82-1.54-2.75-2.19-.89-.62-1.8-1.2-2.71-1.74-1.29-.76-2.63-1.49-3.92-2.18l-.12-.07-1.58-.85c-.92-.51-1.84-1.02-2.75-1.57-.79-.48-1.72-1.07-2.6-1.71-.86-.63-1.58-1.22-2.21-1.81-.87-.82-1.54-1.54-2.1-2.27-.36-.46-.63-.85-.87-1.23-.21-.33-.53-.84-.8-1.38-.33-.66-.55-1.18-.73-1.67-.16-.44-.36-1.03-.5-1.64-.08-.33-.16-.66-.21-1-.06-.33-.11-.67-.15-1-.06-.47-.1-.95-.12-1.43-.04-.79-.04-1.44-.01-2.06.03-.58.06-1.16.12-1.74.12-1.23.3-2.44.51-3.6.24-1.31.51-2.62.79-3.92l.14-.63c.24-1.1.48-2.2.69-3.31.27-1.42.48-2.69.63-3.91.14-1.19.21-2.17.22-3.07v-.16c0-.41,0-.82-.02-1.23-.03-.43-.06-.86-.1-1.29-.11-.89-.25-1.65-.44-2.39-.1-.43-.21-.86-.35-1.28-.1-.3-.2-.6-.3-.9-.18-.48-.45-1.19-.8-1.85-.17-.34-.35-.68-.54-1-.14-.23-.28-.46-.42-.68-.53-.78-1.07-1.48-1.62-2.09-.29-.32-.59-.64-.9-.94-.3-.3-.6-.59-.92-.87-1.18-1.05-2.44-2.02-3.66-2.96l-.09-.07-.69-.52-.08-.06c-.67-.52-1.45-1.12-2.18-1.75-.72-.6-1.3-1.13-1.84-1.67-.88-.88-1.51-1.58-2.05-2.28-.63-.82-1.11-1.53-1.53-2.25-.75-1.29-1.36-2.52-1.86-3.75-.48-1.2-.86-2.28-1.15-3.29-.41-1.42-.73-2.76-.98-4.08-.25-1.31-.44-2.56-.59-3.83-.16-1.34-.29-2.68-.37-3.98-.09-1.32-.16-2.64-.22-3.96-.06-1.4-.1-2.79-.14-4.18-.04-1.41-.08-2.8-.14-4.18-.07-1.75-.14-3.08-.22-4.32-.1-1.32-.21-2.56-.34-3.79-.27-2.17-.54-3.8-.89-5.28-.16-.65-.32-1.3-.51-1.95-.18-.62-.39-1.23-.6-1.84-.4-1.09-.8-2.04-1.23-2.89-.43-.87-.94-1.75-1.49-2.6-.59-.89-1.22-1.72-1.86-2.46-.6-.69-1.26-1.36-1.96-2-.84-.75-1.72-1.44-2.64-2.05-.93-.62-1.92-1.2-2.92-1.7-1.48-.73-3.05-1.34-4.66-1.82-1.61-.48-3.34-.87-5.12-1.16-2.56-.38-5.26-.58-8.02-.58-.69,0-1.37,0-2.06.03-3.26.1-6.62.43-10.3,1-6.01.95-12.37,2.5-18.91,4.58-2.78.88-5.48,1.82-8.03,2.79-1.13.42-2.25.86-3.37,1.31-1.13.46-2.4.97-3.62,1.56-1.29.64-2.47,1.33-3.49,2.05-.51.35-1.02.72-1.5,1.11-.47.37-.93.76-1.37,1.16-.97.89-1.86,1.82-2.66,2.77-.77.93-1.48,1.89-2.13,2.87-.88,1.35-1.67,2.75-2.35,4.16-.67,1.4-1.32,2.92-1.9,4.54-1.4,3.87-2.54,8.32-3.59,14.01-.6,3.28-1.13,6.68-1.59,9.69-.26,1.65-.51,3.29-.78,4.94-.39,2.4-.74,4.37-1.09,6.18-.44,2.27-.87,4.16-1.33,5.95-.56,2.14-1.11,3.97-1.7,5.6-.68,1.9-1.38,3.54-2.13,5.01-.86,1.68-1.77,3.18-2.73,4.46-1.08,1.46-2.23,2.75-3.44,3.84-1.4,1.26-2.89,2.33-4.41,3.17-.89.49-1.72.9-2.53,1.24-.22.09-.44.18-.66.27l-.31.12c-.15.06-.3.11-.46.18-.6.24-1.19.49-1.78.78-.8.41-1.43.78-1.97,1.17-.34.24-.62.44-.88.66-.19.16-.38.32-.56.48-.36.34-.82.79-1.23,1.29l-.08.1c-.13.16-.26.32-.38.49-.13.19-.26.37-.39.56-.37.58-.63,1.04-.83,1.49-.25.51-.46,1.03-.66,1.59-.32.9-.59,1.89-.78,2.87-.2.97-.36,2.01-.49,3.17-.18,1.65-.29,3.29-.42,5.12l-.08,1.1c-.14,2.09-.31,4.31-.62,6.52-.18,1.33-.38,2.47-.61,3.48-.31,1.4-.61,2.52-.93,3.52-.39,1.17-.78,2.21-1.21,3.18-.56,1.24-1.12,2.34-1.72,3.38-.69,1.17-1.32,2.15-1.94,3-.84,1.16-1.62,2.14-2.41,2.99-.91.99-1.72,1.79-2.49,2.45-1.08.93-2,1.63-2.91,2.19-1.05.66-1.99,1.15-2.87,1.52-.39.16-.79.32-1.18.45.22.48.48.93.75,1.4,1.19,2.06,2.79,3.99,4.73,5.76v38.93h194.7v-35.08s.1-.08.15-.12c1.27-1.14,2.4-2.55,3.36-4.19-.13-.8-.31-1.63-.52-2.49Z"/>
              <path class="cls-17" d="M83.38,203.72c-.22.91-.47,1.8-.78,2.67-.48,1.26-1.07,2.45-1.79,3.55-.74,1.06-1.58,2.01-2.5,2.85-2.77,2.4-6.04,3.85-9.15,5.51-1.66.88-3.3,1.84-4.85,2.98-1.7,1.26-3.24,2.79-4.57,4.56-2.05,2.74-3.47,6.01-4.37,9.48-.89,3.45-1.32,7.04-1.73,10.6v-.04c-.06.53-.12,1.05-.18,1.58,0-.05.01-.1.02-.15-.52,4.54-1.11,9.15-2.63,13.41-.72,1.97-1.62,3.81-2.73,5.51-.07.11-.15.22-.22.32-.12.17-.15.4,0,.57.12.14.37.17.49,0,1.42-2.07,2.54-4.35,3.39-6.81.83-2.4,1.4-4.93,1.84-7.47.87-5.07,1.25-10.26,2.47-15.24.33-1.32.72-2.6,1.17-3.86.65-1.73,1.45-3.36,2.42-4.86.91-1.36,1.95-2.59,3.12-3.65,0,0-.01,0-.02.01,1.81-1.6,3.83-2.82,5.91-3.85l-.27.13c3.34-1.65,6.87-2.87,9.99-5.07,1.57-1.1,3.03-2.47,4.22-4.09.66-.9,1.26-1.89,1.77-2.92.56-1.14,1-2.37,1.37-3.61.12-.4.23-.82.33-1.23.21-.87-.25-1.8-.99-2.04-.12-.04-.25-.06-.37-.06-.62,0-1.2.49-1.38,1.21M78.54,212.59c-.06.06-.12.11-.19.17.06-.06.12-.11.19-.17M57.26,233.76c-.02.05-.04.11-.06.17.02-.06.04-.11.06-.17M53.65,245.77s0,.07-.01.11c0-.04,0-.07.01-.11M50.83,260.78s-.01.03-.02.05c0-.02.01-.03.02-.05M48.17,266.17s-.01.02-.02.03c0,0,.01-.02.02-.03"/>
              <path class="cls-32" d="M206.25,200.24c-.2.86.24,1.8.99,2.04,1.73.54,3.43,1.19,5.08,1.99,2.17,1.1,4.24,2.46,6.12,4.14,1.4,1.3,2.67,2.77,3.78,4.42.87,1.35,1.6,2.79,2.16,4.35.49,1.44.82,2.94,1.01,4.47.56,5.24-.29,10.47-.61,15.69-.16,2.56-.12,5.13.28,7.66.43,2.73,1.42,5.33,2.73,7.65.12.21.36.3.56.17.18-.13.27-.43.14-.65-.57-1.01-1.07-2.07-1.48-3.18l.04.12c-.56-1.58-.93-3.23-1.13-4.93,0,.05.01.1.01.15-.33-2.9-.13-5.82.19-8.7.34-2.91.82-5.81,1.04-8.74.12-1.52.15-3.04.09-4.56-.06-1.46-.21-2.93-.5-4.36-.52-2.54-1.51-4.95-2.81-7.07-.67-1.1-1.43-2.13-2.25-3.08-.83-.97-1.74-1.84-2.68-2.67-1.61-1.43-3.37-2.62-5.19-3.63-1.87-1.03-3.82-1.87-5.82-2.43-.12-.03-.24-.05-.35-.05-.63,0-1.21.46-1.39,1.21M212.04,204.13s.07.04.11.06c-.04-.02-.07-.04-.11-.06M225.4,221.77s0,.06.01.1c0-.03,0-.06-.01-.1"/>
              <path class="cls-18" d="M233.29,259.91c-.22.26-.23.71,0,.97,1.62,1.75,3.38,3.32,5.07,4.98.85.84,1.69,1.69,2.49,2.59.76.85,1.47,1.78,2.12,2.75.4.61.77,1.25,1.1,1.91.39.75.71,1.53,1.01,2.33.11.23.27.41.47.54.3.2.66.26,1,.15.32-.1.6-.35.77-.69.16-.33.24-.8.13-1.17-.26-.84-.58-1.66-.97-2.44-.37-.75-.82-1.44-1.29-2.1-.88-1.24-1.96-2.26-3.05-3.23-2.11-1.86-4.47-3.29-6.58-5.15-.5-.45-.98-.93-1.44-1.42-.12-.13-.27-.2-.42-.2s-.29.06-.4.2M235.45,261.24s.03.03.05.04c-.02-.01-.03-.03-.05-.04M242.87,271.04s.05.08.08.12c-.03-.04-.05-.08-.08-.12"/>
              <path class="cls-15" d="M124.97,222.09c-.2,0-.4.18-.55.46-.13.25-.19.56-.17.86.74,16.2.67,29.46-.21,41.74l-.02.2c-.73,9.67-2,18.64-3.78,26.7-.07.32-.01.74.07,1.02.1.3.25.52.43.6.04.08.07.15.1.22.12.26.27.4.49.47,3.19.91,6.43,2.08,9.55,3.21,6.95,2.51,14.13,5.11,21.35,5.11h.2c3.36-.02,6.54-.65,9.47-1.87,3.2-1.33,6.24-3.49,9.05-6.41.19-.2.31-.44.37-.75.06-.33.05-.69-.03-1.01-.03-.1-.06-.19-.1-.27.07-.26.07-.55.02-.82-1.01-5.37-1.75-11.19-2.21-17.3l-.02-.18v-.12s0,0,0,0h0s0,0,0,0c-.93-13.18-.58-26.53-.25-39.45.07-2.53.13-5.06.18-7.59,0-.33-.06-.65-.19-.9-.14-.27-.33-.42-.53-.42-.4,0-.7.57-.72,1.32-.05,2.22-.1,4.43-.16,6.65-.03-.2-.11-.37-.23-.57-1.13-1.82-2.5-3.41-4.17-4.87-1.5-1.31-3.16-2.37-5.09-3.26-3.11-1.43-6.48-2.15-10-2.15-.63,0-1.25.03-1.87.07-4.22.29-8.18,1.53-11.78,3.69-1.82,1.09-3.42,2.35-4.9,3.86-1.21,1.23-2.29,2.6-3.22,4.09-.01-1.17-.04-2.36-.08-3.54-.08-2.49-.18-4.99-.29-7.48-.02-.3-.05-.64-.21-.93-.13-.24-.32-.39-.51-.39M126.19,242.12c0-1.38-.02-2.79-.04-4.22.02,1.42.04,2.83.04,4.22"/>
              <path class="cls-53" d="M124.97,222.01c-.2,0-.42.19-.58.49-.13.27-.2.59-.18.92.43,9.53.59,17.93.47,25.67,2.67,2.81,5.13,5.05,7.53,6.84,1.76,1.32,3.41,2.34,5.02,3.12,1.65.82,3.32,1.42,4.95,1.79,1.25.27,2.51.41,3.73.41h.27s.27,0,.27,0c1.39-.05,2.81-.26,4.23-.63,1.61-.46,3.19-1.1,4.7-1.91,1.61-.86,3.26-1.95,4.91-3.23.94-.75,1.93-1.6,2.91-2.44.94-.81,1.88-1.62,2.79-2.49.93-.86,1.74-1.69,2.5-2.52.07-4.62.2-9.29.3-13.4l.05-2.01.07-2.89.07-2.78c0-.33-.07-.69-.21-.96-.15-.28-.35-.45-.55-.45-.41,0-.73.6-.76,1.4l-.1,4.36-.05,2.13c0-.13-.06-.28-.17-.46-1.15-1.84-2.52-3.43-4.18-4.87-1.49-1.31-3.16-2.38-5.09-3.27-3.12-1.44-6.49-2.17-10.02-2.17-.63,0-1.25.03-1.87.07-4.23.3-8.2,1.55-11.79,3.71-1.82,1.08-3.42,2.34-4.9,3.86-1.19,1.19-2.27,2.56-3.23,4.09.05-1.06.03-2.16-.01-3.48-.08-2.49-.18-4.99-.29-7.48-.01-.27-.05-.66-.23-.98-.14-.26-.34-.42-.54-.42"/>
              <path class="cls-56" d="M152.51,133.96c-1.06,0-2.13.02-3.19.05-2.48.08-5.06.26-7.68.54-5.44.58-10.72,1.57-15.68,2.93-5.32,1.46-10.17,3.35-14.41,5.6-2.42,1.28-4.47,2.6-6.27,4.02-1.87,1.48-3.59,3.28-5.09,5.33-2.63,3.6-4.4,8-5.27,13.08-.74,4.35-.82,9.01-.24,14.24-.35-.25-.71-.46-1.06-.63-1.33-.65-2.84-1-4.36-1-.43,0-.86.03-1.27.08-.52.07-.98.16-1.41.27-.53.14-1.03.35-1.45.53-.85.37-1.68.92-2.45,1.62-.74.67-1.41,1.5-2,2.48-.5.84-.92,1.82-1.24,2.91-.27.93-.45,1.98-.54,3.18-.07,1.02-.05,2.08.07,3.23.23,2.11.79,4.23,1.68,6.3.81,1.88,2.03,3.78,3.62,5.64,1.5,1.76,3.28,3.28,5.28,4.53,1.45.91,3.06,1.66,4.79,2.21,1.32.43,2.74.72,4.22.87.22,4.43,1.14,8.49,2.71,12.08.8,1.81,1.77,3.55,2.9,5.16,1.07,1.54,2.35,3.05,3.81,4.5,2.61,2.6,5.85,5.02,9.91,7.38,1.72,1,3.62,2,5.99,3.14,2.29,1.11,5.02,2.39,7.85,3.51,2.44.97,4.67,1.71,6.82,2.25,2.23.57,4.45.91,6.6,1.01,0,0,.12,0,.12,0,.07,0,.14,0,.21,0h0c.07,0,.12,0,.17-.03,2.13-.11,4.33-.44,6.52-1,2.15-.55,4.38-1.28,6.82-2.25,2.83-1.13,5.55-2.41,7.85-3.51,2.37-1.14,4.27-2.14,5.99-3.14,4.06-2.37,7.3-4.78,9.91-7.38,1.45-1.45,2.73-2.97,3.8-4.5,1.13-1.61,2.11-3.35,2.9-5.16,1.58-3.6,2.49-7.67,2.72-12.09,1.47-.14,2.89-.43,4.21-.86,1.73-.56,3.34-1.3,4.79-2.21,2-1.25,3.78-2.78,5.28-4.53,1.59-1.86,2.81-3.76,3.62-5.64.89-2.07,1.45-4.19,1.68-6.3.12-1.15.15-2.21.07-3.23-.09-1.2-.27-2.25-.54-3.18-.32-1.09-.74-2.07-1.24-2.91-.59-.98-1.26-1.82-2-2.48-.77-.7-1.59-1.25-2.45-1.62-.42-.18-.92-.39-1.45-.53-.43-.11-.89-.2-1.41-.27-.42-.05-.85-.08-1.27-.08-1.52,0-3.03.34-4.36.99-.95.47-1.8,1.08-2.53,1.84.28-2.32.4-4.73.36-7.37-.02-1.43-.09-2.99-.21-4.77-.11-1.51-.24-2.75-.41-3.89-.65-4.38-2.17-8.69-4.42-12.47-2.13-3.6-4.96-6.8-8.4-9.5-3.32-2.62-7.18-4.72-11.45-6.25-4.15-1.48-8.67-2.37-13.44-2.62-1.29-.07-2.62-.1-4.06-.1"/>
              <path class="cls-53" d="M152.51,133.92c-1.06,0-2.13.02-3.19.05-2.46.08-5.04.26-7.68.54-5.43.58-10.71,1.57-15.7,2.94-5.33,1.46-10.17,3.35-14.41,5.6-2.41,1.27-4.46,2.58-6.28,4.02-1.89,1.51-3.6,3.3-5.09,5.33-2.63,3.61-4.41,8.02-5.29,13.11-.66,3.89-.79,7.98-.41,12.51.4.23.72.4,1.02.52.3.12.6.23.91.32.23.06.53.14.84.17.23.03.46.05.68.05.23,0,.47-.01.7-.05.18-.03.36-.06.54-.11.3-.08.51-.14.71-.23.24-.1.47-.22.69-.35.27-.16.53-.34.78-.54.23-.19.44-.39.65-.59.38-.4.7-.78.98-1.17.33-.46.63-.92.91-1.41.47-.82.88-1.6,1.28-2.41.19-.38.37-.77.56-1.15l.14-.28.46-.96c.37-.76.76-1.56,1.18-2.32.44-.79.83-1.42,1.21-1.97.9-1.3,1.9-2.39,2.95-3.25,1.12-.92,2.37-1.73,3.72-2.41,1.36-.69,2.79-1.27,4.24-1.72,1.45-.44,2.93-.8,4.39-1.04,1.52-.26,3.07-.43,4.6-.52.91-.05,1.84-.08,2.78-.08.54,0,1.07,0,1.61.03,1.11.03,2.21.08,3.32.13,1.97.09,3.72.16,5.48.18.26,0,.59,0,.92,0,1.57,0,2.94-.05,4.18-.16.88-.08,1.68-.18,2.42-.3.82-.14,1.58-.3,2.32-.49,1.03-.27,1.94-.57,2.79-.92.92-.38,1.84-.82,2.73-1.32.81-.47,1.61-1,2.33-1.54.8-.61,1.58-1.28,2.33-1.99.03-.03.07-.04.13-.04.17.05.21.12.22.19.1.61.22,1.15.34,1.65.16.62.33,1.15.53,1.62.19.47.4.9.62,1.29.21.35.38.61.57.84.2.26.42.5.64.73.26.25.5.45.73.63.22.16.44.31.68.46.4.23.78.41,1.18.58.4.16.82.3,1.3.44.77.21,1.69.39,2.74.53,1.09.15,2.19.25,3.26.35l.19.02c.68.06,1.37.13,2.05.23.7.11,1.27.21,1.81.34,1.28.3,2.36.67,3.3,1.12,1.07.51,2.01,1.11,2.79,1.78.88.75,1.67,1.61,2.34,2.57.4.58.73,1.11,1.02,1.64.3.57.59,1.15.84,1.73.3.67.58,1.35.87,2.03.17.4.33.8.5,1.19.41.96.86,1.98,1.43,2.96.42.74.86,1.34,1.35,1.85.31.29.59.51.9.69.21.12.43.22.68.3.1-1.27.14-2.66.12-4.26-.02-1.43-.09-2.99-.21-4.77-.11-1.51-.24-2.75-.41-3.89-.66-4.4-2.19-8.72-4.43-12.48-2.12-3.6-4.95-6.8-8.4-9.52-3.34-2.62-7.2-4.73-11.46-6.25-4.17-1.5-8.69-2.38-13.45-2.64-1.27-.07-2.6-.1-4.06-.1"/>
              <path class="cls-53" d="M96.33,204.43c-.27-.29-.53-.59-.76-.9,0,0,0,0,0,0-.68-.91-1.23-1.9-1.68-2.95-.57-1.38-.96-2.83-1.16-4.3-.14-1.13-.16-2.27-.03-3.4.12-.87.34-1.72.68-2.53.25-.56.56-1.08.92-1.58.07-.1.09-.24.09-.37.06-.2.04-.43-.07-.62-.26-.44-.57-.84-.92-1.22-.37-.41-.8-.78-1.24-1.11-.96-.71-2.02-1.26-3.16-1.64-.84-.29-1.76-.46-2.67-.46-1.25,0-2.49.32-3.51,1.09-.13.1-.2.26-.11.41.08.13.28.21.41.11.3-.22.61-.4.95-.55.35-.14.71-.24,1.08-.29.44-.05.87-.05,1.3,0,.65.08,1.27.25,1.88.47.76.31,1.48.7,2.15,1.18.63.47,1.22,1.02,1.71,1.63.23.3.43.62.61.96-.72,1.13-1.15,2.42-1.33,3.74-.1.78-.14,1.56-.1,2.36.04.8.16,1.6.32,2.38.32,1.56.89,3.06,1.62,4.47.67,1.31,1.51,2.54,2.52,3.61.13.13.35.13.48,0,.13-.13.13-.35,0-.48Z"/>
              <path class="cls-53" d="M205.8,184.42c-1.01-.77-2.25-1.08-3.51-1.08-.91,0-1.83.17-2.67.46-1.13.38-2.2.93-3.16,1.64-.44.33-.87.7-1.24,1.11-.34.38-.66.78-.92,1.22-.11.2-.13.42-.07.62,0,.13.02.27.09.37.36.5.66,1.02.92,1.58.33.81.55,1.66.68,2.53.13,1.13.11,2.27-.03,3.4-.2,1.48-.6,2.93-1.16,4.31-.45,1.04-1,2.03-1.68,2.94,0,0,0,0,0,0-.24.31-.49.61-.76.9-.13.13-.13.35,0,.48.13.13.36.13.48,0,1.01-1.07,1.85-2.3,2.52-3.61.73-1.41,1.3-2.92,1.62-4.47.16-.78.28-1.58.32-2.38.04-.79,0-1.57-.1-2.36-.18-1.32-.61-2.62-1.33-3.74.18-.33.38-.65.61-.96.5-.61,1.08-1.16,1.71-1.63.67-.47,1.39-.87,2.15-1.17.61-.23,1.23-.39,1.88-.47.44-.04.87-.04,1.3,0,.37.06.73.16,1.08.29.34.15.65.33.95.55.13.1.34.03.41-.11.09-.15.03-.31-.11-.41Z"/>
              <path class="cls-5" d="M146.03,133.05c-.81,0-1.62,0-2.43.03-5.23.14-10.34.72-15.2,1.72-5.06,1.04-9.87,2.6-14.3,4.64-4.58,2.11-8.74,4.81-12.36,8.02-3.01,2.68-5.65,5.8-7.86,9.28-1.12,1.77-2.15,3.69-3.05,5.73-.58,1.31-1.05,2.52-1.42,3.7-.42,1.32-.71,2.7-.86,4.11-.02.14.04.3.14.44.55,2.48,1.42,4.88,2.58,7.11.62,1.19,1.3,2.27,2.02,3.22.39.51.82,1,1.23,1.45.42.46.84.89,1.26,1.27.31.29.64.54.98.76.38.25.69.4,1.01.49.28.08.54.12.82.12h.17c.3-.02.6-.13.95-.33.61-.36,1-.97,1.31-1.51.44-.75.73-1.56,1.05-2.47.62-1.79,1.2-3.74,1.82-6.14.2-.79.4-1.57.59-2.36.29-1.15.57-2.3.88-3.45,0,0,0,0,0,0h0c.62-2.28,1.54-5.23,3.08-7.88.74-1.24,1.62-2.38,2.61-3.39l.07-.08h0c.99-.94,2.13-1.79,3.38-2.54.76-.43,1.47-.77,2.18-1.05.63-.25,1.28-.46,2.01-.66,0,0,.07-.02.06-.03,0,0,.05-.02.05-.02,3.1-.79,6.32-1.03,9.06-1.14,2.58-.11,5.2-.12,7.74-.13.91,0,1.82,0,2.73-.01,3.15-.03,6.81-.09,10.42-.51,3.72-.43,6.64-1.17,9.19-2.31,1-.45,1.97-1,2.87-1.62.88-.61,1.73-1.35,2.51-2.2.56-.62,1.08-1.31,1.55-2.06-.08.76-.08,1.51-.03,2.21.14,1.72.63,3.19,1.47,4.39,1.72,2.44,4.6,3.55,7.4,4.48.58.19,1.15.37,1.73.56,1.5.48,3.06.97,4.54,1.59,1.6.69,2.89,1.43,4,2.28.8.64,1.53,1.37,2.16,2.18.69.91,1.26,1.91,1.71,2.97l-.02-.09c.47,1.23.8,2.55.99,4.03.21,1.87.18,3.77.16,5.62-.01,1.1-.03,2.23,0,3.35.05,1.63.23,3.18.54,4.62.14.63.3,1.17.49,1.65.09.23.19.45.3.66.12.22.26.41.4.59.21.26.5.47.84.6.16.06.34.09.53.09.15,0,.3-.02.46-.06.36-.09.67-.31.9-.49.25-.2.49-.44.75-.78.5-.64.95-1.4,1.42-2.39.42-.89.79-1.84,1.14-2.9.75-2.31,1.26-4.87,1.49-7.62.22-2.51.14-5.14-.24-7.83-.72-5.08-2.66-9.94-5.62-14.06-1.5-2.08-3.25-3.98-5.22-5.62-.99-.83-2.06-1.61-3.18-2.32-1.07-.68-2.26-1.33-3.65-1.98-2.91-1.36-6.05-2.48-9.33-3.33-2.86-.74-5.97-1.3-9.53-1.71-3.59-.42-7.16-.61-9.87-.73-2.11-.09-3.88-.13-5.56-.13"/>
              <path class="cls-11" d="M165.78,140.17c-.08.04-.15.09-.23.13-.14.11-.25.25-.32.42-.1.21-.22.4-.33.61-.48.83-1.01,1.63-1.59,2.4-.62.83-1.31,1.61-2.04,2.35-1.63,1.6-3.47,2.97-5.45,4.11,0,0,0,0,0,0-1.74.97-3.6,1.78-5.53,2.31-2.49.65-5.08.83-7.64.86h.15c-2.19.02-4.39-.09-6.57-.22-2.26-.13-4.51-.3-6.76-.41-2.17-.11-4.34-.17-6.52-.09-2.01.07-4.02.27-5.98.74-2.2.53-4.32,1.43-6.08,2.87-.1.08-.13.23-.04.33.07.1.23.13.33.04.53-.43,1.08-.81,1.67-1.15,0,0,0,0-.01,0,1.1-.62,2.29-1.08,3.5-1.41-.02,0-.04.01-.06.02,2.33-.63,4.75-.83,7.15-.85-.02,0-.04,0-.06,0,4.44-.04,8.87.5,13.29.89,2.17.19,4.34.35,6.52.4,2,.04,4.02-.02,5.99-.33.76-.12,1.5-.29,2.24-.5.92-.25,1.82-.53,2.71-.86,1.84-.68,3.61-1.55,5.26-2.61,1.66-1.06,3.14-2.36,4.46-3.81.63-.69,1.2-1.44,1.73-2.22.29-.43.55-.88.81-1.33.26-.46.48-.93.71-1.41.23-.49-.08-1.1-.56-1.3-.12-.05-.25-.07-.37-.07s-.26.02-.38.07M165.02,141.12l-.12.21c.04-.07.08-.14.12-.21M123.36,153.24h.02-.02Z"/>
              <path class="cls-27" d="M163.15,141.16c-.21.17-.31.4-.34.66-.17,1.11-.17,2.25-.05,3.37.11,1.01.37,2,.74,2.94.36.9.86,1.74,1.42,2.52.56.79,1.23,1.47,1.94,2.12,1.42,1.3,3.05,2.3,4.75,3.17,1.69.87,3.46,1.59,5.23,2.29,1.36.53,2.73,1.05,4.04,1.71.73.38,1.44.79,2.12,1.26.66.45,1.28.95,1.87,1.48.99.94,1.86,1.99,2.59,3.15-.02-.03-.04-.07-.06-.1.97,1.56,1.69,3.25,2.23,5,0-.02-.02-.05-.02-.07.4,1.33.69,2.69.89,4.07.05.3.51.23.47-.08-.32-2.14-.76-4.27-1.47-6.32-.65-1.87-1.57-3.64-2.75-5.24-1.22-1.65-2.75-3.07-4.44-4.23-.94-.64-1.93-1.17-2.94-1.69-.84-.43-1.69-.84-2.53-1.26-.88-.43-1.76-.86-2.64-1.31.01,0,.02.01.03.02-.01,0-.03-.01-.04-.02l-.24-.12s.06.03.09.04c-2.03-1.06-4.03-2.23-5.74-3.76-.73-.7-1.39-1.46-1.95-2.31-.47-.79-.85-1.63-1.12-2.51-.29-1.03-.44-2.07-.48-3.13,0-.27,0-.54-.01-.81,0-.27-.04-.5-.22-.72-.16-.2-.4-.32-.66-.35-.03,0-.06,0-.08,0-.23,0-.45.08-.63.23M165.28,146.07v.02s0-.02,0-.02ZM174.2,154.6s0,0,0,0c-.05-.03-.11-.06-.16-.08l.15.08Z"/>
              <path class="cls-52" d="M163.11,129.84c-.94,1.42-2.03,2.71-3.24,3.82l.06-.05c-1.29,1.16-2.71,2.11-4.22,2.85.03-.01.06-.03.09-.04-2.26,1.1-4.65,1.75-7.06,2.13.04,0,.08-.01.12-.02-3.8.59-7.64.62-11.48.58-1.97-.02-3.95-.05-5.93-.04-1.96,0-3.91.05-5.86.23-1.93.18-3.86.46-5.76.94-1.86.47-3.67,1.15-5.41,2.06-1.76.92-3.39,2.13-4.88,3.56-.77.74-1.48,1.55-2.14,2.4-.73.94-1.4,1.96-1.98,3.04-1.3,2.43-2.08,5.19-2.77,7.91-.69,2.73-1.28,5.5-2.21,8.13-.51,1.4-1.13,2.76-1.92,3.98.03-.05.06-.09.1-.14-.46.69-.97,1.33-1.56,1.88-.06.05-.12.11-.18.16-.17.14-.29.29-.35.53-.06.23-.03.47.07.68.23.47.85.6,1.18.18.46-.6.91-1.21,1.33-1.86.43-.66.82-1.36,1.18-2.08.71-1.44,1.26-2.98,1.76-4.53,1.05-3.26,1.81-6.65,2.97-9.86l-.08.21c.64-1.74,1.39-3.42,2.36-4.94,1.12-1.68,2.44-3.19,3.88-4.51-.06.06-.12.11-.18.16,1.57-1.42,3.3-2.57,5.12-3.48,2.61-1.25,5.38-2,8.17-2.44-.07,0-.14.02-.21.03,1.93-.3,3.87-.48,5.81-.59,1.97-.12,3.95-.14,5.92-.18,3.87-.07,7.75-.1,11.59-.67,3.04-.45,6.06-1.29,8.83-2.82,1.37-.75,2.66-1.69,3.85-2.78,1.27-1.16,2.39-2.52,3.38-4.01.09-.13.11-.3,0-.43-.05-.06-.13-.09-.2-.09-.07,0-.13.03-.17.09M97.04,173.08"/>
              <path class="cls-6" d="M168.85,132.57c-.14.08-.17.25-.13.41.46,1.52,1.12,2.95,1.94,4.26.82,1.31,1.8,2.48,2.85,3.54,1.09,1.12,2.27,2.12,3.48,3.05,1.26.97,2.53,1.9,3.82,2.8,1.87,1.3,3.74,2.6,5.59,3.96,1.74,1.28,3.45,2.64,4.99,4.23.97,1.05,1.85,2.21,2.57,3.5.5.96.91,1.98,1.22,3.05.32,1.25.5,2.54.56,3.84.04,1.34-.04,2.66-.17,3.99-.05.56.27,1.12.72,1.3.27.11.56.1.82-.04.24-.13.5-.42.57-.73.44-2.05.6-4.15.43-6.26-.07-.84-.21-1.67-.41-2.49-.21-.87-.48-1.7-.81-2.51-1.27-3.05-3.43-5.46-5.79-7.38-.88-.72-1.81-1.36-2.75-1.97-1.02-.66-2.06-1.27-3.12-1.85-2.05-1.12-4.13-2.18-6.15-3.39.04.03.08.05.13.08-2.22-1.33-4.39-2.86-6.25-4.82,0,0,.02.02.03.03-.97-1.04-1.83-2.19-2.55-3.47,0,0,0,0,0,0-.51-.94-.92-1.94-1.23-2.98-.03-.11-.14-.18-.24-.18-.04,0-.07,0-.11.03M170.39,135.63s.02.03.02.04c0-.01-.01-.03-.02-.04M173.02,139.21s-.03-.03-.04-.04c.01.02.03.03.04.04"/>
              <path class="cls-20" d="M157.49,128.48c-.96.87-1.99,1.59-3.09,2.19.03-.01.05-.03.07-.04-.92.5-1.85.93-2.82,1.27-.95.34-1.92.6-2.89.82.01,0,.02,0,.03,0-.02,0-.04,0-.05.01l-.09.02s.02,0,.04,0c-1.27.25-2.55.39-3.83.46-.68.04-1.36.07-2.03.06-.66,0-1.33-.04-1.99-.1.07,0,.15.01.22.02-.87-.08-1.73-.22-2.58-.39-.48-.1-.96.24-1.06.81-.1.54.21,1.14.7,1.24,1.68.34,3.39.41,5.09.32,1.77-.1,3.52-.44,5.23-.97.86-.26,1.7-.57,2.53-.92.82-.34,1.63-.75,2.42-1.18,1.55-.83,3.04-1.88,4.39-3.11.11-.1.16-.27.08-.42-.05-.09-.14-.14-.23-.14-.05,0-.09.02-.13.05M148.69,132.74s.04,0,.06-.01c0,0,.02,0,.02,0-.03,0-.05.01-.08.02"/>
              <path class="cls-53" d="M144.92,201.76c-.16-.16-.44-.31-.68-.28-.94.1-1.88.15-2.82.06-.46-.07-.9-.18-1.33-.35-.3-.14-.58-.3-.85-.49-.27-.22-.51-.47-.73-.73-.23-.33-.43-.67-.6-1.03.34-.24.58-.64.56-1.07-.03-.84,0-1.69.1-2.53.2-1.32.52-2.61.81-3.91.3-1.35.54-2.7.67-4.08.01-.12.02-.23.03-.35.24-.25.39-.58.39-.94.01-.7-.01-1.41-.04-2.11-.04-.85-.09-1.7-.17-2.54-.17-1.98-.44-3.96-.88-5.91-.42-1.88-1.05-3.75-1.99-5.44-.44-.8-.98-1.54-1.59-2.21-.26-.28-.53-.53-.83-.76-.38-.3-.76-.58-1.2-.79-.18-.09-.37-.16-.56-.23-.11-.03-.23-.05-.34-.05s-.23.02-.34.05c-.22.06-.4.17-.56.33-.05.05-.09.1-.13.16-.13-.07-.28-.11-.43-.11-.24,0-.47.1-.64.27-.31.3-.32.73-.14,1.1.02.05.05.1.07.15-.1.09-.14.26-.06.38.07.1.15.2.22.3-.33-.22-.67-.43-1.03-.6-.26-.12-.57-.08-.72.19-.09.16-.08.32-.02.46-1.45-.55-2.98-.78-4.53-.78-1.11,0-2.22.11-3.31.3-.13.02-.21.18-.17.31.04.14.17.2.31.17.26-.04.51-.09.77-.12h-.07c1.31-.16,2.63-.18,3.94-.01.94.14,1.85.38,2.72.75.11.05.2.11.31.16-.87.12-1.75.14-2.63.1-1.85-.12-3.69-.34-5.54-.37-1.51-.03-3.02.12-4.48.5-2.82.74-5.11,2.78-7.02,4.9-.24.27-.2.71.07.94.28.24.7.2.94-.07.49-.55,1-1.07,1.54-1.56.77-.68,1.59-1.27,2.5-1.75.79-.38,1.62-.66,2.48-.86,1.08-.21,2.18-.26,3.27-.2.95.08,1.88.22,2.82.4,1.12.22,2.23.45,3.37.58,1.1.13,2.23.17,3.33.04.55-.07,1.1-.2,1.63-.35.65.73,1.2,1.53,1.68,2.37.94,1.78,1.57,3.7,2.05,5.65.29,1.26.49,2.53.62,3.81.04.35.05.71.08,1.06,0,1.63-.12,3.26-.33,4.88-.1.7-.23,1.4-.34,2.1-.15.92-.25,1.86-.28,2.79-.03.9.03,1.8.15,2.7.11.8.29,1.58.58,2.33.15.39.32.77.53,1.13.21.38.48.73.75,1.07.23.28.49.53.77.75.35.27.7.51,1.1.71,1.81.89,3.91.84,5.8.25.41-.13.71-.49.71-.93,0-.26-.1-.5-.28-.68Z"/>
              <path class="cls-53" d="M157.1,164.99c-.49.23-.73.75-.65,1.27.08.53.23,1.04.51,1.49.17.28.35.54.57.79.22.24.47.46.72.66.47.37,1.03.65,1.58.87.53.22,1.09.34,1.66.45,1.83.37,3.71.12,5.56-.03,2.36.2,4.74.26,7.07.75-.04-.01-.09-.02-.13-.03.51.11,1.02.24,1.52.4.42.17.83.35,1.24.56.53.28,1.05.59,1.54.93.57.39,1.08.84,1.61,1.27.18.15.48.12.65-.03.21-.18.27-.55.07-.76-.56-.62-1.24-1.14-1.92-1.62-.71-.5-1.47-.92-2.25-1.29-1.54-.73-3.2-1.18-4.86-1.54-.81-.18-1.63-.36-2.45-.48-.86-.13-1.72-.25-2.59-.37-1.3-.19-2.62-.3-3.91-.55-.72-.16-1.43-.37-2.1-.69-.4-.23-.78-.5-1.13-.8-.32-.3-.63-.62-.93-.94-.24-.26-.57-.42-.9-.42-.16,0-.33.04-.49.11M167.63,170.45s-.02,0-.03,0c0,0,0,0,.02,0h.01Z"/>
              <path class="cls-54" d="M131.83,164.89c-.13,0-.25.07-.31.18-.05.08-.06.18-.04.27.03.1.09.17.17.22.59.33,1.16.71,1.7,1.13.92.72,1.79,1.59,2.57,2.58.88,1.15,1.63,2.45,2.24,3.86.77,1.86,1.3,3.9,1.62,6.23.17,1.26.26,2.59.27,3.94,0,.63-.01,1.25-.04,1.87-.03.55-.06,1.14-.13,1.72,0,.06-.01.1-.02.14l.05-.11c-.16.83-.37,1.64-.58,2.39-.14.51-.3,1.02-.45,1.53-.12.39-.23.78-.35,1.17-.3,1.04-.52,1.92-.67,2.77-.19,1.04-.25,1.89-.19,2.68.06.9.29,1.71.68,2.43.39.7,1.01,1.3,1.86,1.79.36.21.79.4,1.35.6.41.15.88.26,1.44.36.47.08.92.11,1.36.11.58,0,1.12-.07,1.59-.22.39-.12.62-.53.52-.92-.09-.32-.39-.54-.73-.54-.07,0-.13,0-.19.03-.16.04-.3.07-.46.1-.26.03-.52.04-.78.04-.31,0-.62-.02-.92-.06-.63-.09-1.22-.24-1.79-.46-.42-.18-.77-.38-1.07-.6-.2-.16-.39-.36-.58-.59-.16-.23-.3-.47-.42-.74-.12-.32-.21-.67-.28-1.06-.09-.73-.08-1.54.05-2.53.22-1.47.58-2.84.93-4.16.17-.66.35-1.31.5-1.97.11-.44.2-.89.27-1.34.07-.43.11-.89.15-1.46.06-.96.07-1.98.04-3.11-.13-4.68-1.2-8.79-3.18-12.22-.71-1.24-1.57-2.37-2.55-3.38-.98-1.01-2.14-1.9-3.44-2.63-.06-.03-.12-.05-.18-.05"/>
              <path class="cls-28" d="M128.57,190.99c-.47.48-.96.93-1.5,1.33-.79.57-1.64,1.03-2.54,1.39l.06-.02s-.05.02-.08.03c-.02.01-.05.02-.07.03.01,0,.03-.01.04-.02-.85.31-1.71.53-2.61.64-.94.09-1.88.08-2.81-.06-.81-.15-1.59-.38-2.35-.69-.87-.4-1.67-.9-2.42-1.5-.2-.17-.4-.34-.59-.52-.19-.18-.4-.29-.67-.3-.24,0-.49.09-.66.26-.36.33-.42.99-.04,1.34.63.59,1.31,1.12,2.04,1.56.7.42,1.45.76,2.22,1.02,1.45.5,3.01.65,4.54.5,3.14-.31,6.01-1.94,8.18-4.19.21-.21.24-.54.03-.76-.1-.11-.25-.17-.4-.17-.13,0-.26.05-.36.14M124.49,193.73h.03s.01-.02.02-.02c-.02,0-.03.01-.05.02"/>
              <path class="cls-44" d="M127.5,162.41c-1,0-2.06.11-3.23.34-.98.19-2.01.45-3.03.79-1.36.44-2.72,1.05-4.05,1.79-1.38.77-2.66,1.69-3.81,2.72-1.13,1.02-2.12,2.16-2.92,3.4-.81,1.26-1.4,2.63-1.73,4.08-.13.23-.08.47.11.6.07.04.15.07.23.07.14,0,.27-.07.35-.18.28-.43.59-.84.94-1.24.73-.81,1.59-1.55,2.56-2.21,1.44-.94,3.11-1.73,5.11-2.42h0c1.03-.33,2.16-.53,3.67-.64.85-.05,1.71-.07,2.56-.09.43,0,.85-.02,1.28-.03,1.18-.04,2.44-.1,3.68-.34,1.31-.25,2.42-.7,3.3-1.35.19-.14.37-.32.54-.53.13-.16.23-.34.33-.57.07-.16.11-.36.12-.6.01-.27-.06-.5-.15-.76-.07-.21-.2-.39-.33-.57-.18-.26-.39-.45-.57-.61-.22-.19-.46-.38-.77-.59-.27-.18-.55-.32-.81-.44-.5-.23-1.03-.36-1.45-.44-.51-.1-1.07-.15-1.72-.17h-.1s-.1,0-.1,0Z"/>
              <path class="cls-37" d="M161.43,189.83c.47.48.96.93,1.5,1.33.79.57,1.64,1.03,2.54,1.39-.02,0-.04-.01-.06-.02.03.01.05.02.08.03.02,0,.05.02.07.03-.01,0-.03-.01-.04-.02.85.31,1.71.53,2.61.64.94.09,1.88.08,2.81-.06.81-.14,1.59-.37,2.35-.69.87-.4,1.67-.9,2.42-1.5.2-.17.4-.34.59-.52.19-.18.4-.29.67-.3.24,0,.49.09.66.26.36.33.42.99.04,1.34-.63.59-1.31,1.12-2.04,1.56-.7.42-1.45.76-2.22,1.02-1.45.5-3.01.65-4.54.5-3.14-.31-6.01-1.94-8.18-4.19-.21-.21-.24-.54-.03-.76.1-.11.25-.17.4-.17.13,0,.26.05.36.14M165.52,192.57s-.02,0-.03-.01c0,0-.01,0-.02,0,.02,0,.03.01.05.02"/>
              <path class="cls-19" d="M162.5,161.25c1,0,2.06.11,3.23.34.98.19,2.01.45,3.03.79,1.36.44,2.72,1.05,4.05,1.79,1.38.77,2.66,1.69,3.81,2.72,1.13,1.02,2.12,2.16,2.92,3.4.81,1.26,1.4,2.63,1.74,4.08.13.23.08.47-.11.6-.07.04-.15.07-.23.07-.14,0-.27-.07-.35-.18-.29-.43-.59-.84-.94-1.24-.73-.81-1.59-1.55-2.56-2.21-1.44-.94-3.11-1.73-5.11-2.42h0c-1.03-.33-2.16-.53-3.67-.64-.85-.05-1.71-.07-2.56-.09-.43,0-.85-.02-1.28-.03-1.18-.04-2.44-.1-3.68-.34-1.31-.25-2.42-.7-3.3-1.35-.19-.14-.37-.32-.54-.53-.13-.16-.23-.34-.33-.57-.07-.16-.11-.36-.12-.6-.01-.27.06-.5.15-.76.07-.21.2-.39.33-.57.18-.26.39-.45.57-.61.22-.19.46-.38.77-.59.27-.18.55-.32.81-.44.5-.23,1.03-.36,1.45-.44.51-.1,1.07-.15,1.72-.17h.1s.1,0,.1,0Z"/>
              <path class="cls-4" d="M158.03,204.7c-.22,0-.42.2-.42.42,0,.7-.04,1.33-.11,1.94-.14,1.07-.41,2.1-.81,3.05-.36.83-.83,1.62-1.38,2.35-.56.7-1.19,1.33-1.88,1.87-.75.57-1.59,1.07-2.51,1.47-.97.4-1.98.67-2.99.82,0,0-.07.02-.07.02,0,0-.06.02-.06.02-.45.03-.99.06-1.51.06s-1.1-.04-1.64-.11c-.95-.14-1.87-.4-2.76-.76-.79-.35-1.52-.78-2.18-1.28-.63-.5-1.21-1.07-1.71-1.71-.53-.69-.98-1.46-1.34-2.29-.42-1.01-.71-2.1-.86-3.25l-.03-.24c-.02-.13-.04-.21-.12-.29-.08-.08-.19-.12-.3-.12-.12,0-.24.06-.32.16-.07.08-.1.17-.09.27.1.91.27,1.73.5,2.52.21.74.51,1.47.87,2.17.64,1.26,1.55,2.4,2.64,3.31,1.02.86,2.22,1.52,3.55,1.98,1.23.42,2.55.63,3.95.63,1.36,0,2.76-.24,4.05-.68.62-.21,1.26-.48,1.9-.82.56-.29,1.13-.67,1.74-1.14,1.08-.84,2.03-1.93,2.74-3.15.75-1.28,1.24-2.74,1.45-4.32.11-.82.14-1.65.1-2.47-.01-.24-.2-.42-.42-.42"/>
            </g>
          </g>
        </g>
        <circle class="cls-9" cx="148.5" cy="153.68" r="128.99"/>
      </g>
    </g>
  </g>
</svg>