<?xml version="1.0" encoding="UTF-8"?>
<svg id="Capa_1" data-name="Capa 1" xmlns="http://www.w3.org/2000/svg" viewBox="0 0 1200 1200">
  <defs>
    <style>
      .cls-1 {
        fill: #ee985e;
      }

      .cls-2, .cls-3 {
        fill: #243862;
      }

      .cls-4 {
        fill: #2d54a0;
      }

      .cls-5 {
        fill: #20386d;
      }

      .cls-6 {
        fill: #f07f2a;
      }

      .cls-7 {
        fill: #ee7d2c;
      }

      .cls-8 {
        fill: #fff;
      }

      .cls-9 {
        fill: #f4f3f9;
      }

      .cls-10 {
        fill: #eaf3fa;
      }

      .cls-11 {
        fill: #2c488c;
      }

      .cls-12 {
        fill: #1c478a;
      }

      .cls-13 {
        fill: #f7b17f;
      }

      .cls-14 {
        fill: #f9ddbf;
      }

      .cls-15 {
        fill: #aa463e;
      }

      .cls-16 {
        fill: #2e3552;
      }

      .cls-17 {
        fill: #b64d41;
      }

      .cls-18, .cls-3 {
        opacity: .2;
      }

      .cls-19 {
        fill: #f49749;
      }

      .cls-20 {
        fill: #19365e;
      }

      .cls-21 {
        fill: #e9c3a2;
      }

      .cls-22 {
        fill: #e8945b;
      }

      .cls-23 {
        fill: #476ba6;
      }

      .cls-24 {
        fill: #ee9960;
      }
    </style>
  </defs>
  <rect class="cls-9" width="1200" height="1200"/>
  <g>
    <path class="cls-10" d="M55.14,839.14c0-10.79-116.48-377.09,57.02-494.12,284.32-191.78,466.82,28.95,540.46,51.57,185.23,56.88,256.15-74.72,400.79-31.23,163.32,49.12,152.18,352.62,77.15,475.68l-1075.41-1.91Z"/>
    <path class="cls-16" d="M20.49,840h1150.17c.72,0,1.3.58,1.3,1.3v.43c0,.72-.58,1.3-1.3,1.3H20.49c-.72,0-1.3-.58-1.3-1.3v-.43c0-.72.58-1.3,1.3-1.3Z"/>
    <g>
      <path class="cls-2" d="M621.61,606.91c-.75,0-1.48-.43-1.82-1.16l-6.74-14.46h-22.35c-1.11,0-2-.9-2-2s.9-2,2-2h23.63c.78,0,1.49.45,1.81,1.16l7.28,15.62c.47,1,.03,2.19-.97,2.66-.27.13-.56.19-.84.19Z"/>
      <path class="cls-2" d="M607.27,592.31h-17.17c-1.67,0-3.03-1.36-3.03-3.03h0c0-1.67,1.36-3.03,3.03-3.03h17.17c1.67,0,3.03,1.36,3.03,3.03h0c0,1.67-1.36,3.03-3.03,3.03Z"/>
      <path class="cls-13" d="M589.8,583.01c.56.43,10.53-.84,13.73,1.18,3.21,2.02,6.29,7.64,4.85,9.64-1.44,2-8.26-4.01-10.26-3.91s-7.76-1.68-7.76-1.68l-.56-5.24Z"/>
      <path class="cls-14" d="M592.84,582.21s1.04,1.81,1.02,3.39c-.03,2.66-1.02,3.93-1.02,3.93,0,0-12.05.96-25.03-.91-7.21-1.04-14.71-2.96-20.58-6.41-7.97-4.69-15.38-21.37-20.89-37.3-5.85-16.89-9.56-32.93-9.56-32.93,2.71-6.57,9.9-10.52,15.94-9.55,3.31.53,11.08,3.09,12.84,5.4,2.69,3.54,10.31,35.87,16.28,51.17,1.32,3.36,30.99,23.22,30.99,23.22Z"/>
      <path class="cls-21" d="M567.81,588.62c-7.21-1.04-14.71-2.96-20.58-6.41-7.97-4.69-15.38-21.37-20.89-37.3-.09-11.5-.09-21-.09-21l13.05,5.41c.4.8,4.61,40.3,14.03,48.31,8,6.81,13.11,10.14,14.47,10.99Z"/>
      <rect class="cls-3" x="729.16" y="688.01" width="6.27" height="131.15" transform="translate(1464.59 1507.16) rotate(180)"/>
      <g class="cls-18">
        <path class="cls-2" d="M743.43,828.89c0-6.15-4.99-11.14-11.14-11.14s-11.14,4.99-11.14,11.14,4.99,11.14,11.14,11.14,11.14-4.99,11.14-11.14Z"/>
        <path class="cls-19" d="M728.47,828.89c0-2.11,1.71-3.82,3.82-3.82s3.82,1.71,3.82,3.82-1.71,3.82-3.82,3.82-3.82-1.71-3.82-3.82Z"/>
      </g>
      <path class="cls-2" d="M573.82,606.91c-.75,0-1.48-.43-1.82-1.16l-6.74-14.46h-22.35c-1.11,0-2-.9-2-2s.9-2,2-2h23.63c.78,0,1.49.45,1.82,1.16l7.28,15.62c.47,1,.03,2.19-.97,2.66-.27.13-.56.19-.84.19Z"/>
      <g class="cls-18">
        <g>
          <path class="cls-4" d="M659.91,834.69c-.46-2.09,23.17-85.17,25.86-94.63l.77.22c-7.24,25.43-26,91.93-25.85,94.27l-.79.15Z"/>
          <path class="cls-4" d="M625.72,774.33c2.09-.46,85.17,23.17,94.63,25.86l-.22.77c-25.43-7.24-91.93-26-94.27-25.85l-.15-.79Z"/>
          <path class="cls-4" d="M634.42,757.11c2.11.38,69.65,54.21,77.35,60.35l-.5.63c-20.67-16.48-74.8-59.43-77.01-60.19l.16-.78Z"/>
          <path class="cls-4" d="M722.28,781.17c-2.01-.75-87.55,11.17-97.3,12.53l.11.79c26.18-3.66,94.64-13.04,96.93-12.56l.26-.76Z"/>
          <path class="cls-4" d="M654.48,742.48c1.64,1.38,33.41,81.69,37.03,90.85l-.74.29c-9.72-24.59-35.27-88.78-36.82-90.55l.53-.6Z"/>
          <path class="cls-4" d="M711.73,758.15c-2.11.35-70.37,53.28-78.15,59.31l.49.63c20.89-16.21,75.58-58.43,77.81-59.16l-.15-.79Z"/>
        </g>
        <circle class="cls-19" cx="672.23" cy="788.62" r="6.67" transform="translate(-250.62 317.28) rotate(-22.5)"/>
        <path class="cls-2" d="M619.77,787.56c0-28.93,23.53-52.46,52.46-52.46s52.46,23.53,52.46,52.46-23.53,52.46-52.46,52.46-52.46-23.53-52.46-52.46ZM625.38,787.56c0,25.84,21.02,46.85,46.85,46.85s46.85-21.02,46.85-46.85-21.02-46.85-46.85-46.85-46.85,21.02-46.85,46.85Z"/>
      </g>
      <path class="cls-2" d="M559.48,592.31h-17.17c-1.67,0-3.03-1.36-3.03-3.03h0c0-1.67,1.36-3.03,3.03-3.03h17.17c1.67,0,3.03,1.36,3.03,3.03h0c0,1.67-1.36,3.03-3.03,3.03Z"/>
      <path class="cls-24" d="M711.12,675.89s9.71,1,10.91,2.34c1.2,1.33,5.61,8.63,5.74,9.99.13,1.36.03,3.86-.97,3.46-1-.4-5.2-7.07-7.33-7.17s-8.93-2.95-8.93-2.95l.57-5.66Z"/>
      <polygon class="cls-11" points="700.95 727.78 610.58 728.71 569.92 601.63 653.51 600.7 700.95 727.78"/>
      <path class="cls-24" d="M671.77,607.17s1.79,46.72,6.14,51.37c2.81,3.01,33.2,17.35,33.2,17.35l-.31,5.73s-39.53-5.6-45.35-12.64c-11.5-13.92-12.26-51.85-12.82-55.89-.56-4.03,11-12.12,19.13-5.92Z"/>
      <path class="cls-5" d="M760.73,804.85h-30.25s-1.13-4.82.85-8.11c1.76-2.9,1.08-4.56-.22-6.96,1.37.56,3.14,1.07,5.09.96,1.51-.09,3.1-.77,4.5-1.58,1.3,1.48,6.88,7.8,8.62,9.05,1.98,1.42,10.79.91,11.4,6.64Z"/>
      <path class="cls-7" d="M621.29,694.24c2.01,12.11,12.75,20.83,25.03,20.69,15.23-.18,37.47-.49,45.63-.79,17.28-.65,23.77.05,23.72.53-.78,7.26-1.41,4.16,6.64,3.6,0,0,28.47-.8,19.95-20.28-8.52-19.48-89.42-25.55-96.57-24.71-6.08.72-27.52,2.2-24.4,20.97Z"/>
      <path class="cls-7" d="M743.81,705.63c-.36,13.77-2.5,51.93,2.86,82.58,1.36,7.78-9.8,8.01-9.87,8.02-2.12.25-5.84.44-7.07-1.1-8.6-10.68-20.75-60.23-17.45-80.8,1.61-10.03,11.61-9.85,19.69-13.55,4.97-2.28,11.99-.62,11.84,4.85Z"/>
      <rect class="cls-2" x="594.77" y="685.08" width="6.27" height="104.67" transform="translate(1195.81 1474.83) rotate(180)"/>
      <path class="cls-2" d="M642.81,523.62c8.85-2.43,18.36-.26,25.36,5.69,3.09,2.62,6.5,5.92,9.68,9.87,7.9,9.79-5.52,20.7-3.46,24.05,2.06,3.35,6.53,5.83,5.06,13.16-1.47,7.33-13.38,17.42-17.42,18.07-40.89,6.59-60.04-15.06-46.99-28.07,13.05-13.01,6.42-30.42,17.18-37.95,3.32-2.33,7.04-3.83,10.59-4.81Z"/>
      <path class="cls-13" d="M673.13,603.8c-3.27,2.56-7.42,4.75-12.7,6.29-19.81,5.79-28.47-10.73-32.03-22.21,2.65-1.72,5.2-2.22,6.68-2.48,1.44-.25,2.96-.46,4.22-.59,2.15-1.86,5.11-9.11,5.22-20.13l.96.2,16.07,3.42s-.44,5.07-.52,9.84c-.06,3.74.1,7.29.86,8.12,1.11.31,2.1.65,2.1.65.24.36.25.2.17.08.23.34,4.99,7.24,8.98,16.81Z"/>
      <path class="cls-24" d="M661.54,568.31s-.44,5.07-.52,9.84c-9.01-.38-13.66-8.68-15.55-13.26l16.07,3.42Z"/>
      <path class="cls-13" d="M664.49,572.88s-21.34.05-21.17-13.24c.17-13.29-2.46-22.23,11.17-22.83,13.63-.59,16.21,4.51,17.23,8.96,1.02,4.45-1.68,26.75-7.24,27.11Z"/>
      <path class="cls-2" d="M671.2,538.37c-3.24-4.04-5.75-3.2-7.16-2.02-11.57-6.58-19.22,2.8-19.22,2.8-1.56,9.52-8.52,14.88-8.52,14.88,0,0,3.94,2.8,12.85.28,11.4-3.22,14.79-13.46,15.24-15.03,1.29,1.19,2.9,1.9,4.26,4.56,1.61,3.16,2.62,4.99,2.95,10.31,0,0,4.46-9.71-.4-15.77Z"/>
      <rect class="cls-2" x="694.64" y="804.38" width="75.85" height="6.15" transform="translate(1465.13 1614.92) rotate(180)"/>
      <path class="cls-19" d="M611.99,694.24c2.01,12.11,12.75,20.83,25.03,20.69,15.23-.18,37.47-.49,45.63-.79,17.28-.65,23.77.05,23.72.53-.78,7.26-1.41,4.16,6.64,3.6,0,0,28.47-.8,19.95-20.28-8.52-19.48-89.42-25.55-96.57-24.71-6.08.72-27.52,2.2-24.4,20.97Z"/>
      <path class="cls-14" d="M611.9,653.8c1.45-9.92-2.08-47.47,5.77-59.2,5.67-8.49,13.54-11.84,23.25-11.99,3.13,1.77,15.03,8.46,19.7,7.28.05-.01.14-.04.26-.08,2.19-.68,2.94-2.29,1.01-3.53,0,0,7.96,1.72,10.42,4.52,2.37,2.7,2.27,8.48,3.02,15.29.19,1.69.22,3.39.42,5.07.94,7.66-1.54,8.49-9.98,30.61-4.13,10.81-2.19,19.45.56,25.2,2.47,5.16.74,11.35-4.09,14.4-16.67,10.56-49.1,28.92-50.24,12.87-1.16-16.29-2.09-26.74-.09-40.44Z"/>
      <path class="cls-13" d="M640.2,605.72s8.01,54.37,13.35,58.98c3.45,2.98,37.74,8.5,37.74,8.5l.56,5.29s-48.92,3.59-51.72-.49c-11.3-16.48-19.2-59.13-20.29-63.5-1.09-4.37,10.67-14.64,20.36-8.77Z"/>
      <path class="cls-11" d="M751.44,804.45h-30.25s-1.13-4.82.85-8.11c1.76-2.9,1.08-4.56-.22-6.96,1.37.56,3.14,1.07,5.09.96,1.51-.09,3.1-.77,4.5-1.58,1.3,1.48,6.88,7.8,8.62,9.05,1.98,1.42,10.79.91,11.4,6.64Z"/>
      <path class="cls-19" d="M734.51,705.63c-.36,13.77-2.5,51.93,2.86,82.58,1.36,7.78-9.8,8.01-9.87,8.02-2.12.25-5.84.44-7.07-1.1-8.6-10.68-20.75-60.23-17.45-80.8,1.61-10.03,11.61-9.85,19.69-13.55,4.97-2.28,11.99-.62,11.84,4.85Z"/>
      <path class="cls-8" d="M668.04,565.03s-2.06-.68-7.69.1c0,0,.43,2.19,4.61,2.17,2.37-.01,3.08-2.27,3.08-2.27Z"/>
      <path class="cls-14" d="M647.81,622.03s-14.5,12.57-31.36,8.28c0,0-6.07-40.57,15.03-41.13,0,0,17.49,6.93,16.33,32.85Z"/>
      <rect class="cls-2" x="601.04" y="720.42" width="101.39" height="7.98" transform="translate(1303.47 1448.81) rotate(180)"/>
      <rect class="cls-2" x="669.27" y="715.86" width="8.37" height="99.23" transform="translate(1639.43 1091.66) rotate(150)"/>
      <path class="cls-4" d="M601.04,720.42c1.85,0,8.89-6.64,19.94-6.28,11.05.36,72.68-.01,72.68-.01,0,0,8.05-.84,8.8,6.29h-101.42Z"/>
      <rect class="cls-2" x="693.66" y="688.01" width="6.27" height="131.15" transform="translate(1393.59 1507.16) rotate(180)"/>
      <path class="cls-13" d="M691.29,673.2s10.85.62,12.05,1.96c1.2,1.33,5.61,8.63,5.74,9.99.13,1.36.03,3.86-.97,3.46-1-.4-5.16-7.61-7.28-7.71-2.13-.1-8.97-2.41-8.97-2.41l-.56-5.29Z"/>
      <path class="cls-2" d="M590.83,691.72h118.27c0-7.26-5.89-13.14-13.15-13.14h-97.29c-4.33,0-7.83,3.51-7.83,7.83v5.31Z"/>
      <g>
        <g>
          <path class="cls-4" d="M585.58,834.69c-.46-2.09,23.17-85.17,25.86-94.63l.77.22c-7.24,25.43-26,91.93-25.85,94.27l-.79.15Z"/>
          <path class="cls-4" d="M551.39,774.33c2.09-.46,85.17,23.17,94.63,25.86l-.22.77c-25.43-7.24-91.93-26-94.27-25.85l-.15-.79Z"/>
          <path class="cls-4" d="M560.09,757.11c2.11.38,69.65,54.21,77.35,60.35l-.5.63c-20.67-16.48-74.8-59.43-77.01-60.19l.16-.78Z"/>
          <path class="cls-4" d="M647.95,781.17c-2.01-.75-87.55,11.17-97.3,12.53l.11.79c26.18-3.66,94.64-13.04,96.93-12.56l.26-.76Z"/>
          <path class="cls-4" d="M580.15,742.48c1.64,1.38,33.41,81.69,37.03,90.85l-.74.29c-9.72-24.59-35.27-88.78-36.82-90.55l.53-.6Z"/>
          <path class="cls-4" d="M637.4,758.15c-2.11.35-70.37,53.28-78.15,59.31l.49.63c20.89-16.21,75.58-58.43,77.81-59.16l-.15-.79Z"/>
        </g>
        <path class="cls-19" d="M591.23,788.62c0-3.69,2.99-6.67,6.67-6.67s6.67,2.99,6.67,6.67-2.99,6.67-6.67,6.67-6.67-2.99-6.67-6.67Z"/>
        <path class="cls-2" d="M545.44,787.56c0-28.93,23.53-52.46,52.46-52.46s52.46,23.53,52.46,52.46-23.53,52.46-52.46,52.46-52.46-23.53-52.46-52.46ZM551.05,787.56c0,25.84,21.02,46.85,46.85,46.85s46.85-21.02,46.85-46.85-21.02-46.85-46.85-46.85-46.85,21.02-46.85,46.85Z"/>
      </g>
      <g>
        <path class="cls-2" d="M707.93,828.89c0-6.15-4.99-11.14-11.14-11.14s-11.14,4.99-11.14,11.14,4.99,11.14,11.14,11.14,11.14-4.99,11.14-11.14Z"/>
        <path class="cls-19" d="M692.97,828.89c0-2.11,1.71-3.82,3.82-3.82s3.82,1.71,3.82,3.82-1.71,3.82-3.82,3.82-3.82-1.71-3.82-3.82Z"/>
      </g>
      <path class="cls-20" d="M485.27,519.19c-1.5-2.9,32.75-13.32,33.3,15.25,0,0,64.17-1.58,33.53-37.34-10.61-12.38-9.52-22.62-9.2-32.15.32-9.53-6.61-37.23-30.36-34.44,0,0-6.22-2.53-13.98,1.5-17.65,9.16-57.2,97.72-13.29,87.18Z"/>
      <path class="cls-2" d="M441.86,807.55s-7.19,6.56-5.79,11.22c1.4,4.66,7.89,7.77,8.77,13.47.88,5.7,4.38,8.81,7.54,8.81h15.05s2.32-4.01-3.29-5.22c-5.61-1.21-7.73-7.9-7.38-14.12.35-6.22-.53-14.51-.53-14.51l-11.93-2.76-2.46,3.11Z"/>
      <path class="cls-2" d="M502.71,810.34s-2.58,28.14.58,29.69h40.75s-.36-5.08-6.85-6.12c-6.49-1.04-17.89-4.84-19.82-13.3-1.93-8.46-14.66-10.27-14.66-10.27Z"/>
      <path class="cls-13" d="M473.92,610.91c8.31-18.64,13.4-23.99,12.43-29.78-.72-4.31,2.2-80.3,2.2-80.3.99-.31,2.96-.58,4.04-.82,3.41-.76,6.23-3.15,7.41-6.44,1.41-3.96,2.54-9.81,2.51-17.15l1.06.21,17.91,3.55s-.41,5.63-.42,10.94c0,.04,0,.09,0,.13-.02,4.61,3,8.68,7.43,9.96,2.26.65,4.23,1.21,4.23,1.21,0,0,6.57,18.77,7.83,38.06,1.26,19.28-11.96,27.66.1,66.2,12.31,39.36-71.33,14.54-66.74,4.24Z"/>
      <path class="cls-22" d="M521.49,480.17s-.41,5.63-.42,10.94c-10.02-.28-15.32-9.42-17.49-14.49l17.91,3.55Z"/>
      <path class="cls-13" d="M524.84,485.2s-23.71.39-23.72-14.38c-.02-14.77-3.09-24.66,12.05-25.54,15.14-.87,18.08,4.76,19.29,9.69,1.2,4.93-1.45,29.74-7.61,30.23Z"/>
      <path class="cls-20" d="M523.96,444.93s-6.49,17.32-16.45,19.89c-9.96,2.56-14.28-.11-14.28-.11,0,0,7.64-6.07,9.23-16.67,0,0,16.61-11.36,21.51-3.11Z"/>
      <path class="cls-20" d="M522.35,446.33s4.81,1.8,6.79,5.31c1.94,3.43,3.59,7.98,3.2,13.56,0,0,4.89-11.78-.61-18.44-5.83-7.06-9.39-.43-9.39-.43Z"/>
      <path class="cls-10" d="M519.68,476.04s1.64,2.15,4.91,2c2.64-.12,3.65-2.41,3.65-2.41,0,0-4.84-1.16-8.56.41Z"/>
      <path class="cls-14" d="M537.2,577.67l-23.52,7.02-7.46-1.83-21.21-5.2s-2.74-.91-5.17-6.52c-.46-1.06-1.29-4.29-2.16-8.12-.96-4.25-1.95-9.22-2.51-12.73-.82-5.17-2.47-11.61-3.91-18.55h0c-1.05-5.08-1.99-10.42-2.41-15.73-.57-7.18,4.67-13.52,11.84-14.32l7.87-.87c24.99,20.38,44.18,1.6,44.18,1.6,0,0,6.57,11.69,10.87,28.52,4.3,16.83-6.41,46.73-6.41,46.73Z"/>
      <path class="cls-7" d="M535.7,582.21s11.65,36.25,12.4,48.6c.75,12.34-22.26,175.34-23.19,181.03-.87,5.36-7.53,8.78-7.53,8.78,0,0-3.06,1.81-7.43.57-6.06-1.71-7.98-3.76-7.98-3.76,0,0-9.07-116.25-3.46-157.78,5.61-41.53,5.68-77.44,5.68-77.44h31.51Z"/>
      <path class="cls-19" d="M486.35,581.13s-17.77,23.84-19.42,39.95c-1.66,16.11-2.6,72.72-6.13,88.43-3.53,15.71-16.49,45.94-16.49,94.94,0,0,1.35,2.81,5.51,4.3,1.33.48,3.11.94,4.84,1.34,3.43.79,6.95-.89,8.52-4.04,8.77-17.65,36.69-74.57,38.12-86.38,1.01-8.36,9.83-63.7,29.06-96.17,4.62-7.8-2.83-38.8-2.83-38.8l-41.17-3.57Z"/>
      <path class="cls-8" d="M520.2,476.44s.41,1.74,4.74,1.47c0,0,3.63-.22,3.52-2.14,0,0-3.52-1.36-8.26.67Z"/>
      <path class="cls-2" d="M537.56,576.61s-4.68,3.7-13.96,3.89c-11.09.22-38.59-2.83-38.59-2.83,0,0-1.22,3.41-1.17,7.02,0,0,33.58,8.47,53.03,1.24,0,0,2.51-4.72.69-9.31Z"/>
      <path class="cls-8" d="M521.19,584.33c0-3.16,2.27-5.73,5.06-5.73s5.06,2.57,5.06,5.73-2.27,5.73-5.06,5.73-5.06-2.57-5.06-5.73ZM522.87,584.33c0,2.23,1.52,4.05,3.38,4.05s3.38-1.82,3.38-4.05-1.52-4.05-3.38-4.05-3.38,1.82-3.38,4.05Z"/>
      <path class="cls-21" d="M497.65,576.61c-9.07-4.64-15.49-9.22-19.98-13.58-.96-4.25-1.95-9.22-2.51-12.73-.82-5.17-3.68-17.97-5.12-24.91l37.77,54.41s1.7,2.88-10.17-3.19Z"/>
      <path class="cls-21" d="M511.03,540.35s16.8,26.67,21.67,31.46c4.87,4.79-19.87-3.81-19.87-3.81l-1.8-27.65Z"/>
      <path class="cls-13" d="M549.23,583.14c.56.43,10.52-.84,13.73,1.18,3.21,2.02,6.29,7.64,4.85,9.64-1.44,2-8.26-4.01-10.26-3.91-2,.1-7.76-1.68-7.76-1.68l-.56-5.24Z"/>
      <path class="cls-14" d="M470.05,525.39s17.71,47.16,34.14,56.82c16.42,9.66,45.61,7.32,45.61,7.32,0,0,.85-1.29,1.08-4.05.11-1.36-1.08-3.28-1.08-3.28,0,0-29.68-19.86-30.99-23.22-5.98-15.3-14.63-34.88-18.24-37.49s-26.46-5.93-30.51,3.89Z"/>
    </g>
    <g>
      <g>
        <rect class="cls-20" x="707.79" y="730.59" width="219.74" height="2.63" transform="translate(-62.46 1387.38) rotate(-78.51)"/>
        <rect class="cls-20" x="834.8" y="621.95" width="5.55" height="24.37" transform="translate(144.89 -155.7) rotate(11.62)"/>
      </g>
      <g>
        <path class="cls-13" d="M939.29,814.15l7.34-2.38s1.52-19.93-1.74-43.81c-2.07-15.13-5.86-31.52-12.73-44.68-3.11-5.96-6.85-11.25-11.34-15.47,0,0-5.63-13.08-13.09-30.56-8.3-19.44-60.21-25.14-30.59,15.58,6.08,8.36,12.6,23.06,20.43,32,13.36,15.27,22.8,33.1,29.27,48.79,9.26,22.44,12.45,40.52,12.45,40.52Z"/>
        <path class="cls-13" d="M956.01,815.26c2.23,3.61-2.58,7.14-8.52,10.47-5.94,3.33-3.48,3.66-11.08,9.32-7.6,5.66-12.08,5.04-13.25,4.21-1.04-.73,2.07-4.23,5.33-8.05.41-.48.82-.97,1.23-1.45,3.64-4.36,4.18-9.84,5.89-15.51,1.62-5.38-.95-18.74-.95-18.74l10.15-8.06s2.06,12.15,3.2,17.22c.67,2.98,3.1,5.47,5.07,7.3,1.07,1,2.16,2.03,2.94,3.3Z"/>
        <path class="cls-12" d="M947.48,825.73c-5.94,3.33-3.48,3.66-11.08,9.32-7.6,5.66-12.08,5.04-13.25,4.21-1.04-.73,2.07-4.23,5.33-8.05l.1.04s6.86-.92,12.73-6.13c4.78-4.24,8.48-10.2,11.76-13.15,1.07,1,2.16,2.03,2.94,3.3,2.23,3.61-2.58,7.14-8.52,10.47Z"/>
      </g>
      <path class="cls-17" d="M888.46,432s17.91-2.18,26.91,14.48c9,16.66,8.27,40.8,17,52.19,8.73,11.39-1.45,22.18-1.45,22.18l-68,2.3s-4.73-12.73,0-28c4.73-15.27-18.36-60.84,25.55-63.15Z"/>
      <path class="cls-13" d="M827.87,634.23c.7,2.66,2.98,8.66,4.75,8.66,1.44,0,1.96-7.35,3.81-8.91,2.69-2.26,4.89-7.01,5.24-8.16.72-2.37,1.4-2.86,1.4-2.86h0s0,0,0,0c0,0,21.5-39.31,23.18-49.37.55-3.28,1.96-9.85,3.61-17.21,1.8-8,3.88-16.94,5.45-23.64-6.86-1.34-14.46-1.81-20.65-1.93-1.26,8.15-2.39,16.47-3.36,23.7-1.45,10.76-2.54,19.1-3.22,20.89-1.87,4.91-7.02,31.37-11.88,45.1-.56,1.35-2.13,4.87-3.86,6.07-2.16,1.49-5.17,5.01-4.48,7.67Z"/>
      <path class="cls-13" d="M859.07,538.96c1.24-19,15.95-39.43,15.95-39.43,0,0,.53-.05,1.45-.14.5-.05.94-.37,1.11-.85.55-1.5.71-4.79.7-8.21-.01-5.23-.41-10.78-.41-10.78l17.64-3.49,1.05-.21c-.03,8.87,1.65,15.54,3.47,19.27.86,1.77,2.55,2.99,4.51,3.26,3.79.53,10.46,1.66,14.95,3.54,2.18.91,3.85,2,4.43,3.28,4.84,10.65-66.07,52.76-64.83,33.76Z"/>
      <path class="cls-22" d="M877.86,479.55s.4,5.55.41,10.78c9.87-.28,15.09-9.28,17.23-14.27l-17.64,3.49Z"/>
      <path class="cls-13" d="M874.56,484.51s23.36.39,23.37-14.16c.02-14.55,3.04-24.3-11.87-25.16-14.91-.86-17.81,4.69-19,9.54-1.19,4.85,1.42,29.3,7.5,29.78Z"/>
      <path class="cls-13" d="M841.97,823.56l7.49,1.84s11.79-16.14,21.58-38.16c6.21-13.95,11.61-29.88,12.7-44.68.49-6.7.1-13.17-1.5-19.13,0,0,2.1-14.08,4.96-32.88,3.18-20.89,7.31-47.6,10.54-67.24l-1.95-.58-31.89-18.65s-14.65,33.4-10.91,83.61c.77,10.3-1.43,26.24.52,37.96,3.32,20.02,1.96,40.14-.8,56.89-3.95,23.95-10.75,41.01-10.75,41.01Z"/>
      <path class="cls-17" d="M867.76,446.64c3.6-4.37,6.33-3.42,7.86-2.11,12.52-6.95,21,3.36,21,3.36,1.56,10.44,9.09,16.42,9.09,16.42,0,0-4.16,2.21-14.07.11-11.77-2.5-15-15.75-15.47-17.48-1.43,1.28-4.24,4.06-5.09,6.79-1.16,3.7-1.69,11.33-3.91,11.07,0,0-4.82-11.6.6-18.16Z"/>
      <path class="cls-14" d="M844.55,737.11c28.2,16.11,102.44-9.55,102.37-11.03-.39-7.89-7.53-55.37-15.91-100.68-5.15-27.86-18.86-38.27-16.67-40.03.02-.02.03-.03.03-.03,8.45-6,15.23-69.39,9.59-80.11-.27-.52-.74-1-1.39-1.46.04-.04.05-.07.05-.07-5.28-3.85-16.07-5.03-16.07-5.03,0,0-5.81,14.24-7.59,16.46-11.51,14.38-32.18,7.89-29.37-1.07,1.01-3.26,6.24-13.53,6.87-14.67.03-.05-1.46.14-1.46.14-3.47.46-5.92.81-7.69,1.11-3.47.59-4.33,1-5.19,1.67-3.04,3.04-7,10.6-7.32,24.1-.12,5.02-5.35,60.43,11.56,59.47.38-.02.05.88-.68,2.6-2.39,5.49-9.16,19.26-11.13,36.92-6.39,57.46-10.01,111.71-10.01,111.71Z"/>
      <path class="cls-8" d="M880.44,475.63s-.32,1.82-4.8,1.78c0,0-3.76-.03-3.75-2.01,0,0,3.56-1.6,8.55.22Z"/>
      <path class="cls-13" d="M855.6,833.31c0,4.24-5.95,4.71-12.76,4.41-6.81-.3-4.89,1.28-14.33,2.09-9.44.81-12.92-2.08-13.48-3.4-.49-1.17,3.99-2.5,8.77-4.04.6-.19,1.21-.39,1.81-.59,5.39-1.79,8.73-6.16,13.17-10.09,4.21-3.72,9.06-16.43,9.06-16.43l12.87-1.51s-4.65,11.42-6.35,16.32c-1,2.88-.24,6.28.47,8.88.38,1.41.77,2.86.76,4.35Z"/>
      <path class="cls-12" d="M842.84,837.72c-6.81-.3-4.89,1.28-14.33,2.09-9.44.81-12.92-2.08-13.48-3.4-.49-1.17,3.99-2.5,8.77-4.04l.06.09s6.32,2.83,14.05,1.49c6.3-1.09,12.58-4.2,16.92-4.99.38,1.41.77,2.86.76,4.35,0,4.24-5.95,4.71-12.76,4.41Z"/>
      <path class="cls-11" d="M844.55,737.11c28.2,16.11,102.44-9.55,102.37-11.03-.39-7.89-7.53-55.37-15.91-100.68-5.15-27.86-18.86-38.27-16.67-40.03-.52.43-8.48,6.84-23.06,5.97-13.06-.79-23.12-2.42-25.58-2.86-2.39,5.49-9.16,19.26-11.13,36.92-6.39,57.46-10.01,111.71-10.01,111.71Z"/>
      <path class="cls-20" d="M914.37,585.34s-23.09,9.64-48,.55l-1.26,3.9s25.63,8.9,50.27-1.23l-1-3.22Z"/>
      <path class="cls-20" d="M865.9,460.42h7.49c.57,0,1.04.47,1.04,1.04v1.77c0,1.72-1.4,3.12-3.12,3.12h-3.83c-1.75,0-3.16-1.42-3.16-3.16v-1.18c0-.88.71-1.59,1.59-1.59Z"/>
      <path class="cls-20" d="M882.76,460.42h3.83c1.72,0,3.12,1.4,3.12,3.12v1.77c0,.57-.47,1.04-1.04,1.04h-7.49c-.88,0-1.59-.71-1.59-1.59v-1.18c0-1.75,1.42-3.16,3.16-3.16Z" transform="translate(1769.31 926.77) rotate(180)"/>
      <path class="cls-20" d="M880.66,462.98s-3.29-1.42-6.41,0l-.23-.51c3.36-1.53,6.73-.06,6.88,0l-.23.52Z"/>
      <g>
        <path class="cls-13" d="M939.84,570.2c.27-.33-12.16-4.37-19.46-2.63-4.35,1.04-2.58,6.27.98,6.64,3.56.37,16.1-1.11,18.48-4.01Z"/>
        <path class="cls-13" d="M918.41,568.8s-4.03,5.37-4.03,7.91,2.19,8.44,4.33,7.78c2.14-.66,3.04-6.31,3.37-7.62.33-1.31,2.79-2.22,3.36-4.01.57-1.8.66-2.54.66-2.54l-7.69-1.52Z"/>
      </g>
      <path class="cls-13" d="M929.32,517.66c-.06-.03,31.99,53.52,27.86,63.43-4.12,9.91-7.15,1.46-10.74-2.47-.62-.68-29.37-37.79-28.46-43.78.91-5.99,11.34-17.18,11.34-17.18Z"/>
      <g>
        <g id="man">
          <path class="cls-13" d="M914,576.99s-13.9,1.75-15.22,2.74c-1.31.99-4.49,7.61-4.16,9.64.33,2.04,4.82,5.25,6.35,5.25s2.09-3.39,3.52-4.16c1.42-.77,2.76-.95,3.85-1.24,2.09-.56,6.04-2.37,6.04-2.37l-.38-9.85Z"/>
          <path class="cls-2" d="M977.1,510.53s-18.3,49.51-26.18,53.33c-7.88,3.82-36.93,13.14-36.93,13.14v11.38s29.56.47,44.22-3.82c14.67-4.28,33.77-20.28,33.77-20.28l-14.88-53.76Z"/>
          <path class="cls-2" d="M1015.31,463.65l-17.9,33.96-4.27.31-1.93,5.42-17.95,54.06s-9.93-68.69,42.05-93.75Z"/>
          <path class="cls-2" d="M985.45,493.68s-19.79,72.98-21.7,142.61c0,0,16.42,5.72,42.21,1.19,25.92-4.55-20.51-143.8-20.51-143.8Z"/>
          <g>
            <path class="cls-2" d="M1075.7,840.49h17.8c2.24-1.22,4.24-4,4.87-8.15.87-5.73,7.29-8.86,8.69-13.55,1.39-4.69-5.73-11.29-5.73-11.29l-1.19-1.54-1.24-1.59-11.81,2.78s-.29,2.81-.47,6.4c-.13,2.59-.2,5.57-.05,8.19.35,6.25-1.75,12.99-7.3,14.2-4.11.9-3.92,3.34-3.55,4.55Z"/>
            <path class="cls-2" d="M972.41,840.49h40.7c1.96-2.39,1.24-11.2.94-14.08-.06-.58-.1-.92-.1-.92,0,0-13.9-11.12-15.81-2.6-.06.27-.13.53-.21.79-2.41,7.96-13.19,11.58-19.42,12.59-4.05.66-5.55,2.76-6.1,4.23Z"/>
            <path class="cls-19" d="M980.17,613.31s2.11,26.33,4.59,57.98c3.37,42.99,7.42,95.8,7.83,105.81.69,17.37,3.48,45.16,3.48,45.16,0,0,6.6,6.6,19.8,3.82,0,0,11.77-39.67,15.13-81.64.05-.69.1-1.38.16-2.07,3.13-42.73,7.99-132.7,7.99-132.7l-58.96,3.65Z"/>
            <path class="cls-7" d="M980.17,613.31s2.11,26.33,4.59,57.98l46.23,73.15c.05-.69.1-1.38.16-2.07,3.13-42.73,7.99-132.7,7.99-132.7l-58.96,3.65Z"/>
            <path class="cls-19" d="M989.81,616.43s38.04,95.36,63.05,140.17c25.01,44.81,32.83,57.32,32.83,57.32,0,0,14.33-5.73,15.63-9.64,0,0-9.56-86.51-26.31-107.6-9.46-11.92-20.58-47.68-21.1-60.18-.52-12.51-3.39-37.26-3.39-37.26l-60.7,17.2Z"/>
          </g>
          <path class="cls-13" d="M999.27,477.42c14.86,4.69,40.58-7.97,40.58-7.97,0,0-13.71-10.29-12.99-31.67l-11.49,9.26-7.81,6.29s.03,3.71.89,10.21c.16,1.19.34,2.46.55,3.83.17,1.09-.31,2.19-1.25,2.77-5.42,3.35-8.49,7.27-8.49,7.27Z"/>
          <path class="cls-8" d="M978.53,615.5c.45.37.97.6,1.56.6,5.58-.08,21.86,3.02,35.63,1.61,11.61-1.11,21.89-4.55,32.92-9.5,1.47-.66,4.84-2.46,4.76-4.1-.05-1.79-.23-4.39-.45-7.67-.78-11.39-2.14-30.98-.82-53.59.24-4.21.36-8.38.38-12.49.11-30.64-5.96-57.58-18.17-66.7,0,0-8.51,4.77-14.4,6.66-5.77,1.85-8.75,1.47-11.74-.51,0,0-5.83,2.9-8.32,5.61-5.77,6.29-10.27,14.63-13.25,26.62-2.53,10.2-4.9,25.06-5.72,44.12-.37,8.63-2.76,69.05-2.39,69.35Z"/>
          <path class="cls-11" d="M1063.12,629.7c-37.52,23.53-68.13,11.6-68.13,11.6-5.49-42.93-2.45-94.73-1.74-107.36,1.82-55.47,41.1-70.29,41.1-70.29l16.36,50.62,2.42,22.52,4.37,40.69,5.61,52.22Z"/>
          <path class="cls-1" d="M1007.57,453.34s.03,3.71.89,10.21c8.65-1.48,18.46-15.47,18.46-15.47-4.4-1.27-8.26-1.5-11.54-1.03l-7.81,6.29Z"/>
          <path class="cls-13" d="M1001.13,452.94s26.77,4.45,29.29-12.27c2.51-16.72,7.66-27.4-9.33-30.95-16.99-3.55-21.28,2.33-23.47,7.71-2.2,5.38-3.39,33.92,3.51,35.51Z"/>
          <path class="cls-13" d="M1077.04,598.64s2.87,3.82,2.98,5.35c.77,10.36-3.96,11.79,8.29,17.54,0,0,5.23,1.99,5.32-2.06.09-4.06-3.63-4.13-2.95-9.81.78-6.56.71-6.62-3.6-10.04l-2.85-4.71-7.2,3.74Z"/>
          <path class="cls-11" d="M1030.44,439.06s-2.75-.46-2.3-4.24c.44-3.78.44-8.73-2.64-7.81-3.08.92-3.23,3.39-4.49,1.95-1.26-1.44-1.29-7.5-10.44-7.92-9.15-.42-12.88,2.76-17.13.89-4.26-1.87-4.48-8.32-4.48-8.32,0,0,1.21,2.3,3.04,3.03,0,0-7.1-9.71,1.12-16.38,8.22-6.66,16.61-2.3,21.37-2.01,10.48.63,17.26,1.26,20.68,8.15s2.01,26.02-4.72,32.65Z"/>
          <path class="cls-13" d="M1081.57,603.2s-2.76,2.88-2.94,4.08c-.56,3.85-1.85,5.51-1.2,5.93,1.34.87,3.11-1.98,3.96-4.54.85-2.56.18-5.47.18-5.47Z"/>
          <path class="cls-2" d="M1057.51,577.48c-8.23-21.04-31.2-56.52-31.2-56.52l26.83,15.84,4.37,40.69Z"/>
          <path class="cls-11" d="M1084.34,601.57c-4.62.9-9.62.54-9.62.54,0,0-13.7-42.33-15.47-46.19-1.14-2.5-18.61-20.28-30.84-32.55-7.19-7.22-9.53-17.97-5.99-27.53l11.92-32.18s9.26,5.42,19.06,22.32c12.1,20.87,25.4,54.49,27.76,59.95,7.07,16.33,9.52,52.96,9.52,52.96,0,0-2.72,1.99-6.35,2.7Z"/>
          <path class="cls-2" d="M1034.35,463.65l-17.9,33.96-9.18-3.34,2.98,9.06-17.95,54.06s-9.93-68.69,42.05-93.75Z"/>
        </g>
        <path class="cls-8" d="M999.27,443.45s1.04,2.76,3.65,2.83c2.61.07,4.62-2.46,4.62-2.46,0,0-5.66-1.31-8.27-.37Z"/>
      </g>
      <path class="cls-14" d="M922.58,503.77s8.64,6.97,17.84,27.84c0,0-1.87,13.42-26.04,17.07-24.17,3.65,8.2-44.91,8.2-44.91Z"/>
      <path class="cls-14" d="M864.07,501.35s-8.89,1.35-12.83,18.72c-3.94,17.37-3.36,26.71-3.36,26.71,0,0,4.09,5.11,9.49,3.79,5.4-1.31,6.7-49.23,6.7-49.23Z"/>
      <path class="cls-13" d="M963.75,586.92s1.77-3.59-6.28-9.44c-6.08-4.42-20.34-8.33-20.34-8.33l-17.68,1.3s18.45,15.71,27.47,18.92c8.61,3.07,16.38,1.14,16.83-2.45Z"/>
    </g>
    <g>
      <g>
        <path class="cls-13" d="M312.33,543.28s4.23-5.13,6.5-5.85,6.68-4.13,7.25-2.72c.57,1.4-2.96,3.57-2.77,5.17.19,1.6,11.23,4.18,11.16,5.88-.07,1.7-2.6,5.8-6.81,5.33-4.21-.47-14.9-3.01-17.09-1.91-2.19,1.1,1.76-5.9,1.76-5.9Z"/>
        <path class="cls-14" d="M198.42,518.32c6.24,8.38,13.54,14.99,21.04,20.21,23.85,16.59,49.71,19.06,49.71,19.06,6.2-1.98,25.24-4.06,36.49-5.87h0c4.91-.79,8.33-1.53,8.56-2.19l-.28-9.8s-41.3-2.18-48.14-5.36c-10.78-9.29-20.31-21.36-26.52-30.78-5.24-7.96-11.11-13.84-20.79-17.29-13.99-4.99-39.44,6-20.08,32.02Z"/>
        <path class="cls-21" d="M217.36,532.36l2.11,6.17c23.85,16.59,49.71,19.06,49.71,19.06,4.98,0,25.24-4.06,36.49-5.87-.45.04-30.64,2.4-37.31,1.71-6.72-.7-38.02-27.82-38.02-27.82l-12.98,6.76Z"/>
        <path class="cls-2" d="M244.32,842.97h-45.64c-3.27-2.22.88-23.9.88-23.9,0,0,12.46-4.73,14.61,4.89,2.16,9.61,15.87,12.66,23.12,13.83,4.96.81,6.53,3.53,7.03,5.18Z"/>
        <path class="cls-2" d="M176.63,842.97h-45.64c-3.27-2.22.88-23.9.88-23.9,0,0,12.46-4.73,14.61,4.89,2.16,9.61,15.87,12.66,23.12,13.83,4.96.81,6.53,3.53,7.03,5.18Z"/>
        <path class="cls-11" d="M232.04,621.78s-2.05,25.6-4.46,56.36c-3.28,41.8-12.12,145.42-12.12,145.42,0,0-5.8,4.94-18.63,2.24,0,0-10.93-35.75-14.19-76.55-.05-.67-.1-1.34-.15-2.02-3.04-41.54-7.77-129-7.77-129l57.32,3.55Z"/>
        <path class="cls-2" d="M232.74,612.93s-2.75,34.44-5.16,65.21l-44.94,71.11c-.05-.67-.1-1.34-.15-2.02-3.04-41.54-7.77-129-7.77-129l58.02-5.3Z"/>
        <path class="cls-11" d="M219.64,612.93s-32.59,81.13-43.01,111.89c-7.42,21.91-28.35,98.76-28.35,98.76,0,0-9.1,2.77-16.75-2.58,0,0-7.79-78.52,7.94-100.66,8.35-11.75,2.07-122.1,35.91-123.04,33.84-.94,44.27,15.64,44.27,15.64Z"/>
        <path class="cls-13" d="M205.08,493.33c-4.98,2.62-9.83,2.78-14.04,1.89-3.85-.81-7.16-2.51-9.51-4.02-2.42-1.54-3.84-2.89-3.84-2.89,0,0,.17-.24.45-.72,1.47-2.51,5.93-11.55,3.94-26.08-.03-.19,1.41.08,3.59.59,6.47,1.53,19.47,5.22,20.04,5.38h.02s.16,3.05.69,8.53c.04.48.09.99.15,1.51.07.64.13,1.32.21,2.02.6,5.69-1.71,13.78-1.71,13.78Z"/>
        <path class="cls-1" d="M206.43,476.02c-9.65,2.21-24.06-12.04-24.06-12.04,1.05-.78,2.16-1.4,3.3-1.87,6.47,1.53,19.47,5.22,20.04,5.38h.02s.16,3.05.69,8.53Z"/>
        <path class="cls-13" d="M209.71,466.72s-3.97,1.42-9.03,2.11c-7.4,1-17.13.41-20.19-8.55-5.15-15.07-11.73-24.11,3.43-30.27,8.11-3.3,13.3-3.47,16.83-2.21,3.06,1.08,4.87,3.25,6.24,5.4,2.94,4.61,8.86,30.88,2.73,33.52Z"/>
        <path class="cls-15" d="M218.91,434.38c-8.78,6.31-20.91.11-24.69,1.78-3.77,1.67-4.45,8-4.51,10-.07,2.01-.33,3.71-5.45,2.5-.84-.2-1.44-.14-1.86.11-2.12,1.26.59,7.37,1.41,8.69,0,0,1.18,4.37-1.44,6.5-.32.25-5.45,2.5-17.82-16.44-1.94-2.97-3.8-9.67-.8-16.12,3-6.45,15.54-12.68,26.17-15.98,3.99-1.24,6.94-1.19,9.25-.35,3.86,1.41,5.91,5.05,7.95,8.71,3.42,6.15,11.79,10.57,11.79,10.57Z"/>
        <path class="cls-14" d="M237.14,599.27c-.7,9.3-2.67,15.96-6.98,15.96,0,0-19.15,6.74-42.04,6.92-4.47.03-10.81-.84-16.06-1.72-5.37-.91-9.62-1.83-9.62-1.83-4.6-1.06-9.68-3.9-9-9.15.38-2.97.65-6.84.84-11.34.5-12.15.42-28.9.48-44.93.04-9.85.14-19.42.47-27.49,0,0-4.52-31.72.5-36.92,5.87-6.09,23.13-7.96,24.21-7.72.32-.07.65-.15.98-.2,0,0,14.7,8.28,25.61,2.15,0,0,.1.02.31.05,2.66.42,15.93,3.49,20.51,8.33,1.58,1.67,7.89,11.91,8.07,23.15.24,15.67-.37,33.48-.37,33.49.16,2.55.44,5.83.74,9.58.32,3.99.67,8.5.97,13.2.15,2.37.29,4.79.4,7.21.34,7.46.44,14.97-.03,21.27Z"/>
        <path class="cls-21" d="M180.02,481.06s16.26,16.77,27.89,13.34c0,0,1.55-2.27-3.69-2.99-5.24-.73-10.89-.43-24.2-10.35Z"/>
        <path class="cls-8" d="M209.83,456.98s.32,1.95-4.22,3.51c0,0-3.81,1.31-4.5-.69,0,0,3.03-2.88,8.72-2.82Z"/>
        <path class="cls-21" d="M169.71,540.02s.03,45.37-15.43,58.1c.5-12.15.42-28.9.48-44.93l14.95-13.17Z"/>
        <path class="cls-13" d="M122.18,624.94s-7.87,12.36-8.31,17.09c-.3,3.22.42,15.9,2.03,15.94,2.27.06,4.53-7.83,5.41-9.87.88-2.05,1.9-3.66,2.78-3.66s-1.9,7.9,0,7.02c1.9-.88,5.12-8.18,5.41-9.94.29-1.76-1.72-7.38-.74-9.59.98-2.21-6.58-6.99-6.58-6.99Z"/>
        <path class="cls-14" d="M157.24,487.05s-10.64,5.03-19.56,42.23c-6.72,28.05-19.59,99.66-19.59,99.66l10.89,4.48s39.87-91.53,45.57-104.4c5.7-12.87-17.3-41.96-17.3-41.96Z"/>
      </g>
      <g>
        <g>
          <path class="cls-13" d="M353.08,540.02s10.52,51.45,14.53,59.86c4,8.41,20.02,38.67,20.02,38.67l-4.67,3.24s-28.87-29.89-29.88-33.11c-1.01-3.21-19.91-43.28-19.91-43.28l19.91-25.39Z"/>
          <path class="cls-2" d="M332.79,461.49s-20.41-24.52-31.21-8.83c0,0-8.06,3.34-10.98,17.06-2.97,14,6.33,24.64,11.15,22.01,3.09-1.69,5.42,3.72,5.42,3.72l25.62-33.95Z"/>
          <path class="cls-2" d="M303.81,450.17s-2.74-10.97-18.86-7.55c0,0,7.72-.97,9.83,2,0,0-6.12-2.8-9.95-.46-3.83,2.34-4.46,10.23-3.89,12.63.57,2.4,4.8,9.55,7.6,9.55s6.12-2.46,6.12-2.46l9.15-13.72Z"/>
          <path class="cls-13" d="M279.69,621.94c8.01-17.97,11.85-23.06,11.98-28.71.11-4.47-2.1-9.3-6.38-21.13-1.01-2.79-1.7-5.66-2.13-8.55-3.39-22.81,9.8-47.47,18-49.15,2.28-.6,6.15-8.84,6.1-22.12l1.03.2,17.26,3.42s-.39,5.43-.4,10.55c-.01,4.27.25,8.31,1.21,8.82,1.24.11,1.98.19,1.98.19,0,0,14.39,19.99,15.61,38.58,1.21,18.59-11.53,26.67.1,63.82,11.87,37.95-68.77,14.02-64.34,4.08Z"/>
          <path class="cls-22" d="M325.55,495.89s-.39,5.43-.4,10.55c-9.66-.27-14.77-9.08-16.86-13.97l17.26,3.42Z"/>
          <path class="cls-2" d="M306.5,490.6s-5.06-8-6.28-14.84c-.87-4.88,1.62-22.98,19.81-20.38,0,0,5.28.52,10.25,3.87,3.95,2.67,9.65,8.43,3.28,24.22l-1.66,5.34-25.4,1.79Z"/>
          <path class="cls-13" d="M328.78,500.74s-22.86.38-22.87-13.86c-.02-14.24-2.98-23.78,11.62-24.62,14.59-.84,17.43,4.59,18.59,9.34,1.16,4.75-1.39,28.68-7.34,29.14Z"/>
          <path class="cls-2" d="M327.93,461.91s-6.26,16.7-15.86,19.17c-9.6,2.47-13.77-.1-13.77-.1,0,0,7.37-5.85,8.9-16.07,0,0,16.02-10.95,20.74-3Z"/>
          <path class="cls-2" d="M326.38,463.27s4.67,3.73,5.81,7.35c1.14,3.63,1.65,11.09,3.83,10.84,0,0,4.71-11.35-.58-17.78-5.62-6.81-9.06-.41-9.06-.41Z"/>
          <path class="cls-20" d="M299.93,794.42c5.75,22.87,14.41,40.41,14.41,40.41l7.54-.52s-3.7-17.58-3.48-41.34c.15-16.61,2.2-36.24,8.77-54.98,22.55-64.41,18.91-111.29,18.91-111.29l-42.41,4.96-1.98.23c-.18,19.48-.68,45.92-1.12,66.6-.39,18.6-.73,32.53-.73,32.53-8.15,17.56-5.19,42.35.1,63.4Z"/>
          <path class="cls-13" d="M249.96,641.03l6.86,2.06s22.64-37.56,24.69-47.33c.67-3.18,2.32-9.55,4.24-16.68,3.97-14.77,9.1-32.85,9.1-32.85l1.69-7.32,5.76-24.95s-11.03,1.13-17.49,3.83c-2.14.89-3.77,1.96-4.34,3.2-4.74,10.42-9.47,36.73-12.8,55.5-1.85,10.46-3.27,18.58-4.01,20.3-2.06,4.8-8.35,31.21-13.72,44.24Z"/>
          <path class="cls-12" d="M266.5,770.28c-2.07,13.92-7.24,52.41-5.23,58.85l8.23-1.39s15.12-34.78,18.55-44.32c7.07-19.63,15.24-31.57,18.03-40.78,8.71-28.8,19.52-122.75,19.52-122.75l-43-2.13c-4.32,7.27-6.21,19.19-6.66,32.75-1.13,34.22,3.43,73.79,4.63,80.25-3.51,5.77-10.19,13.35-14.08,39.51Z"/>
          <path class="cls-2" d="M327.25,463.83s-4.46,17.49-16.58,23.09c0,0,12.12-10.75,13.15-22.29,1.03-11.55,3.43-.8,3.43-.8Z"/>
          <path class="cls-19" d="M274.3,634.91c-.07,1.45,0,2.61.27,3.44.92,2.88,4.06,4.19,11.65,3.41,4.64-.48,6.71-8.26,7.64-14.9,2.79,9.5,6.69,14.83,11.74,15.95,7.36,1.64,44.51,6.15,46.94-11.5,2.67-19.42-5.33-53.81-5.77-72.36,1.09-6.57,1.46-12.28,1.35-17.18-.31-13.21-4.19-20.61-7.17-23.59-.84-.65-1.69-1.05-5.08-1.63-1.73-.29-4.13-.64-7.53-1.08,0,0-1.39-.16-1.36-.11.63,1.12,9.04,13.86,8.39,17.14-.69,3.43-30.53.34-32.58-1.54-2.06-1.89-5.31-16.33-5.31-16.33,0,0-10.57,1.15-15.73,4.91,0,0,.02.02.06.07-.62.45-1.09.92-1.36,1.43-5.51,10.5-11.02,36.99-14.89,55.89,9.39,5.17,17.59,3.63,20.13,2.95-3.33,21.77-10.87,45.14-11.37,55.05Z"/>
          <g>
            <path class="cls-2" d="M309.99,841.15h4.81c1.61-.25,2.8-.72,4.46-.94,2.51-.33,3.67.7,3.9.94.03.03.04.05.04.05h20.44c.51-.73.02-2.43-.46-3.69-.33-.85-1.04-1.5-1.91-1.75-2.17-.63-6.44-1.19-10.35-4.73-2.2-1.99-10.63-7.32-10.63-7.32h-.04c-.19,0-1.07.26-4.9,3.5-1.98,1.67-5.36-2.36-5.36-2.36,0,0-.63.52-1.11,1.5-.38.77-.66,1.83-.44,3.14.31,1.84-.68,5.26-1.46,7.58-.48,1.4-.88,2.4-.88,2.4,0,0-.23,1.16,3.91,1.67Z"/>
            <path class="cls-23" d="M308.87,826.36c1.15.81,3.57,2.4,5.18,2.61,2.17.28,6.23-5.26,6.23-5.26h-.04c-.19,0-1.07.26-4.9,3.5-1.98,1.67-5.36-2.36-5.36-2.36,0,0-.63.52-1.11,1.5Z"/>
            <path class="cls-23" d="M309.99,841.15h4.81c1.61-.25,2.8-.72,4.46-.94,2.51-.33,3.67.7,3.9.94.03.03.04.05.04.05h20.44c.51-.73.02-2.43-.46-3.69-.62-.55-.8,2.4-1.14,2.87-.34.47-16.68.17-17.62-.51-.94-.69-3.77-1.89-7.72-.94-3.43.82-8.49-1.28-9.74-1.84-.48,1.4-.88,2.4-.88,2.4,0,0-.23,1.16,3.91,1.67Z"/>
          </g>
          <g>
            <path class="cls-2" d="M260.62,841.15h4.81c1.61-.25,2.8-.72,4.46-.94,2.51-.33,3.67.7,3.9.94.03.03.04.05.04.05h20.44c.51-.73.02-2.43-.46-3.69-.33-.85-1.04-1.5-1.91-1.75-2.17-.63-6.44-1.19-10.35-4.73-2.2-1.99-10.63-7.32-10.63-7.32h-.04c-.19,0-1.07.26-4.9,3.5-1.98,1.67-5.36-2.36-5.36-2.36,0,0-.63.52-1.11,1.5-.38.77-.66,1.83-.44,3.14.31,1.84-.68,5.26-1.46,7.58-.48,1.4-.88,2.4-.88,2.4,0,0-.23,1.16,3.91,1.67Z"/>
            <path class="cls-23" d="M259.49,826.36c1.15.81,3.57,2.4,5.18,2.61,2.17.28,6.23-5.26,6.23-5.26h-.04c-.19,0-1.07.26-4.9,3.5-1.98,1.67-5.36-2.36-5.36-2.36,0,0-.63.52-1.11,1.5Z"/>
            <path class="cls-23" d="M260.62,841.15h4.81c1.61-.25,2.8-.72,4.46-.94,2.51-.33,3.67.7,3.9.94.03.03.04.05.04.05h20.44c.51-.73.02-2.43-.46-3.69-.62-.55-.8,2.4-1.14,2.87-.34.47-16.67.17-17.62-.51-.94-.69-3.77-1.89-7.72-.94-3.43.82-8.49-1.28-9.74-1.84-.48,1.4-.88,2.4-.88,2.4,0,0-.23,1.16,3.91,1.67Z"/>
          </g>
          <path class="cls-6" d="M274.3,634.91c5.1-1.7,11.65-6.24,19.51-16.4,20.82-26.9,1.77-58.52-.79-59.11-2.55-.59-7.36,20.46-7.36,20.46-3.33,21.77-10.87,45.14-11.37,55.05Z"/>
          <path class="cls-19" d="M339.67,517.56s14.25,7.17,19,36.12c0,0-4.67,6.4-11.25,8.29-.94.27-1.92.45-2.93.5-8.07.43-4.83-44.91-4.83-44.91Z"/>
          <path class="cls-13" d="M387.64,638.55s8.01,6.58,7.81,9.58c-.2,3-4.81,8.21-7.81,8.01-3-.2-4.67-14.35-4.67-14.35l4.67-3.24Z"/>
          <g>
            <rect class="cls-20" x="406.84" y="641.08" width="2.4" height="200.97" transform="translate(-139.56 96.16) rotate(-11.49)"/>
            <rect class="cls-20" x="387.29" y="640.99" width="5.07" height="22.29" transform="translate(903.04 1212.38) rotate(168.38)"/>
          </g>
          <path class="cls-8" d="M324.31,492.29s.4,1.68,4.57,1.42c0,0,3.5-.22,3.4-2.06,0,0-3.4-1.31-7.97.64Z"/>
        </g>
        <g>
          <path class="cls-13" d="M251.19,637.88s-9.94,6.11-11.38,8.75c-1.44,2.64-4.8,12.36-4.8,12.36,0,0,2.4.36,4.8-3.84,2.4-4.2,10.32-3.84,12.96-6.12,2.64-2.28,5.71-8.96,5.71-8.96l-7.3-2.19Z"/>
          <path class="cls-13" d="M257.46,642.14s-1.57,7.38-3.49,9.54c-1.92,2.16-4.56,5.76-5.64,4.8-1.08-.96,1.2-9,1.2-9l7.93-5.34Z"/>
          <path class="cls-13" d="M241.13,647.48c-.24.36-8.52,9.16-8.52,9.16,0,0,3,1.36,3.84,0,.84-1.36,4.68-9.16,4.68-9.16Z"/>
        </g>
      </g>
      <path class="cls-20" d="M318.41,478.25h6.41c.49,0,.89.4.89.89v1.51c0,1.48-1.2,2.68-2.68,2.68h-3.28c-1.5,0-2.71-1.21-2.71-2.71v-1.01c0-.75.61-1.36,1.36-1.36Z"/>
      <path class="cls-20" d="M332.85,478.25h3.28c1.48,0,2.68,1.2,2.68,2.68v1.51c0,.49-.4.89-.89.89h-6.41c-.75,0-1.36-.61-1.36-1.36v-1.01c0-1.5,1.21-2.71,2.71-2.71Z" transform="translate(668.95 961.59) rotate(-180)"/>
      <path class="cls-20" d="M331.05,480.45s-2.82-1.22-5.49,0l-.2-.44c2.87-1.31,5.77-.06,5.89,0l-.2.44Z"/>
    </g>
  </g>
</svg>