<?xml version="1.0" encoding="UTF-8"?>
<svg id="Capa_1" data-name="Capa 1" xmlns="http://www.w3.org/2000/svg" viewBox="0 0 600 600">
  <defs>
    <style>
      .cls-1 {
        fill: #cd2535;
      }

      .cls-2 {
        fill: #010101;
      }
    </style>
  </defs>
  <circle class="cls-1" cx="300" cy="299.67" r="292.78"/>
  <circle class="cls-2" cx="202.52" cy="274.56" r="46.67"/>
  <circle class="cls-2" cx="397.48" cy="274.56" r="46.67"/>
  <path class="cls-2" d="M380.31,452.88c-4.38,0-8.66-2.18-11.17-6.15-1-1.57-23.97-36.67-69.14-36.67s-69.02,36.48-69.26,36.85c-3.98,6.1-12.16,7.81-18.25,3.83-6.1-3.98-7.82-12.15-3.83-18.25,1.3-1.99,32.54-48.81,91.34-48.81s90.23,47.02,91.48,49.03c3.86,6.18,1.98,14.31-4.19,18.17-2.17,1.36-4.59,2.01-6.98,2.01Z"/>
</svg>