<?xml version="1.0" encoding="UTF-8"?>
<svg xmlns="http://www.w3.org/2000/svg" xmlns:xlink="http://www.w3.org/1999/xlink" viewBox="0 0 1224.5 1022.28">
  <defs>
    <style>
      .cls-1 {
        fill: #6c4b40;
      }

      .cls-2 {
        fill: #6fc7da;
      }

      .cls-3 {
        letter-spacing: 0em;
      }

      .cls-4 {
        fill: #e6361f;
      }

      .cls-5 {
        opacity: .5;
      }

      .cls-5, .cls-6, .cls-7, .cls-8, .cls-9, .cls-10, .cls-11, .cls-12, .cls-13, .cls-14, .cls-15, .cls-16, .cls-17, .cls-18 {
        fill-rule: evenodd;
      }

      .cls-5, .cls-19, .cls-20, .cls-21, .cls-22, .cls-16 {
        mix-blend-mode: multiply;
      }

      .cls-5, .cls-18 {
        fill: #4e4d4d;
      }

      .cls-23 {
        fill: #1a5a93;
      }

      .cls-24 {
        fill: #cb6d14;
      }

      .cls-6 {
        fill: #383331;
      }

      .cls-25 {
        fill: #3bb4d6;
      }

      .cls-26 {
        fill: #fbc794;
      }

      .cls-27 {
        fill: #8a8a8a;
        mix-blend-mode: color-burn;
        opacity: .41;
      }

      .cls-28 {
        letter-spacing: 0em;
      }

      .cls-29 {
        fill: url(#linear-gradient-2);
      }

      .cls-30 {
        fill: #b8e1ed;
      }

      .cls-31 {
        fill: #fcdb92;
      }

      .cls-32 {
        fill: #313131;
      }

      .cls-33 {
        letter-spacing: 0em;
      }

      .cls-34 {
        fill: #1a3f73;
      }

      .cls-35 {
        fill: #ef7d1a;
      }

      .cls-36 {
        fill: #fce810;
      }

      .cls-37 {
        fill: #fbc691;
      }

      .cls-38 {
        fill: #1d578e;
      }

      .cls-39 {
        fill: #fefefe;
      }

      .cls-40 {
        fill: #fce0a5;
      }

      .cls-41 {
        fill: #97c21e;
      }

      .cls-42 {
        fill: #1f5ca8;
      }

      .cls-43 {
        fill: #20a2cb;
      }

      .cls-44 {
        fill: #1a5990;
      }

      .cls-45 {
        fill: #a8dae9;
      }

      .cls-46 {
        fill: #aeddec;
      }

      .cls-47 {
        fill: #1c5faa;
        font-family: Flexo-Demi, Flexo;
        font-size: 16.71px;
        font-weight: 300;
      }

      .cls-48, .cls-7 {
        fill: #fff;
      }

      .cls-19, .cls-20, .cls-22, .cls-16 {
        opacity: .7;
      }

      .cls-49 {
        fill: #fbc692;
      }

      .cls-50 {
        fill: #0ea2cc;
      }

      .cls-51 {
        fill: #f4951b;
      }

      .cls-52 {
        fill: #3ab5d6;
      }

      .cls-53 {
        fill: #f07e19;
      }

      .cls-54 {
        letter-spacing: 0em;
      }

      .cls-55 {
        fill: #a9dbea;
      }

      .cls-56 {
        fill: #16639d;
      }

      .cls-57 {
        fill: none;
      }

      .cls-58 {
        fill: url(#linear-gradient-4);
      }

      .cls-59 {
        fill: #fcde9b;
      }

      .cls-60 {
        fill: #205689;
      }

      .cls-61 {
        fill: #eb6033;
      }

      .cls-8 {
        fill: #d9edeb;
      }

      .cls-62 {
        fill: #4cb4d5;
      }

      .cls-63 {
        fill: #fccfa2;
      }

      .cls-20, .cls-12, .cls-16, .cls-64 {
        fill: #808181;
      }

      .cls-65 {
        fill: #cf6d13;
      }

      .cls-66 {
        fill: #175b93;
      }

      .cls-9 {
        fill: #3b3b3b;
      }

      .cls-67 {
        fill: url(#linear-gradient-3);
      }

      .cls-68 {
        fill: #f7b293;
      }

      .cls-10 {
        fill: #ffdc5b;
      }

      .cls-69 {
        letter-spacing: .01em;
      }

      .cls-70 {
        fill: #1f5689;
      }

      .cls-71 {
        fill: #ef774f;
      }

      .cls-72 {
        fill: #185b93;
      }

      .cls-73 {
        fill: #f4973a;
      }

      .cls-74 {
        fill: #f9e929;
      }

      .cls-75 {
        isolation: isolate;
      }

      .cls-11 {
        fill: #f5ab7a;
      }

      .cls-21 {
        fill: #e5e0e4;
      }

      .cls-76 {
        fill: #d15019;
      }

      .cls-77 {
        fill: #166099;
      }

      .cls-78 {
        fill: #3cbac5;
      }

      .cls-79 {
        letter-spacing: 0em;
      }

      .cls-80 {
        fill: #1a1a1a;
      }

      .cls-81 {
        fill: #a5d9e8;
      }

      .cls-82 {
        fill: #f3b321;
      }

      .cls-83 {
        fill: #1d6fb5;
      }

      .cls-84 {
        fill: #f7e926;
      }

      .cls-85 {
        fill: #98d5e7;
      }

      .cls-86 {
        fill: #1f62a4;
      }

      .cls-87 {
        letter-spacing: 0em;
      }

      .cls-88 {
        fill: #1c446b;
      }

      .cls-13 {
        fill: #f6b994;
      }

      .cls-89 {
        fill: #98d4e7;
      }

      .cls-90 {
        fill: #194d7c;
      }

      .cls-91 {
        fill: #f9b521;
      }

      .cls-92 {
        fill: #c4d0de;
      }

      .cls-93 {
        fill: #1a5e98;
      }

      .cls-94 {
        fill: #2e2f2f;
      }

      .cls-95 {
        fill: #1b5283;
      }

      .cls-22 {
        fill: #808081;
      }

      .cls-96 {
        fill: #0fa0cb;
      }

      .cls-97 {
        fill: #555454;
      }

      .cls-98 {
        fill: #f4e728;
      }

      .cls-99 {
        fill: #ec661c;
      }

      .cls-100 {
        fill: #bbe2ee;
      }

      .cls-101 {
        fill: #521b0d;
      }

      .cls-102 {
        fill: #f07f17;
      }

      .cls-14 {
        fill: #429480;
      }

      .cls-103 {
        fill: #ed6c8c;
      }

      .cls-15, .cls-104 {
        fill: #fbceb2;
      }

      .cls-105 {
        fill: #19619d;
      }

      .cls-106 {
        fill: #fce0a2;
      }

      .cls-107 {
        fill: #fbcb9a;
      }

      .cls-108 {
        fill: #f8c34b;
      }

      .cls-109 {
        fill: #8dd1e5;
      }

      .cls-110 {
        fill: #783410;
      }

      .cls-111 {
        fill: #fcd7b2;
      }

      .cls-112 {
        fill: #a1d7e9;
      }

      .cls-113 {
        fill: #4b4a4b;
      }

      .cls-114 {
        fill: url(#linear-gradient);
        mix-blend-mode: soft-light;
      }

      .cls-115 {
        fill: #cb6a15;
      }

      .cls-116 {
        fill: #b0b0ae;
      }

      .cls-117 {
        fill: #aba9a5;
      }

      .cls-118 {
        fill: #f7e826;
      }

      .cls-119 {
        fill: #f8e928;
      }

      .cls-120 {
        fill: #35beed;
      }

      .cls-121 {
        fill: #175d97;
      }

      .cls-122 {
        fill: #1a619c;
      }

      .cls-123 {
        fill: #a94c17;
      }

      .cls-124 {
        fill: #1c5388;
      }

      .cls-125 {
        fill: #807e7a;
      }

      .cls-126 {
        fill: #66645f;
      }

      .cls-127 {
        clip-path: url(#clippath);
      }

      .cls-128 {
        fill: #fbc997;
      }

      .cls-129 {
        fill: #f8c348;
      }

      .cls-17 {
        fill: #e99b68;
      }

      .cls-130 {
        fill: #3ab2d5;
      }

      .cls-131 {
        fill: #f7e928;
      }

      .cls-132 {
        fill: #194a7b;
      }

      .cls-133 {
        letter-spacing: -.01em;
      }

      .cls-134 {
        letter-spacing: .05em;
      }
    </style>
    <linearGradient id="linear-gradient" x1="1060.21" y1="767.78" x2="1066.7" y2="767.78" gradientTransform="translate(1240.65) rotate(-180) scale(1 -1)" gradientUnits="userSpaceOnUse">
      <stop offset="0" stop-color="#010101"/>
      <stop offset=".07" stop-color="#303030"/>
      <stop offset=".16" stop-color="#666"/>
      <stop offset=".25" stop-color="#959595"/>
      <stop offset=".33" stop-color="#bbb"/>
      <stop offset=".42" stop-color="#d8d8d8"/>
      <stop offset=".51" stop-color="#eee"/>
      <stop offset=".59" stop-color="#fafafa"/>
      <stop offset=".67" stop-color="#fff"/>
    </linearGradient>
    <linearGradient id="linear-gradient-2" x1="991.1" y1="93.65" x2="968.73" y2="316.68" gradientUnits="userSpaceOnUse">
      <stop offset="0" stop-color="#1aa6ca"/>
      <stop offset="1" stop-color="#9cd8f7"/>
    </linearGradient>
    <linearGradient id="linear-gradient-3" x1="982.35" y1="279.64" x2="966.47" y2="314.28" xlink:href="#linear-gradient-2"/>
    <linearGradient id="linear-gradient-4" x1="967.34" y1="150.8" x2="967.34" y2="216.12" gradientUnits="userSpaceOnUse">
      <stop offset="0" stop-color="#584669"/>
      <stop offset="1" stop-color="#745d8c"/>
    </linearGradient>
    <clipPath id="clippath">
      <rect class="cls-57" x="593.26" y="586.01" width="247.26" height="14.91"/>
    </clipPath>
  </defs>
  <g class="cls-75">
    <g id="Capa_1" data-name="Capa 1">
      <g>
        <g>
          <g>
            <circle class="cls-27" cx="625.78" cy="534.39" r="253"/>
            <g>
              <circle class="cls-27" cx="168.83" cy="548.83" r="137.22" transform="translate(-338.63 280.13) rotate(-45)"/>
              <path class="cls-48" d="M168.83,692.42c-79.18,0-143.59-64.42-143.59-143.59s64.42-143.59,143.59-143.59,143.59,64.42,143.59,143.59-64.42,143.59-143.59,143.59ZM168.83,417.97c-72.15,0-130.85,58.7-130.85,130.85s58.7,130.85,130.85,130.85,130.86-58.7,130.86-130.85-58.7-130.85-130.86-130.85Z"/>
            </g>
            <g>
              <circle class="cls-27" cx="1080.91" cy="548.83" r="137.22" transform="translate(-71.49 925.06) rotate(-45)"/>
              <path class="cls-48" d="M1080.91,692.42c-79.18,0-143.59-64.42-143.59-143.59s64.42-143.59,143.59-143.59,143.59,64.42,143.59,143.59-64.42,143.59-143.59,143.59ZM1080.91,417.97c-72.15,0-130.86,58.7-130.86,130.85s58.7,130.85,130.86,130.85,130.85-58.7,130.85-130.85-58.7-130.85-130.85-130.85Z"/>
            </g>
            <g>
              <circle class="cls-27" cx="966.95" cy="876.18" r="137.22" transform="translate(-336.34 940.36) rotate(-45)"/>
              <path class="cls-48" d="M966.95,1019.77c-79.18,0-143.59-64.42-143.59-143.59s64.42-143.59,143.59-143.59,143.59,64.42,143.59,143.59-64.42,143.59-143.59,143.59ZM966.95,745.32c-72.15,0-130.86,58.7-130.86,130.85s58.7,130.86,130.86,130.86,130.85-58.7,130.85-130.86-58.7-130.85-130.85-130.85Z"/>
            </g>
            <g>
              <circle class="cls-27" cx="285.35" cy="878.68" r="137.22" transform="translate(-537.75 459.13) rotate(-45)"/>
              <path class="cls-48" d="M285.35,1022.28c-79.18,0-143.59-64.42-143.59-143.59s64.42-143.59,143.59-143.59,143.59,64.42,143.59,143.59-64.42,143.59-143.59,143.59ZM285.35,747.83c-72.15,0-130.86,58.7-130.86,130.85s58.7,130.86,130.86,130.86,130.85-58.7,130.85-130.86-58.7-130.85-130.85-130.85Z"/>
            </g>
            <g>
              <circle class="cls-27" cx="285.35" cy="224.45" r="137.22" transform="translate(-75.14 267.52) rotate(-45)"/>
              <path class="cls-48" d="M285.35,368.05c-79.18,0-143.59-64.42-143.59-143.59s64.42-143.59,143.59-143.59,143.59,64.42,143.59,143.59-64.42,143.59-143.59,143.59ZM285.35,93.6c-72.15,0-130.86,58.7-130.86,130.86s58.7,130.85,130.86,130.85,130.85-58.7,130.85-130.85-58.7-130.86-130.85-130.86Z"/>
            </g>
            <g>
              <circle class="cls-27" cx="966.95" cy="225.32" r="137.22" transform="translate(123.89 749.73) rotate(-45)"/>
              <path class="cls-48" d="M966.95,368.91c-79.18,0-143.59-64.42-143.59-143.59s64.42-143.59,143.59-143.59,143.59,64.42,143.59,143.59-64.42,143.59-143.59,143.59ZM966.95,94.46c-72.15,0-130.86,58.7-130.86,130.86s58.7,130.85,130.86,130.85,130.85-58.7,130.85-130.85-58.7-130.86-130.85-130.86Z"/>
            </g>
          </g>
          <g>
            <path class="cls-48" d="M928.36,527.17l-64.24-16.96.05,12.97-20.83.08c-2.33,0-4.22,1.91-4.21,4.24,0,2.33,1.9,4.21,4.23,4.21h.02l20.83-.08.05,12.97,64.11-17.44Z"/>
            <path class="cls-48" d="M789.93,694.91l-14.73-14.73c-1.65-1.65-4.33-1.65-5.98,0-1.65,1.65-1.65,4.33,0,5.98l14.73,14.73-9.17,9.17,57.54,33.22-33.22-57.54-9.17,9.17Z"/>
            <path class="cls-48" d="M771.19,391.47c.98,0,1.97-.34,2.77-1.03l15.74-13.63,8.49,9.81,37.26-55.01-59.77,29,8.49,9.81-15.74,13.63c-1.77,1.53-1.96,4.2-.43,5.96.84.97,2.01,1.46,3.2,1.46Z"/>
            <path class="cls-48" d="M458.11,375.72l14.95,14.5c.82.8,1.88,1.19,2.94,1.19s2.2-.43,3.03-1.28c1.63-1.68,1.59-4.35-.09-5.98l-14.95-14.5,9.03-9.31-58.03-32.34,34.08,57.03,9.03-9.31Z"/>
            <path class="cls-48" d="M418.26,536.7c.06,0,.11,0,.17,0,2.26,0,4.13-1.78,4.22-4.06.09-2.33-1.72-4.3-4.06-4.39l-20.81-.84.52-12.96-64.81,14.61,63.43,19.76.52-12.96,20.81.84Z"/>
            <path class="cls-48" d="M473.31,680.05l-15.38,14.05-8.75-9.58-35.78,55.98,58.98-30.59-8.75-9.58,15.38-14.05c1.72-1.57,1.84-4.25.27-5.97-1.58-1.72-4.25-1.84-5.97-.27Z"/>
          </g>
        </g>
        <g>
          <g>
            <path class="cls-20" d="M364.43,886.5v-40.3l.64.09,7.43-52.98-.6-.08c.63-2.71,2.92-4.64,5.72-4.76.81.95,1.96,1.58,3.31,1.58h16.54c2.43,0,4.39-1.97,4.39-4.39s-1.97-4.39-4.39-4.39h-16.54c-1.37,0-2.55.67-3.36,1.66-5.56.14-10.17,4.07-11.19,9.53l-.92-.13-7.43,52.98,1.07.15v6.08h-10.69c-1.77-4.49-3.37-8.72-4.31-12.29-.58-2.38-.91-4.55-.82-6.2.27-1.67.61-3.33,1-4.97,2.15-7.91,6.74-18.55,6.74-18.55,0,0,4.49-6.13,7.17-13.17,2.3-4.92,3.58-10.3.96-13.92-.02-.04-.02-.08-.04-.12-1.92-4.06-14.62-11.63-14.62-11.63,0,0-.07.08-.12.15-.94-.65-1.82-1.27-2.49-1.83-.44-.36-.58-2.96-.58-6.24,2.4,4.41,7.07,4.48,8.81,4.02,2.18-.58,2.25-3.74,1.27-3.53-.98.21,2.64-18.36,1.99-23.29-1.51-11.43-6.23-18.05-14.19-17.3-1.18.11-2.2.54-3.14,1.08-1.34-.33-2.62-.49-3.81-.54-.26-.02-.51-.03-.77-.03-.09,0-.2-.01-.28-.01-.09,0-.2.01-.3.02-.55,0-1.09.04-1.63.09-.19.02-.39.04-.58.06-.22.03-.44.05-.65.09-1.09.14-2.19.35-3.28.68-.07-.04-.11-.09-.2-.12-3.27-1.1-8.99,3.66-10.94,7.75-1.95,4.09.48,7.41.48,7.41,0,0,0-.1,0-.18.28,2.33.92,4.12,1.06,4.45.34.76-.47,8.27-.31,9.49.11.83,1.27,1.37,1.67,1.3.4-.07,2.11,10.18,3.52,10.56.6.16,1.9.05,3.42-.18l.09,6.08c0,1.25-.02,2.14-.06,2.41-.05.38-.92,1.07-2.19,1.94l-9.77,5.77c-8.81,1.36-16.33,18.25-16.33,18.25l2.8,1.74c-2.31,4.98-4.84,10.73-6.72,15.4-.79-.04-1.47-.04-1.89-.02-2.15.11-36.95,4.1-45.62,5.1-3.1-.6-6.75-1.36-6.99-1.62-.42-.45-18.07,8.65-17.13,9.3.94.65,3.32.65,6.08-.48,2.77-1.13,14.8,3.06,19.88,1.38.06-.02.09-.06.16-.08,0,0-.01.03,0,.03.29.2.76.31,1.3.37-1.67,1.55-2.69,3.45-2.69,5.51h-6.01l.88-3.79-2.68-.18-.07-.66h0l-.02-.16-3.41-.23-.45.78-.33-.02-.07-.66h0l-.02-.16-3.41-.23-.45.78-.33-.02-.09-.82-3.41-.24-.45.78-.33-.02-.07-.65h0l-.02-.16-3.41-.23-.45.78-.33-.02-.07-.66h0s-.02-.16-.02-.16l-3.41-.24-.45.78-2.56-.18-.9,3.87,1.72.12-.32,1.6h-30.88v-2.82h-6.2v-40.9h2.43l1.28,21.64,4.54-.26-4.96-83.47-4.54.27,2.08,35.06h-6.01v67.67h-6.34v2.82h-16.19v7.16h2.8v163.67h-1.53c-.73,0-1.33.6-1.33,1.33v.71c0,.73.6,1.33,1.33,1.33h13.26c.73,0,1.33-.6,1.33-1.33v-.71c0-.73-.6-1.33-1.33-1.33h-1.53v-125.56h84.65c-1.1.92-1.8,1.9-1.95,2.97l1.17,1.28c-2.02,6.46.09,21.45.14,25.33.05,4.13-.08,45.75-3.19,61.41-1.83,1.7-6.96,5.74-18.74,10.8-4.07.53-10.39,4.98-10.61,6.12-.11.6,1.57,1.17,3.8,1.62.61.55,2.24,1.15,4.18,1.67-1.39.14-2.5,1.27-2.5,2.71,0,1.53,1.23,2.76,2.76,2.77l40.64.08,3.79-11.82v20.57h-1.53c-.73,0-1.33.6-1.33,1.33v.71c0,.73.6,1.33,1.33,1.33h13.26c.73,0,1.33-.6,1.33-1.33v-.71c0-.73-.6-1.33-1.33-1.33h-1.53v-6.3c3.17,4.38,8.28,7.25,14.09,7.25,9.62,0,17.42-7.8,17.42-17.42,0-8.71-6.41-15.86-14.76-17.15v-7.52l15.55,9.78c10.13,19.21,30.28,32.32,53.51,32.32,33.41,0,60.49-27.08,60.49-60.49s-25.66-58.95-57.82-60.36ZM414.89,946.86c0,2.82-.29,5.57-.71,8.27l-28.62-8.68,28.5-8.64c.51,2.95.83,5.96.83,9.06ZM297.8,983.61c1.21,1.48,1.99,3.29,2.19,5.3h-3.51c-.16-1.04-.57-2-1.16-2.82l2.48-2.48ZM287.37,983.95c-.42.19-.81.42-1.18.69l-2.48-2.48c1.06-.87,2.29-1.52,3.65-1.89v3.68ZM282.28,983.61l2.48,2.48c-.6.82-1,1.78-1.16,2.82h-3.51c.21-2,.99-3.82,2.19-5.3ZM283.59,990.95c.16,1.04.57,2,1.16,2.82l-2.48,2.48c-1.21-1.48-1.99-3.29-2.19-5.3h3.51ZM286.2,995.21c.82.6,1.78,1,2.82,1.16v3.51c-2-.21-3.82-.99-5.3-2.19l2.48-2.48ZM291.06,996.37c1.04-.16,2-.57,2.82-1.16l2.48,2.48c-1.48,1.21-3.29,1.99-5.3,2.19v-3.51ZM295.32,993.77c.6-.82,1-1.78,1.16-2.82h3.51c-.21,2-.99,3.82-2.19,5.3l-2.48-2.48ZM302.33,861.03c-.53,1.87-.98,3.5-1.27,4.72h-7.41v-3.76c0-2.13,1.74-3.87,3.87-3.87h.26v2.91h4.55ZM375.78,980.17h-3.64s-5.99-11.82-5.99-11.82l.92-7.48,5.41,5.07,3.31,14.23ZM373.67,967.06l13.98,13.1-10.92.02-3.06-13.11ZM377.07,985.69l1.81,7.78-3.94-7.77h2.13ZM347.71,980.21l3.26-14.09,5.52-5.15.92,7.49-5.99,11.75h-3.71ZM348.6,985.73l-3.97,7.79,1.8-7.79h2.17ZM328.79,938.61l11.73.62,6.03,4.54-7.22,2.2-10.55-3.22v-4.14ZM323.46,941.12l-11.03-3.37,11.03.58v2.79ZM328.79,925.83l15.48,6.58,4.11,6.33-7.53-.4-12.06-9.09v-3.42ZM323.46,925.23l-5.08-3.83,5.08,2.16v1.67ZM328.79,963.66l12.06-9.08,7.54-.4-4.11,6.33-15.49,6.57v-3.42ZM323.46,969.34l-5.08,2.16,5.08-3.82v1.67ZM328.79,962.51v-7.3l10.43-.55-10.43,7.85ZM359.1,910.82l-1.46,12.09-7.48-14.69h8.94v2.6ZM358.35,940.17l-.17.05.03-.06h.14s0,.01,0,.01ZM359.1,938.7v.6l-.43-.02.32-.63.11.05ZM357.68,939.23l-1.08-.06.18-1.46,1.37.58-.47.93ZM357.23,940.11l-.24.48-.58.18.08-.7.74.04ZM356.41,941.71h0s-.14.11-.14.11v-.07s.14-.04.14-.04ZM355.12,943.84l-.16.25-.03-.12.19-.14h0ZM354.58,946.48l-.02.08-.06-.1.06-.09.02.1ZM355.02,948.94v.08s-.08-.07-.08-.07l.02-.1.06.09ZM355.18,950.27l.07.57-.7-.22.16-.71.47.35ZM356.19,951.03l.22.17-.21-.06v-.1ZM358.37,952.74h-.13s-.03-.05-.03-.05l.16.05ZM368.42,943.99v-.07s.07.06.07.06l-.02.09-.05-.08ZM365.5,940.36l-.13-.12h.07s.06.12.06.12h0ZM359.1,936.41l-.54,1.07-1.67-.71.35-2.88,1.87,1.74v.78ZM356.02,936.4l-3.14-1.34-1.54-6.68,5.08,4.74-.4,3.28ZM355.9,937.34l-.21,1.78-1.9-.1-.66-2.86,2.78,1.18ZM355.58,940.02l-.12,1.04-1.12.34-.34-1.46,1.58.08ZM355.33,942.04l-.06.53-.57.43-.17-.72.79-.24ZM353.91,943.6l-.86.64-.82-1.26,1.43-.44.24,1.05ZM354.14,944.57l.13.58-.31.48-.4-.62.58-.44ZM353.41,946.46l-.58.89-1.2-.9,1.19-.9.59.9ZM353.95,947.3l.32.49-.13.56-.59-.44.4-.61ZM353.92,949.32l-.24,1.04-1.43-.44.81-1.25.86.65ZM353.47,951.25l-.41,1.78-2.93.15,1.6-2.46,1.74.53ZM354.34,951.51l1.03.31.13,1.07-1.5.08.34-1.46ZM356.32,952.12l.68.21.24.48-.83.04-.09-.73ZM357.7,953.69l.47.92-1.46.62-.18-1.48,1.17-.06ZM358.69,953.63l.41-.02v.6l-.1.04-.31-.62ZM364.43,954.1v-.55l.05-.05.52.03-.34.67-.24-.1ZM365.4,952.65l.11-.1-.05.1h-.05ZM369.17,947.74l.31-.47.39.6-.57.43-.13-.55ZM368.88,946.51l-.02-.09.02-.07.06.08-.05.07ZM369.16,945.13l.13-.54.57.43-.39.59-.31-.48ZM369.51,943.62l.24-1.02,1.41.43-.8,1.23-.84-.63ZM368.72,943.02l-.46-.34-.07-.56.69.21-.16.69ZM366.71,940.72l-.28-.54.61-.03.09.71-.42-.13ZM365.98,939.29l-.49-.96,1.27-.54.18,1.45-.95.05ZM364.99,939.35l-.54.03-.02-.02v-.58l.22-.09.34.66ZM359.1,934.39l-1.73-1.62.82-6.77.91,1.79v6.6ZM356.55,932l-5.58-5.21-4.29-18.57h2.46l8.31,16.32-.9,7.46ZM349.77,925.68l-18.7-17.46h14.67l4.03,17.46ZM329.72,908.22l20.42,19.05,1.7,7.36-6.95-2.95-15.23-23.45h.06ZM352.09,935.72l.75,3.25-3.33-.18-3.74-5.75,6.31,2.68ZM353.05,939.89l.41,1.78-1.74.53-1.6-2.46,2.93.15ZM350.82,942.47l-3.18.97-5.48-4.13,6.84.36,1.82,2.8ZM351.34,943.27l.99,1.53-1.45,1.09-2.34-1.76,2.8-.86ZM350.12,946.46l-2.66,2-6.56-2,6.55-2,2.66,2ZM350.88,947.02l1.46,1.1-.99,1.52-2.81-.86,2.34-1.76ZM350.83,950.44l-1.82,2.8-6.85.36,5.48-4.13,3.19.97ZM349.52,954.12l3.33-.18-.75,3.24-6.31,2.68,3.73-5.75ZM353.79,953.89l1.82-.1.22,1.8-2.7,1.15.66-2.85ZM355.95,956.54l.4,3.31-5.02,4.68,1.54-6.68,3.07-1.3ZM356.82,956.17l1.75-.75.52,1.04v.82l-1.92,1.79-.36-2.91ZM359.1,958.53v6.6l-.95,1.87-.83-6.8,1.79-1.67ZM359.1,967.14v7.64l-.75-6.16.75-1.48ZM364.43,966.98l.77,1.53-.77,6.31v-7.84ZM364.43,964.97v-6.56l1.81,1.69-.83,6.79-.97-1.92ZM364.43,957.16v-.49l.66-1.29,1.64.7-.36,2.9-1.95-1.82ZM365.5,954.56l.49-.97,1.03.06-.18,1.49-1.34-.57ZM366.45,952.7l.28-.55.5-.15-.09.74-.69-.04ZM367.3,951.03l.07-.14v.12s-.07.02-.07.02ZM368.38,950.12l.35-.26.16.7-.58.18.08-.61ZM369.52,949.26l.84-.63.8,1.23-1.4.43-.24-1.03ZM371.09,948.08l1.43-1.07,2.31,1.74-2.76.84-.98-1.5ZM370.59,947.32l-.58-.88.57-.88,1.17.88-1.17.88ZM371.09,944.8l.98-1.5,2.77.84-2.31,1.73-1.43-1.08ZM372.58,942.51l1.8-2.76,6.79-.37-5.44,4.08-3.15-.96ZM371.68,942.23l-1.72-.52.41-1.74,2.89-.16-1.58,2.42ZM369.09,941.45l-1.01-.31-.13-1.04,1.47-.08-.33,1.43ZM367.84,939.19l-.21-1.78,2.66-1.14-.66,2.81-1.79.1ZM367.52,936.48l-.39-3.26,4.97-4.65-1.54,6.62-3.03,1.29ZM366.64,936.85l-1.57.67-.64-1.26v-.53l1.87-1.75.35,2.87ZM358.39,924.37l.72-5.92v7.32l-.72-1.41ZM359.1,898.4h-7.76c.54-.34,1.11-.64,1.62-1,1.15-.82,2-1.96,2.66-3.27,1.15-.13,2.31-.19,3.48-.25v4.53ZM328.79,908.58l14.59,22.45-14.59-6.2v-16.25ZM339.22,938.25l-10.43-.55v-7.3l10.43,7.85ZM337.78,946.45l-8.99,2.74v-5.49l8.99,2.75ZM339.34,946.93l7.22,2.2-6.04,4.54-11.73.62v-4.14l10.55-3.22ZM323.46,954.57l-11.03.58,11.03-3.37v2.79ZM323.46,955.49v11.03l-8.11,6.11c-2.8-5.02-4.78-10.55-5.83-16.4l13.94-.73ZM323.46,970.34v7.72l-7.33-4.61,7.33-3.11ZM328.79,980.23v-12.16l14.6-6.2-11.94,18.36h-2.66ZM332.55,980.23l12.34-19,6.95-2.95-1.7,7.35-15.65,14.59h-1.94ZM349.77,967.23l-3,12.98-10.93.02,13.93-13ZM357.61,970.08l1.24,10.12h-6.39s5.16-10.12,5.16-10.12ZM363.1,985.71l-1.33,10.83-1.33-10.83h2.66ZM365.95,969.98l5.17,10.2h-6.42s1.25-10.2,1.25-10.2ZM367.2,959.75l.4-3.3,2.95,1.26,1.54,6.63-4.9-4.59ZM367.72,955.51l.22-1.81,1.7.09.66,2.82-2.58-1.1ZM368.05,952.79l.13-1.08.91-.28.33,1.43-1.38-.07ZM369.97,951.17l1.71-.52,1.58,2.42-2.88-.16-.41-1.74ZM372.59,950.38l3.15-.95,5.44,4.08-6.79-.37-1.8-2.76ZM376.82,949.1l7.17-2.18,27.05,8.22-28.23-1.54-6-4.5ZM375.91,948.42l-2.64-1.98,2.63-1.98,6.51,1.98-6.51,1.98ZM376.81,943.79l6-4.5,28.22-1.53-27.05,8.21-7.18-2.18ZM384.13,938.3l23.71-17.78c2.84,4.95,4.92,10.38,6.05,16.16l-29.76,1.62ZM382.49,938.39l-7.49.41,4.1-6.28,26-11.09-22.61,16.96ZM373.87,938.86l-3.29.18.75-3.21,6.26-2.67-3.72,5.7ZM371.59,934.74l1.7-7.3,20.64-19.32-15.44,23.67-6.9,2.95ZM373.66,925.84l6.69-28.68c5.43,2.04,10.45,4.89,14.87,8.49l-21.56,20.19ZM372.46,926.96l-5.48,5.13-.9-7.45,12.79-25.21-6.42,27.53ZM366.16,932.86l-1.73,1.62v-6.57l.92-1.81.81,6.75ZM364.43,925.9v-7.38l.72,5.96-.72,1.42ZM304.55,820.24c.41,1.25.74,2.54,1.01,3.84.01.09.03.17.04.26-1.27-.06-2.6-.12-3.96-.19.89-1.15,1.88-2.49,2.91-3.9ZM323.46,922.56l-7.16-3.04c2.04-3.39,4.44-6.53,7.16-9.37v12.42ZM315.69,920.53l7.77,5.85v11.03l-13.82-.73c1.13-5.78,3.21-11.21,6.05-16.15ZM308.64,946.86c0-3.09.32-6.1.83-9.05l13.99,4.27v8.74l-14.11,4.31c-.43-2.7-.71-5.45-.71-8.27ZM327.86,985.76l-.8,1.23c-.46-.4-.9-.81-1.35-1.23h2.15ZM329.91,985.76l15.58-.02-2.49,10.76c-5.55-2.11-10.68-5.07-15.16-8.8l2.08-1.94ZM349.63,985.73h9.88s1.74,14.23,1.74,14.23c-6.06-.06-11.87-1.17-17.29-3.11l5.66-11.12ZM364.02,985.71h9.89s5.65,11.14,5.65,11.14c-5.42,1.94-11.22,3.05-17.29,3.11l1.75-14.25ZM378.01,985.69h11.19c1.14-.02,2.12-.71,2.54-1.7l3.95,3.7c-4.49,3.73-9.62,6.7-15.17,8.8l-2.52-10.8ZM391.96,982.93s0-.01,0-.02c0-1.53-1.24-2.76-2.76-2.76h-.21s-15.69-14.69-15.69-14.69l-1.7-7.31,6.89,2.95,15.44,23.68-1.97-1.85ZM371.34,957.05l-.75-3.21,3.29.18,3.72,5.7-6.25-2.67ZM375,954.08l7.49.41,22.61,16.97-26-11.1-4.1-6.28ZM384.13,954.58l29.88,1.64c-1.05,5.85-3.03,11.38-5.83,16.41l-24.05-18.04ZM407.23,919.52l-27.23,11.62,16.14-24.72c4.37,3.72,8.11,8.15,11.09,13.1ZM379.21,896.74l-13.32,26.27-1.46-12.14v-17c5.15.26,10.11,1.24,14.78,2.87ZM359.1,865.75h-5.22c-.54-1.55-1.13-3.13-1.74-4.72h6.96v4.72ZM219.93,834.46l17.16,1.18h-19.79l2.63-1.18ZM275.97,858.1v-15.31h3.27v-7.16h-6.85c0-1.7-.73-3.28-1.9-4.66.84-.02,1.69-.05,2.55-.09,7.19,1.28,24.19,4.29,30.89,5.32.9.14,1.84.27,2.8.39.01.33.02.65.03.96,0,1.67-.02,3.17-.02,4.34-.02.45-.06.93-.12,1.43,0,.05-.01.1-.02.15-.28,2.32-.9,5.15-1.63,8.05h-7.17v2.91h-.26c-4.16,0-7.55,3.39-7.55,7.55v3.76h-.95v4.58c-3.88.59-8.4,1.24-13.05,2v-14.22ZM257.94,992.12l-19.67-.04c1.58-.3,3.14-.55,4.59-.56,1.5,0,5.9.43,8.69.34.14,0,.29,0,.43-.01.45-.02.86-.06,1.17-.13.27-.05.57-.23.87-.45.61-.38,1.31-.89,1.63-1.2,2.19-2.33,2.18-7.2,1.68-7.56,0,0-.12.15-.34.39-.02-1.46.05-3.13.52-4.73,1.26-3.28,4.55-10.43,8.24-18.37v7.91l-7.82,24.4ZM275.95,954l11.43-35.67v54.44c-4.7.73-8.76,3.29-11.43,6.98v-25.75ZM296.36,982.17l-2.48,2.48c-.37-.27-.76-.5-1.17-.69v-3.68c1.36.38,2.59,1.02,3.65,1.89ZM293.71,959.36c-.32-.2-.66-.32-1.01-.38v-50.17c.21-.2.41-.41.62-.59h21.91c-8.71,10.48-13.96,23.94-13.96,38.64,0,6.74,1.15,13.2,3.18,19.25l-10.75-6.76ZM396.47,986.99l-16.47-25.25,27.63,11.8c-2.97,5.08-6.74,9.62-11.16,13.44Z"/>
            <g>
              <g>
                <g>
                  <path class="cls-68" d="M295.55,820.07c-1.82,4.31-14.38,6.19-23.05,6.83-17.66,1.3-34.28-1.63-34.28-1.63l-.23-7.62s45.1-5.19,47.56-5.32c2.46-.13,13.15.32,10.01,7.74Z"/>
                  <path class="cls-68" d="M314.18,776.22c4.51,1.38,5.93,7.3,3.63,13.5-2.29,6.2-22.15,35.01-24.43,35.54-2.28.53-8.49-1.02-8.77-4.2-.28-3.17,11.97-30.15,14.89-34.84,2.92-4.69,8.8-11.8,14.68-10Z"/>
                  <path class="cls-101" d="M279.76,923.22l-39.23-43.14,59.19-1.32s-6.08,15.39-9,20.05c-9.41,15.02-10.96,24.42-10.96,24.42Z"/>
                  <path class="cls-1" d="M326.34,727.61s2.73-8.19,9.04-8.78c7.96-.74,12.68,5.87,14.19,17.3.65,4.93-2.97,23.5-1.99,23.29.98-.21.91,2.96-1.27,3.53-2.18.58-8.99.44-10.14-8.12-1.15-8.56-5.19-13.72-5.19-13.72l-4.63-13.51Z"/>
                  <path class="cls-68" d="M331.94,897.58c-1.5,4.48-27.74,5.56-45.15,2.23-16.53-3.16-39.19-5.28-40.41-6.7-1.22-1.42-2.91-13.76-1.7-15.71,1.21-1.95,68.7-14.2,72.14-14.4,3.44-.2,21.6,15.15,15.12,34.59Z"/>
                  <g>
                    <path class="cls-68" d="M261.78,884.35c6.9,8.84,5.66,29.15,4.07,36.79-1.58,7.64-16.97,46.8-16.95,49.65.02,2.84-10.64-.83-10.32-2.39,3.16-15.43,3.29-57.56,3.24-61.71-.05-4.16-2.47-21.09.36-26.59,5.81-11.29,15.64-.8,19.59,4.25Z"/>
                    <g>
                      <path class="cls-68" d="M249.59,968.06c-1.52,3.34-.35,7.89-.36,9.91-.02,2.44-1.96,5.56-3.38,5.95-3.9,1.09-6.47-1.3-10.65-.95-4.19.35-12.63,4.91-15.65,4.2-3.02-.7-8.01-1.91-7.73-3.36.28-1.44,8.1-4.92,8.1-4.92,15.69-6.75,19.59-11.67,19.59-11.67,0,0,10.32.33,10.1.83Z"/>
                      <path class="cls-32" d="M219.91,978.9s-2.34,1.07-2.29,1.68c.07.88,2.68,1.53,3.6,1.54,8.19.04,20.55-2.59,23.47-3.85,3.05-1.31,4.58-3.64,4.58-3.64.54.31.93,5.05-1.07,7.49-.46.53-1.93,1.68-2.36,1.8-2.19.62-8.45.45-10.28.61-4.19.35-9.06,2.57-13.22,2.98-3.09.3-13.32-1.04-13.04-2.48.22-1.13,6.54-5.59,10.61-6.12Z"/>
                    </g>
                  </g>
                  <path class="cls-104" d="M338.07,742.78s-1.32,21.31,0,22.41c4.11,3.43,14.44,8.6,17.23,14.57,3.39,7.23-12.83,28.07-16.02,50.56-1.54,10.9,9.48,30.57,11.1,41.1,1.62,10.53-33.07,19.09-34.29,19.09s-15.49-9.69-17.51-13.14c-2.03-3.44,4.51-34.72,4.51-41.61s-1.76-20.74-2.81-21.96c-1.05-1.22-5.42-5.29-5.42-9.75,0-6.48,9.71-15.62,10.12-17.84.41-2.23-.43-5.43.69-6.86,2.23-2.83,13.77-8.7,13.97-10.12.2-1.42-.2-19.64-.2-19.64l18.63-6.82Z"/>
                  <path class="cls-61" d="M291.35,795.2s9.57-21.56,19.78-17.97c13.82,4.86-2.44,28.77-2.44,28.77l-17.33-10.8Z"/>
                  <polygon class="cls-68" points="319.54 755.34 319.7 766.87 337.49 757.51 337.99 743.87 319.54 755.34"/>
                  <path class="cls-104" d="M350.5,887.93c-4.55,9.64-23.82,13.41-41.95,13.83-23.89.54-44.53-1.34-45.89-2.62-1.35-1.29-2.84-12.92-1.83-14.99,1.01-2.07,48.9-15.59,52.3-16.14,2.65-.43,32.96-8.96,37.25,3.43,1.2,3.46,2.96,10.48.11,16.5Z"/>
                  <path class="cls-104" d="M312.95,725.08c4.37-4.72,17.82-9.72,25.13-.93,7.3,8.79,4.94,18.15,1.67,24.07-2.55,4.62-5.15,7.26-10.44,10.17-1.08.59-11.05,3.1-13.11,2.54-1.41-.38-3.12-10.63-3.52-10.56-.4.07-1.56-.47-1.67-1.3-.16-1.21.65-8.73.31-9.49-.34-.76-3.37-9.1,1.64-14.5Z"/>
                  <g>
                    <path class="cls-104" d="M274.51,889.33c6,9.68,2.89,29.47.55,37.1-2.33,7.63-21.66,46.83-21.92,49.73-.26,2.9-10.71.18-10.32-1.4,4.93-20.05,7.55-58.76,7.91-63.01.36-4.24,4.72-19.19,6.47-26.32,2.33-9.46,13.88-1.64,17.31,3.89Z"/>
                    <g>
                      <path class="cls-104" d="M254.39,972.71c-1.79,3.28-.99,7.36-1.17,9.42-.22,2.49-2.41,5.51-3.86,5.81-3.97.8-6.34-1.84-10.54-1.82-4.2.02-13,4-15.94,3.04-2.95-.96-7.83-2.59-7.43-4.04.39-1.45,8.48-4.37,8.48-4.37,16.19-5.63,20.48-10.34,20.48-10.34,0,0,10.26,1.83,9.99,2.32Z"/>
                      <path class="cls-32" d="M223.92,980.74s-2.42.9-2.42,1.53c0,.9,2.55,1.78,3.46,1.86,8.16.69,20.69-1,23.71-2.05,3.14-1.09,4.87-3.35,4.87-3.35.51.36.51,5.23-1.68,7.56-.5.5-2.06,1.56-2.5,1.65-2.24.45-8.46-.21-10.3-.2-4.2.02-9.24,1.9-13.43,1.98-3.1.06-13.19-2.13-12.8-3.58.31-1.14,6.98-5.18,11.08-5.39Z"/>
                    </g>
                  </g>
                  <path class="cls-71" d="M307.14,777.27l10.34-6.1s-5.28,7.68-.6,10.74c8.23,5.39,23.81-15.04,23.81-15.04,0,0,12.7,7.57,14.62,11.63,4.68,9.87-8.09,27.22-8.09,27.22,0,0-6.84,15.87-7.74,23.25-.9,7.38,8.45,24.77,12.27,38.21,1.01,3.55,4.77,21.19-2.59,26.42-19.02,13.51-56,8.93-56.86,9.21-7.69,2.47-12.55,20.41-12.55,20.41,0,0,2.18-24.35-10.51-35.59-5.27-4.66-28.87-6.47-28.72-7.55,1.49-10.71,56.3-13.34,56.43-16.33.13-2.99,5.62-18.27,5.97-25.64.35-7.38-1.11-22.7-3.09-24.91-1.98-2.21-5.4-4.8-5.25-9.45.15-4.65,12.56-26.47,12.56-26.47Z"/>
                  <path class="cls-61" d="M299.17,812.49s12.11,2.84,20.37,2.19c8.26-.65,27.68-8.96,27.68-8.96,0,0-7.11,15.66-7.74,23.25-.63,7.59,8.37,26.97,8.37,26.97,0,0-12.14-4.77-25.79,0-13.65,4.77-25.11,7.81-25.11,7.81,0,0,.8-3.85,1.83-7.4,1.03-3.55,4.12-12.83,4.14-18.25.02-5.42.54-17.2-3.76-25.62Z"/>
                  <path class="cls-104" d="M323.33,830.45c-2.48,3.97-14.62,3.29-23.21,1.96-8.6-1.32-34.22-5.92-34.22-5.92l.98-7.56s45.35,2.02,47.8,2.28c2.45.26,12.93,2.4,8.65,9.23Z"/>
                  <path class="cls-104" d="M352.01,775.93c4.42,1.69,4.85,8.43,1.39,15.39-3.46,6.96-27.73,38.69-30.18,39.23-2.45.54-9.94-1.04-9.67-4.64.27-3.6,17.67-33.82,21.51-39.05,3.84-5.23,11.18-13.12,16.94-10.92Z"/>
                  <path class="cls-116" d="M240.53,831.84s5.97.15,13.72.15,14.34-.15,14.34-.15c0-5.21-6.28-9.43-14.03-9.43s-14.03,4.22-14.03,9.43Z"/>
                  <path class="cls-1" d="M313.24,730.11c-.06,1.12,4.17,6.22,7.45,6.58,3.27.36,9.38-1.38,11.32-.65,1.94.73,8.08,11.55,8.08,11.55,0,0,6.35-9.81,3.89-17.67-2.45-7.86-11.17-10.72-16.6-10.58-5.43.15-13.63,1.45-14.13,10.77Z"/>
                  <path class="cls-1" d="M314.16,728.47s-1.79,4.16-2.92,4.66c-1.13.5-.99,2.18-.99,2.18,0,0-2.43-3.32-.48-7.41,1.95-4.09,7.67-8.85,10.94-7.75,3.27,1.1-6.56,8.32-6.56,8.32Z"/>
                  <path class="cls-104" d="M270.39,819.09s-10.91-1.98-11.34-2.44c-.42-.46-18.07,8.65-17.13,9.3.94.65,3.32.65,6.08-.48,2.77-1.13,14.8,3.06,19.88,1.38,5.09-1.68,2.5-7.76,2.5-7.76Z"/>
                  <path class="cls-68" d="M244.27,818.24s-10.91-1.98-11.34-2.44c-.42-.45-18.07,8.65-17.13,9.3.94.65,3.32.65,6.08-.48,2.77-1.13,14.8,3.06,19.88,1.38,5.09-1.68,2.5-7.76,2.5-7.76Z"/>
                  <path class="cls-71" d="M330.64,791.98s11.54-20.57,21.37-16.04c13.31,6.13-5.11,28.41-5.11,28.41l-16.25-12.37Z"/>
                </g>
                <g>
                  <path class="cls-94" d="M365.22,792.24c1.34,0,2.52-.98,2.73-2.35.46-3.05,3.04-5.27,6.12-5.27h11.64c1.53,0,2.76-1.24,2.76-2.76s-1.24-2.76-2.76-2.76h-11.64c-5.84,0-10.71,4.19-11.59,9.97-.23,1.51.81,2.92,2.32,3.14.14.02.28.03.42.03Z"/>
                  <rect class="cls-94" x="283.58" y="902.8" width="5.33" height="84.33" transform="translate(572.49 1889.94) rotate(180)"/>
                  <path class="cls-94" d="M258.17,993.86l29.95-93.5c.47-1.45-.34-3.01-1.79-3.47-1.45-.46-3.01.34-3.47,1.79l-28.71,89.65-36.6-.07h0c-1.53,0-2.76,1.23-2.76,2.76,0,1.53,1.23,2.76,2.76,2.77l40.64.08Z"/>
                  <path class="cls-94" d="M321.54,981.97l63.87-.09c1.53,0,2.76-1.24,2.76-2.77s-1.24-2.76-2.76-2.76h0l-62.28.09-33.21-20.88c-1.29-.81-3-.42-3.81.87-.81,1.29-.42,3,.87,3.81l34.56,21.73Z"/>
                  <path class="cls-94" d="M286.17,898.44h3.68v-40.24c0-2.13,1.74-3.87,3.87-3.87h4.72v-3.68h-4.72c-4.16,0-7.55,3.39-7.55,7.55v40.24Z"/>
                  <path class="cls-32" d="M282.89,904.42h74.47v-9.82h-74.47c-2.71,0-4.91,2.2-4.91,4.91h0c0,2.71,2.2,4.91,4.91,4.91Z"/>
                  <rect class="cls-94" x="355.3" y="841.5" width="5.33" height="137.62" transform="translate(715.94 1820.62) rotate(180)"/>
                  <rect class="cls-94" x="319.67" y="898.69" width="5.33" height="80.52" transform="translate(644.66 1877.89) rotate(180)"/>
                  <path class="cls-32" d="M279.69,986.13c0,3.62,2.93,6.55,6.55,6.55s6.55-2.93,6.55-6.55-2.93-6.55-6.55-6.55-6.55,2.93-6.55,6.55Z"/>
                  <g>
                    <path class="cls-113" d="M350.96,943.01l7.01-58.08,7.01,58.19-7.01,57.2-7.01-57.31ZM351.88,943.01l6.09,49.74,6.09-49.63-6.09-50.5-6.09,50.39Z"/>
                    <path class="cls-113" d="M351.26,940.59l26.45-52.18-13.32,57.08-26.15,51.35,13.02-56.25ZM352.12,940.9l-11.29,48.83,22.7-44.55,11.55-49.54-22.96,45.27Z"/>
                    <path class="cls-113" d="M352.37,938.42l42.7-39.98-32.03,49.08-42.13,39.31,31.47-48.4ZM353.08,939.01l-27.31,42.02,36.57-34.1,27.79-42.6-37.06,34.68Z"/>
                    <path class="cls-113" d="M354.16,936.76l53.8-22.97-46.89,35.16-53.04,22.53,46.13-34.72ZM354.62,937.55l-40.03,30.15,46.03-19.53,40.69-30.53-46.69,19.92Z"/>
                    <path class="cls-113" d="M356.4,935.81l58.41-3.19-56.09,17.01-57.54,3.03,55.22-16.85ZM356.56,936.71l-47.93,14.64,49.93-2.62,48.67-14.78-50.68,2.75Z"/>
                    <path class="cls-113" d="M356.29,949.47l-55.11-16.83,57.65,3.05,55.98,16.99-58.52-3.21ZM356.45,948.57l50.79,2.77-48.57-14.75-50.04-2.64,47.82,14.62Z"/>
                    <path class="cls-113" d="M354.06,948.49l-46.03-34.67,53.13,22.59,46.79,35.1-53.89-23.02ZM354.52,947.7l46.78,19.97-40.59-30.47-46.12-19.59,39.93,30.09Z"/>
                    <path class="cls-113" d="M352.3,946.8l-31.4-48.32,42.2,39.39,31.96,48.99-42.77-40.07ZM353,946.21l37.13,34.77-27.72-42.52-36.64-34.18,27.23,41.93Z"/>
                    <path class="cls-113" d="M351.23,944.61l-12.98-56.15,26.18,51.46,13.28,56.97-26.48-52.28ZM352.08,944.3l23,45.37-11.51-49.44-22.74-44.66,11.25,48.72Z"/>
                  </g>
                  <rect class="cls-32" x="357.92" y="788.76" width="7.11" height="53.5" transform="translate(606.14 1673.33) rotate(-172.01)"/>
                  <path class="cls-32" d="M377.13,786.25h16.54c2.43,0,4.39-1.97,4.39-4.39h0c0-2.43-1.97-4.39-4.39-4.39h-16.54c-2.43,0-4.39,1.97-4.39,4.39h0c0,2.43,1.97,4.39,4.39,4.39Z"/>
                  <rect class="cls-32" x="285.22" y="973.78" width="2.04" height="24.71" transform="translate(572.49 1972.26) rotate(180)"/>
                  <rect class="cls-32" x="285.22" y="973.78" width="2.04" height="24.71" transform="translate(-208.65 1885.84) rotate(-135)"/>
                  <rect class="cls-32" x="285.22" y="973.78" width="2.04" height="24.71" transform="translate(-699.89 1272.37) rotate(-90)"/>
                  <rect class="cls-32" x="285.22" y="973.78" width="2.04" height="24.71" transform="translate(-613.51 491.33) rotate(-45.01)"/>
                  <rect class="cls-32" x="285.22" y="861.96" width="70.08" height="26.51" transform="translate(640.53 1750.42) rotate(180)"/>
                  <path class="cls-32" d="M351.42,943.06c0,3.62,2.93,6.55,6.55,6.55s6.55-2.93,6.55-6.55-2.93-6.55-6.55-6.55-6.55,2.93-6.55,6.55Z"/>
                  <path class="cls-80" d="M357.97,889.94c29.29,0,53.12,23.83,53.12,53.12s-23.83,53.12-53.12,53.12-53.12-23.83-53.12-53.12,23.83-53.12,53.12-53.12h0ZM357.97,882.57c-33.41,0-60.49,27.08-60.49,60.49s27.08,60.49,60.49,60.49,60.49-27.08,60.49-60.49-27.08-60.49-60.49-60.49h0Z"/>
                  <path class="cls-80" d="M286.24,976.08c5.54,0,10.06,4.51,10.06,10.06s-4.51,10.06-10.06,10.06-10.06-4.51-10.06-10.06,4.51-10.06,10.06-10.06h0ZM286.24,968.71c-9.62,0-17.42,7.8-17.42,17.42s7.8,17.42,17.42,17.42,17.42-7.8,17.42-17.42-7.8-17.42-17.42-17.42h0Z"/>
                  <rect class="cls-80" x="293.98" y="847.74" width="61.32" height="9.5" transform="translate(649.29 1704.97) rotate(180)"/>
                </g>
              </g>
              <g>
                <g>
                  <g>
                    <polygon class="cls-117" points="229.21 826.81 232.62 827.04 232.77 828.36 228.49 828.06 229.21 826.81"/>
                    <polygon class="cls-125" points="229.71 827 232.64 827.2 232.77 828.36 229.08 828.11 229.71 827"/>
                  </g>
                  <g>
                    <polygon class="cls-117" points="224.94 826.52 228.34 826.75 228.49 828.06 224.22 827.77 224.94 826.52"/>
                    <polygon class="cls-125" points="225.43 826.71 228.36 826.91 228.49 828.06 224.8 827.81 225.43 826.71"/>
                  </g>
                  <g>
                    <polygon class="cls-117" points="220.66 826.22 224.07 826.46 224.22 827.77 219.94 827.48 220.66 826.22"/>
                    <polygon class="cls-125" points="221.16 826.42 224.09 826.62 224.22 827.77 220.53 827.52 221.16 826.42"/>
                  </g>
                  <g>
                    <polygon class="cls-117" points="216.38 825.93 219.8 826.16 219.94 827.48 215.66 827.18 216.38 825.93"/>
                    <polygon class="cls-125" points="216.89 826.12 219.81 826.33 219.94 827.48 216.25 827.23 216.89 826.12"/>
                  </g>
                  <g>
                    <polygon class="cls-117" points="212.11 825.64 215.52 825.87 215.66 827.18 211.39 826.89 212.11 825.64"/>
                    <polygon class="cls-125" points="212.61 825.83 215.54 826.03 215.66 827.18 211.98 826.93 212.61 825.83"/>
                  </g>
                  <polygon class="cls-125" points="208.2 830.12 234.49 831.92 235.4 828.05 209.1 826.24 208.2 830.12"/>
                  <polygon class="cls-125" points="209.52 832.24 212.6 832.24 216.15 830.65 209.92 830.23 209.52 832.24"/>
                </g>
                <g>
                  <rect class="cls-125" x="167.36" y="761.35" width="5.16" height="67.68"/>
                  <rect class="cls-125" x="161.02" y="829.02" width="17.7" height="2.82"/>
                  <polygon class="cls-126" points="172.52 788.12 175.36 788.12 173.51 761.35 172.52 761.35 172.52 788.12"/>
                  <polygon class="cls-125" points="176.24 809.75 180.78 809.49 175.83 726.02 171.28 726.29 176.24 809.75"/>
                  <polygon class="cls-114" points="178.89 809.4 180.44 809.3 175.51 726.16 173.94 726.26 178.89 809.4"/>
                </g>
                <g>
                  <rect class="cls-97" x="147.63" y="875.22" width="10.19" height="129.13"/>
                  <rect class="cls-97" x="261.96" y="875.14" width="10.19" height="129.13"/>
                  <rect class="cls-32" x="144.83" y="831.84" width="130.61" height="7.16"/>
                  <rect class="cls-97" x="147.63" y="838.95" width="124.54" height="38.16"/>
                  <polygon class="cls-21" points="272.17 838.95 147.63 838.95 147.63 875.99 272.17 854.31 272.17 838.95"/>
                  <rect class="cls-94" x="144.76" y="1002.66" width="15.92" height="3.38" rx=".35" ry=".35"/>
                  <rect class="cls-94" x="259.09" y="1002.61" width="15.92" height="3.38" rx=".35" ry=".35"/>
                </g>
              </g>
            </g>
          </g>
          <g>
            <g class="cls-19">
              <polygon class="cls-12" points="952.15 600.56 972.88 621.28 940.64 653.51 957.05 669.92 989.29 637.68 1010.01 658.41 1016.36 623.14 1022.69 587.88 987.43 594.22 952.15 600.56"/>
              <polygon class="cls-12" points="1216.92 395.36 1200.51 378.95 1168.29 411.18 1147.56 390.46 1141.22 425.73 1134.88 461 1170.14 454.66 1205.42 448.31 1184.7 427.59 1216.92 395.36"/>
              <path class="cls-12" d="M1103.9,451.67c-38.32-6.86-80.21,15.7-87.4,55.84-2.76,24.53,2.3,45.01,20.36,69.53,16.57,22.5-5.71,35.03,1.79,77.61,3.73,6.03,9.31,9.49,15.56,10.87,4.3.95,8.88.89,13.33,0,56.56-25.17,99.65-86.89,93.35-149.7-1.21-30.9-25.16-59.04-56.99-64.15Z"/>
            </g>
            <g>
              <polygon class="cls-10" points="937.63 650.5 954.04 666.91 986.27 634.67 1007 655.4 1013.34 620.13 1019.68 584.86 984.41 591.2 949.14 597.54 969.86 618.27 937.63 650.5"/>
              <polygon class="cls-10" points="1213.91 392.35 1197.5 375.94 1165.28 408.17 1144.54 387.45 1138.21 422.71 1131.86 457.98 1167.13 451.64 1202.4 445.3 1181.68 424.58 1213.91 392.35"/>
              <path class="cls-15" d="M1013.49,504.5c7.19-40.14,49.07-62.7,87.4-55.84,31.83,5.11,55.78,33.25,56.99,64.15,6.29,62.82-36.8,124.53-93.35,149.7-4.45.9-9.03.96-13.33,0-6.25-1.39-11.83-4.84-15.56-10.87-7.5-42.58,14.78-55.11-1.79-77.61-18.06-24.53-23.12-45-20.36-69.53Z"/>
              <path class="cls-13" d="M1051.91,563.67c-3.49,4-3.69,8.74,2.3,14.16,6.74,4.28,8.04,10.81,5.07,19.12-2.79,14.74.59,21.36,14.39,15.25,7.18-3.64,13.83-9.36,19.11-16.55,5.21-10.09,1.92-16.03-5.19-18.54-25.71,1.27-30.36-18.8-35.68-13.45Z"/>
              <path class="cls-13" d="M1085.49,564.39c-25.03-3.69-43.48-14.07-51.45-40.05-7.98-25.98,16.53-55.35,38.95-58.85,22.41-3.5,47.7,8.42,59.11,36.73,11.41,28.3,8.16,75.75-17.06,94.93,13.5-32.88-8.11-88.35-44.39-88.04,32.08,16.63,29.56,55.95,14.84,55.29Z"/>
              <path class="cls-11" d="M1038.15,534.67c-8.91-16.36-7.59-40.12,8.02-55.92,15.62-15.8,42.89-18.91,59.64-7.3-21.8-9.57-46.89.58-59.71,18.53-12.57,17.61-10.43,37.77-7.95,44.69Z"/>
              <path class="cls-11" d="M1051.91,563.67c-3.49,4-3.69,8.74,2.3,14.16,6.74,4.28,8.04,10.81,5.07,19.12-2.16,11.41-.62,17.96,6.59,17.49-5.08-3.2,4.16-12.03,7.97-18.76,3.27-9.45-8.8-17.57-17.51-23.31-3.36-3.1-1.83-7.52,2.49-6.42-2.87-3.87-5.37-3.83-6.9-2.29Z"/>
            </g>
          </g>
          <g>
            <g>
              <path class="cls-16" d="M239.97,445.74l.05-.03c-.61-.4-1.23-.77-1.84-1.15-.52-.33-1.03-.66-1.55-.97-1.05-.64-2.11-1.25-3.17-1.85l11.66-6.73c1.99-1.15,2.69-3.75,1.54-5.74-1.15-1.99-3.75-2.69-5.74-1.54l-16.34,9.43c-50.83-23.48-116.78-11.62-152.31,35.61,9.99,13.28,22.41,23.73,36.2,31.42l-11.87,6.85c-1.99,1.15-2.69,3.75-1.54,5.74,1.15,1.99,3.75,2.69,5.74,1.54l16.62-9.6c.21.1.42.18.63.27,1.15.52,2.31,1.02,3.48,1.5.84.35,1.69.68,2.54,1.01.39.15.78.32,1.17.47l.04-.02c49.45,18.45,110.11,5.42,143.65-39.18-8.21-10.91-18.07-19.89-28.97-27.03Z"/>
              <g>
                <path class="cls-11" d="M70.06,470.57c47.46-63.09,149.22-63.09,196.68,0-47.46,63.09-149.22,63.09-196.68,0Z"/>
                <path class="cls-17" d="M252.89,472.57c-43.72,47.9-125.26,47.9-168.98,0l-1.82-2,1.82-2c43.72-47.9,125.26-47.9,168.98,0l1.82,2-1.82,2Z"/>
                <path class="cls-8" d="M86.09,470.57c42.55,46.62,122.06,46.62,164.6,0-42.54-46.62-122.06-46.62-164.6,0Z"/>
                <path class="cls-14" d="M168.4,505.59c19.29,0,35.02-15.73,35.02-35.02s-15.73-35.02-35.02-35.02-35.02,15.73-35.02,35.02,15.73,35.02,35.02,35.02Z"/>
                <path class="cls-7" d="M178.01,479.79c9.84,0,17.86-8.03,17.86-17.86s-8.02-17.86-17.86-17.86-17.86,8.02-17.86,17.86,8.02,17.86,17.86,17.86Z"/>
                <path class="cls-5" d="M123.04,509.77l114.77-66.26c-2.69-1.76-5.45-3.41-8.26-4.94l-116.22,67.1c3.18,1.51,6.42,2.87,9.71,4.1Z"/>
                <path class="cls-9" d="M94.39,508.84c-1.99,1.15-2.69,3.75-1.54,5.74,1.15,1.99,3.75,2.69,5.74,1.54l144.32-83.32c1.99-1.15,2.69-3.75,1.54-5.74-1.15-1.99-3.75-2.69-5.74-1.54l-144.32,83.32Z"/>
              </g>
            </g>
            <g>
              <path class="cls-16" d="M331.44,567.82l-.34-75.75h.02c.31-9.64-1.74-17.21-5.08-22.63-2.57-4.19-5.95-7.14-9.69-8.86-3.89-1.79-8.13-2.19-12.23-1.2-4.09.99-7.99,3.35-11.23,7.08-1.89,2.17-1.66,5.46.51,7.35,2.17,1.89,5.46,1.66,7.35-.51,1.77-2.04,3.79-3.31,5.81-3.8,1.8-.44,3.68-.25,5.42.54,1.89.87,3.68,2.49,5.15,4.88,2.35,3.81,3.77,9.4,3.54,16.82h.02v.18l.28,62.55c-12.9-12.95-30.76-20.98-50.49-20.98-33.43,0-61.48,23.04-69.17,54.1-10.02-3.44-19.97-5.07-29.83-4.97-9.55.1-18.97,1.83-28.29,5.02-7.66-31.09-35.72-54.16-69.18-54.16-20.05,0-38.16,8.3-51.11,21.63l.28-63.2c0-.06,0-.12,0-.18h.02c-.24-7.42,1.19-13.01,3.54-16.82,1.47-2.39,3.26-4.01,5.15-4.88,1.73-.79,3.6-.98,5.42-.54,2.03.49,4.04,1.75,5.81,3.8,1.89,2.17,5.18,2.4,7.35.51,2.17-1.89,2.4-5.18.51-7.35-3.23-3.74-7.14-6.1-11.23-7.08-4.1-.99-8.33-.59-12.23,1.2-3.74,1.71-7.11,4.67-9.69,8.86-3.33,5.42-5.38,12.99-5.08,22.63h.01l-.34,76.84c-6.14,10.53-9.68,22.77-9.68,35.84,0,39.36,31.91,71.26,71.26,71.26s71.26-31.9,71.26-71.26c0-1.86-.09-3.69-.23-5.51,8.79-3.23,17.63-4.95,26.53-5.05,9.17-.09,18.47,1.56,27.89,5.03-.14,1.83-.23,3.66-.23,5.53,0,39.36,31.91,71.26,71.26,71.26s71.27-31.9,71.27-71.26c0-13.52-3.77-26.16-10.31-36.94Z"/>
              <g>
                <path class="cls-10" d="M19.86,617.04c0,2.87-2.34,5.19-5.22,5.19-2.87,0-5.2-2.34-5.19-5.21l.57-127.7h-.01c-.31-9.64,1.74-17.21,5.08-22.63,2.58-4.19,5.95-7.14,9.69-8.86,3.9-1.79,8.12-2.19,12.23-1.2,4.09.99,7.99,3.35,11.23,7.08,1.89,2.17,1.66,5.46-.51,7.35-2.17,1.89-5.46,1.66-7.35-.51-1.77-2.04-3.79-3.31-5.81-3.8-1.81-.44-3.68-.25-5.42.54-1.89.87-3.68,2.49-5.15,4.88-2.34,3.81-3.77,9.4-3.54,16.82h-.02c0,.06,0,.12,0,.18l-.57,127.87Z"/>
                <path class="cls-10" d="M126.78,603.77c-2.78,1.58-6.32.6-7.9-2.18-1.58-2.78-.61-6.32,2.18-7.9,15.56-8.88,31.44-13.65,47.66-13.82,16.2-.17,32.61,4.28,49.23,13.85,2.77,1.59,3.73,5.12,2.13,7.9-1.59,2.77-5.13,3.73-7.9,2.14-14.76-8.5-29.21-12.45-43.37-12.3-14.14.15-28.16,4.4-42.03,12.32Z"/>
                <path class="cls-10" d="M318.51,617.04c0,2.87,2.34,5.19,5.21,5.19,2.87,0,5.2-2.34,5.19-5.21l-.57-127.7h.02c.31-9.64-1.74-17.21-5.08-22.63-2.57-4.19-5.95-7.14-9.69-8.86-3.89-1.79-8.13-2.19-12.23-1.2-4.09.99-7.99,3.35-11.23,7.08-1.89,2.17-1.66,5.46.51,7.35,2.17,1.89,5.46,1.66,7.35-.51,1.77-2.04,3.79-3.31,5.81-3.8,1.8-.44,3.68-.25,5.42.54,1.89.87,3.68,2.49,5.15,4.88,2.35,3.81,3.77,9.4,3.54,16.82h.02v.18l.57,127.87Z"/>
                <path class="cls-10" d="M71.26,530.74c39.36,0,71.26,31.91,71.26,71.26s-31.9,71.26-71.26,71.26S0,641.36,0,602s31.91-71.26,71.26-71.26Z"/>
                <path class="cls-10" d="M267.73,530.74c39.36,0,71.27,31.91,71.27,71.26s-31.91,71.26-71.27,71.26-71.26-31.9-71.26-71.26,31.91-71.26,71.26-71.26Z"/>
                <path class="cls-18" d="M71.26,548.72c-29.43,0-53.28,23.85-53.28,53.28s23.85,53.28,53.28,53.28,53.29-23.85,53.29-53.28-23.85-53.28-53.29-53.28Z"/>
                <path class="cls-18" d="M267.73,548.72c-29.43,0-53.28,23.85-53.28,53.28s23.85,53.28,53.28,53.28,53.29-23.85,53.29-53.28-23.85-53.28-53.29-53.28Z"/>
                <path class="cls-6" d="M108.94,639.68c20.81-20.81,20.81-54.54,0-75.36-20.81-20.81-54.54-20.81-75.35,0l75.35,75.36Z"/>
                <path class="cls-6" d="M305.41,639.68c20.81-20.81,20.81-54.54,0-75.36-20.81-20.81-54.54-20.81-75.35,0l75.35,75.36Z"/>
                <path class="cls-6" d="M103.75,644.24l-74.72-74.73c-1.73,2.24-3.29,4.63-4.64,7.13l72.24,72.23c2.5-1.35,4.88-2.91,7.13-4.64Z"/>
                <path class="cls-6" d="M300.07,644.24l-74.73-74.73c-1.72,2.24-3.28,4.63-4.64,7.13l72.23,72.23c2.5-1.35,4.89-2.91,7.13-4.64Z"/>
              </g>
            </g>
          </g>
        </g>
      </g>
      <g class="cls-19">
        <g>
          <path class="cls-64" d="M928.77,846.62c0-2.77,2.42-4.98,4.76-7.13,2.16-1.97,4.38-4.01,4.38-6.14,0-6-6.96-6.65-9.95-6.65-7.99,0-16.43,3.9-16.43,7.58,0,2.67,1.84,3.91,4.86,5.62,2.46,1.39,5.25,2.97,5.25,6.23,0,5.4-5.68,11.22-18.15,11.22h-35.59c.02,4.7,1.94,9.59,5.15,13,1.81,1.93,4.84,4.24,8.96,4.24,1.91,0,3.86-.52,5.79-1.53l4.27-2.24-2.62,4.05c-2.07,3.2-2.31,6.46-.69,9.42,2.2,4.05,7.53,6.88,12.95,6.88,2.84,0,8.09-.83,11.43-6.39l3.12-5.2-.79,6.02s-.6,4.92,2.53,8.49c2.32,2.64,6.11,3.98,11.28,3.98h27.17l-.45,1.61s-.8,2.94.91,5.2c1.5,1.99,4.51,3,8.92,3h8.1c-.14-13.03-2.52-21.07-6.28-21.07-2.46,0-3.7.84-5.14,1.81-1.61,1.08-3.42,2.31-6.85,2.31-6.32,0-9.63-6.82-9.63-13.55,0-3.34.8-6.45,2.25-8.75,1.75-2.77,4.3-4.24,7.38-4.24s4.06,3.27,4.83,6.15c1.03,3.86,1.86,6.2,4.84,6.2h.32c1.18,0,3.37,0,5.15-1.23,2.08-1.44,3.14-4.31,3.14-8.52v-9.63h-27.01c-16.83,0-18.14-8.22-18.14-10.74Z"/>
          <path class="cls-64" d="M987.04,821.35c2.83,0,3.5,2.67,4.04,4.82.75,2.98,1.36,4.81,4.33,4.81s6.7-8.45,6.7-17.1c0-3.21-.56-5.88-1.64-7.74-1.15-1.99-2.8-2.96-5.06-2.96-4.06,0-5.66,3.26-7.35,6.7-1.5,3.07-3.06,6.24-6.55,6.24-7.58,0-7.58-5.35-7.58-14.2v-19.1c-1.6-.47-3.24-.71-4.88-.71-5.38,0-11.75,2.74-13.52,10.42l-.54,2.35-1.62-1.79c-2.99-3.29-8.14-5.18-14.13-5.18-7.4,0-14.65,2.86-18.47,7.28-2.45,2.83-3.42,6.12-2.89,9.76l.51,3.51-2.62-2.39c-1.93-1.77-4.33-2.7-6.93-2.7-3.75,0-7.58,1.93-10.01,5.04-2.2,2.82-2.95,6.21-2.11,9.56l.51,2.04-2.04-.51c-5.51-1.37-11.61,1.31-14.51,6.23-2.1,3.56-2.18,7.63-.22,11.16.65,1.21,1.54,2.35,2.65,3.42l1.89,1.81-2.6.35c-8.22,1.11-13.36,5.59-14.32,12.37h35.43c10.25,0,15.62-4.37,15.62-8.69,0-1.7-1.5-2.64-3.96-4.03-2.74-1.55-6.15-3.48-6.15-7.82,0-5.69,10.19-10.11,18.96-10.11,7.81,0,12.48,3.43,12.48,9.17,0,3.24-2.77,5.77-5.21,8.01-1.94,1.77-3.94,3.61-3.94,5.26,0,5.14,5.84,8.21,15.61,8.21h27.01v-8.69c0-16.45,4.41-24.79,13.12-24.79Z"/>
          <path class="cls-64" d="M1070.38,855.19h-21.28c-8.04,0-15.58,7.55-15.58,12.11,0,1.88,1.05,2.8,2.91,4.27,2.08,1.65,4.67,3.7,4.67,8.26,0,2.92-2,5.62-5.64,7.58-3.08,1.67-7.14,2.67-10.87,2.67-6.96,0-11.29-3.28-11.29-8.56,0-4.46,2.76-7.27,4.98-9.53,1.63-1.66,3.03-3.09,3.03-4.7v-.43c0-2.08.02-4.24-1.65-5.92-2.37-2.38-7.85-3.58-16.29-3.58h-26.91v9.63c0,5.09-1.42,8.65-4.23,10.59-2.42,1.68-5.23,1.68-6.58,1.68l-.32-1.26v1.26c-5.13,0-6.37-4.67-7.28-8.07-.71-2.66-1.22-4.28-2.39-4.28-2.2,0-3.96,1.03-5.24,3.06-1.2,1.91-1.87,4.54-1.87,7.41,0,5.48,2.44,11.03,7.11,11.03,2.65,0,3.94-.87,5.43-1.88,1.56-1.05,3.32-2.24,6.55-2.24,7.28,0,8.81,13.52,8.81,24.86h14.33c-.96,10.41,11.04,17.36,21.78,10.64-1.89,23.15,30.53,21.25,26.53,2.53,22.11,12,34.55-14.33,21.68-27.6,10.48-1.06,11.22-18.09-.55-20.11,8.37-3.09,12.03-11.95,10.15-19.41Z"/>
          <path class="cls-64" d="M1021.44,859.16c2.41,2.42,2.4,5.35,2.39,7.71v.42c0,2.65-1.91,4.59-3.76,6.47-2.09,2.13-4.25,4.33-4.25,7.75,0,5.44,6.13,6.03,8.76,6.03h0c3.32,0,6.93-.88,9.66-2.36,1.61-.87,4.31-2.73,4.31-5.36,0-3.34-1.72-4.7-3.71-6.28-1.81-1.44-3.87-3.06-3.87-6.26,0-6.25,8.95-14.63,18.11-14.63h19.09c-2.31-4.63-7.14-7.39-13.55-7.66l-2.57-.11,1.66-1.97c3.09-3.67,3.74-8.19,1.79-12.38-2.31-4.95-7.78-7.91-11.96-6.25l-2.84,1.12,1.22-2.8c1.69-3.9,1.2-8.99-1.22-12.68-3.21-4.9-8.86-5.81-14.87-2.16l-1.98,1.2.06-2.31c.21-8.1-1.79-14.38-5.96-18.65-3.53-3.62-8.57-5.61-14.21-5.61-7.49,0-14.65,3.62-17.03,8.61l-1.02,2.14-1.21-2.04c-1.92-3.26-4.75-5.81-8.06-7.35v18.15c0,10.36.57,11.67,5.05,11.67,1.82,0,2.81-1.83,4.28-4.82,1.77-3.61,3.98-8.11,9.62-8.11,3.15,0,5.66,1.46,7.25,4.22,1.29,2.24,1.97,5.35,1.97,9,0,8-3.59,19.63-9.23,19.63-5.09,0-6.11-4.05-6.78-6.72-.55-2.22-.85-2.91-1.58-2.91-7.03,0-10.59,7.49-10.59,22.26v8.69h26.91c9.4,0,15.14,1.37,18.08,4.32Z"/>
        </g>
        <path class="cls-64" d="M1012.52,922.47l-1.01-2.13c-10.45,5.67-21.66-1.13-20.74-11.21h-6.57l27.46,58.1h22.02l-15.8-33.43c-3.01-2.32-5.15-6.05-5.35-11.32Z"/>
        <path class="cls-64" d="M1000.47,806.14c-1.15-1.99-2.8-2.96-5.06-2.96-4.06,0-5.66,3.26-7.35,6.7-1.5,3.07-3.06,6.24-6.55,6.24-7.58,0-7.58-5.35-7.58-14.2v-19.1c-1.6-.47-3.24-.71-4.88-.71-5.38,0-11.75,2.74-13.52,10.42l-.54,2.35-1.62-1.79c-2.99-3.29-8.14-5.18-14.13-5.18-7.4,0-14.65,2.86-18.47,7.28-2.45,2.83-3.42,6.12-2.89,9.76l.51,3.51-2.62-2.39c-1.93-1.77-4.33-2.7-6.93-2.7-3.75,0-7.58,1.93-10.01,5.04-2.2,2.82-2.95,6.21-2.11,9.56l.51,2.04-2.04-.51c-5.51-1.37-11.61,1.31-14.51,6.23-2.1,3.56-2.18,7.63-.22,11.16.65,1.21,1.54,2.35,2.65,3.42l1.89,1.81-2.6.35c-8.22,1.11-13.36,5.59-14.32,12.37h35.43c10.25,0,15.62-4.37,15.62-8.69,0-1.7-1.5-2.64-3.96-4.03-2.74-1.55-6.15-3.48-6.15-7.82,0-5.69,10.19-10.11,18.96-10.11,7.81,0,12.48,3.43,12.48,9.17,0,3.24-2.77,5.77-5.21,8.01-1.94,1.77-3.94,3.61-3.94,5.26,0,5.14,5.84,8.21,15.61,8.21h27.01v-8.69c0-16.45,4.41-24.79,13.12-24.79,2.83,0,3.5,2.67,4.04,4.82.75,2.98,1.36,4.81,4.33,4.81s6.7-8.45,6.7-17.1c0-3.21-.56-5.88-1.64-7.74Z"/>
        <path class="cls-64" d="M1068.19,852.66c-2.31-4.63-7.14-7.39-13.55-7.66l-2.57-.11,1.66-1.97c3.09-3.67,3.74-8.19,1.79-12.38-2.31-4.95-7.78-7.91-11.96-6.25l-2.84,1.12,1.22-2.8c1.69-3.9,1.2-8.99-1.22-12.68-3.21-4.9-8.86-5.81-14.87-2.16l-1.98,1.2.06-2.31c.21-8.1-1.79-14.38-5.96-18.65-3.53-3.62-8.57-5.61-14.21-5.61-7.49,0-14.65,3.62-17.03,8.61l-1.02,2.14-1.21-2.04c-1.92-3.26-4.75-5.81-8.06-7.35v18.15c0,10.36.57,11.67,5.05,11.67,1.82,0,2.81-1.83,4.28-4.82,1.77-3.61,3.98-8.11,9.62-8.11,3.15,0,5.66,1.46,7.25,4.22,1.29,2.24,1.97,5.35,1.97,9,0,8-3.59,19.63-9.23,19.63-5.09,0-6.11-4.05-6.78-6.72-.55-2.22-.85-2.91-1.58-2.91-7.03,0-10.59,7.49-10.59,22.26v8.69h26.91c9.4,0,15.14,1.37,18.08,4.32,2.41,2.42,2.4,5.35,2.39,7.71v.42c0,2.65-1.91,4.59-3.76,6.47-2.09,2.13-4.25,4.33-4.25,7.75,0,5.44,6.13,6.03,8.76,6.03h0c3.32,0,6.93-.88,9.66-2.36,1.61-.87,4.31-2.73,4.31-5.36,0-3.34-1.72-4.7-3.71-6.28-1.81-1.44-3.87-3.06-3.87-6.26,0-6.25,8.95-14.63,18.11-14.63h19.09Z"/>
        <path class="cls-64" d="M967.64,886.81c-2.46,0-3.7.84-5.14,1.81-1.61,1.08-3.42,2.31-6.85,2.31-6.32,0-9.63-6.82-9.63-13.55,0-3.34.8-6.45,2.25-8.75,1.75-2.77,4.3-4.24,7.38-4.24s4.06,3.27,4.83,6.15c1.03,3.86,1.86,6.2,4.84,6.2h.32c1.18,0,3.37,0,5.15-1.23,2.08-1.44,3.14-4.31,3.14-8.52v-9.63h-27.01c-16.83,0-18.14-8.22-18.14-10.74,0-2.77,2.42-4.98,4.76-7.13,2.16-1.97,4.38-4.01,4.38-6.14,0-6-6.96-6.65-9.95-6.65-7.99,0-16.43,3.9-16.43,7.58,0,2.67,1.84,3.91,4.86,5.62,2.46,1.39,5.25,2.97,5.25,6.23,0,5.4-5.68,11.22-18.15,11.22h-35.59c.02,4.7,1.94,9.59,5.15,13,1.81,1.93,4.84,4.24,8.96,4.24,1.91,0,3.86-.52,5.79-1.53l4.27-2.24-2.62,4.05c-2.07,3.2-2.31,6.46-.69,9.42,2.2,4.05,7.53,6.88,12.95,6.88,2.84,0,8.09-.83,11.43-6.39l3.12-5.2-.79,6.02s-.6,4.92,2.53,8.49c2.32,2.64,6.11,3.98,11.28,3.98h27.17l-.45,1.61s-.8,2.94.91,5.2c1.5,1.99,4.51,3,8.92,3h8.1c-.14-13.03-2.52-21.07-6.28-21.07Z"/>
      </g>
      <g>
        <g>
          <path class="cls-99" d="M925.79,849.28c0-2.77,2.42-4.98,4.76-7.13,2.16-1.97,4.38-4.01,4.38-6.14,0-6-6.96-6.65-9.95-6.65-7.99,0-16.43,3.9-16.43,7.58,0,2.67,1.84,3.91,4.86,5.62,2.46,1.39,5.25,2.97,5.25,6.23,0,5.4-5.68,11.22-18.15,11.22h-35.59c.02,4.7,1.94,9.59,5.15,13,1.81,1.93,4.84,4.24,8.96,4.24,1.91,0,3.86-.52,5.79-1.53l4.27-2.24-2.62,4.05c-2.07,3.2-2.31,6.46-.69,9.42,2.2,4.05,7.53,6.88,12.95,6.88,2.84,0,8.09-.83,11.43-6.39l3.12-5.2-.79,6.02s-.6,4.92,2.53,8.49c2.32,2.64,6.11,3.98,11.28,3.98h27.17l-.45,1.61s-.8,2.94.91,5.2c1.5,1.99,4.51,3,8.92,3h8.1c-.14-13.03-2.52-21.07-6.28-21.07-2.46,0-3.7.84-5.14,1.81-1.61,1.08-3.42,2.31-6.85,2.31-6.32,0-9.63-6.82-9.63-13.55,0-3.34.8-6.45,2.25-8.75,1.75-2.77,4.3-4.24,7.38-4.24s4.06,3.27,4.83,6.15c1.03,3.86,1.86,6.2,4.84,6.2h.32c1.18,0,3.37,0,5.15-1.23,2.08-1.44,3.14-4.31,3.14-8.52v-9.63h-27.01c-16.83,0-18.14-8.22-18.14-10.74Z"/>
          <path class="cls-99" d="M984.06,824.01c2.83,0,3.5,2.67,4.04,4.82.75,2.98,1.36,4.81,4.33,4.81s6.7-8.45,6.7-17.1c0-3.21-.56-5.88-1.64-7.74-1.15-1.99-2.8-2.96-5.06-2.96-4.06,0-5.66,3.26-7.35,6.7-1.5,3.07-3.06,6.24-6.55,6.24-7.58,0-7.58-5.35-7.58-14.2v-19.1c-1.6-.47-3.24-.71-4.88-.71-5.38,0-11.75,2.74-13.52,10.42l-.54,2.35-1.62-1.79c-2.99-3.29-8.14-5.18-14.13-5.18-7.4,0-14.65,2.86-18.47,7.28-2.45,2.83-3.42,6.12-2.89,9.76l.51,3.51-2.62-2.39c-1.93-1.77-4.33-2.7-6.93-2.7-3.75,0-7.58,1.93-10.01,5.04-2.2,2.82-2.95,6.21-2.11,9.56l.51,2.04-2.04-.51c-5.51-1.37-11.61,1.31-14.51,6.23-2.1,3.56-2.18,7.63-.22,11.16.65,1.21,1.54,2.35,2.65,3.42l1.89,1.81-2.6.35c-8.22,1.11-13.36,5.59-14.32,12.37h35.43c10.25,0,15.62-4.37,15.62-8.69,0-1.7-1.5-2.64-3.96-4.03-2.74-1.55-6.15-3.48-6.15-7.82,0-5.69,10.19-10.11,18.96-10.11,7.81,0,12.48,3.43,12.48,9.17,0,3.24-2.77,5.77-5.21,8.01-1.94,1.77-3.94,3.61-3.94,5.26,0,5.14,5.84,8.21,15.61,8.21h27.01v-8.69c0-16.45,4.41-24.79,13.12-24.79Z"/>
          <path class="cls-99" d="M1067.4,857.85h-21.28c-8.04,0-15.58,7.55-15.58,12.11,0,1.88,1.05,2.8,2.91,4.27,2.08,1.65,4.67,3.7,4.67,8.26,0,2.92-2,5.62-5.64,7.58-3.08,1.67-7.14,2.67-10.87,2.67-6.96,0-11.29-3.28-11.29-8.56,0-4.46,2.76-7.27,4.98-9.53,1.63-1.66,3.03-3.09,3.03-4.7v-.43c0-2.08.02-4.24-1.65-5.92-2.37-2.38-7.85-3.58-16.29-3.58h-26.91v9.63c0,5.09-1.42,8.65-4.23,10.59-2.42,1.68-5.23,1.68-6.58,1.68l-.32-1.26v1.26c-5.13,0-6.37-4.67-7.28-8.07-.71-2.66-1.22-4.28-2.39-4.28-2.2,0-3.96,1.03-5.24,3.06-1.2,1.91-1.87,4.54-1.87,7.41,0,5.48,2.44,11.03,7.11,11.03,2.65,0,3.94-.87,5.43-1.88,1.56-1.05,3.32-2.24,6.55-2.24,7.28,0,8.81,13.52,8.81,24.86h14.33c-.96,10.41,11.04,17.36,21.78,10.64-1.89,23.15,30.53,21.25,26.53,2.53,22.11,12,34.55-14.33,21.68-27.6,10.48-1.06,11.22-18.09-.55-20.11,8.37-3.09,12.03-11.95,10.15-19.41Z"/>
          <path class="cls-99" d="M1018.47,861.82c2.41,2.42,2.4,5.35,2.39,7.71v.42c0,2.65-1.91,4.59-3.76,6.47-2.09,2.13-4.25,4.33-4.25,7.75,0,5.44,6.13,6.03,8.76,6.03h0c3.32,0,6.93-.88,9.66-2.36,1.61-.87,4.31-2.73,4.31-5.36,0-3.34-1.72-4.7-3.71-6.28-1.81-1.44-3.87-3.06-3.87-6.26,0-6.25,8.95-14.63,18.11-14.63h19.09c-2.31-4.63-7.14-7.39-13.55-7.66l-2.57-.11,1.66-1.97c3.09-3.67,3.74-8.19,1.79-12.38-2.31-4.95-7.78-7.91-11.96-6.25l-2.84,1.12,1.22-2.8c1.69-3.9,1.2-8.99-1.22-12.68-3.21-4.9-8.86-5.81-14.87-2.16l-1.98,1.2.06-2.31c.21-8.1-1.79-14.38-5.96-18.65-3.53-3.62-8.57-5.61-14.21-5.61-7.49,0-14.65,3.62-17.03,8.61l-1.02,2.14-1.21-2.04c-1.92-3.26-4.75-5.81-8.06-7.35v18.15c0,10.36.57,11.67,5.05,11.67,1.82,0,2.81-1.83,4.28-4.82,1.77-3.61,3.98-8.11,9.62-8.11,3.15,0,5.66,1.46,7.25,4.22,1.29,2.24,1.97,5.35,1.97,9,0,8-3.59,19.63-9.23,19.63-5.09,0-6.11-4.05-6.78-6.72-.55-2.22-.85-2.91-1.58-2.91-7.03,0-10.59,7.49-10.59,22.26v8.69h26.91c9.4,0,15.14,1.37,18.08,4.32Z"/>
        </g>
        <path class="cls-110" d="M1009.54,925.13l-1.01-2.13c-10.45,5.67-21.66-1.13-20.74-11.21h-6.57l27.46,58.1h22.02l-15.8-33.43c-3.01-2.32-5.15-6.05-5.35-11.32Z"/>
        <path class="cls-51" d="M997.49,808.8c-1.15-1.99-2.8-2.96-5.06-2.96-4.06,0-5.66,3.26-7.35,6.7-1.5,3.07-3.06,6.24-6.55,6.24-7.58,0-7.58-5.35-7.58-14.2v-19.1c-1.6-.47-3.24-.71-4.88-.71-5.38,0-11.75,2.74-13.52,10.42l-.54,2.35-1.62-1.79c-2.99-3.29-8.14-5.18-14.13-5.18-7.4,0-14.65,2.86-18.47,7.28-2.45,2.83-3.42,6.12-2.89,9.76l.51,3.51-2.62-2.39c-1.93-1.77-4.33-2.7-6.93-2.7-3.75,0-7.58,1.93-10.01,5.04-2.2,2.82-2.95,6.21-2.11,9.56l.51,2.04-2.04-.51c-5.51-1.37-11.61,1.31-14.51,6.23-2.1,3.56-2.18,7.63-.22,11.16.65,1.21,1.54,2.35,2.65,3.42l1.89,1.81-2.6.35c-8.22,1.11-13.36,5.59-14.32,12.37h35.43c10.25,0,15.62-4.37,15.62-8.69,0-1.7-1.5-2.64-3.96-4.03-2.74-1.55-6.15-3.48-6.15-7.82,0-5.69,10.19-10.11,18.96-10.11,7.81,0,12.48,3.43,12.48,9.17,0,3.24-2.77,5.77-5.21,8.01-1.94,1.77-3.94,3.61-3.94,5.26,0,5.14,5.84,8.21,15.61,8.21h27.01v-8.69c0-16.45,4.41-24.79,13.12-24.79,2.83,0,3.5,2.67,4.04,4.82.75,2.98,1.36,4.81,4.33,4.81s6.7-8.45,6.7-17.1c0-3.21-.56-5.88-1.64-7.74Z"/>
        <path class="cls-78" d="M1065.21,855.32c-2.31-4.63-7.14-7.39-13.55-7.66l-2.57-.11,1.66-1.97c3.09-3.67,3.74-8.19,1.79-12.38-2.31-4.95-7.78-7.91-11.96-6.25l-2.84,1.12,1.22-2.8c1.69-3.9,1.2-8.99-1.22-12.68-3.21-4.9-8.86-5.81-14.87-2.16l-1.98,1.2.06-2.31c.21-8.1-1.79-14.38-5.96-18.65-3.53-3.62-8.57-5.61-14.21-5.61-7.49,0-14.65,3.62-17.03,8.61l-1.02,2.14-1.21-2.04c-1.92-3.26-4.75-5.81-8.06-7.35v18.15c0,10.36.57,11.67,5.05,11.67,1.82,0,2.81-1.83,4.28-4.82,1.77-3.61,3.98-8.11,9.62-8.11,3.15,0,5.66,1.46,7.25,4.22,1.29,2.24,1.97,5.35,1.97,9,0,8-3.59,19.63-9.23,19.63-5.09,0-6.11-4.05-6.78-6.72-.55-2.22-.85-2.91-1.58-2.91-7.03,0-10.59,7.49-10.59,22.26v8.69h26.91c9.4,0,15.14,1.37,18.08,4.32,2.41,2.42,2.4,5.35,2.39,7.71v.42c0,2.65-1.91,4.59-3.76,6.47-2.09,2.13-4.25,4.33-4.25,7.75,0,5.44,6.13,6.03,8.76,6.03h0c3.32,0,6.93-.88,9.66-2.36,1.61-.87,4.31-2.73,4.31-5.36,0-3.34-1.72-4.7-3.71-6.28-1.81-1.44-3.87-3.06-3.87-6.26,0-6.25,8.95-14.63,18.11-14.63h19.09Z"/>
        <path class="cls-41" d="M964.66,889.47c-2.46,0-3.7.84-5.14,1.81-1.61,1.08-3.42,2.31-6.85,2.31-6.32,0-9.63-6.82-9.63-13.55,0-3.34.8-6.45,2.25-8.75,1.75-2.77,4.3-4.24,7.38-4.24s4.06,3.27,4.83,6.15c1.03,3.86,1.86,6.2,4.84,6.2h.32c1.18,0,3.37,0,5.15-1.23,2.08-1.44,3.14-4.31,3.14-8.52v-9.63h-27.01c-16.83,0-18.14-8.22-18.14-10.74,0-2.77,2.42-4.98,4.76-7.13,2.16-1.97,4.38-4.01,4.38-6.14,0-6-6.96-6.65-9.95-6.65-7.99,0-16.43,3.9-16.43,7.58,0,2.67,1.84,3.91,4.86,5.62,2.46,1.39,5.25,2.97,5.25,6.23,0,5.4-5.68,11.22-18.15,11.22h-35.59c.02,4.7,1.94,9.59,5.15,13,1.81,1.93,4.84,4.24,8.96,4.24,1.91,0,3.86-.52,5.79-1.53l4.27-2.24-2.62,4.05c-2.07,3.2-2.31,6.46-.69,9.42,2.2,4.05,7.53,6.88,12.95,6.88,2.84,0,8.09-.83,11.43-6.39l3.12-5.2-.79,6.02s-.6,4.92,2.53,8.49c2.32,2.64,6.11,3.98,11.28,3.98h27.17l-.45,1.61s-.8,2.94.91,5.2c1.5,1.99,4.51,3,8.92,3h8.1c-.14-13.03-2.52-21.07-6.28-21.07Z"/>
      </g>
      <g class="cls-19">
        <path class="cls-64" d="M316.27,282.82c0,6.56-14.23,44.73-13.47,48.91.45,2.5,3.88,8.98,6.11,10.93,2.7,2.36,3.21,4.49,1.63,5.45-.61.37-.27,1.03-.71,1.37-.36.28-1.15.22-1.58.49-.28.18.14.77-.32,1.17-.3.27-.73.37-1.12.54-.64.28-.53,1.72-1.8,1.93-1.08.18-2.4-1.09-3.14-1.9-.43-.46,1.03,3.65-1.31,4.77-3.03,1.45-5.33-2.91-4.87-7.23.69-6.47-3.96-11.56-2.64-15.3,3.06-8.72-1.85-36.47-1.85-47.78v-.26c0-11.31,6.11-17.81,2.22-30.42-3.81-12.34,1.25-54.15-3.4-55.93-4.65,1.78.41,43.58-3.4,55.93-3.89,12.61,2.23,19.1,2.23,30.42s-4.82,39.32-1.76,48.04c1.31,3.74-3.34,8.83-2.64,15.3.46,4.33-1.84,8.69-4.87,7.23-2.34-1.12-.89-5.24-1.31-4.77-.74.8-2.06,2.07-3.14,1.9-1.28-.21-1.16-1.64-1.8-1.93-.39-.17-.82-.28-1.12-.54-.46-.41-.04-.99-.32-1.17-.43-.27-1.22-.21-1.58-.49-.43-.34-.09-1-.71-1.37-1.58-.96-1.06-3.09,1.63-5.45,2.23-1.95,5.66-8.42,6.11-10.93.76-4.17-13.53-43.16-13.53-49.72,0-7.6,3.15-12.8,3.15-26.89s-5.94-24.48-6.85-32.09c-.91-7.6-3.72-35.24-3.72-48.78s6.86-37.65,6.86-45.81-3.14-32.46-3.14-32.46c0,0-1.31,9.46-1.68,36.54-.37,27.08-16.32,41.92-18.55,46.18-2.23,4.27,2.41,8.9.74,15.02-1.67,6.12-3.52,20.96-5.38,20.96s-4.27,5.01-7.98,4.82c-3.71-.19-1.85-2.41-4.45-3.89s3.34-24.3-1.11-18.73c-4.45,5.56-12.06,4.08-9.46,2.41,2.6-1.67,6.86-7.23,10.76-13.91,3.89-6.68,4.82-6.68,7.98-10.2,3.15-3.52.74-14.28,4.08-27.26,3.34-12.98,8.9-15.95,7.75-22.07-1.15-6.12.97-16.69.04-36.17-.93-19.47,14.4-23.91,20.77-26.52,9.78-4.01,16.7-6.37,18.47-10.93,1.1-2.82-.43-6.3-1.59-6.69-1.67-.56-9.27,3.89-11.5.37-2.23-3.52-1.48-13.17-1.48-13.17,0,0-4.08.74-3.89-1.48.19-2.23,5.19-7.98,5.01-12.8-.19-4.82,6.12-16.88,19.47-16.88s20.4,9.27,20.4,17.43-5.19,16.14-6.86,18.92c-.73,1.22-1.11,4-1.3,6.75-.31,4.5,1.61,8.87,5.08,11.76,3.32,2.77,7.6,5.86,11,6.71,6.67,1.67,21.69,7.05,20.77,26.52-.93,19.47,1.2,30.05.04,36.17-1.15,6.12,4.41,9.09,7.75,22.07,3.34,12.98.93,23.74,4.08,27.26,3.15,3.52,4.08,3.52,7.98,10.2,3.89,6.68,8.16,12.24,10.76,13.91,2.6,1.67-5.01,3.15-9.46-2.41-4.45-5.56,1.48,17.25-1.11,18.73-2.6,1.48-.74,3.71-4.45,3.89-3.71.19-6.12-4.82-7.98-4.82s-3.71-14.84-5.38-20.96c-1.67-6.12,2.97-10.76.74-15.02-2.23-4.27-18.18-19.1-18.55-46.18-.37-27.08-1.68-36.54-1.68-36.54,0,0-3.14,24.3-3.14,32.46s6.86,32.27,6.86,45.81-2.81,41.17-3.72,48.78c-.91,7.6-6.85,17.99-6.85,32.09s3.15,19.29,3.15,26.89l.04.82Z"/>
      </g>
      <g>
        <path class="cls-104" d="M313.49,281.25c0,6.56-14.23,44.73-13.47,48.91.45,2.5,3.88,8.98,6.11,10.93,2.7,2.36,3.21,4.49,1.63,5.45-.61.37-.27,1.03-.71,1.37-.36.28-1.15.22-1.58.49-.28.18.14.77-.32,1.17-.3.27-.73.37-1.12.54-.64.28-.53,1.72-1.8,1.93-1.08.18-2.4-1.09-3.14-1.9-.43-.46,1.03,3.65-1.31,4.77-3.03,1.45-5.33-2.91-4.87-7.23.69-6.47-3.96-11.56-2.64-15.3,3.06-8.72-1.85-36.47-1.85-47.78v-.26c0-11.31,6.11-17.81,2.22-30.42-3.81-12.34,1.25-54.15-3.4-55.93-4.65,1.78.41,43.58-3.4,55.93-3.89,12.61,2.23,19.1,2.23,30.42s-4.82,39.32-1.76,48.04c1.31,3.74-3.34,8.83-2.64,15.3.46,4.33-1.84,8.69-4.87,7.23-2.34-1.12-.89-5.24-1.31-4.77-.74.8-2.06,2.07-3.14,1.9-1.28-.21-1.16-1.64-1.8-1.93-.39-.17-.82-.28-1.12-.54-.46-.41-.04-.99-.32-1.17-.43-.27-1.22-.21-1.58-.49-.43-.34-.09-1-.71-1.37-1.58-.96-1.06-3.09,1.63-5.45,2.23-1.95,5.66-8.42,6.11-10.93.76-4.17-13.53-43.16-13.53-49.72,0-7.6,3.15-12.8,3.15-26.89s-5.94-24.48-6.85-32.09c-.91-7.6-3.72-35.24-3.72-48.78s6.86-37.65,6.86-45.81-3.14-32.46-3.14-32.46c0,0-1.31,9.46-1.68,36.54-.37,27.08-16.32,41.92-18.55,46.18-2.23,4.27,2.41,8.9.74,15.02-1.67,6.12-3.52,20.96-5.38,20.96s-4.27,5.01-7.98,4.82c-3.71-.19-1.85-2.41-4.45-3.89s3.34-24.3-1.11-18.73c-4.45,5.56-12.06,4.08-9.46,2.41,2.6-1.67,6.86-7.23,10.76-13.91,3.89-6.68,4.82-6.68,7.98-10.2,3.15-3.52.74-14.28,4.08-27.26,3.34-12.98,8.9-15.95,7.75-22.07s.97-16.69.04-36.17c-.93-19.47,14.4-23.91,20.77-26.52,9.78-4.01,16.7-6.37,18.47-10.93,1.1-2.82-.43-6.3-1.59-6.69-1.67-.56-9.27,3.89-11.5.37-2.23-3.52-1.48-13.17-1.48-13.17,0,0-4.08.74-3.89-1.48.19-2.23,5.19-7.98,5.01-12.8s6.12-16.88,19.47-16.88,20.4,9.27,20.4,17.43-5.19,16.14-6.86,18.92c-.73,1.22-1.11,4-1.3,6.75-.31,4.5,1.61,8.87,5.08,11.76,3.32,2.77,7.6,5.86,11,6.71,6.67,1.67,21.69,7.05,20.77,26.52-.93,19.47,1.2,30.05.04,36.17-1.15,6.12,4.41,9.09,7.75,22.07,3.34,12.98.93,23.74,4.08,27.26,3.15,3.52,4.08,3.52,7.98,10.2,3.89,6.68,8.16,12.24,10.76,13.91,2.6,1.67-5.01,3.15-9.46-2.41-4.45-5.56,1.48,17.25-1.11,18.73-2.6,1.48-.74,3.71-4.45,3.89-3.71.19-6.12-4.82-7.98-4.82s-3.71-14.84-5.38-20.96c-1.67-6.12,2.97-10.76.74-15.02-2.23-4.27-18.18-19.1-18.55-46.18-.37-27.08-1.68-36.54-1.68-36.54,0,0-3.14,24.3-3.14,32.46s6.86,32.27,6.86,45.81-2.81,41.17-3.72,48.78c-.91,7.6-6.85,17.99-6.85,32.09s3.15,19.29,3.15,26.89l.04.82Z"/>
        <path class="cls-103" d="M311.35,103.46l-.02-.17c-1.48-11.07-2.88-21.52-9.75-26.07-.91-.6-1.97-.92-3.07-.92-2.83,0-7.2,2.15-7.45,5.12l-.16,1.89c-.52-.75-.91-1.3-.91-2.21v-15.89s.01-.04.01-.06h0c0-.39-.32-.71-.71-.71h-4.27c-.39,0-.71.32-.71.71h0s0,.01,0,.02v15.94c0,1.14-.64,1.75-.82,2.02l-.14-1.7c-.25-2.97-4.62-5.12-7.45-5.12-1.1,0-2.16.32-3.07.92-7.29,4.83-8.51,16.78-9.77,26.24-.2,1.52.98,2.88,2.52,2.88h11.56s0,0,0,0h.39c4.16,0,7.44-3.56,7.1-7.7l-.5-7.87c.67-.52,1.32-1.09,1.95-1.75.28-.3.67-.46,1.08-.46,1.03,0,.94.62,3.12,2.3l-.5,7.79c-.16,1.98.52,3.95,1.86,5.4,1.34,1.46,3.25,2.3,5.24,2.3h1.2s0,0,0,0h10.74c.73,0,1.43-.32,1.91-.87.48-.55.7-1.28.61-2.01Z"/>
        <path class="cls-4" d="M299.23,117.33s-.9-.49-1.04-4.45c0-.84-.72-1.51-1.6-1.51s-1.6.68-1.6,1.51c0,2.3,1.88,6.05,1.88,6.05-1.67,2.16-1.81,6.47-2.3,9.74-.49,3.27-2.85,4.87-4.66,3.83-1.81-1.04-4.17-3.9-7.72,1.67-.51.8-1.25,2.05-1.27,2.08-.42.72-.09,1.69.72,2.16.8.46,1.78.27,2.21-.42l.06-.11s1.68-3.3,2.1-3.3c1.48.02.72,7.94,8.59,9.05,6.06.85,13.15-5.12,15.34-11.83,2.85-8.74-1.81-19.62-10.71-14.47Z"/>
        <path class="cls-123" d="M281.88,118.15c-6.04,0-3.47,5.64-3.47,5.64,0,0-1.22-.6-1.07-2.84.1-1.4.78-1.87.78-1.87-1.62.2-8.24-2.78-12.34.61-4.1,3.39-3.32,11.05,1.58,12.67,0,0-.36.67-2.57,0,0,0-.63,3.39,2.41,3.32,1.47-.04,2.23-1.01,3.12-2.06-.11.9-.13,1.53-.13,1.53,0,0,1.02.99,2.34.9-.01.68.11,4.43,4.25,6.91.12.07.25.11.38.11.25,0,.5-.13.64-.36.21-.35.1-.81-.26-1.02-.98-.59-1.68-1.25-2.2-1.92.92-.22,2.51-.79,3.55-2.22.97-1.34,1.23-3.08.76-5.18,0-.04-.03-.07-.05-.11.39-.28.65-.79.57-1.73-.11-1.21-1.5-1.68-2.72-.66,1.52-1.17,1.58-2.76,1.58-2.76,0,0,1.3,2.01,3.91.55,2.6-1.46,5.68-5.88,6.83-6.51,1.14-.63-1.85-3-7.89-3ZM277.71,132.53c.15.01.32.03.49.03,0,.04,0,.09,0,.13.37,1.66.2,3-.5,3.97-1.04,1.44-2.93,1.72-3.17,1.75-.56-1.27-.53-2.3-.52-2.38.01-.17-.05-.33-.14-.46.17-.12.35-.25.53-.42,2.1-2.05,1.39-2.78,3.32-2.62Z"/>
        <path class="cls-76" d="M304.82,158.86s1.8-3.42-.63-6.99c-2.27-2.63-6.53-.13-6.53-.13,0,0-3.8-4.02-7.22-.12,0,0-2.12-2.24-6.27.02-1.31-1.58-4.21-2.22-6.31-.22-5.78-2.34-6.92,3.88-6.92,3.88-4.75,2.2-1.58,7.33-1.58,7.33-3.64,4.52,1.32,7.63,1.32,7.63-1.81,1.47-.39,7.4,4.19,6.31.92-.22-1.09,3.9.55,5.02.64.43,1.42.49,1.99-.03,1.17-1.09-.35-4.62.44-5.54,1.5-1.73,1-7.35-3.1-8.33,0,0,2.24-2.78-.35-6.9,0,0,2.41-.99,1.85-3.96,0,0,2.61,2.32,5.98.89,0,0,3.51,2.2,7-.49,0,0,5.3,2.5,8.5-.43,0,0-.87,4.26,2.38,5.77,0,0-1.75,2.43-.62,6.05-2.77,1.22-3.25,3.38-2.57,6.13-3.42.78-3.57,2.7-3.94,3.73-4.68-3.24-7.25-.72-7.8.22-2.52,4.27,1.35,12.4,1.35,12.4h1.53c2.6-2.91,1.98-7.11,1.98-7.11,0,0,5.3,3.46,7.51-2.38,0,0,6.46-.19,5.52-7.03,0,0,4.4-2.83,2.75-7.97,0,0,2.24-4.1-1-7.77h0Z"/>
        <g class="cls-19">
          <path class="cls-76" d="M292.18,178.78c.37.24.59.47.98.35,1.05-.34-.1-2.81,3.88-3.72.36-.08.59-.45.5-.81-.63-2.52-.23-4.31,2.19-5.36.31-.14.47-.48.37-.81-.4-1.29-.48-2.63-.12-3.95.39-1.43.89-1.55.75-2.07-.13-.48-.51-.39-1.16-.94-.66-.56-1.07-1.37-1.23-2.4-.18-1.13.02-2.11.02-2.12.08-.4-.22-.78-.62-.8-.48-.02-.47.32-1.39.82-1.91,1.01-4.49.61-6.47-.16-.43-.17-.72-.36-1.08-.09-1.27.98-2.54,1.24-3.6,1.2,0,0-1.48-.03-2.64-.75-.6-.38-.99.45-2.84.36-1.18-.06-2.37-.59-3.06-1.19-.48-.42-1.2.02-1.09.62.14.76.09,1.53-.31,2.19-.45.74-1.13,1.01-1.14,1.03-.38.16-.53.62-.31.97,1,1.59,1.21,2.95,1.13,3.98,0,0-.1,1.34-.74,2.16-.31.38-.11.95.36,1.06l3.45,2.16c.02-.1.33-1.08.36-1.18.41-.29.98.35,1.12.56.27.42.52.83.66,1.26.84,2.68,2.83,4.01,5.78,3.85.37-.02.65-.33.63-.7-.02-.37-.33-.65-.7-.63-1.45.08-2.57-.26-3.36-1.04-1.5-1.49-1.35-3.67-.45-4.34.58-.44,1.42-.62,2.34-.52,1.2.13,1.66.44,5.54,2.4.33.17.73.03.89-.29.17-.33.03-.73-.29-.89-3.65-1.84-3.94-2.02-4.71-2.27-.82-1.19-.99-2.48-.72-3.12.18-.44.58-.69,1.23-.78,1.56-.21,3.76-.76,5.38-2.18.69-.6,1.13-1.24,1.35-1.76.38.02.77.03,1.16,0,.28,1.59-.85,2.93-3.58,4.3-1.18.59-1.09,2.33.18,2.76,1.78.6,2.99,2,3.29,2.99.33,1.07-.21,2.21-.82,2.92-.64.73-1.49,1.27-2.37,1.74-.82-1.13-2.29-2.18-4.41-3.13-.33-.15-.73,0-.88.33-.15.33,0,.73.33.88,1.56.71,4.11,2.12,4.37,3.81.07.44-.32,1.38-.42,1.56M292.58,177.47c-.39-.23-.77-.43-1.15-.6.3-.67.3-1.4.08-2.09.99-.53,1.98-1.15,2.76-2.05,1.08-1.24,1.5-2.84,1.09-4.18-.43-1.39-1.93-3.11-4.13-3.85-.14-.05-.15-.25-.01-.32,1.25-.62,4.86-2.43,4.3-5.69.48-.12.96-.29,1.41-.53.01,1.42.39,2.84,1.35,3.9-.5.72-1.48,1.2-2.28,1.48-1.12.4-1.46,1.82-.64,2.69.69.73,1.5,1.94,1.48,3.56-.96,1.3-1.03,2.91-.73,4.49-2.46.74-3.17,2.14-3.53,3.18h0ZM284.13,166.43c-1.11-.04-2.12.24-2.88.81-.44.33-.79.86-1.01,1.47-.84-.91-1.94-1.07-2.89-.28-.48-.47-1.03-.84-1.64-1.1.14-.29.28-.65.39-1.07,3.19,1.38,5.6.16,5.73-3.97.06-2.12,2.83-2.93,3.32-3.05,1.48.05,2.88-.36,4.14-1.24.46.19,1.32.49,2.36.7-1.06,1.71-3.51,2.53-5.51,2.81-2.51.34-3.02,2.61-2,4.92h0ZM298.97,163.3c-.64,1.59-.7,3.34-.3,4.98-.21.11-.41.23-.6.36-.27-1.47-1.05-2.58-1.75-3.31-.16-.17-.1-.45.12-.53,1.08-.39,1.93-.89,2.52-1.49h0ZM282.83,158.76c-1.33.76-2.29,1.95-2.33,3.49-.05,1.6-.44,2.61-1.17,3.01-.9.49-2.28,0-3.03-.38.04-1.34-.36-2.64-1.01-3.84.65-.47,1.22-1.18,1.49-2.03.46.99.82,2.29.49,3.55-.11.42.21.84.64.84.29,0,.56-.2.64-.49.42-1.59.02-3.15-.51-4.34,1.33.43,2.74.42,4.12-.09.17.08.39.19.67.29h0Z"/>
        </g>
      </g>
      <path class="cls-22" d="M1009.35,292.38s12.9,9.46,33.26,11.69c6.77.74,12.98-3.92,14.29-10.61,5.98-30.46,7.43-47.01,7.43-47.01,0,0,5.64-3.08,11.73-8.76.92-.86,1.12-2.25.46-3.32-12.69-20.79-21.2-35.65-19.44-56.8,1.81-21.75-42.9-73.71-100.9-64.04-58,9.67-73.71,67.67-56.19,114.8,17.52,47.13,23.56,80.96,24.17,104.53h77.94s-3.63-32.63,7.25-40.48Z"/>
      <g>
        <path class="cls-29" d="M1003.59,292.63s12.9,9.46,33.26,11.69c6.77.74,12.98-3.92,14.29-10.61,5.98-30.46,7.43-47.01,7.43-47.01,0,0,5.64-3.08,11.73-8.76.92-.86,1.12-2.25.46-3.32-12.69-20.79-21.2-35.65-19.44-56.8,1.81-21.75-42.9-73.71-100.9-64.04-58,9.67-73.71,67.67-56.19,114.8,17.52,47.13,23.56,80.96,24.17,104.53h77.94s-3.63-32.63,7.25-40.48Z"/>
        <path class="cls-67" d="M1003.59,292.63s-29.84-18.1-39.22-33.26c-8.43-13.62,9.16,35.07,31.49,57.15.39-9.32,2.15-19.86,7.73-23.89Z"/>
        <path class="cls-58" d="M905.56,167.97c0-10.74,8.7-19.44,19.44-19.44,2.8,0,5.46.6,7.87,1.67-.05-.55-.08-1.11-.08-1.67,0-10.74,8.7-19.44,19.44-19.44,9,0,16.55,6.12,18.76,14.42,3.11-5.51,9.01-9.23,15.79-9.23,10.02,0,18.14,8.12,18.14,18.14,0,1.54-.21,3.03-.58,4.47,2.45-1.46,5.3-2.31,8.36-2.31,9.07,0,16.42,7.35,16.42,16.42,0,8.46-6.41,15.43-14.63,16.32-.14,5.76-4.84,10.38-10.64,10.38-3.93,0-7.35-2.14-9.2-5.3-2.61,4.19-7.24,6.99-12.54,6.99-3.75,0-7.16-1.41-9.76-3.71-1.9,5.96-7.48,10.27-14.07,10.27-3.06,0-5.89-.95-8.25-2.55-.09,6.74.69,15.53,4.93,19.21-7.03-2.53-10.59-8.27-12.38-13.15-2.83,2.11-6.34,3.36-10.14,3.36-9.43,0-17.07-7.64-17.07-17.07,0-3.53,1.07-6.81,2.91-9.53-7.42-2.74-12.71-9.87-12.71-18.24Z"/>
      </g>
      <g>
        <path class="cls-120" d="M518.47,500.79c.03-.7.09-1.4.1-2.1.08-5.97,1.12-7.29,7-8.55,2.47-.53,5-.45,7.5-.18,1.98.22,3.15,1.46,3.99,3.24,3.38,7.17,6.84,14.3,10.29,21.43.34.71.73,1.79,1.27,1.92,1.08.24,1.24-1.08,1.7-1.77,4.97-7.42,9.97-14.82,14.82-22.32,1.35-2.09,3.07-3.13,5.45-3.1,3.51.04,6.69,1.11,9.52,3.23,2.37,1.77,2.89,4.21,2.62,6.96,1.38,1.72.23,3.51-.05,5.16-2.09,12.63-3.98,25.28-5.27,38.02-.32,3.17-.39,6.39-1.09,9.54-.43,1.9-1.41,3.01-3.24,3.52-3.58,1-7.42-.04-9.17-2.53-.97-1.66-.62-3.49-.64-5.26-.05-5.48-.05-10.95-.08-16.43-1.19-1.07-1.3-2.39-1.1-3.26-.86,3.01-3.28,5.92-4.7,9.31-.08.18-.23.32-.37.47-2.19,2.3-9.43,2.39-11.89.16-1.99-2.84-3.99-5.68-5.98-8.52-1.52-.95-2.78-2.18-4.01-3.93-.47,7.22-.18,14.12-.24,21.02-.02,2.55.14,5.28-2.83,6.33-3.17,1.12-6.42,1.44-9.26-1.03-1.69-1.99-1.56-4.48-1.8-6.85-.63-6.18-1.21-12.36-1.81-18.55-.04-2.02-.09-4.04-.13-6.06-.55-2.21.22-4.5-.44-6.7-.05-4.39-.09-8.78-.14-13.17Z"/>
        <path class="cls-35" d="M681.09,505.45c3.18-1.08,6.4-1.48,9.72-.64,2.6.66,4.31,2.4,5.77,4.49,2.49,2.52,2.39,5.83,2.61,8.97.51,7.13-.82,14.13-1.74,21.17-.49,3.74-1.2,7.49-.91,11.29.11,1.48.3,3.13,2.57,2.58,2.68-1.63,3.55-4.54,4.77-7.11,1.5-3.15,2.61-6.49,3.89-9.75,2.5-.13,5.23-1,6.76,2.06-1.95,7.7-4.35,15.15-10.56,20.7-3.03,2.71-6.67,2.27-10.26,2.26-1.8-.45-3.66-.64-5.4-1.36-6.03-3.99-6.83-13.4-4.7-19.48.36-4.57,1.78-8.93,2.7-13.39.53-2.58.98-5.17,1.47-7.76.14-.16.23-.33.25-.53.23-2.47.04-5.47-2-6.46-1.95-.95-3.87,1.51-5.43,3.01-2.87,2.77-4.7,6.16-5.94,9.97-1.17,3.59-3.35,6.17-7.63,5.91-1.42-.2-2.17-1.2-2.8-2.34-2.56-4.4-1.38-9.12-1.03-13.71.28-3.67.63-7.28-.33-10.88-2.78-1.47-4.08.56-5.31,2.39-3.1,4.61-5.25,9.7-7.1,14.91-2.58,7.29-4.71,14.7-5.7,22.41-.26,2.01-.45,4.03,0,5.98.41,1.77.13,3.19-1.27,4.32-1.54,1.25-3.14,1.06-4.72.03-1.66-1.16-3.17-2.43-3.67-4.53.09-7.29-.75-14.51-1.71-21.72-.15-1.1-.49-2.14-.6-3.24-.07-2.31-.99-4.78,1.17-6.7,1.07-3.21,1.92-6.52,3.93-9.33,2.74-3.84,5.15-4.45,9.34-2.13,1.17.65,1.15-.26,1.48-.72,1.27-1.8,2.32-3.79,3.77-5.44,6.46-7.34,15.21-6.48,20.25,1.87,1.21,2,1.86,4.21,2.61,6.6,1.95-1.26,3.85-2.49,5.75-3.72Z"/>
        <path class="cls-120" d="M490.08,534.7c3.29,1.93,6.07,1.19,8.34-2.32,2.82-4.37,3.55-9.34,3.77-14.38.19-4.51.12-9.03.13-13.55.02-6.04,3.81-8.6,9.57-6.45.37.14.75.27,1.13.41.58,1,1.15,2,1.73,2.99,1.65,2.72,1.21,5.84,1.29,8.74.21,7.3.2,14.65-1.45,21.81-1.82,7.89-5.32,14.72-13.26,18.2-6.51,2.85-12.86,2.39-19-1.13-9.65-5.4-12.98-14.37-13.91-24.68-.11-6.11.22-12.19,1.15-18.25.59-3.85,1.84-7.08,5.96-8.12,4.12-1.05,7.75-.18,10.37,3.47,2.58,2.9,1.82,6.31,1.56,9.68-.49,6.43-1.93,12.88.52,19.28.58,1.52,1.62,2.76,2.11,4.29Z"/>
        <path class="cls-120" d="M446.54,514.17c3.67,1.97,7.7,3.12,11.3,5.28,3.72,2.24,6.41,5.22,8.13,9.15,2.99,5.35,1.56,10.51-1.04,15.38-6.27,11.76-22.66,12.42-30.33,5.04-1.62-1.73-3.31-3.41-4.84-5.22-2.14-2.52-2.16-5.48-.22-8.01,1.24-1.61,5.11-2.54,7.28-1.66,1.75.72,2.06,2.64,3.05,3.99,2.62,3.61,6.56,4.63,10.28,2.58,1.88-1.04,2.65-2.58,2.61-4.69-.04-2.06-.68-3.57-2.68-4.61-3.51-1.83-7.4-2.47-11.02-3.92-6.73-2.7-11.55-7.1-12.96-14.5-.86-4.51.63-8.56,3.29-12.02,7.75-10.08,22.63-8.62,30.46-2.81.94.7,1.62,1.76,2.42,2.65,1.78,2.79,1.8,6.1-.03,8.6-2.36,3.24-5.45,4.92-9.55,4.12-2.23-.43-4.31-1.52-6.67-1.6-.3.92.64,1.45.55,2.24Z"/>
        <path class="cls-129" d="M690.13,462.13c.93,2.7.52,5.56,1,8.32.08.44-.09,1.28-.36,1.38-2.95,1.16-2.16,3.83-2.46,6.01-.59,4.2-1.06,8.42-1.59,12.68-1.15-.35-.73-1.47-1.32-1.98-.15-4.61-.29-9.21-.46-13.82-.02-.65.24-1.6-.73-1.71-.91-.1-.97.87-1.17,1.49-1.24,3.92-2,7.95-2.81,11.98-.3,1.51-.92,2.96-1.7,4.39-.78-2.03-.41-4.04-.24-6.04.25-2.89.63-5.78.85-8.67.1-1.32.13-2.45-1.33-3.58-1.73-1.34-1.09-3.63-.41-5.57,2.49-2.54,5.35-4.49,8.83-5.41,1.37-.37,2.76-.78,3.91.53Z"/>
        <path class="cls-50" d="M648.48,480.31c-.33-.78-.66-1.56-1.04-2.48-2.52,4.5-2.36,9.46-3.15,14.2-.13.78-.08,1.6-.67,2.23-1.3.62-2.59,1.96-4,.34-1.21-1.4-.68-2.79.35-4.07.43-3.61.85-7.23,1.28-10.84.42-1.79-.56-3.72.53-5.45-.01-1.06.3-2.19-.55-3.1-.2-.32-.16-.6.13-.84,4.64.51,8.98-1.27,13.48-1.83.11.12.22.23.33.35-2.12,2.11-.93,4.82-1.32,7.25-1.47,1.82-2.11,4.66-5.35,4.26Z"/>
        <path class="cls-50" d="M641.17,470.76c.01.12.03.25.04.37-2.46-2.26-.01-4.85-.49-7.24.74-1.07,1.41-2.15,2.56-2.9,3.22-2.1,5.93-4.72,8.22-7.82,1.12-1.51,2.43-2.99,4.65-2.78,1.73.47,1.17,1.65.85,2.76-3.17,2.38-2.99,5.51-2.29,8.95.44,2.18,1.72,4.39.43,6.71,0,0-.05-.03-.05-.03-2.13-.86-3.5,1.24-5.5,1.38-2.8.19-5.66-.02-8.43.61Z"/>
        <path class="cls-23" d="M638.77,554.49c4.7-.14,5.16-.72,4.89-5.58-.22-3.94.36-7.82,1.2-11.66,2.15-9.83,5.25-19.35,9.9-28.31,1.02-1.96,2.09-3.93,3.79-5.39,1.73-1.49,3.4-1.89,4.32.89-5.33,1.88-6.72,7.01-8.68,11.31-4.31,9.41-7.22,19.33-8.57,29.64-.24,1.8-.36,3.61.11,5.38.62,2.32-.3,3.94-2.27,5-1.91,1.03-3.47.4-4.69-1.29Z"/>
        <path class="cls-108" d="M687.65,436.2c1.46.61,2.17,1.5,1.29,3.1-2.11,3.84-1.64,5.08,2.43,6.59,1.09,1.54-.29,2.09-1.14,2.85-.18.24-.35.47-.53.71-1.23,2.16-2.37,4.41-4.67,5.67-1.39.77-2.79,1.76-4.38.37.08-.39.15-.78.24-1.17q.95-4.11-3.23-4.28c-4.79-.2-8.88-4-9.26-8.6,2,2.48,3.88,5.06,7.27,5.86,1.58.37,2.61.64,2.47-1.72-.18-2.89,1.08-5.42,2.96-7.61,1.91,2.04.21,3.66-.68,5.42,1.25-1.64,2.49-.23,3.72-.09-.73-2.33.9-5.62,3.52-7.12Z"/>
        <path class="cls-93" d="M482.32,549.02c8.44,3.11,16.52,3.19,23.67-3.12,5.16-4.55,7.29-10.7,8.29-17.25,1.38-9.05,1.41-18.15.47-27.26,1.51,1.15,1.93,2.89,1.93,4.56,0,8.72.72,17.48-1.17,26.11-1.89,8.65-5.96,15.71-14.49,19.47-5.8,2.56-14.88,1.37-18.7-2.52Z"/>
        <path class="cls-91" d="M680.65,455.5c2.7-.23,4.53-1.93,6.32-3.72.84-.84,1.82-1.55,2.73-2.32-.57,4.25.34,8.44.43,12.67-3.98.3-7.4,1.92-10.53,4.35-.53.41-1.1,2.03-2.22.54.07-4.12,1.88-7.76,3.26-11.51Z"/>
        <path class="cls-52" d="M656.36,450.78c-2.08-.26-2.64,1.56-3.53,2.75-3.26,4.38-7.07,8.07-12.11,10.35-.01-.6-.04-1.2-.03-1.8q.06-4.69-4.87-4.87c-.6-1.3-.66-2.52.57-3.52,2.97-.87,6.19-1.16,8.44-3.68.27.09.5.25.69.46.65.86.58,2.02,1.17,3.12,1.5-.82,1.84-2.34,2.69-3.42.12-.06.25-.13.37-.19,2.2,1.56,4.39-.17,6.59-.03.32-.05.62.07.62.37,0,.29-.29.45-.6.47Z"/>
        <path class="cls-72" d="M434.6,549.02c4.09,2.18,8.19,4.04,13.07,3.92,12.51-.32,21.1-11.13,18.38-23.44-.06-.29-.06-.6-.08-.9,1.59-.29,1.47,1.11,1.73,1.92,3.43,10.86-6.14,23.83-17.57,24.06-4.92.1-9.62-.22-13.74-3.33-.82-.62-1.72-1.05-1.79-2.22Z"/>
        <path class="cls-52" d="M648.48,480.31c1.99-1.17,2.91-3.66,5.35-4.26.46,5.17.91,10.35.67,15.55-.05,1.07-.52,2.11-.93,3.7-4.56-4.33-4.17-9.89-5.09-14.99Z"/>
        <path class="cls-86" d="M664.23,529.04c.94.59,1.8,1.34,2.98,1.44,3.29.89,5.26-.06,6.83-3.55,1.44-3.18,2.29-6.62,4.69-9.36,1.54-1.75,3.12-3.4,5.12-4.62,1.05-.64,2.23-1.26,3.38-.5,1.33.88.97,2.2.43,3.44-4.93.46-6.77,4.43-8.89,7.97-1.22,2.05-1.94,4.4-3.16,6.45-1.47,2.48-3.94,3.42-6.7,2.98-2.35-.37-4.45-1.38-4.69-4.25Z"/>
        <path class="cls-38" d="M687.67,515.89c-.04-.96.49-2.15-.68-2.7-.92-.44-1.71.33-2.46.81-4.31,2.78-7.13,6.7-8.76,11.51-.55,1.63-1.13,3.28-2.45,4.44-1.86,1.62-3.87,2.63-6.1.53,4.05.17,5.65-2.55,6.61-5.81,1.36-4.58,3.77-8.43,7.48-11.42,1-.81,2.16-1.53,3.36-1.97,2.01-.74,3.45,0,3.54,2.25.08,1.98.41,4.02-.43,5.95-.03-1.2-.07-2.4-.1-3.6Z"/>
        <path class="cls-121" d="M589.28,554.59c6.55-.62,9.01-2.48,10.42-8.81.66-2.96,1.81-4.01,4.91-4.14,4.51-.19,9.03-.32,13.54-.41,1.03-.02,2.32-.48,2.59,1.2-4.77.52-9.55.76-14.35.64-2.89-.07-4.35,1.59-4.98,4.23-1.01,4.21-3.36,7.24-7.76,8.21-1.53.34-3.21.71-4.38-.94Z"/>
        <path class="cls-105" d="M446.54,514.17c-1.62-.65-4.21-1.31-3.51-3.17.61-1.59,3.2-.71,4.87-.14,2.25.78,4.38,1.98,6.88,1.72,5.86-.62,8.72-5.15,7.46-11.78,2.16,1.74,2.76,6.16,1.22,8.89-2.45,4.34-7.51,6.22-12.36,4.43-1.6-.59-3.05-.86-4.56.05Z"/>
        <path class="cls-25" d="M644.9,450.81c-.03-.27-.05-.54-.08-.8.34-1.73-.66-3.07-1.3-4.52-1.63-3.7-.88-5.03,3.18-5.6.99.68,2.02,1.34.83,2.69-.32.24-.65.45-.93.74.3-.37.75-.55,1.12-.83.76-.6,1.34-1.69,2.58-.89-.1,2.02.23,4.07-1.04,5.94-.51.75-.08,1.7.48,2.45-.07.08-.14.17-.21.25-.39,1.2-.82,2.67-2.05,2.95-1.57.36-1.7-1.57-2.59-2.37Z"/>
        <path class="cls-122" d="M633.96,518.3c-.21,2.19-.41,4.38-.62,6.57-.4.82.44,1.94-.65,2.59-1.04-5.37-1.93-10.78-3.15-16.11-1.54-6.74-3.8-13.22-7.74-19,2.69.88,3.4,3.49,4.61,5.55,3.14,5.31,4.17,11.37,5.72,17.24.32,1.2.26,2.66,1.82,3.17Z"/>
        <path class="cls-24" d="M632.7,527.46c.22-.86.43-1.72.65-2.59,1.17,3.12,1.36,6.45,1.57,9.68.32,5.12,1.87,10.26.19,15.41-.36-.57-.72-1.13-1.08-1.7.69-5.5-.58-10.9-.91-16.34-.09-1.49-.27-2.97-.41-4.45Z"/>
        <path class="cls-130" d="M636.39,453.69c0,1.21.05,2.42-.57,3.53-3.84-1.15-7.53-2.52-9.73-6.4,3.28,1.59,6.54,3.21,10.3,2.88Z"/>
        <path class="cls-96" d="M656.36,450.78c.29-.29.28-.57-.03-.84,2.84-.99,4.97-3.1,7.8-5.17-1.24,4.31-4.32,6.22-7.12,8.37-.22-.78-.44-1.57-.65-2.36Z"/>
        <path class="cls-45" d="M647.24,442.18c.8-1-1.92-1.17-.54-2.3.39-.25.78-.51,1.17-.76,2.34-.72,2.59.73,2.55,2.47,0,0-.12,0-.12-.01-.8.42-1.61.83-2.41,1.25-.66.22-.78-.09-.66-.65Z"/>
        <path class="cls-83" d="M518.61,513.96c.79,2.19.45,4.46.44,6.7-.96-2.18-.33-4.47-.44-6.7Z"/>
        <path class="cls-48" d="M818.71,524.95c-1.02-4.05-.31-8.17-.49-12.26-.39-9.12-.59-18.24-.84-27.37-.14-5.2,1.1-6.54,6.32-6.91,1-.07,2.01-.07,3.01-.1,4.96,1.29,5.32,1.86,5.09,6.76-.6,12.59-1.34,25.17-2.63,37.72-.37,3.55-.85,4.1-4.47,4.02-2.15-.05-4.43.15-5.98-1.87Z"/>
        <path class="cls-39" d="M818.73,541.86c-1.17-5.3-.16-7.4,4.35-9.09,3.65,1.35,5.27,3.58,4.79,6.84-.32,2.16-1.29,4.02-3.57,4.7-2.5.75-4.16-.62-5.57-2.45Z"/>
        <path class="cls-35" d="M775.42,504.2c-2.64-3.92-5.13-7.88-5.42-12.82-.67-11.44,6.21-19.16,18.64-20.82,5.46.16,10.5,1.44,14.53,5.4,5.42,5.34,6.47,15.84,2.45,22.29-2.05,3.3-6.62,4.04-7.8-.07-.94-2.53.25-5.49,2.99-7.49,1.21-4.09.63-7.84-2.71-10.65-3.8-3.19-8.24-3.61-12.73-1.68-3.91,1.69-4.97,5.24-5.08,9.17-.18,6.52,3.33,11.24,7.8,15.33,3.78,3.45,7.86,6.56,11.81,9.81,4.65,3.83,8.32,8.39,10.46,14.08,4.46,10.55-2.83,21.42-12.79,25.05-6.14,2.24-12.31,2.3-18.59.98-1.8-.52-3.6-1.04-5.4-1.55-.43-.2-1.07-.5-1.83-.92-1.51-.82-2.65-1.6-3.03-1.88-2.31-1.69-4.36-5.18-5.4-8.76-.89-3.08-.88-5.95.58-8.8,1.23,1.45,2.12,3.26,4.13,3.88.1,1.58,1.4,2.18,2.44,3,.32.47.62.95,1,1.38,3.16,6.08,8.78,6.09,14.37,5.5,5.49-.58,9.72-3.45,11.39-8.91,1.04-3.42.6-6.92-1.46-10.1-2.89-4.45-6.74-7.91-10.89-11.1-3.76-2.89-6.99-6.28-9.45-10.35Z"/>
        <path class="cls-34" d="M778.98,552.8c4.21.23,8.44.54,12.6-.3,13.64-2.73,19.77-11.18,18.77-25.74,2.26,2.49,2.78,5.53,2.22,8.63-1.83,10-8.36,16.54-18.4,18.47-5.12.98-10.29,1.59-15.19-1.06Z"/>
        <path class="cls-92" d="M810.11,573.16c.83-1.32,1.47-2.49,3.47-1.92-.83,1.28-1.52,2.36-3.47,1.92Z"/>
        <path class="cls-35" d="M752.74,463.42c.49-.04.97-.07,1.46-.11,1-.03,1.99-.06,2.99-.09,1.17-.16,1.72.61,2.37,1.4,1.46,1.77,3.49,2.86,5.27,4.25.98.76,2.28,1.32,2.11,2.91-1.02,6.23-2.66,12.28-4.9,18.18-2.58-.87-3.8-2.83-3.81-6.13.31-.23.62-.46,1.04-.43.18,0,.35.16.53.02-.17-.13-.23-.29-.23-.5.02-.77-.34-.12-.39-.07-1.13,1.21-2.2.98-3.25-.12-.99-1.69-3.31-2.56-3.11-4.99.48-2.43.78-4.92,1.5-7.29.6-1.98.4-2.92-1.87-3.09-.74-.05-1.83-.34-1.97-1.51.03-.12.05-.25.08-.37.51-.92,1.54-1.29,2.18-2.07Z"/>
        <path class="cls-73" d="M766.94,471.78c-3.85-2.17-7.02-5.12-9.75-8.56.81-.38,1.63-.75,2.44-1.13.67.6,1.07,1.43,1.37,1.72-.34-.25-.67-1.15-1.42-1.68,3.46-4.05,1.7-8.45,1.02-13.03,1.11.5,2.02-.9,2.89-.81,2.57.28,4.13,2.22,4.98,4.5.65,1.76-.6,2.95-1.91,4.02-2.15,1.75-1.83,5.15.61,6.6,1.46.86,2.99,1.59,4.68,1.98.83.19,1.9.23,1.72,1.57-.04.12-.07.25-.1.37-.54.86-1.33,1.57-1.57,2.61-1.63.66-4.15-1.03-4.95,1.85Z"/>
        <path class="cls-73" d="M758.48,484c1.19,1.99,2.37,3.98,3.56,5.97.86,4.43-3.21,7.12-3.92,11-.1.57-.46,1.1-.7,1.64-.52.66-1.04,1.32-1.81,2.29-.27-4.16,1.95-7.77.41-11.49.99-.1,1.86.64,2.76.44-.93.14-1.81-.44-2.76-.67-.04-.5-.08-.99-.12-1.49-4.39,2.28-6.33,7.38-11.23,9.21.77-1.09,1.61-2.13,2.31-3.26,1.26-2.01,2.63-3.9,1.92-6.63-.37-1.43.93-2.78,1.54-4.13.62-1.37,1.22-2.74,1.84-4.11.13-.09.26-.18.39-.27,1.9.62,4.06.26,5.81,1.51Z"/>
        <path class="cls-53" d="M778.37,520.01c1.68.42,3.33.96,4.3,2.52,1.01,1.63,1.41,3.43.14,5.06-1.48,1.91-3.31,1.47-5.1.39-2.56-.5-3.96.28-5.35,2.94-.46.89-.43,2.35-2.1,1.97-1.18-2.41-4.18-1.95-5.81-3.64,2.48-6.34,7.22-9.27,13.93-9.25Z"/>
        <path class="cls-132" d="M728.22,550.36c3.52.99,6.83,2.55,10.67,2.52,15.52-.14,25.33-16.04,18.31-29.89-.27-.53-.52-1.08-.78-1.62,2.08.83,2.9,2.7,3.63,4.58,3.07,7.89,1.01,17.54-4.89,23.09-6.1,5.74-16.2,7.29-23.91,3.68-1.19-.56-2.35-1.15-3.04-2.36Z"/>
        <path class="cls-36" d="M764.44,529.26c2.46.33,5.74-.96,6.24,3.19.68.93.42,1.77-.22,2.58-.77.66-1.59,1.04-2.57.41-3.68.54-4.23-1.66-3.98-4.55,0-.6-.13-1.25.54-1.64Z"/>
        <path class="cls-118" d="M736.16,562.81q-.48-4.88,5.36-5.32c.97,1.46.67,3.11.32,4.58-.62,2.55-3.06,2.81-5.67.74Z"/>
        <path class="cls-119" d="M759.44,555.82c-1.06.03-4.9-2.87-4.5-3.41,1.09-1.5,2.4-2.89,3.85-4.05.64-.51,3.55,3,3.55,4.33-.01,1.89-1,2.95-2.89,3.12Z"/>
        <path class="cls-131" d="M754.77,512.25c.41-.43.81-.87,1.22-1.3.53-.45,1.02-.98,1.61-1.32,1.32-.77,2.7-.83,3.86.27,1.19,1.12,1.13,2.56.43,3.88-1.51,2.84-2.97,3.03-5.22.7-.67-.69-1.71-1.11-1.9-2.23Z"/>
        <path class="cls-73" d="M773.55,466.95c3.23,1.04,6.5.66,10.13.08-2.59,2.86-5.61,3.05-8.75,2.8-.88-.07-1.73-.54-2.62-.06-.58-1.33.62-1.91,1.17-2.76l.07-.05Z"/>
        <path class="cls-63" d="M773.48,467c.47,1.28-1.01,1.75-1.17,2.76,0,0-.19.17-.19.17,0,0-.25,0-.25,0,.1-1.21-1.01-3.09,1.6-2.93Z"/>
        <path class="cls-43" d="M728.74,460.89c-.77,5.3-1.53,10.6-2.33,15.89-.12.77-.45,1.51-.68,2.27-.5.25-1.06.21-1.39-.15-2.86-2.99-6.4-5.31-8.69-8.85.64-4.54,1.15-9.1,1.97-13.6.33-1.78-.37-2.34-1.77-2.78-1.71-.54-3.37-1.13-4.82-2.31-2.13-1.73-1.68-4.56-3.13-6.62,2.88,1.39,4.38,4.61,7.65,5.28,1.59.96,3.22.7,4.86.16,2.03,4.15,6.14,6.69,8.34,10.71Z"/>
        <path class="cls-62" d="M715.64,470.06c4.25,2,7.06,5.62,10.08,9-.18,2.53-.44,5.07-.52,7.61-.04,1.31-1.02,1.54-1.82,2.04-1.49.39-1.53,2.34-3.03,2.8-1.26-.77.03-3.22-2.24-3.37-1.94-.13-1.9,2.23-3.6,2.62-3.27-7.13.26-13.85,1.13-20.69Z"/>
        <path class="cls-60" d="M699.1,553.3c-3.07,1.8-3.19-.77-3.35-2.5-.35-3.92.29-7.81.74-11.71.74-6.38,1.96-12.7,1.82-19.17-.08-3.64-.34-7.21-1.75-10.62,3.82,2.31,3.48,6.33,3.79,9.89.6,7.05-1.17,13.94-2.03,20.89-.43,3.47-1.06,6.93-.93,10.46.05,1.26.12,2.46,1.7,2.76Z"/>
        <path class="cls-102" d="M715.53,521.23c1.19.5,2.08,1.3,2.57,2.51,1.12,2.86.19,5.3-1.56,7.57-1.02.58-2.03.1-3.04-.02-1.39-.36-3.19.14-3.87-1.77.53-1.59,1.22-3.15,1.56-4.78.51-2.45,1.87-3.61,4.34-3.51Z"/>
        <path class="cls-131" d="M718.55,516.62c-1.33-1.24-2.45-2.64-3.12-4.36.15-1.34.81-2.37,1.91-3.13,2.89-.66,4.17,1.71,5.94,3.16.01,3.11-1.6,4.59-4.73,4.33Z"/>
        <path class="cls-59" d="M687.65,436.2c.66,1.78-.82,2.74-1.71,3.66-1.96,2.01-2.01,2.62.41,4.11-1.55-.45-3.11,1.31-4.72-.22-.53-.51-.5.36-.49.59.06,1.31-1.48-.06-1.56.96-.65-.47-.4-1.14-.17-1.61.87-1.82,1.43-3.71,1.69-5.7.16-.22.32-.45.48-.67.91-.71,1.63.3,2.46.25.57-.4.35-1.15.73-1.62.69-.7,1.42-1.01,2.26-.25.21.17.42.34.62.52Z"/>
        <path class="cls-119" d="M709.63,529.52c1.37.43,3.02-.43,4.2.88,1.36,1.85,1.4,3.91-.3,5.29-1.66,1.35-3.7,1.08-5.26-.69-1.89-3.02-1.64-4.04,1.35-5.48Z"/>
        <path class="cls-82" d="M690.23,448.75c.38-.95.76-1.9,1.14-2.85,4.09.25,7.79-.76,10.94-3.59-2.58,5.03-6.38,7.58-12.08,6.43Z"/>
        <path class="cls-65" d="M708.28,535c.58.1,1.17.21,1.75.31,2.76.5,4.18-.41,3.69-3.43-.08-.47.07-.98.11-1.48.78.19,1.56.37,2.34.56,1.12,2.48-.11,6.54-2.42,7.94-1.44-2.19-4.3-.9-6-2.46-.1-.58.14-1.04.52-1.44Z"/>
        <path class="cls-108" d="M684.67,438.6c-.24,1.27-.65,1.91-1.76.56-.49-.59.03-1.92-1.35-1.85,1.37-2.03,2.94-3.41,5.45-1.63-.71-.04-1.42-.09-1.77.74-.61.62-.71,1.37-.58,2.18Z"/>
        <path class="cls-62" d="M728.74,460.89c-4.05-2.58-7.39-5.72-8.34-10.71,4.23-2.05,1.92-5.67,1.64-8.45-.26-2.62.3-3.33,2.68-3.17,2.32.15,4.22-1.67,6.68-1.25,1.48.25,2.75.43,3.47,1.89-.05,1.18-.8,1.67-1.85,1.86-.72,1.21.7,1.95.68,2.59-.06-.59-1.21-1.31-.78-2.45,1.08-.25,2.27-.39,1.93-2.01,3.33,1.57,3.77,7.84.6,8.68-1.79.47-3.07-.46-4.23-1.7-1.23-1.32-1.08-3.41-2.77-4.93-.22,1.82-.8,3.05-1.84,4.22-1.8,2.02-.43,5.77,2.38,7.7,3.73,2.57,7.86,2.42,12.88,1.81-1.7,2.2-2.81,3.97-5.22,4.12-1.7.1-3.5.29-5.11-.12-1.98-.51-2.55.32-2.82,1.93Z"/>
        <path class="cls-124" d="M713.75,538.9c1.2-2.53,2.04-5.16,2.42-7.94,1.16-2.27,1.82-4.67,1.93-7.22.56.2,1.12.4,1.68.6-.72,3.18-1.49,6.36-1.33,9.66-2.63,3.24-3.55,7.27-5.06,11.02-1.99,4.93-3.69,9.99-7.8,13.72-3.42,3.11-8.77,3.99-11.8,1.9,7.9.85,12.51-3.27,15.45-10.08,1.66-3.83,3.41-7.62,4.51-11.67Z"/>
        <path class="cls-98" d="M736.1,507.37c-.04-.89-.1-1.78-.13-2.68-.05-1.54.02-3.13,1.7-3.79,1.51-.6,2.94-.23,4.02,1.08,1.78,2.02,2.09,4.05.85,5.52-1.33,1.58-3.9,1.53-6.44-.13Z"/>
        <path class="cls-70" d="M736.1,507.37c.59-.02,1.19-.02,1.78-.06,4.69-.28,4.76-.38,3.81-5.33,2.78.29,2.86,2.37,2.81,4.4-.04,1.66-.52,3.36-2.57,3.38-2.19.02-5.01,1.11-5.83-2.39Z"/>
        <path class="cls-35" d="M750.49,465.86c-5.07-1.64-5.8-2.18-7.3-5.95,3.14,2.52,5.93,4.26,9.45,3.49-.24,1.17-1.43,1.51-2.05,2.34l-.1.11Z"/>
        <path class="cls-95" d="M718.55,516.62c2.08-.89,3.37-2.65,4.73-4.33,2.39,1.3,1.2,2.71,0,3.94-1.4,1.46-2.94,3.03-4.74.39Z"/>
        <path class="cls-73" d="M752.83,477.75c1.11,1.57,2.98,2.48,3.79,4.32-1.19,1.71-2.8.48-4.21.6,0,0-.12.09-.12.09-1.04-1.8.04-3.38.55-5.01Z"/>
        <path class="cls-37" d="M756.03,493.17c1.61-.05,3.28-.7,5.2.52-2.06,1.45-3.66,1.52-5.2-.29,0,0,0-.23,0-.23Z"/>
        <path class="cls-70" d="M742.09,512.1c-2.2.01-4.4.03-6.59.04,2.19-.79,4.39-.75,6.59-.04Z"/>
        <path class="cls-128" d="M750.59,465.75c-.04-1.42,1.3-1.62,2.05-2.34,0,0,.11,0,.11,0-.48,1,.2,3.07-2.16,2.34Z"/>
        <path class="cls-105" d="M563.9,553.26c2.08,1.71,4.61,1.86,7.09,1.8,3.34-.09,4.44-1.2,4.79-4.9.98-10.48,2.25-20.92,3.82-31.32.97-6.44,2.08-12.86,3.13-19.28.31-.6.63-1.19,1.08-2.05,1.33,2.55.17,4.81-.19,6.94-2.46,14.72-4.74,29.45-5.88,44.34-.11,1.49-.36,2.99-.7,4.45-.63,2.75-2.48,3.75-6.65,3.73-4.35-.01-5.77-.83-6.48-3.71Z"/>
        <path class="cls-56" d="M522.8,552.12c2.61,1.17,5.32.87,7.98.37,2.16-.41,3.09-1.87,3.06-4.15-.08-6.93-.05-13.86,0-20.79.01-1.67.27-3.34.46-5.62,2.17,2.74,3.48,5.29,4.85,7.8-2.36-.64-3.23.07-3.12,2.68.21,5.3.14,10.62.03,15.93-.08,3.78-1.63,5.43-5.52,6.36-3.71.89-6.23.05-7.73-2.58Z"/>
        <path class="cls-66" d="M490.08,534.7c-4.75-4.51-4.72-10.36-4.44-16.22.18-3.81.63-7.6.92-11.41.15-1.91,0-3.81-.67-5.63,2.99.67,2.85,3.34,2.95,5.38.16,3.16-.07,6.39-.59,9.52-.99,5.97-.73,11.71,1.93,17.24.14.29-.07.74-.11,1.12Z"/>
        <path class="cls-77" d="M545.12,538.25c2.71,1.03,5.49.85,8.27.39,2-.33,3.38-1.42,4.22-3.38,1.68-3.91,3.55-7.74,6.03-11.47-.15,2.59-.31,5.18-.46,7.78-2.59.72-3.19,3.12-4.24,5.1-2.05,3.84-9.47,5.68-13.09,3.19-.54-.37-1.34-.69-.72-1.61Z"/>
        <path class="cls-120" d="M583.29,549.52c-1.41-7.9,1.46-15.28,3.04-22.76,2.21-10.41,5.09-20.69,10.86-29.81,3.73-5.89,8.69-10,16.23-9.57,3.4.63,5.95,2.69,8.38,4.97,4.11,4.26,6.01,9.65,7.55,15.16,1.85,6.63,3.33,13.34,4.26,20.17.75,5.43.95,10.92,1.72,16.35.22,1.54.6,3.28-1.32,4.22-1.28,1.55-2.48,3.09-4.79,3.25-4.51.3-6.61-1.37-7.79-6.52-.2-.86.1-1.84-.68-2.54-1.49-1.02-3.08-.43-4.66-.32-3.4.24-6.8-.01-10.21.22-3.22.22-4.91,1.58-5.47,4.72-.76,4.29-3.41,6.87-7.65,7.86-1.21.28-2.38.35-3.49-.32-2.67-.9-4.52-2.77-5.99-5.07ZM608.95,510.34c-1.42,3.74-2.58,7.58-3.5,11.46-.51,2.15-1.68,4.37-.48,6.69,3.8.05,7.6.06,11.39.17,1.52.05,2.27-.35,1.92-2.03-1.4-6.73-2.47-13.54-5.4-19.86-2.35.04-3.23,1.72-3.93,3.56Z"/>
        <path class="cls-44" d="M612.88,506.78c-4.87,5.44-5.51,12.49-7.29,19.11-.23.86-.42,1.73-.63,2.6-1.2.19-2.09-.09-1.74-1.53,1.67-6.98,3.11-14.04,6.23-20.57.37-.77.72-1.93,1.75-1.83,1.11.11,1.49,1.19,1.67,2.22Z"/>
        <path class="cls-84" d="M718.53,548.39c2.32.6,3.3,2.71,4.76,4.27-.95,3.28-2.48,4.2-5.37,3.21-1.09-.3-1.64-1.25-2.37-1.98-.61-2.7,1.87-3.73,2.98-5.5Z"/>
        <path class="cls-31" d="M686.3,469.44c.88,0,1.08-.02,1.28,0,.84.11,2.16-.32,2.25.87.12,1.45-1.57,1.42-2.24,1.26-2.56-.61-4.85.42-7.25.75-.74.1-1.82.41-1.93-.75-.08-.84.82-1.02,1.53-1.13,2.34-.37,4.67-.74,6.35-1Z"/>
        <path class="cls-109" d="M641.17,470.76c2.4-2.05,5.4-1.21,8.04-1.24,2.05-.02,3.76-2.31,5.89-.74-4.47,1.91-9.01,3.26-13.93,1.98Z"/>
        <path class="cls-106" d="M682.83,445.54c.58-.02,1.01.28,1.15.78.42,1.57,1.38,2.13,2.91,1.7.79-.22,1.24.1,1.15.82-.12.91-.84.27-1.26.38-2.06.53-2.79-2.42-4.82-1.69-.03-.49-.13-.99-.07-1.46.06-.49.55-.49.94-.53Z"/>
        <path class="cls-46" d="M644.9,450.81c.78.61,1.55,1.22,2.44,1.91,1.09-.45.97-2.11,2.2-2.5,1.37,2.11-1.19,3.12-1.44,4.83-.12.79-1.12.09-1.69-.3-1.42-.98-1.41-2.48-1.51-3.95Z"/>
        <path class="cls-85" d="M647.24,442.18c.22.22.44.44.66.65-1.83.9-.98,3.09-2.37,4.27-.06-1.83-.14-3.65,1.71-4.92Z"/>
        <path class="cls-88" d="M769.81,534.77c.58-.66,1-1.38.87-2.32.33-2.6,1.92-4.24,4.15-5.34,1.19-.59,2.3-.67,2.87.87-2.83.67-4.44,2.43-4.81,5.33-.3,2.31-1.49,4.29-2.48,6.34-.22-.47-.44-.95-.65-1.42-.61-1.16-.83-2.32.05-3.46Z"/>
        <path class="cls-115" d="M769.81,534.77c-.02,1.15-.03,2.31-.05,3.46-1.22-1.01-3.27-.08-4.24-1.74.51-1.09,1.72-.43,2.36-1.05.64-.22,1.28-.45,1.92-.67Z"/>
        <path class="cls-132" d="M717.92,555.87c2.59.27,3.62-2.08,5.37-3.21,1.63,2.42-.38,3.37-1.9,4.31-1.4.87-2.84.93-3.47-1.1Z"/>
        <path class="cls-74" d="M722.28,544.65c-1.82-3.35-3.76-6.66-3.83-10.64-1.54-2.45-.97-6.62,1.33-9.66,3.41-6.43,8.45-10.75,15.72-12.2,2.2-.31,4.39-.23,6.59-.04,1.21.25,2.43.51,3.64.76,4.31,1.9,7.96,4.64,10.69,8.52,4.37,4.23,5.42,13.98,2.14,20.54-5.77,11.52-19.46,15.37-30.34,8.45-2.56-1.3-4.12-3.65-5.94-5.72ZM749.85,523.62c-6.86-7.24-18.52-5.63-22.97,3.27-2.62,5.24-1.65,10.28,1.32,15.1,5.03,5.74,13.01,6.69,19.25,2.29,6.04-4.26,7.84-12.15,4.25-18.69-.76-.52-1.23-1.31-1.85-1.96Z"/>
        <path class="cls-90" d="M751.7,525.58c-2.44-.98-4.01-3.21-6.46-4.29-5.27-2.32-9.94-1.15-14.02,2.29-4.35,3.66-5.85,8.49-4.28,14.1.4,1.44,1.39,2.7,1.26,4.3-4.17-4.42-4.86-9.59-2.69-15.01,2.29-5.72,6.83-8.94,12.99-9.11,5.83-.16,10.43,2.35,13.19,7.72Z"/>
        <path class="cls-107" d="M752.4,482.66c1.25-1.26,2.86-.01,4.21-.6.66.35,1.01,1.45,2.17.38.62-.57,2-.3,3.1-.02-.5.16-1,.33-1.69.55.74.18,1.28.31,1.83.44l.03.35c-1.19.08-2.39.15-3.58.23-2.02-.46-4.44.87-6.08-1.33Z"/>
        <path class="cls-49" d="M759.59,462.13c1.53-.44,2.36,2.3,4.1.88.2.34.5.65.59,1.01.18.74-.41,1.04-.94,1.3-1.79.85-3.26-.43-3.71-3.22,0,0-.04.03-.04.03Z"/>
        <path class="cls-26" d="M765.79,450.95c-1.01.38-1.94,1.57-3.16.62-.18-.14-.24-.78-.16-.83,1.07-.62,2.15,0,3.32.21Z"/>
        <path class="cls-111" d="M752.87,492.66c-.9.52-1.75,1.46-2.63.26-.14-.19-.17-.7-.05-.79,1.03-.75,1.78.38,2.68.53Z"/>
        <path class="cls-55" d="M714.1,485.8c2.17-.43,3.81.39,5.69.67q-3.94.92-5.69-.67Z"/>
        <path class="cls-40" d="M684.67,438.6c-.73-.44-1.33-.85-.84-1.91.41-.9.9-.47,1.42-.27-.06.76.82,1.77-.58,2.17Z"/>
        <path class="cls-30" d="M725.86,451.17c-.3,1.24-.78,2.22-1.87,2.27-1.29.05-1.71-1.14-2.11-2.14-.24-.6.21-1.07.68-1,1.11.18,2.2.56,3.31.87Z"/>
        <path class="cls-112" d="M732.25,438.29c.62,1.48-2.95-.74-.94,1.74.27.33-.53.34-.88.38-.83.1-1.24-.34-1.53-1.07-.27-.69.17-.89.61-1.09.96-.44,1.91-.4,2.74.05Z"/>
        <path class="cls-81" d="M733.03,440.96c.43,1.68,1.1,3.21,2.62,4.31-.82.79-1.61.92-2.5.52.92-1.61-1.45-3.16-.1-4.78l-.02-.05Z"/>
        <path class="cls-45" d="M726.49,439.75c2.3,1.2.26,2.31-.13,3.4-.25.69-.7.1-.73-.16-.07-.54-1.65-.63-.47-1.46.47-.34.61-.75.69-1.25-.06-.51-.04-.93.65-.53Z"/>
        <path class="cls-89" d="M734.85,439.18c.64,1.04,1.55,2.03.56,3.35-1.14-.05-1.54-1.14-2.38-1.57,0,0,.02.05.02.05.6-.6,1.21-1.21,1.81-1.81,0,0-.01-.01-.01-.01Z"/>
        <path class="cls-100" d="M726.49,439.75c-.22.18-.43.35-.65.53-.34.17-.68.49-1.03.5-.69.02-1.82.53-1.89-.58-.09-1.32,1.12-1.06,1.95-.98.55.06,1.08.35,1.63.53Z"/>
        <text class="cls-47" transform="translate(536.12 583.09)"><tspan x="0" y="0">EN</tspan></text>
        <text class="cls-47" transform="translate(596.97 583.4)"><tspan x="0" y="0">DE </tspan><tspan class="cls-134" x="24.89" y="0">L</tspan><tspan x="33.93" y="0">A D</tspan><tspan class="cls-28" x="60.67" y="0">I</tspan><tspan class="cls-79" x="65.45" y="0">V</tspan><tspan x="76.06" y="0">E</tspan><tspan class="cls-69" x="85.38" y="0">R</tspan><tspan x="96.27" y="0">SI</tspan><tspan class="cls-133" x="110.08" y="0">D</tspan><tspan x="121.05" y="0">AD E IN</tspan><tspan class="cls-3" x="177.88" y="0">C</tspan><tspan class="cls-54" x="187.24" y="0">L</tspan><tspan class="cls-87" x="195.65" y="0">U</tspan><tspan class="cls-33" x="206.76" y="0">SIN</tspan></text>
        <path class="cls-42" d="M574.76,562.15c1.6-.16,3.22-.08,4.8.23,2.47.49,4.81,1.59,6.77,3.16,1.45,1.15,2.69,2.55,3.66,4.13.82,1.33,1.44,2.78,1.84,4.3-.39-.45-.9-.78-1.46-.99-.46-.17-.94-.25-1.43-.28-.52-.03-1.05,0-1.56.09-.97.17-1.89.61-2.64,1.25-.76.66-1.32,1.51-1.69,2.44-.2.48-.34.97-.44,1.48-.12.61-.19,1.23-.16,1.85.03.51.11,1.02.29,1.5.22.59.58,1.13,1.08,1.52.51.4,1.12.64,1.75.75.46.08.92.1,1.38.08.67-.03,1.35-.15,1.97-.4.55-.22,1.07-.53,1.53-.91.86-.73,1.47-1.71,1.83-2.77,0,.14-.02.28-.04.42-.17,1.38-.52,2.74-1.04,4.03-.94,2.33-2.43,4.43-4.32,6.07-1.88,1.65-4.16,2.84-6.59,3.45-2.99.75-6.2.62-9.12-.39-1.41-.49-2.75-1.17-3.97-2.03-1.18-.83-2.25-1.83-3.17-2.95.49-.16.95-.45,1.28-.86.12-.15.22-.32.29-.51.04-.09.05-.2.06-.29.17-.98.34-1.96.51-2.95.76.13,1.54.13,2.31.03,1.21-.16,2.39-.64,3.33-1.43.8-.68,1.41-1.57,1.79-2.55.26-.66.42-1.35.51-2.06.1-.75.12-1.52-.04-2.27-.12-.56-.35-1.11-.73-1.55-.34-.41-.81-.7-1.31-.87-.38-.13-.79-.18-1.19-.19-.35,0-.7.04-1.03.13-.59.17-1.15.46-1.61.88-.24.22-.46.47-.65.73,0-.21.02-.41.01-.62,0-.18-.02-.37-.03-.55-.01-.11-.02-.23-.07-.34-.42-.09-.85-.13-1.27-.12-.35,0-.71.03-1.05.1-.78,4.51-1.56,9.02-2.34,13.53-.67-1.09-1.22-2.26-1.61-3.48-.95-2.94-1.02-6.16-.21-9.14.64-2.33,1.82-4.51,3.41-6.33,1.65-1.88,3.74-3.36,6.06-4.29,1.38-.55,2.83-.91,4.31-1.06M576.56,572.81c-.6,3.5-1.21,7-1.81,10.5.14.02.28.05.43.06.24.03.49.02.73,0,.35-.04.69-.12,1.01-.26.23-.11.45-.25.62-.44.15-.17.27-.38.31-.61.21-1.21.42-2.41.62-3.62.09-.52.2-1.05.42-1.53.12-.27.28-.52.47-.75.32-.39.76-.69,1.25-.81.33-.07.67-.1,1.01-.09.23,0,.47,0,.7.04.19-.48.31-.99.4-1.49.06-.34.11-.69.1-1.04-.12-.04-.24-.05-.37-.06-.2-.02-.4-.03-.61-.02-.53.02-1.07.17-1.52.46-.5.33-.95.72-1.34,1.16.01-.35.03-.71,0-1.06-.01-.14-.02-.29-.07-.42-.33-.07-.67-.13-1.01-.14-.45-.01-.9.03-1.33.12M587.87,574.95c.4-.04.82-.01,1.18.17.24.12.44.33.55.58.14.3.2.63.22.96.03.44,0,.88-.07,1.31-.09.58-.22,1.16-.43,1.71-.13.33-.3.65-.51.94-.16.21-.36.4-.59.54-.29.18-.62.27-.96.3-.36.03-.73,0-1.06-.15-.24-.11-.45-.3-.58-.53-.14-.26-.21-.56-.25-.86-.05-.45-.02-.91.04-1.37.07-.49.16-.97.31-1.44.14-.44.32-.87.59-1.25.15-.22.34-.42.56-.57.29-.2.64-.32.99-.35M568.58,575.36c.32-.16.69-.21,1.04-.19.28.02.57.09.8.26.27.19.45.49.54.8.12.41.11.85.08,1.28-.06.62-.19,1.23-.41,1.81-.22.56-.55,1.1-1.04,1.47-.46.36-1.05.54-1.63.56-.47.01-.94-.02-1.39-.16.21-1.21.42-2.42.63-3.63.11-.57.29-1.14.65-1.6.19-.25.44-.46.73-.6h0Z"/>
        <g class="cls-127">
          <path class="cls-2" d="M840.17,591.77c-.12,3.44-1.13,6.14-2.97,6.21-3.21.15-6.42,1.65-9.63.97-3.45-.75-6.72-.08-10.05,1.05-.65.23-1.25.52-1.84.08-1.55-1.27-3.15-.6-4.76-.38-2.38.3-4.7,1.65-7.07-.23-.36-.3-.95-.08-1.43.08-6.36,2.32-12.84.45-19.26.68-1.55-1.35-3.15.3-4.7-.08-1.78-.45-3.51-.45-5.29-.23-3.03.3-6.12,1.2-9.1-.6-.53-.3-1.25-.15-1.9-.15-2.73-.08-5.47,0-8.2-.3-1.49-.15-2.85-.3-4.16.97-.71.75-1.55.3-2.32,0-2.91-1.2-6.66-2.1-8.86-1.42-1.84.53-3.51.38-5.29-.08-1.25-.3-2.56-.45-3.87-.52-14.74-.53-29.49-1.12-44.23-2.32-7.61-.6-15.22-1.05-22.83-1.57-2.91-.23-5.83-.83-8.74-.9-10.7-.37-21.4-.37-32.11-1.34-3.27-.3-6.36-1.42-9.63-1.72-5.47-.6-11-1.5-16.47-2.25-.77-.15-1.55-.37-1.84-1.72,6.84.53,13.62,1.27,20.33,1.57,5.65.3,11.29.15,16.94.15,4.04,0,8.09-.07,12.13.08,6.84.23,13.62.9,20.45.9,3.93,0,7.79.3,11.65.6,4.04.3,8.09.08,12.07.38,12.43.9,24.85,1.72,37.34,1.05,2.2,1.19,4.52-.53,6.72.22,3.09,1.12,6.06,1.05,9.16.15.89-.3,1.96-.08,2.91,0,2.74.23,5.47.53,8.2.68,7.31.45,14.57.45,21.82-.9.47-.07,1.07-.3,1.43,0,2.74,1.87,5.65.08,8.5.75,1.9.45,4.22.37,6.24-.08,3.63-.82,7.25-.6,10.88-1.12,2.32-.38,4.46.67,6.72.6,3.39-.15,6.84-.15,10.22-.37,4.99-.3,10.05-.23,14.98-1.42,1.96-.52,3.86-.3,5.83-.23,1.84.15,2.08.6,2.02,2.77Z"/>
        </g>
      </g>
    </g>
  </g>
</svg>