<?xml version="1.0" encoding="UTF-8"?>
<svg id="Capa_1" data-name="Capa 1" xmlns="http://www.w3.org/2000/svg" xmlns:xlink="http://www.w3.org/1999/xlink" viewBox="0 0 500 500">
  <defs>
    <style>
      .cls-1 {
        fill: url(#linear-gradient-13);
      }

      .cls-2 {
        fill: url(#linear-gradient-2);
      }

      .cls-3 {
        mask: url(#mask-1);
      }

      .cls-4 {
        fill: url(#linear-gradient-10);
      }

      .cls-5 {
        fill: url(#linear-gradient-12);
      }

      .cls-6 {
        letter-spacing: -.01em;
      }

      .cls-7 {
        fill: #e84b1e;
      }

      .cls-8, .cls-9 {
        fill: #fff;
      }

      .cls-10 {
        mask: url(#mask);
      }

      .cls-11 {
        fill: none;
      }

      .cls-12 {
        fill: url(#linear-gradient-4);
      }

      .cls-9 {
        font-family: Aller, Aller;
        font-size: 28px;
      }

      .cls-13 {
        mask: url(#mask-2);
      }

      .cls-14 {
        fill: url(#linear-gradient-3);
      }

      .cls-15 {
        fill: url(#linear-gradient-5);
      }

      .cls-16 {
        fill: url(#linear-gradient-8);
      }

      .cls-17 {
        fill: #345ca8;
      }

      .cls-18 {
        clip-path: url(#clippath-14);
      }

      .cls-19 {
        fill: url(#linear-gradient-7);
      }

      .cls-20 {
        fill: url(#linear-gradient-9);
      }

      .cls-21 {
        fill: url(#linear-gradient-11);
      }

      .cls-22 {
        fill: url(#linear-gradient-6);
      }

      .cls-23 {
        fill: url(#linear-gradient);
      }

      .cls-24 {
        clip-path: url(#clippath);
      }

      .cls-25 {
        opacity: .5;
      }

      .cls-26 {
        letter-spacing: 0em;
      }

      .cls-27 {
        mask: url(#mask-3);
      }
    </style>
    <linearGradient id="linear-gradient" x1="-291.1" y1="345.98" x2="440.97" y2="93.03" gradientUnits="userSpaceOnUse">
      <stop offset="0" stop-color="#252b5b"/>
      <stop offset="1" stop-color="#3461ab"/>
    </linearGradient>
    <clipPath id="clippath">
      <rect class="cls-23" x="-508" y="-64.09" width="1016" height="618.98"/>
    </clipPath>
    <clipPath id="clippath-14">
      <rect class="cls-11" x="-555.65" y="-173.09" width="1116.24" height="837.18"/>
    </clipPath>
    <linearGradient id="linear-gradient-2" x1="-18.08" y1="267.4" x2="974.72" y2="267.4" gradientTransform="translate(520.01 500.8) rotate(-180)" gradientUnits="userSpaceOnUse">
      <stop offset="0" stop-color="#fff"/>
      <stop offset=".7" stop-color="#010101"/>
    </linearGradient>
    <mask id="mask" x="-454.71" y="-265.37" width="992.8" height="997.53" maskUnits="userSpaceOnUse">
      <rect class="cls-2" x="-454.71" y="-265.37" width="992.8" height="997.53"/>
    </mask>
    <linearGradient id="linear-gradient-3" x1="52.17" y1="417.54" x2="909.97" y2="121.15" gradientTransform="translate(520.01 500.8) rotate(-180)" xlink:href="#linear-gradient"/>
    <linearGradient id="linear-gradient-4" x1="-521.72" y1="241.5" x2="841.84" y2="241.5" xlink:href="#linear-gradient-2"/>
    <mask id="mask-1" x="-321.83" y="-425.72" width="1363.57" height="1370.04" maskUnits="userSpaceOnUse">
      <rect class="cls-12" x="-321.83" y="-425.72" width="1363.57" height="1370.04"/>
    </mask>
    <linearGradient id="linear-gradient-5" x1="-425.24" y1="447.68" x2="752.88" y2="40.62" gradientTransform="translate(520.01 500.8) rotate(-180)" xlink:href="#linear-gradient"/>
    <linearGradient id="linear-gradient-6" x1="-610.64" y1="157.49" x2="-258.69" y2="157.49" gradientTransform="translate(300.8 -203.24) rotate(-90)" xlink:href="#linear-gradient-2"/>
    <mask id="mask-2" x="281.51" y="55.44" width="353.57" height="351.96" maskUnits="userSpaceOnUse">
      <rect class="cls-22" x="281.51" y="55.44" width="353.57" height="351.96"/>
    </mask>
    <linearGradient id="linear-gradient-7" x1="-91.01" y1="322.89" x2="213.05" y2="217.83" gradientTransform="translate(520.01 500.8) rotate(-180)" xlink:href="#linear-gradient"/>
    <linearGradient id="linear-gradient-8" x1="378.42" y1="252.29" x2="1194.97" y2="252.29" xlink:href="#linear-gradient-2"/>
    <mask id="mask-3" x="-674.96" y="-161.67" width="816.55" height="820.37" maskUnits="userSpaceOnUse">
      <rect class="cls-16" x="-674.96" y="-161.67" width="816.55" height="820.37"/>
    </mask>
    <linearGradient id="linear-gradient-9" x1="436.18" y1="375.76" x2="1141.68" y2="131.99" gradientTransform="translate(520.01 500.8) rotate(-180)" xlink:href="#linear-gradient"/>
    <linearGradient id="linear-gradient-10" x1="-50.52" y1="405.37" x2="512.12" y2="210.97" gradientTransform="translate(520.01 500.8) rotate(-180)" xlink:href="#linear-gradient"/>
    <linearGradient id="linear-gradient-11" x1="68.08" y1="340.27" x2="630.72" y2="145.86" gradientTransform="translate(520.01 500.8) rotate(-180)" xlink:href="#linear-gradient"/>
    <linearGradient id="linear-gradient-12" x1="-212.27" y1="335.77" x2="804.45" y2="-15.53" gradientTransform="translate(520.01 500.8) rotate(-180)" xlink:href="#linear-gradient"/>
    <linearGradient id="linear-gradient-13" x1="-144.83" y1="421.83" x2="871.88" y2="70.54" gradientTransform="translate(520.01 500.8) rotate(-180)" xlink:href="#linear-gradient"/>
  </defs>
  <g>
    <rect class="cls-23" x="-508" y="-64.09" width="1016" height="618.98"/>
    <g class="cls-24">
      <g class="cls-25">
        <g class="cls-18">
          <g class="cls-10">
            <path class="cls-14" d="M38.93-248.64l480.11,480.07L38.93,711.56-441.17,231.43,38.93-248.64ZM369.43,231.43L38.93-99.02-291.55,231.43,38.93,561.89,369.43,231.43Z"/>
          </g>
          <g class="cls-3">
            <path class="cls-15" d="M356.17-402.75L1015.57,256.64,356.17,916.06-303.19,256.64,356.17-402.75ZM810.09,256.64L356.17-197.24-97.71,256.64l453.88,453.88,453.92-453.88Z"/>
          </g>
          <g class="cls-13">
            <path class="cls-19" d="M629.17,230.43l-170.17,170.22-170.19-170.22L458.99,60.24l170.17,170.19ZM458.99,347.58l117.13-117.15-117.13-117.13-117.16,117.13,117.16,117.15Z"/>
          </g>
          <g class="cls-27">
            <path class="cls-20" d="M-268.93-147.97L125.95,246.91l-394.88,394.91-394.85-394.91L-268.93-147.97ZM2.85,246.91L-268.93-24.9l-271.78,271.81,271.78,271.81L2.85,246.91Z"/>
          </g>
          <polygon class="cls-4" points="769.49 675.81 -192.52 -290.2 -191.02 -290.58 770.95 675.45 769.49 675.81"/>
          <polygon class="cls-21" points="650.89 740.91 -311.12 -225.09 -309.62 -225.47 652.35 740.56 650.89 740.91"/>
          <polygon class="cls-5" points="647.14 -81.01 -198.98 763.67 -199.22 762.36 646.83 -82.32 647.14 -81.01"/>
          <polygon class="cls-1" points="579.69 -167.07 -266.4 677.6 -266.67 676.3 579.38 -168.38 579.69 -167.07"/>
        </g>
      </g>
    </g>
  </g>
  <g>
    <g id="g801">
      <path id="path4193" class="cls-8" d="M492.64,272.02l-.58-.98c-.48-.88-.61-1-1.02-1.15v-.03c.81-.08,1.29-.59,1.29-1.34s-.48-1.33-1.51-1.33h-2.4v4.83h1v-2h.18c.42,0,.58.06.79.25.19.19.48.6.65.95l.38.8h1.21ZM489.42,269.27v-1.33h.89c.64,0,1,.23,1,.66,0,.33-.21.67-.88.67h-1ZM490.49,265.92c2.02,0,3.66,1.63,3.66,3.64s-1.64,3.67-3.66,3.67-3.63-1.64-3.63-3.67,1.63-3.64,3.63-3.64M490.49,265.04c-2.5,0-4.53,2.02-4.53,4.52s2.03,4.55,4.53,4.55,4.55-2.02,4.55-4.55-2.04-4.52-4.55-4.52"/>
      <path id="path3846" class="cls-8" d="M108.53,224.89h6.71v40.76h21.09v6.08h-27.81v-46.84Z"/>
      <g id="g3850">
        <g id="g3856">
          <path id="path3858" class="cls-8" d="M165.19,224.23c7.22,0,13.25,2.3,18.06,6.88,4.81,4.58,7.22,10.32,7.22,17.22s-2.43,12.63-7.28,17.16c-4.86,4.52-10.99,6.8-18.38,6.8s-12.95-2.28-17.65-6.8c-4.7-4.53-7.05-10.2-7.05-17.03s2.37-12.78,7.11-17.36c4.74-4.58,10.71-6.88,17.98-6.88M165.44,230.6c-5.35,0-9.76,1.67-13.21,5.03-3.46,3.35-5.17,7.63-5.17,12.84s1.72,9.27,5.2,12.61c3.46,3.33,7.79,5.02,12.99,5.02s9.57-1.71,13.08-5.13c3.5-3.43,5.23-7.69,5.23-12.76s-1.73-9.15-5.23-12.53c-3.5-3.41-7.8-5.09-12.89-5.09"/>
        </g>
        <g id="g3860">
          <path id="path3862" class="cls-8" d="M210.32,252.11l-5.1-3.08c-3.19-1.96-5.46-3.87-6.81-5.76-1.36-1.91-2.03-4.07-2.03-6.54,0-3.68,1.29-6.68,3.84-8.98,2.57-2.3,5.89-3.46,9.98-3.46s7.5,1.09,10.75,3.32v7.61c-3.36-3.25-7.01-4.88-10.89-4.88-2.18,0-3.99.52-5.41,1.53-1.4,1.02-2.1,2.31-2.1,3.91,0,1.39.51,2.7,1.55,3.92,1.04,1.22,2.72,2.51,5.01,3.85l5.13,3.03c5.71,3.43,8.58,7.77,8.58,13.05,0,3.75-1.26,6.79-3.79,9.14-2.51,2.36-5.78,3.54-9.8,3.54-4.62,0-8.85-1.43-12.63-4.28v-8.5c3.61,4.57,7.79,6.87,12.57,6.87,2.08,0,3.83-.58,5.21-1.75,1.4-1.17,2.12-2.64,2.12-4.39,0-2.86-2.07-5.56-6.19-8.13"/>
        </g>
      </g>
      <path id="path3866" class="cls-8" d="M282.29,224.89h6.72v46.84h-6.72v-20.37h-26.31v20.37h-6.7v-46.84h6.7v20.26h26.31v-20.26Z"/>
      <path id="path3870" class="cls-8" d="M299.33,224.89h26.55v5.97h-19.84v14.3h19.18v6h-19.18v14.54h20.49v5.98h-27.19v-46.78Z"/>
      <g id="g3874">
        <g id="g3880">
          <path id="path3882" class="cls-8" d="M333.88,271.74v-46.84h11.71c4.73,0,8.51,1.16,11.29,3.51,2.78,2.35,4.18,5.55,4.18,9.53,0,2.73-.68,5.08-2.04,7.07-1.36,2-3.31,3.47-5.87,4.47,1.49.97,2.96,2.31,4.39,4.03,1.44,1.67,3.44,4.65,6.04,8.87,1.62,2.68,2.95,4.67,3.91,6.01l2.49,3.34h-7.99l-2.04-3.07c-.08-.1-.21-.3-.41-.58l-1.3-1.85-2.06-3.42-2.25-3.63c-1.37-1.93-2.66-3.48-3.81-4.61-1.14-1.12-2.18-1.94-3.11-2.45-.92-.51-2.47-.75-4.69-.75h-1.73v20.38h-6.7ZM342.59,230.6h-2.01v14.8h2.53c3.4,0,5.74-.3,7-.87,1.26-.6,2.25-1.46,2.95-2.66.71-1.16,1.06-2.51,1.06-3.99s-.4-2.81-1.17-4c-.81-1.19-1.89-2.06-3.31-2.53-1.41-.49-3.77-.74-7.05-.74"/>
        </g>
        <g id="g3884">
          <path id="path3886" class="cls-8" d="M394.01,224.23c7.24,0,13.25,2.3,18.08,6.88,4.81,4.58,7.22,10.32,7.22,17.23s-2.44,12.62-7.29,17.15c-4.86,4.52-11,6.8-18.4,6.8s-12.92-2.28-17.62-6.8c-4.71-4.53-7.07-10.2-7.07-17.03s2.37-12.78,7.12-17.36c4.73-4.58,10.72-6.88,17.96-6.88M394.26,230.6c-5.36,0-9.74,1.67-13.2,5.04-3.46,3.34-5.17,7.62-5.17,12.82s1.73,9.27,5.19,12.61c3.47,3.33,7.8,5.02,13.01,5.02s9.57-1.71,13.08-5.13c3.5-3.43,5.23-7.69,5.23-12.76s-1.73-9.15-5.23-12.53c-3.5-3.38-7.79-5.09-12.9-5.09"/>
        </g>
      </g>
      <path id="path3890" class="cls-8" d="M427.56,224.9h26.53v5.95h-19.82v14.3h19.16v5.99h-19.16v14.55h20.48v5.97h-27.19v-46.77Z"/>
      <path id="path3902" class="cls-8" d="M473.51,252.11l-5.11-3.08c-3.2-1.96-5.47-3.87-6.82-5.76-1.37-1.91-2.03-4.07-2.03-6.54,0-3.68,1.28-6.68,3.84-8.95,2.57-2.33,5.87-3.49,9.99-3.49,3.9,0,7.5,1.08,10.75,3.31v7.61c-3.36-3.25-7-4.88-10.9-4.88-2.18,0-3.99.52-5.39,1.53-1.42,1.02-2.13,2.31-2.13,3.91,0,1.39.53,2.7,1.56,3.92,1.05,1.22,2.7,2.51,5.01,3.85l5.12,3.03c5.72,3.43,8.57,7.77,8.57,13.05,0,3.76-1.26,6.79-3.79,9.14-2.48,2.36-5.76,3.54-9.8,3.54-4.62,0-8.83-1.43-12.63-4.28v-8.5c3.62,4.57,7.81,6.87,12.57,6.87,2.11,0,3.85-.58,5.25-1.75,1.39-1.17,2.1-2.64,2.1-4.39,0-2.86-2.06-5.56-6.17-8.13"/>
    </g>
    <path id="path3906" class="cls-7" d="M36.32,245.64c3.41,6.69,11.6,9.33,18.29,5.9,6.68-3.4,9.35-11.59,5.92-18.29-3.43-6.67-11.61-9.33-18.3-5.88-6.7,3.41-9.32,11.61-5.91,18.28"/>
    <path id="path3910" class="cls-17" d="M96.21,229.92c-7.89-17.06-24.53-27.26-42.12-27.75-2.55.02-8.79.6-8.91.63-.36.01-.73.16-.98.46-.51.58-.46,1.46.1,2,.27.21.59.34.91.34.12.02,5.6-.24,5.6-.24l.04,1.01-9.15.52c-.39,0-.8.19-1.08.5-.52.56-.47,1.46.11,1.98.3.27.74.36,1.08.36.14.02,8.94-.38,8.94-.38l.04.97-10.98.63c-.41,0-.88.15-1.18.47-.53.59-.48,1.49.09,2.01.31.24.69.37,1.02.35.41-.01,11.16-.57,11.16-.57l.06,1.05-9.87.54c-.37,0-.72.15-1.01.43-.31.37-.41.88-.3,1.31.14.77.89,1.13,1.67,1.06l10.89-.6v.91l-4.24.29c-1.92.27-2.43,1.36-2.54,3.04,0,0,3.7-1.03,9.13-.66.41.02.76.07,1.08.07,9.99,1.04,19.22,7.19,23.73,16.97,6.84,14.76.4,32.27-14.36,39.07-14.78,6.82-32.24.37-39.06-14.38-4.71-10.15-3.09-21.63,3.18-30,.2-.28.41-.53.63-.82,3.39-4.27,6.61-6.35,6.61-6.35-1.33-1.07-2.44-1.4-3.96-.13l-3.04,2.94-.65-.64,7.71-7.67c.54-.52.78-1.33.33-1.96-.26-.38-.7-.62-1.19-.62-.4,0-.75.15-.99.41l-7,6.99-.72-.75s7.6-7.61,7.86-7.9c.27-.26.43-.63.43-.99,0-.78-.63-1.43-1.42-1.43-.45,0-.87.27-1.16.57l-7.79,7.74-.71-.67s6.19-6.29,6.26-6.42c.22-.25.47-.61.47-1.03,0-.78-.65-1.39-1.42-1.39-.43,0-.83.16-1.09.44l-6.49,6.47-.73-.71s3.84-3.9,3.9-3.99c.23-.26.35-.57.35-.92,0-.8-.63-1.42-1.38-1.42-.41,0-.78.16-1.02.43-.09.05-5.47,5.09-6.86,6.73-.19.21-.35.39-.52.6h0c-11.11,13.71-14.19,33.07-6.27,50.18,11.08,23.98,39.48,34.44,63.46,23.37,23.99-11.08,34.43-39.51,23.35-63.48"/>
  </g>
  <text class="cls-9" transform="translate(109.13 304.5)"><tspan class="cls-26" x="0" y="0">C</tspan><tspan x="17.02" y="0">aja de </tspan><tspan class="cls-6" x="99.34" y="0">C</tspan><tspan x="116.23" y="0">ompensación</tspan></text>
</svg>