<?xml version="1.0" encoding="UTF-8"?>
<svg id="Capa_1" data-name="Capa 1" xmlns="http://www.w3.org/2000/svg" viewBox="0 0 600 300">
  <defs>
    <style>
      .cls-1 {
        fill: #e64034;
      }

      .cls-2, .cls-3 {
        fill: #fff;
      }

      .cls-3 {
        font-family: Aller-Italic, Aller;
        font-size: 26px;
        font-style: italic;
      }

      .cls-4 {
        fill: #527bbd;
      }

      .cls-5 {
        fill: #fbba10;
      }

      .cls-6 {
        fill: #19a345;
      }
    </style>
  </defs>
  <g>
    <path class="cls-2" d="M105.9,46.91c10.76-1.08,21.68-.56,32.29,1.58,16.59,3.33,32.33,10.7,45.55,21.25,9.72,7.75,18.09,17.19,24.61,27.77,5.52,8.95,9.71,18.72,12.38,28.89-2.64-3.01-6.08-5.27-9.82-6.66-3.08-1.13-6.35-1.68-9.62-1.87-3.51-.19-7.04-.03-10.5.58-6.53,1.12-12.72,4.1-17.74,8.43-5.09,4.42-8.89,10.19-11.4,16.42-1.31,3.21-2.31,6.54-2.99,9.94-.82,4.09-1.25,8.27-1.05,12.44.17,3.42.75,6.84,1.94,10.06,1.46,3.96,3.88,7.63,7.23,10.23,3.4,2.68,7.53,4.34,11.79,5.04,3.07.53,6.2.66,9.31.54,4.53-.18,9.06-1,13.28-2.69,3.72-1.48,7.22-3.54,10.27-6.14,5.76-4.89,9.91-11.51,12.28-18.66,0,.93-.17,1.86-.26,2.79-1.12,9.29-3.47,18.43-6.97,27.11-6.29,15.66-16.37,29.77-29.09,40.85-12.68,11.08-27.99,19.13-44.33,23.21-20.13,5.06-41.73,4.17-61.35-2.63-9.48-3.27-18.5-7.89-26.7-13.67-7.96-5.6-15.15-12.29-21.32-19.81,3.31-1.11,6.41-3.03,8.61-5.77.82-1.03,1.5-2.19,1.93-3.43.24-.63.31-1.31.43-1.97,1.14-6.61,2.28-13.22,3.42-19.82,5.13.87,10.39.87,15.54.21,8.15-1.07,16.08-4.3,22.37-9.62,5.41-4.55,9.49-10.57,12.07-17.12,1.76-4.43,2.83-9.11,3.44-13.83.66-5.05.83-10.24-.28-15.25-.81-3.78-2.35-7.48-4.91-10.42-2.31-2.74-5.43-4.73-8.84-5.82-2.58-.85-5.29-1.23-8-1.25-2.35-.02-4.7.25-6.96.91-3.98,1.16-7.76,3.12-10.82,5.93-1.61,1.5-3.08,3.15-4.4,4.92.03-1.38.12-2.76.08-4.14-.04-1.24-.12-2.48-.22-3.72-.07-.77-.14-1.55-.44-2.27-2.81-.59-5.69-.87-8.56-.8-2.37.01-4.76.18-7.08.67-5.25,30.33-10.47,60.66-15.71,90.99-4.54-7.33-8.19-15.21-10.84-23.41-6.42-19.77-6.89-41.41-1.4-61.46,4.27-15.7,12.21-30.37,22.97-42.57,11.09-12.62,25.18-22.61,40.79-28.84,9.27-3.71,19.06-6.11,28.99-7.11ZM118.03,118.64c-4.05,23.55-8.13,47.1-12.18,70.65.95.15,1.9.31,2.86.42,1.63.19,3.27.14,4.9-.03,2.34-.25,4.67-.79,6.82-1.78,1.55-.72,3.01-1.68,4.16-2.96,1.04-1.15,1.79-2.57,2.06-4.11,1.4-8.11,2.8-16.22,4.2-24.33.59-3.52,1.37-7.04,2.83-10.31.81-1.8,1.89-3.49,3.13-5.03,2.12-2.64,5.1-4.63,8.4-5.43,2.24-.44,4.53-.65,6.82-.61,1.58-.02,3.17-.02,4.73.25,1.25-3.24,2.05-6.64,2.67-10.06.39-2.3.71-4.63.66-6.98-.8-.24-1.63-.33-2.46-.4-1.36-.1-2.72-.17-4.08-.12-3.59.11-7.19,1.11-10.21,3.08-3.34,2.2-6.4,4.83-9.05,7.82.07-2.39.17-4.77,0-7.16-.08-.95-.1-1.94-.48-2.83-2.24-.47-4.51-.88-6.81-.93-3.01-.09-6.03.21-8.97.81Z"/>
    <path class="cls-2" d="M388.64,90.24c6.36-1.05,12.9-1.13,19.25,0-3.81,22.05-7.61,44.1-11.42,66.15-.48,2.91-1.07,5.8-1.43,8.72-.23,2.07-.4,4.2.08,6.26.26,1.09.83,2.14,1.76,2.78.97.68,2.18.88,3.33,1.01,2.25.19,4.53,0,6.73-.47.37,3.84.21,7.72-.49,11.51-.19,1.15-.36,2.32-.86,3.39-2.7.78-5.52,1-8.31,1.15-4.35.24-8.86,0-12.93-1.73-3.32-1.41-6.32-3.86-7.85-7.18-1-2.13-1.45-4.48-1.59-6.82-.17-2.88.1-5.77.57-8.61,4.38-25.39,8.76-50.77,13.15-76.16Z"/>
    <path class="cls-2" d="M288.56,90.24c2.96-.51,5.97-.64,8.98-.68,3.43,0,6.89.08,10.28.68-5.6,32.48-11.2,64.95-16.81,97.43-4.62,1.3-9.32,2.32-14.07,3.01-5.67.78-11.4.99-17.12.92-4.81-.14-9.63-.94-14.13-2.69-3.86-1.53-7.39-3.98-10.02-7.21-2.84-3.54-4.5-7.92-5.15-12.39-.7-5.16-.16-10.41.86-15.5.92-4.41,2.47-8.69,4.59-12.66,3.34-6.34,8.2-11.9,14.16-15.89,3.43-2.3,7.19-4.14,11.13-5.38,4.68-1.47,9.62-1.99,14.52-1.78,2.62.09,5.27.3,7.8,1.04,1.66-9.64,3.32-19.28,4.98-28.92ZM267.88,133.5c-2.26.54-4.37,1.59-6.26,2.92-3.32,2.33-5.86,5.65-7.58,9.3-1.81,3.87-2.92,8.06-3.41,12.3-.3,2.63-.35,5.33.25,7.93.43,1.94,1.21,3.84,2.52,5.36,1.3,1.53,3.06,2.65,4.96,3.29,2.78.94,5.76,1.16,8.68,1.03,2.36-.05,4.71-.41,6.98-1.06,2.33-13.5,4.66-27.01,6.99-40.51-1.76-.46-3.53-.87-5.35-.99-2.59-.16-5.24-.21-7.77.43Z"/>
    <path class="cls-2" d="M331.98,118.47c5.59-.74,11.31-1,16.9-.11,4.09.66,8.16,2.01,11.49,4.53,1.68,1.27,3.17,2.81,4.24,4.63,2.08,3.48,2.72,7.63,2.67,11.63-.02,2.62-.33,5.23-.79,7.81-2.33,13.48-4.66,26.95-6.98,40.43-2.55.76-5.13,1.39-7.72,1.97-2.55.55-5.1,1.09-7.68,1.45-5.2.72-10.47.94-15.72.73-2.84-.13-5.67-.43-8.46-1-3.93-.78-7.84-2.27-10.85-4.98-2.76-2.46-4.49-5.98-4.94-9.64-.38-2.98-.08-6.01.49-8.95.74-3.71,2.23-7.31,4.66-10.24,2.42-3.01,5.48-5.5,8.92-7.27,3.52-1.84,7.34-3.07,11.25-3.75,2.8-.51,5.63-.82,8.47-.89,3.34-.07,6.68.1,10.01.39.28-1.58.61-3.17.51-4.78-.06-1.95-.94-3.9-2.49-5.11-1.38-1.06-3.1-1.57-4.8-1.83-5.28-.76-10.68-.44-15.87.71-1.62.35-3.23.77-4.81,1.25-.55.14-1.09.38-1.63.47-.81-2.15-1.4-4.38-1.71-6.66-.31-2.5-.08-5.04.34-7.52,4.73-1.51,9.58-2.65,14.51-3.28ZM329.23,158.74c-1.62.71-3.14,1.71-4.24,3.11-1.49,1.84-2.19,4.19-2.4,6.52-.1,1.3-.03,2.66.57,3.84.46.85,1.08,1.61,1.84,2.21,1.43,1.11,3.23,1.62,5,1.89,1.82.21,3.65.31,5.49.29,2.43-.04,4.81-.56,7.2-.94,1.04-6,2.07-12,3.1-18-2.98-.49-6.01-.84-9.04-.61-2.57.17-5.15.65-7.52,1.7Z"/>
    <path class="cls-2" d="M441.51,118.46c5.38-.7,10.86-.96,16.24-.19,4.01.59,8.01,1.81,11.37,4.13,1.74,1.21,3.33,2.68,4.51,4.46,2.17,3.23,2.98,7.18,3.08,11.03.08,2.82-.21,5.64-.67,8.41-2.37,13.7-4.73,27.4-7.1,41.1-4.19,1.24-8.46,2.18-12.75,2.99-5.41.97-10.93,1.3-16.42,1.22-2.72-.05-5.45-.25-8.14-.66-4.23-.63-8.51-1.84-11.97-4.44-2.7-1.99-4.68-4.91-5.58-8.13-.81-2.86-.79-5.88-.43-8.8.51-4.2,1.81-8.39,4.31-11.85,2.25-3.06,5.12-5.65,8.4-7.55,3.3-1.9,6.91-3.26,10.63-4.08,2.75-.6,5.54-1,8.35-1.18,4.01-.25,8.04-.03,12.05.3.28-1.57.61-3.16.51-4.77-.06-1.93-.92-3.87-2.45-5.08-1.41-1.11-3.2-1.62-4.95-1.88-5-.7-10.1-.45-15.03.57-2.43.49-4.83,1.15-7.18,1.91-.81-2.2-1.42-4.49-1.73-6.82-.29-2.46-.06-4.96.36-7.39,4.75-1.53,9.64-2.66,14.6-3.3ZM438.41,158.86c-1.6.72-3.07,1.78-4.13,3.19-1.41,1.84-2.07,4.16-2.25,6.44-.09,1.28,0,2.62.6,3.77.45.82,1.07,1.56,1.8,2.15,1.45,1.13,3.28,1.64,5.07,1.91,1.83.2,3.67.31,5.51.27,2.4-.06,4.76-.55,7.13-.95,1.03-6,2.07-12,3.1-17.99-3.06-.5-6.17-.85-9.27-.6-2.59.19-5.19.71-7.56,1.8Z"/>
    <path class="cls-2" d="M524.88,118.25c2.55-.51,5.18-.53,7.77-.34,3.55.28,7.17,1.09,10.16,3.11,1.44.97,2.69,2.22,3.64,3.67,1.12,1.7,1.83,3.65,2.23,5.65,2.06-2.89,4.61-5.42,7.45-7.54,1.51-1.13,3.1-2.18,4.84-2.94,3.38-1.53,7.13-2.12,10.83-2.05,3.67.07,7.43.57,10.75,2.21,1.77.87,3.37,2.11,4.6,3.66,1.28,1.6,2.13,3.51,2.66,5.48.95,3.59.96,7.36.63,11.04-.33,3.65-1.1,7.24-1.69,10.85-2.24,12.98-4.48,25.96-6.71,38.94-6.41,1.06-12.99,1.13-19.4,0,2.28-13.18,4.56-26.37,6.84-39.55.35-2,.62-4.02.69-6.05.05-1.88-.01-3.8-.55-5.62-.33-1.12-1.04-2.14-2.03-2.77-1.31-.85-2.9-1.1-4.42-1.13-1.81-.03-3.62.26-5.35.8-1.78.59-3.38,1.66-4.73,2.95-1.32,1.29-2.35,2.84-3.21,4.47-1.73,3.28-2.46,6.97-3.05,10.6-2.09,12.1-4.17,24.2-6.26,36.3-6.41,1.06-12.99,1.12-19.39,0,2.32-13.49,4.66-26.99,6.99-40.48.5-3.33.88-6.76.17-10.09-.27-1.38-1.03-2.7-2.24-3.45-1.71-1.07-3.83-1.19-5.79-1.07-2.06.18-4.15.59-5.96,1.63-1.73.99-3.2,2.4-4.34,4.04-1.95,2.77-3.14,6-3.89,9.29-.58,2.51-.94,5.05-1.4,7.58-1.87,10.85-3.75,21.69-5.62,32.54-6.4,1.07-12.99,1.12-19.39,0,4.06-23.52,8.12-47.04,12.18-70.56,2.46-.51,4.98-.79,7.5-.81,2.8-.07,5.61.19,8.35.81.31.81.38,1.68.45,2.54.17,2.42.1,4.84.03,7.26,2.21-3.04,4.99-5.68,8.21-7.63,2.61-1.57,5.47-2.75,8.46-3.36Z"/>
    <path class="cls-2" d="M194.08,133.04c2.67-.24,5.5-.07,7.93,1.17,1.63.83,2.94,2.22,3.72,3.87.95,2.01,1.35,4.23,1.51,6.44.19,2.95-.05,5.92-.49,8.84-.59,3.92-1.47,7.82-2.93,11.52-.89,2.24-2,4.4-3.46,6.32-1.08,1.43-2.41,2.69-3.95,3.62-1.94,1.19-4.19,1.83-6.45,2.01-2.39.17-4.89.03-7.1-.98-1.64-.73-3.02-2.01-3.88-3.59-.97-1.77-1.42-3.77-1.66-5.76-.34-3.06-.14-6.15.26-9.19.45-3.27,1.11-6.53,2.1-9.68.93-2.96,2.18-5.84,3.96-8.39,1.03-1.47,2.27-2.8,3.76-3.82,1.96-1.37,4.29-2.15,6.66-2.39Z"/>
    <path class="cls-2" d="M64.35,135.76c2.15-1.09,4.61-1.42,7-1.29,1.9.1,3.85.58,5.4,1.75,1.81,1.3,3.03,3.28,3.66,5.4.83,2.78.73,5.74.51,8.6-.41,4.15-1.25,8.28-2.74,12.18-1.46,3.79-3.72,7.38-6.99,9.86-3.12,2.43-7.06,3.66-10.99,3.79-3.14.09-6.32-.15-9.34-1.07,1.41-8.14,2.81-16.28,4.22-24.42.73-3.81,1.98-7.64,4.38-10.74,1.3-1.7,2.97-3.12,4.9-4.06Z"/>
  </g>
  <g>
    <path class="cls-4" d="M354.87,234.68c4.15-10.88,14.96-18.88,26.61-19.53,8.16-.63,16.71,2.05,22.52,7.93-.74,2.65-3.7,4.19-5.51,6.2-4.47-4.24-10.74-6.43-16.88-5.76-8.08.59-15.36,6.27-18.2,13.81-3.43,8.75-.73,19.57,6.73,25.39,8.49,6.96,22.52,6.28,29.63-2.34,2.19-2.6,3.08-5.96,3.51-9.26-6.53-.13-13.05.04-19.57-.11.02-2.76.03-5.52.04-8.29,9.19-.07,18.38.13,27.57-.13,1.32,5.06.63,10.41-.88,15.34-2.61,8.18-9.77,14.51-17.99,16.72-7.11,2.09-14.91,1.34-21.66-1.66-7.53-3.51-13.68-10.08-16.37-17.98-2.23-6.55-2.19-13.91.44-20.34Z"/>
    <path class="cls-4" d="M502.28,247.87c3.23-6.94,10.81-11.97,18.59-11.14,3.33.21,6.13,2.14,8.86,3.87,0-.7,0-2.11,0-2.81,2.72-.02,5.44-.03,8.17-.04.15,12.06.04,24.11.07,36.17,0,6.3-2.46,13.02-7.94,16.55-5.29,3.24-12.17,3.71-17.92,1.45-4.62-1.8-7.94-5.77-10.22-10.05,2.42-1.17,4.91-2.19,7.43-3.14,1.72,2.5,3.57,5.25,6.6,6.26,4.13,1.03,9.43.46,11.87-3.48,2.11-2.9,1.94-6.61,1.94-10-2.55,2.14-5.52,3.95-8.9,4.24-8.66.85-17.03-5.46-19.53-13.62-1.34-4.67-1.09-9.85.98-14.27ZM516.18,245.1c-7.31,3-9.53,13.58-4.08,19.29,3.44,4.25,10.54,4.81,14.51,1.02,4.34-4.13,4.86-11.38,1.69-16.35-2.42-4.03-7.79-5.7-12.12-3.96Z"/>
    <path class="cls-6" d="M543.86,217.44c2.84,0,5.67,0,8.52-.03-.02,19.01-.03,38.02,0,57.02-2.85,0-5.68,0-8.51-.02.03-18.99.07-37.98-.02-56.97Z"/>
    <path class="cls-5" d="M473.11,237.03c6.42-1.27,13.59.5,18.17,5.32,6.56,6.22,7.48,17.2,2.58,24.69-4.15,6.34-12.17,9.77-19.62,8.6-5.79-1.18-11.38-4.59-14.17-9.94-4.48-8.15-2.39-19.55,5.19-25.15,2.33-1.73,5.06-2.85,7.85-3.53ZM466.35,257.19c.32,5.64,5.22,11.27,11.19,10.64,4.92.44,8.95-3.65,10.38-8.03.58-3.43.3-7.01-1.08-10.21-1.79-1.69-3.43-3.78-5.87-4.51-2.53-.44-5.18-.47-7.68.13-4.67,1.84-7.32,7.13-6.94,11.99Z"/>
    <path class="cls-1" d="M561.81,242.19c5.11-5.41,13.77-7.17,20.5-3.91,5.22,2.49,8.59,7.73,10.24,13.13-8.65,3.45-17.18,7.23-25.87,10.61,1.44,3.7,5.32,6.22,9.3,5.89,3.96.32,7.33-2.21,9.59-5.23,2.14,1.46,4.62,2.58,6.35,4.57-5.76,9.79-20.76,11.34-28.92,3.7-8.24-7.07-8.52-20.96-1.19-28.76ZM565.2,255.52c5.86-2.42,11.77-4.74,17.51-7.43-1.71-1.99-3.91-3.75-6.67-3.8-6.06-.44-11.4,5.23-10.84,11.23Z"/>
    <path class="cls-1" d="M429.36,237.34c4.87-1.31,10.21-.71,14.69,1.6,5.22,2.79,9.15,8.09,9.9,14.01.95,5.56-.53,11.57-4.17,15.91-4.91,5.92-13.53,8.46-20.85,6.12-4.51-1.2-8.47-4.21-10.95-8.15-3.24-4.98-3.67-11.46-1.96-17.06,1.87-6.13,7.18-10.85,13.34-12.43ZM431.8,244.79c-5.3,1.39-8.79,7.02-8.14,12.37.13,5.8,5.27,11.28,11.26,10.73,6.37.23,11.25-6.35,10.61-12.39.16-6.87-7.06-12.79-13.74-10.71Z"/>
  </g>
  <text class="cls-3" transform="translate(214.9 234.23)"><tspan x="0" y="0">Powered by</tspan></text>
</svg>