<?xml version="1.0" encoding="UTF-8"?>
<svg id="Capa_1" data-name="Capa 1" xmlns="http://www.w3.org/2000/svg" xmlns:xlink="http://www.w3.org/1999/xlink" viewBox="0 0 1200 1200">
  <defs>
    <style>
      .cls-1 {
        fill: #fbef08;
      }

      .cls-2 {
        fill: aqua;
      }

      .cls-3 {
        fill: #fdf007;
      }

      .cls-4 {
        fill: #fe7e00;
      }

      .cls-5 {
        fill: #fcde9b;
      }

      .cls-6 {
        fill: #17629c;
      }

      .cls-7 {
        fill: #175c95;
      }

      .cls-8 {
        fill: #cb6c09;
      }

      .cls-9 {
        fill: #fcdb92;
      }

      .cls-10 {
        fill: #0aa0cb;
      }

      .cls-11 {
        fill: #18497a;
      }

      .cls-12 {
        fill: #fbef07;
      }

      .cls-13 {
        fill: #c4d0de;
      }

      .cls-14 {
        fill: #fed7b1;
      }

      .cls-15 {
        fill: #165a91;
      }

      .cls-16 {
        letter-spacing: 0em;
      }

      .cls-17 {
        letter-spacing: .05em;
      }

      .cls-18 {
        fill: #18609b;
      }

      .cls-19 {
        fill: #fecea0;
      }

      .cls-20 {
        fill: #1ea2cb;
      }

      .cls-21 {
        fill: #08a2cc;
      }

      .cls-22 {
        letter-spacing: .01em;
      }

      .cls-23 {
        fill: #fd9834;
      }

      .cls-24 {
        fill: #fcef07;
      }

      .cls-25 {
        fill: #00c9f8;
      }

      .cls-26 {
        fill: #f8c34b;
      }

      .cls-27 {
        fill: #1d5588;
      }

      .cls-28 {
        fill: #ace0ee;
      }

      .cls-29 {
        fill: #fec995;
      }

      .cls-30 {
        fill: #fb7f01;
      }

      .cls-31 {
        fill: none;
      }

      .cls-32 {
        fill: #4bb4d5;
      }

      .cls-33 {
        fill: #a7dbeb;
      }

      .cls-34 {
        fill: #fce806;
      }

      .cls-35 {
        letter-spacing: 0em;
      }

      .cls-36 {
        fill: #8ad3e7;
      }

      .cls-37 {
        fill: #fd7e00;
      }

      .cls-38 {
        fill: #fec790;
      }

      .cls-39 {
        fill: #1c61a3;
      }

      .cls-40 {
        fill: #a3d9e9;
      }

      .cls-41 {
        fill: #195287;
      }

      .cls-42 {
        fill: #1f5588;
      }

      .cls-43 {
        fill: #185d97;
      }

      .cls-44 {
        letter-spacing: 0em;
      }

      .cls-45 {
        fill: #005eb8;
        font-family: Flexo-Demi, Flexo;
        font-size: 45.02px;
        font-weight: 300;
      }

      .cls-46 {
        fill: #fce0a4;
      }

      .cls-47 {
        fill: #19609a;
      }

      .cls-48 {
        fill: #a0d7e9;
      }

      .cls-49 {
        letter-spacing: 0em;
      }

      .cls-50 {
        fill: #fc9834;
      }

      .cls-51 {
        fill: #faee08;
      }

      .cls-52 {
        fill: #1d6eb4;
      }

      .cls-53 {
        fill: #3bb4d6;
      }

      .cls-54 {
        fill: #fef106;
      }

      .cls-55 {
        fill: #f3b21f;
      }

      .cls-56 {
        fill: #96d7e9;
      }

      .cls-57 {
        fill: #165f98;
      }

      .cls-58 {
        fill: #f7ec0a;
      }

      .cls-59 {
        fill: #fcf007;
      }

      .cls-60 {
        fill: #1a3e74;
      }

      .cls-61 {
        fill: #195991;
      }

      .cls-62 {
        fill: #f8b41c;
      }

      .cls-63 {
        fill: #fec791;
      }

      .cls-64 {
        fill: #19568d;
      }

      .cls-65 {
        fill: #16588f;
      }

      .cls-66 {
        fill: #1c436a;
      }

      .cls-67 {
        fill: #fecb99;
      }

      .cls-68 {
        letter-spacing: -.01em;
      }

      .cls-69 {
        fill: #1a5182;
      }

      .cls-70 {
        fill: #fce0a2;
      }

      .cls-71 {
        fill: #a5ddec;
      }

      .cls-72 {
        fill: #184c7b;
      }

      .cls-73 {
        fill: #b9e2ee;
      }

      .cls-74 {
        fill: #b7e1ee;
      }

      .cls-75 {
        fill: #fefefe;
      }

      .cls-76 {
        fill: #98d4e7;
      }

      .cls-77 {
        fill: #38b2d5;
      }

      .cls-78 {
        fill: #cb6904;
      }

      .cls-79 {
        letter-spacing: 0em;
      }

      .cls-80 {
        fill: #a7daea;
      }

      .cls-81 {
        clip-path: url(#clippath);
      }

      .cls-82 {
        fill: #cf6c02;
      }

      .cls-83 {
        fill: #fdfdfd;
      }

      .cls-84 {
        fill: #005ab7;
      }

      .cls-85 {
        fill: #f8c349;
      }

      .cls-86 {
        fill: #39b4d6;
      }

      .cls-87 {
        fill: #175a92;
      }

      .cls-88 {
        fill: #fec893;
      }
    </style>
    <clipPath id="clippath">
      <rect class="cls-31" x="503.73" y="474.19" width="666.27" height="40.17"/>
    </clipPath>
  </defs>
  <path class="cls-25" d="M302.22,244.58c.09-1.89.23-3.78.26-5.67.23-16.09,3.01-19.63,18.85-23.03,6.65-1.42,13.47-1.22,20.21-.48,5.35.59,8.48,3.94,10.74,8.73,9.11,19.31,18.43,38.52,27.72,57.74.92,1.9,1.96,4.84,3.43,5.16,2.92.65,3.33-2.91,4.58-4.77,13.4-19.99,26.86-39.94,39.94-60.14,3.64-5.62,8.28-8.43,14.68-8.35,9.45.11,18.03,2.98,25.65,8.69,6.38,4.78,7.78,11.35,7.06,18.75,3.73,4.64.61,9.45-.13,13.91-5.63,34.03-10.72,68.12-14.21,102.45-.87,8.54-1.04,17.21-2.94,25.69-1.15,5.13-3.8,8.11-8.72,9.48-9.66,2.69-19.99-.11-24.72-6.81-2.61-4.48-1.68-9.41-1.73-14.18-.14-14.76-.15-29.51-.2-44.27-3.2-2.87-3.51-6.45-2.97-8.78-2.31,8.12-8.83,15.95-12.67,25.09-.21.49-.62.87-.99,1.26-5.91,6.18-25.41,6.45-32.03.44-5.37-7.65-10.74-15.3-16.11-22.95-4.1-2.55-7.48-5.88-10.81-10.59-1.28,19.45-.47,38.05-.65,56.64-.06,6.88.38,14.22-7.63,17.05-8.54,3.02-17.29,3.89-24.96-2.77-4.56-5.37-4.22-12.07-4.86-18.45-1.69-16.65-3.25-33.32-4.87-49.98-.12-5.44-.24-10.88-.36-16.33-1.48-5.95.6-12.13-1.19-18.06-.13-11.83-.25-23.66-.38-35.49Z"/>
  <path class="cls-4" d="M740.4,257.13c8.57-2.92,17.23-3.99,26.18-1.72,7,1.78,11.61,6.46,15.54,12.09,6.71,6.78,6.44,15.7,7.04,24.17,1.36,19.22-2.21,38.08-4.68,57.03-1.31,10.07-3.23,20.17-2.46,30.41.3,3.99.8,8.44,6.91,6.94,7.22-4.39,9.56-12.22,12.85-19.15,4.04-8.5,7.03-17.49,10.48-26.27,6.75-.36,14.1-2.69,18.22,5.55-5.24,20.75-11.73,40.83-28.46,55.78-8.16,7.29-17.97,6.11-27.63,6.09-4.85-1.21-9.87-1.71-14.55-3.65-16.24-10.76-18.4-36.1-12.67-52.5.97-12.32,4.79-24.06,7.28-36.07,1.44-6.94,2.64-13.94,3.95-20.91.37-.43.63-.9.68-1.42.61-6.65.11-14.74-5.38-17.42-5.26-2.56-10.42,4.08-14.62,8.12-7.74,7.46-12.68,16.6-16,26.85-3.14,9.68-9.04,16.64-20.56,15.93-3.83-.53-5.85-3.23-7.54-6.31-6.9-11.85-3.71-24.58-2.78-36.94.74-9.88,1.71-19.61-.9-29.32-7.5-3.97-11.01,1.51-14.31,6.43-8.35,12.43-14.16,26.15-19.13,40.18-6.95,19.64-12.69,39.62-15.36,60.38-.7,5.41-1.22,10.85,0,16.12,1.11,4.78.35,8.59-3.41,11.64-4.16,3.38-8.46,2.85-12.72.09-4.47-3.12-8.55-6.56-9.89-12.21.24-19.65-2.02-39.09-4.61-58.52-.39-2.95-1.32-5.78-1.63-8.73-.18-6.23-2.68-12.87,3.16-18.04,2.87-8.65,5.17-17.56,10.58-25.14,7.39-10.36,13.88-11.99,25.17-5.73,3.15,1.75,3.11-.69,3.98-1.93,3.43-4.86,6.25-10.22,10.15-14.65,17.4-19.77,40.97-17.45,54.56,5.04,3.26,5.39,5.01,11.35,7.05,17.78,5.26-3.4,10.38-6.71,15.51-10.02Z"/>
  <path class="cls-25" d="M225.73,335.93c8.86,5.2,16.37,3.21,22.47-6.25,7.59-11.78,9.57-25.17,10.16-38.75.52-12.15.32-24.34.36-36.51.06-16.27,10.26-23.17,25.78-17.38,1.01.38,2.02.74,3.04,1.11,1.56,2.69,3.11,5.38,4.67,8.06,4.45,7.34,3.26,15.74,3.48,23.55.56,19.66.53,39.47-3.92,58.77-4.9,21.25-14.33,39.66-35.74,49.03-17.54,7.67-34.64,6.45-51.2-3.04-26.01-14.56-34.97-38.71-37.47-66.51-.29-16.48.59-32.85,3.11-49.18,1.6-10.36,4.97-19.08,16.05-21.89,11.09-2.82,20.88-.49,27.95,9.35,6.96,7.81,4.89,16.99,4.2,26.09-1.31,17.34-5.19,34.71,1.4,51.96,1.57,4.11,4.37,7.44,5.67,11.57Z"/>
  <path class="cls-25" d="M108.41,280.63c9.88,5.31,20.74,8.4,30.44,14.24,10.02,6.03,17.27,14.07,21.9,24.65,8.06,14.41,4.19,28.31-2.8,41.43-16.89,31.69-61.07,33.47-81.72,13.58-4.37-4.67-8.92-9.19-13.05-14.06-5.76-6.8-5.83-14.78-.6-21.57,3.34-4.34,13.78-6.85,19.61-4.46,4.71,1.93,5.56,7.1,8.21,10.75,7.05,9.72,17.68,12.48,27.7,6.94,5.06-2.79,7.15-6.96,7.02-12.63-.12-5.56-1.82-9.62-7.21-12.43-9.45-4.93-19.93-6.67-29.69-10.58-18.15-7.27-31.12-19.12-34.93-39.07-2.32-12.15,1.69-23.06,8.86-32.38,20.87-27.17,60.97-23.24,82.07-7.57,2.54,1.88,4.36,4.73,6.51,7.14,4.79,7.52,4.85,16.42-.08,23.18-6.37,8.73-14.68,13.26-25.74,11.11-6.01-1.16-11.63-4.08-17.97-4.3-.82,2.47,1.73,3.92,1.47,6.04Z"/>
  <path class="cls-85" d="M764.78,140.39c2.51,7.27,1.4,14.99,2.7,22.41.21,1.2-.25,3.44-.98,3.73-7.95,3.13-5.81,10.33-6.63,16.19-1.59,11.33-2.86,22.7-4.28,34.17-3.1-.94-1.98-3.96-3.57-5.34-.41-12.41-.79-24.82-1.25-37.23-.06-1.74.64-4.31-1.97-4.6-2.46-.27-2.62,2.35-3.15,4.01-3.35,10.56-5.39,21.43-7.58,32.28-.82,4.07-2.47,7.97-4.59,11.82-2.1-5.47-1.11-10.9-.65-16.27.67-7.8,1.71-15.56,2.28-23.36.26-3.56.36-6.61-3.57-9.65-4.66-3.61-2.93-9.78-1.09-15,6.72-6.85,14.42-12.09,23.8-14.59,3.69-.99,7.44-2.11,10.53,1.42Z"/>
  <path class="cls-21" d="M652.55,189.39c-.88-2.1-1.77-4.2-2.81-6.69-6.8,12.12-6.37,25.48-8.5,38.25-.35,2.11-.21,4.31-1.82,6.01-3.49,1.68-6.98,5.29-10.78.9-3.26-3.77-1.82-7.52.93-10.98,1.15-9.74,2.29-19.47,3.44-29.21,1.13-4.83-1.52-10.03,1.43-14.68-.03-2.87.81-5.89-1.49-8.36-.54-.86-.42-1.61.36-2.27,12.51,1.37,24.19-3.41,36.31-4.94.3.31.6.63.9.94-5.71,5.69-2.51,12.99-3.57,19.53-3.95,4.9-5.7,12.57-14.42,11.49Z"/>
  <path class="cls-21" d="M632.85,163.64c.04.33.07.67.1,1-6.64-6.09-.04-13.07-1.31-19.51,1.98-2.88,3.81-5.8,6.89-7.81,8.67-5.65,15.98-12.72,22.16-21.08,3.01-4.08,6.55-8.05,12.54-7.5,4.66,1.28,3.16,4.46,2.3,7.44-8.54,6.4-8.04,14.86-6.16,24.12,1.19,5.87,4.63,11.84,1.15,18.08,0,0-.14-.08-.14-.08-5.73-2.33-9.42,3.35-14.81,3.71-7.55.5-15.24-.04-22.72,1.64Z"/>
  <path class="cls-61" d="M626.37,389.26c12.67-.38,13.91-1.93,13.17-15.04-.6-10.61.97-21.08,3.23-31.41,5.79-26.5,14.15-52.13,26.68-76.28,2.74-5.28,5.63-10.59,10.22-14.52,4.67-4.01,9.15-5.1,11.64,2.41-14.35,5.07-18.1,18.89-23.39,30.47-11.6,25.36-19.44,52.08-23.08,79.87-.63,4.85-.97,9.73.3,14.49,1.66,6.25-.8,10.61-6.11,13.48-5.14,2.78-9.36,1.07-12.64-3.48Z"/>
  <path class="cls-26" d="M758.08,70.53c3.94,1.64,5.85,4.03,3.47,8.37-5.68,10.34-4.41,13.7,6.55,17.77,2.94,4.14-.78,5.62-3.07,7.67-.48.64-.95,1.28-1.43,1.92-3.31,5.82-6.38,11.87-12.58,15.29-3.75,2.06-7.53,4.75-11.8.99.22-1.05.41-2.1.65-3.15q2.55-11.06-8.69-11.52c-12.9-.53-23.93-10.77-24.96-23.17,5.38,6.68,10.46,13.63,19.58,15.78,4.26,1,7.05,1.74,6.65-4.63-.49-7.79,2.92-14.6,7.98-20.51,5.14,5.5.56,9.85-1.84,14.61,3.38-4.43,6.71-.63,10.02-.23-1.95-6.27,2.43-15.14,9.47-19.18Z"/>
  <path class="cls-43" d="M204.82,374.54c22.74,8.37,44.5,8.6,63.78-8.4,13.91-12.27,19.66-28.84,22.34-46.47,3.71-24.38,3.79-48.92,1.25-73.45,4.08,3.1,5.2,7.79,5.2,12.29.03,23.49,1.94,47.11-3.15,70.35-5.11,23.3-16.07,42.34-39.06,52.46-15.63,6.89-40.09,3.7-50.38-6.78Z"/>
  <path class="cls-62" d="M739.22,122.53c7.28-.62,12.2-5.19,17.03-10.03,2.27-2.27,4.89-4.18,7.36-6.25-1.54,11.45.93,22.76,1.17,34.14-10.74.81-19.94,5.19-28.36,11.71-1.42,1.1-2.97,5.47-5.97,1.45.2-11.11,5.07-20.9,8.77-31.03Z"/>
  <path class="cls-86" d="M673.78,109.83c-5.62-.7-7.11,4.21-9.51,7.42-8.79,11.8-19.04,21.76-32.63,27.88-.03-1.62-.12-3.24-.09-4.86q.17-12.65-13.14-13.13c-1.62-3.51-1.79-6.79,1.54-9.5,7.99-2.35,16.67-3.13,22.73-9.92.73.25,1.34.67,1.86,1.24,1.75,2.31,1.55,5.45,3.16,8.39,4.04-2.22,4.95-6.3,7.25-9.21.33-.17.67-.34,1-.51,5.94,4.2,11.84-.45,17.76-.09.85-.13,1.66.18,1.68,1.01.02.79-.77,1.22-1.61,1.27Z"/>
  <path class="cls-87" d="M76.23,374.53c11.03,5.86,22.07,10.9,35.21,10.56,33.71-.85,56.84-29.99,49.53-63.15-.17-.79-.15-1.62-.22-2.42,4.28-.78,3.97,2.99,4.65,5.17,9.23,29.25-16.55,64.22-47.34,64.82-13.25.26-25.93-.6-37.02-8.98-2.21-1.67-4.63-2.83-4.82-5.99Z"/>
  <path class="cls-86" d="M652.55,189.39c5.36-3.14,7.85-9.87,14.42-11.49,1.23,13.94,2.44,27.89,1.81,41.89-.13,2.87-1.39,5.69-2.51,9.98-12.28-11.67-11.24-26.66-13.72-40.39Z"/>
  <path class="cls-39" d="M694.97,320.69c2.53,1.6,4.86,3.62,8.04,3.88,8.86,2.38,14.16-.17,18.42-9.57,3.88-8.57,6.18-17.84,12.64-25.21,4.14-4.72,8.4-9.17,13.78-12.44,2.84-1.73,6.02-3.41,9.11-1.36,3.58,2.37,2.6,5.93,1.17,9.26-13.27,1.25-18.25,11.94-23.95,21.49-3.3,5.52-5.23,11.85-8.52,17.38-3.96,6.68-10.62,9.2-18.06,8.02-6.33-1-11.99-3.72-12.63-11.46Z"/>
  <path class="cls-64" d="M758.13,285.26c-.11-2.57,1.32-5.79-1.83-7.27-2.49-1.17-4.6.88-6.62,2.18-11.61,7.49-19.2,18.04-23.61,31.02-1.49,4.38-3.03,8.84-6.61,11.96-5.02,4.38-10.44,7.08-16.45,1.43,10.93.47,15.22-6.86,17.82-15.65,3.66-12.33,10.15-22.72,20.16-30.77,2.71-2.18,5.81-4.12,9.04-5.32,5.41-2,9.3,0,9.53,6.06.2,5.34,1.11,10.84-1.17,16.05-.09-3.23-.18-6.46-.27-9.69Z"/>
  <path class="cls-7" d="M493.03,389.55c17.65-1.68,24.28-6.69,28.08-23.73,1.78-7.97,4.87-10.81,13.24-11.16,12.16-.5,24.32-.85,36.49-1.09,2.78-.05,6.26-1.28,6.99,3.23-12.85,1.4-25.73,2.06-38.67,1.73-7.78-.2-11.71,4.28-13.42,11.4-2.73,11.35-9.04,19.51-20.92,22.14-4.13.91-8.64,1.91-11.79-2.52Z"/>
  <path class="cls-18" d="M108.41,280.63c-4.37-1.75-11.35-3.54-9.45-8.53,1.63-4.3,8.62-1.92,13.13-.37,6.06,2.1,11.81,5.34,18.53,4.63,15.8-1.67,23.51-13.88,20.1-31.75,5.82,4.7,7.44,16.59,3.28,23.96-6.61,11.7-20.23,16.76-33.3,11.94-4.31-1.59-8.22-2.32-12.3.13Z"/>
  <path class="cls-53" d="M642.9,109.9c-.07-.72-.15-1.44-.22-2.17.93-4.66-1.78-8.28-3.5-12.18-4.39-9.97-2.36-13.54,8.57-15.1,2.67,1.82,5.45,3.62,2.23,7.25-.85.64-1.76,1.21-2.5,1.99.82-.99,2.01-1.49,3.01-2.24,2.04-1.62,3.62-4.56,6.96-2.41-.26,5.44.61,10.98-2.79,16.01-1.38,2.03-.22,4.59,1.29,6.6-.18.23-.37.45-.56.68-1.05,3.24-2.22,7.19-5.52,7.96-4.23.98-4.59-4.22-6.97-6.38Z"/>
  <path class="cls-47" d="M613.42,291.76c-.55,5.9-1.11,11.79-1.66,17.69-1.07,2.2,1.18,5.23-1.74,6.97-2.79-14.47-5.2-29.04-8.48-43.4-4.14-18.15-10.23-35.63-20.86-51.2,7.24,2.38,9.15,9.42,12.43,14.95,8.46,14.31,11.24,30.63,15.4,46.44.85,3.24.71,7.17,4.91,8.54Z"/>
  <path class="cls-8" d="M610.01,316.42c.58-2.32,1.16-4.64,1.74-6.97,3.14,8.4,3.68,17.38,4.23,26.08.87,13.78,5.05,27.65.51,41.52-.97-1.53-1.94-3.06-2.92-4.59,1.86-14.83-1.55-29.37-2.47-44.04-.25-4.01-.72-8-1.09-12Z"/>
  <path class="cls-77" d="M619.95,117.65c.02,3.25.14,6.52-1.54,9.5-10.34-3.09-20.28-6.8-26.22-17.25,8.84,4.28,17.63,8.64,27.76,7.75Z"/>
  <path class="cls-10" d="M673.78,109.83c.78-.78.77-1.54-.07-2.28,7.64-2.66,13.39-8.35,21.02-13.94-3.34,11.61-11.64,16.77-19.19,22.56-.59-2.11-1.17-4.23-1.76-6.35Z"/>
  <path class="cls-71" d="M649.21,86.64c2.16-2.68-5.18-3.14-1.45-6.19,1.05-.68,2.1-1.36,3.16-2.04,6.31-1.93,6.99,1.96,6.87,6.66,0,0-.32-.03-.32-.03-2.16,1.12-4.33,2.25-6.49,3.37-1.78.6-2.11-.25-1.77-1.76Z"/>
  <path class="cls-52" d="M302.6,280.07c2.12,5.91,1.22,12.02,1.19,18.06-2.58-5.88-.89-12.04-1.19-18.06Z"/>
  <path class="cls-75" d="M1111.23,309.67c-2.74-10.91-.85-22.02-1.32-33.03-1.05-24.57-1.59-49.16-2.27-73.74-.39-14,2.97-17.62,17.03-18.61,2.69-.19,5.4-.19,8.1-.27,13.37,3.48,14.35,5.01,13.71,18.23-1.63,33.93-3.61,67.83-7.09,101.64-.99,9.56-2.29,11.05-12.04,10.82-5.8-.13-11.93.42-16.12-5.04Z"/>
  <path class="cls-83" d="M1111.28,355.22c-3.14-14.29-.44-19.94,11.73-24.5,9.84,3.64,14.21,9.64,12.9,18.44-.87,5.83-3.47,10.83-9.63,12.67-6.74,2.02-11.2-1.68-15-6.61Z"/>
  <path class="cls-4" d="M994.59,253.77c-7.1-10.57-13.83-21.24-14.61-34.55-1.79-30.83,16.74-51.63,50.21-56.11,14.7.42,28.3,3.87,39.16,14.56,14.6,14.38,17.44,42.69,6.61,60.06-5.53,8.88-17.85,10.89-21.02-.18-2.53-6.8.67-14.8,8.07-20.18,3.27-11.02,1.69-21.13-7.31-28.7-10.23-8.61-22.22-9.74-34.3-4.51-10.54,4.56-13.4,14.11-13.7,24.72-.48,17.56,8.97,30.3,21.01,41.3,10.17,9.29,21.18,17.67,31.83,26.45,12.52,10.32,22.42,22.59,28.18,37.94,12,28.42-7.61,57.73-34.45,67.51-16.55,6.04-33.16,6.21-50.09,2.65-4.85-1.4-9.7-2.79-14.55-4.19-1.16-.53-2.89-1.36-4.94-2.47-4.06-2.2-7.15-4.32-8.17-5.06-6.23-4.55-11.75-13.95-14.54-23.59-2.4-8.29-2.37-16.03,1.58-23.71,3.32,3.91,5.71,8.79,11.13,10.47.26,4.25,3.76,5.88,6.57,8.08.86,1.27,1.68,2.56,2.68,3.72,8.51,16.39,23.67,16.41,38.73,14.82,14.78-1.56,26.19-9.29,30.68-24,2.81-9.22,1.62-18.64-3.94-27.2-7.78-11.99-18.15-21.31-29.35-29.91-10.13-7.78-18.83-16.92-25.48-27.9Z"/>
  <path class="cls-60" d="M1004.18,384.71c11.34.62,22.73,1.45,33.96-.8,36.76-7.37,53.28-30.12,50.57-69.36,6.08,6.7,7.5,14.89,5.97,23.26-4.93,26.94-22.53,44.56-49.58,49.76-13.8,2.65-27.72,4.28-40.93-2.86Z"/>
  <path class="cls-13" d="M1088.07,439.57c2.25-3.55,3.96-6.7,9.35-5.18-2.25,3.44-4.11,6.36-9.35,5.18Z"/>
  <path class="cls-4" d="M933.48,143.86c1.31-.1,2.61-.19,3.92-.29,2.69-.08,5.37-.15,8.06-.23,3.14-.44,4.63,1.64,6.38,3.77,3.93,4.76,9.4,7.71,14.2,11.45,2.63,2.05,6.13,3.54,5.68,7.85-2.75,16.78-7.17,33.1-13.2,48.99-6.95-2.34-10.23-7.62-10.27-16.51.83-.62,1.66-1.23,2.81-1.17.48.03.95.42,1.44.06-.46-.35-.62-.79-.61-1.35.05-2.07-.91-.33-1.05-.19-3.06,3.27-5.94,2.65-8.76-.31-2.67-4.56-8.93-6.9-8.38-13.46,1.3-6.56,2.11-13.27,4.05-19.63,1.62-5.34,1.06-7.87-5.04-8.32-1.99-.15-4.94-.92-5.32-4.07.07-.33.14-.67.21-1.01,1.36-2.49,4.15-3.48,5.87-5.58Z"/>
  <path class="cls-23" d="M971.72,166.41c-10.37-5.85-18.91-13.78-26.26-23.07,2.19-1.01,4.38-2.03,6.57-3.04,1.81,1.61,2.89,3.86,3.7,4.63-.91-.68-1.81-3.11-3.81-4.54,9.31-10.91,4.58-22.76,2.74-35.12,3,1.35,5.45-2.43,7.78-2.18,6.94.75,11.12,5.99,13.41,12.12,1.76,4.74-1.61,7.95-5.15,10.83-5.79,4.72-4.94,13.88,1.64,17.77,3.93,2.33,8.07,4.3,12.6,5.32,2.23.51,5.11.62,4.62,4.23-.09.33-.19.67-.28,1-1.46,2.31-3.57,4.23-4.22,7.04-4.4,1.78-11.17-2.77-13.33,4.99Z"/>
  <path class="cls-50" d="M948.94,199.32c3.2,5.36,6.39,10.72,9.59,16.08,2.31,11.94-8.66,19.17-10.56,29.64-.28,1.54-1.23,2.95-1.87,4.42-1.41,1.78-2.81,3.56-4.87,6.17-.72-11.21,5.25-20.93,1.1-30.97,2.68-.28,5.01,1.72,7.44,1.19-2.51.37-4.87-1.18-7.44-1.81-.11-1.33-.22-2.67-.33-4.02-11.83,6.15-17.07,19.88-30.26,24.83,2.09-2.92,4.33-5.75,6.23-8.79,3.38-5.42,7.09-10.51,5.16-17.86-1.01-3.84,2.49-7.48,4.16-11.14,1.68-3.68,3.3-7.38,4.95-11.08.35-.24.7-.49,1.05-.73,5.13,1.68,10.95.71,15.64,4.07Z"/>
  <path class="cls-37" d="M1002.53,296.36c4.53,1.13,8.98,2.57,11.59,6.79,2.72,4.39,3.8,9.23.38,13.65-3.98,5.14-8.91,3.97-13.75,1.05-6.89-1.36-10.68.76-14.42,7.93-1.25,2.4-1.16,6.34-5.67,5.32-3.19-6.5-11.26-5.24-15.66-9.81,6.67-17.09,19.46-24.98,37.53-24.92Z"/>
  <path class="cls-11" d="M867.41,378.15c9.48,2.67,18.39,6.87,28.75,6.78,41.81-.37,68.25-43.23,49.34-80.54-.73-1.44-1.4-2.91-2.1-4.36,5.61,2.25,7.81,7.28,9.78,12.33,8.28,21.26,2.73,47.26-13.18,62.23-16.43,15.46-43.65,19.65-64.42,9.93-3.21-1.5-6.34-3.11-8.18-6.37Z"/>
  <path class="cls-34" d="M965,321.28c6.62.9,15.46-2.58,16.82,8.6,1.82,2.5,1.13,4.77-.6,6.96-2.08,1.77-4.29,2.8-6.94,1.11-9.92,1.46-11.41-4.46-10.73-12.27.02-1.62-.35-3.37,1.45-4.41Z"/>
  <path class="cls-51" d="M888.79,411.68q-1.31-13.14,14.43-14.35c2.6,3.94,1.81,8.37.85,12.35-1.66,6.88-8.24,7.58-15.29,2Z"/>
  <path class="cls-24" d="M951.51,392.84c-2.85.07-13.2-7.73-12.13-9.18,2.94-4.03,6.48-7.79,10.38-10.9,1.71-1.37,9.58,8.09,9.56,11.66-.03,5.1-2.69,7.94-7.8,8.42Z"/>
  <path class="cls-59" d="M938.94,275.45c1.1-1.17,2.19-2.34,3.29-3.51,1.43-1.2,2.74-2.63,4.33-3.55,3.55-2.07,7.26-2.23,10.4.73,3.21,3.03,3.04,6.9,1.15,10.44-4.08,7.65-7.99,8.16-14.05,1.9-1.81-1.87-4.61-2.99-5.11-6Z"/>
  <path class="cls-23" d="M989.55,153.38c8.7,2.8,17.5,1.79,27.3.22-6.98,7.72-15.13,8.23-23.57,7.54-2.37-.19-4.67-1.44-7.06-.16-1.56-3.58,1.68-5.14,3.14-7.45l.19-.15Z"/>
  <path class="cls-19" d="M989.36,153.53c1.27,3.46-2.71,4.7-3.14,7.45,0,0-.5.47-.5.47,0,0-.67-.02-.67-.02.28-3.26-2.72-8.32,4.31-7.89Z"/>
  <path class="cls-20" d="M868.8,137.07c-2.08,14.27-4.13,28.55-6.29,42.81-.32,2.08-1.2,4.08-1.83,6.12-1.34.66-2.85.56-3.76-.39-7.7-8.06-17.24-14.3-23.42-23.85,1.72-12.23,3.1-24.52,5.32-36.66.88-4.8-.98-6.31-4.78-7.49-4.62-1.44-9.09-3.04-13-6.22-5.74-4.67-4.53-12.29-8.44-17.83,7.75,3.74,11.81,12.41,20.62,14.23,4.28,2.6,8.67,1.89,13.09.43,5.48,11.19,16.55,18.03,22.48,28.86Z"/>
  <path class="cls-32" d="M833.51,161.76c11.46,5.39,19.02,15.15,27.17,24.24-.5,6.83-1.18,13.65-1.41,20.49-.11,3.53-2.75,4.14-4.9,5.5-4.01,1.05-4.12,6.31-8.16,7.55-3.4-2.08.07-8.67-6.04-9.09-5.23-.36-5.11,6-9.71,7.05-8.8-19.2.7-37.31,3.04-55.75Z"/>
  <path class="cls-42" d="M788.94,386.06c-8.26,4.85-8.6-2.07-9.01-6.73-.95-10.56.79-21.06,2-31.54,1.99-17.19,5.27-34.23,4.91-51.66-.2-9.81-.93-19.44-4.71-28.62,10.29,6.22,9.38,17.05,10.2,26.65,1.62,19.01-3.16,37.56-5.46,56.28-1.15,9.35-2.86,18.68-2.5,28.19.13,3.41.32,6.63,4.57,7.44Z"/>
  <path class="cls-30" d="M833.21,299.65c3.2,1.34,5.6,3.49,6.92,6.76,3.03,7.71.51,14.27-4.19,20.41-2.74,1.57-5.47.28-8.2-.06-3.76-.98-8.59.37-10.43-4.78,1.43-4.28,3.29-8.48,4.2-12.87,1.37-6.61,5.04-9.72,11.7-9.46Z"/>
  <path class="cls-1" d="M841.35,287.24c-3.6-3.35-6.61-7.12-8.41-11.76.4-3.62,2.19-6.38,5.15-8.42,7.8-1.78,11.24,4.61,16,8.52.04,8.38-4.32,12.36-12.75,11.66Z"/>
  <path class="cls-5" d="M758.08,70.53c1.79,4.79-2.2,7.39-4.6,9.87-5.27,5.42-5.42,7.06,1.1,11.08-4.18-1.21-8.38,3.53-12.72-.6-1.44-1.37-1.35.96-1.32,1.58.17,3.54-3.98-.15-4.19,2.58-1.74-1.27-1.07-3.07-.46-4.34,2.35-4.9,3.85-10,4.54-15.37.43-.61.86-1.21,1.28-1.82,2.45-1.92,4.39.8,6.62.66,1.53-1.08.96-3.09,1.98-4.37,1.86-1.88,3.82-2.73,6.1-.67.56.46,1.12.93,1.68,1.39Z"/>
  <path class="cls-3" d="M817.31,321.98c3.7,1.15,8.13-1.15,11.33,2.38,3.67,4.99,3.77,10.53-.8,14.25-4.48,3.65-9.97,2.92-14.17-1.85-5.1-8.14-4.42-10.9,3.64-14.78Z"/>
  <path class="cls-55" d="M765.03,104.33c1.02-2.56,2.05-5.11,3.07-7.67,11.01.68,20.98-2.05,29.47-9.66-6.96,13.55-17.2,20.41-32.54,17.33Z"/>
  <path class="cls-82" d="M813.67,336.76c1.58.28,3.15.56,4.73.84,7.44,1.34,11.27-1.12,9.95-9.25-.21-1.28.18-2.65.29-3.98,2.1.5,4.2,1.01,6.3,1.51,3.03,6.69-.29,17.61-6.51,21.4-3.87-5.91-11.59-2.42-16.16-6.62-.27-1.56.37-2.8,1.4-3.89Z"/>
  <path class="cls-26" d="M750.07,76.99c-.64,3.43-1.75,5.14-4.73,1.5-1.31-1.6.08-5.16-3.63-4.97,3.7-5.47,7.92-9.19,14.69-4.38-1.92-.12-3.84-.24-4.77,1.99-1.64,1.66-1.9,3.68-1.56,5.86Z"/>
  <path class="cls-32" d="M868.8,137.07c-10.91-6.96-19.91-15.42-22.48-28.87,11.4-5.52,5.17-15.29,4.43-22.77-.7-7.05.81-8.98,7.21-8.55,6.24.41,11.38-4.5,18-3.37,3.99.68,7.42,1.17,9.36,5.09-.14,3.18-2.16,4.5-4.98,5.02-1.94,3.27,1.88,5.26,1.82,6.97-.17-1.59-3.27-3.52-2.09-6.61,2.91-.67,6.12-1.06,5.21-5.41,8.96,4.23,10.16,21.13,1.63,23.39-4.81,1.28-8.27-1.25-11.39-4.58-3.32-3.54-2.92-9.2-7.46-13.29-.59,4.91-2.15,8.22-4.96,11.38-4.84,5.44-1.17,15.54,6.41,20.75,10.05,6.91,21.19,6.52,34.7,4.87-4.58,5.93-7.56,10.71-14.06,11.09-4.59.27-9.42.79-13.76-.32-5.34-1.37-6.86.85-7.59,5.2Z"/>
  <path class="cls-41" d="M828.43,347.27c3.23-6.81,5.5-13.91,6.51-21.4,3.14-6.11,4.89-12.59,5.19-19.46,1.51.54,3.02,1.08,4.53,1.62-1.95,8.58-4.02,17.14-3.58,26.04-7.09,8.73-9.57,19.6-13.64,29.71-5.36,13.3-9.95,26.93-21.03,36.97-9.23,8.37-23.64,10.76-31.79,5.11,21.28,2.29,33.71-8.8,41.64-27.15,4.46-10.33,9.2-20.54,12.16-31.44Z"/>
  <path class="cls-58" d="M888.62,262.29c-.12-2.4-.28-4.81-.35-7.21-.13-4.15.06-8.42,4.57-10.22,4.06-1.61,7.91-.63,10.84,2.9,4.8,5.46,5.64,10.9,2.29,14.87-3.59,4.25-10.51,4.12-17.34-.34Z"/>
  <path class="cls-27" d="M888.62,262.29c1.6-.05,3.2-.06,4.79-.15,12.64-.75,12.84-1.02,10.26-14.37,7.48.77,7.7,6.39,7.56,11.85-.11,4.48-1.41,9.07-6.91,9.11-5.91.05-13.5,3-15.7-6.44Z"/>
  <path class="cls-4" d="M927.4,150.45c-13.65-4.42-15.62-5.87-19.67-16.02,8.45,6.79,15.98,11.47,25.47,9.42-.65,3.15-3.85,4.07-5.53,6.31l-.27.29Z"/>
  <path class="cls-69" d="M841.35,287.24c5.62-2.39,9.08-7.13,12.75-11.66,6.43,3.51,3.22,7.3.02,10.62-3.78,3.93-7.92,8.16-12.77,1.04Z"/>
  <path class="cls-50" d="M933.71,182.47c2.99,4.24,8.03,6.69,10.21,11.64-3.2,4.61-7.54,1.29-11.35,1.62,0,0-.33.25-.33.25-2.79-4.86.1-9.1,1.47-13.51Z"/>
  <path class="cls-38" d="M942.33,224.05c4.35-.12,8.83-1.89,14.01,1.39-5.55,3.92-9.87,4.1-14-.77,0,0,0-.62,0-.62Z"/>
  <path class="cls-27" d="M904.79,275.03c-5.92.04-11.84.07-17.77.11,5.91-2.13,11.83-2.03,17.77-.11Z"/>
  <path class="cls-29" d="M927.67,150.16c-.11-3.82,3.51-4.37,5.53-6.31,0,0,.29.02.29.02-1.3,2.69.54,8.27-5.82,6.3Z"/>
  <path class="cls-18" d="M424.63,385.95c5.6,4.62,12.42,5.02,19.1,4.85,8.99-.23,11.96-3.24,12.89-13.21,2.65-28.23,6.07-56.37,10.3-84.4,2.62-17.35,5.6-34.64,8.42-51.96.84-1.6,1.69-3.21,2.9-5.53,3.58,6.88.45,12.95-.52,18.7-6.63,39.66-12.76,79.36-15.83,119.48-.31,4.03-.97,8.06-1.88,12-1.71,7.42-6.67,10.09-17.92,10.06-11.71-.04-15.55-2.23-17.47-9.99Z"/>
  <path class="cls-6" d="M313.88,382.89c7.03,3.16,14.34,2.35,21.5,1,5.82-1.1,8.31-5.04,8.24-11.19-.22-18.68-.15-37.36-.01-56.03.03-4.5.72-9,1.25-15.13,5.85,7.37,9.39,14.25,13.07,21.02-6.36-1.73-8.7.18-8.42,7.21.57,14.29.37,28.62.08,42.92-.21,10.19-4.39,14.63-14.87,17.14-9.99,2.39-16.78.13-20.83-6.95Z"/>
  <path class="cls-15" d="M225.73,335.93c-12.81-12.15-12.72-27.92-11.97-43.72.49-10.26,1.69-20.49,2.49-30.74.4-5.16,0-10.26-1.8-15.17,8.06,1.8,7.68,8.99,7.96,14.48.43,8.52-.2,17.23-1.6,25.66-2.66,16.09-1.97,31.57,5.21,46.46.37.78-.18,2-.3,3.02Z"/>
  <path class="cls-57" d="M374.03,345.51c7.31,2.78,14.81,2.29,22.28,1.04,5.38-.9,9.1-3.83,11.38-9.11,4.54-10.54,9.57-20.87,16.25-30.9-.41,6.98-.83,13.97-1.24,20.95-6.98,1.95-8.58,8.4-11.44,13.75-5.52,10.35-25.52,15.29-35.27,8.6-1.46-1-3.6-1.87-1.95-4.34Z"/>
  <path class="cls-25" d="M476.88,375.88c-3.79-21.29,3.93-41.17,8.2-61.32,5.94-28.05,13.7-55.75,29.27-80.34,10.05-15.88,23.41-26.94,43.74-25.79,9.17,1.69,16.04,7.26,22.57,13.4,11.08,11.47,16.2,25.99,20.36,40.84,4.99,17.85,8.97,35.96,11.48,54.36,2.02,14.64,2.55,29.43,4.63,44.06.59,4.14,1.61,8.84-3.56,11.37-3.44,4.18-6.68,8.33-12.91,8.75-12.16.81-17.82-3.7-21-17.57-.53-2.3.28-4.95-1.83-6.83-4.02-2.76-8.3-1.17-12.55-.87-9.15.64-18.32-.03-27.51.59-8.68.59-13.22,4.25-14.73,12.73-2.06,11.56-9.19,18.52-20.61,21.17-3.26.76-6.41.94-9.41-.87-7.2-2.41-12.17-7.46-16.15-13.67ZM546.01,270.3c-3.83,10.08-6.94,20.42-9.44,30.88-1.38,5.8-4.53,11.77-1.29,18.02,10.23.14,20.47.16,30.7.47,4.11.12,6.11-.95,5.17-5.46-3.77-18.13-6.65-36.49-14.54-53.5-6.34.1-8.71,4.63-10.6,9.6Z"/>
  <path class="cls-65" d="M556.61,260.7c-13.13,14.65-14.86,33.65-19.63,51.49-.62,2.32-1.13,4.67-1.69,7.01-3.24.52-5.62-.24-4.69-4.13,4.51-18.81,8.37-37.82,16.8-55.44,1-2.08,1.93-5.19,4.72-4.92,3,.29,4.01,3.2,4.49,5.98Z"/>
  <path class="cls-12" d="M841.29,372.84c6.26,1.62,8.89,7.3,12.84,11.51-2.56,8.85-6.69,11.32-14.48,8.65-2.95-.8-4.43-3.36-6.39-5.33-1.63-7.28,5.05-10.05,8.04-14.82Z"/>
  <path class="cls-9" d="M754.44,160.09c2.36,0,2.91-.06,3.44.01,2.27.29,5.81-.86,6.08,2.35.33,3.92-4.24,3.82-6.02,3.39-6.89-1.63-13.06,1.14-19.54,2.01-1.98.27-4.89,1.09-5.2-2.03-.22-2.25,2.21-2.74,4.13-3.04,6.3-1,12.59-1.98,17.11-2.69Z"/>
  <path class="cls-36" d="M632.85,163.64c6.47-5.51,14.56-3.26,21.67-3.34,5.53-.06,10.12-6.22,15.87-2-12.03,5.15-24.28,8.78-37.53,5.34Z"/>
  <path class="cls-70" d="M745.1,95.7c1.55-.06,2.73.75,3.09,2.1,1.12,4.23,3.73,5.74,7.85,4.57,2.13-.6,3.35.28,3.09,2.21-.33,2.45-2.27.74-3.41,1.03-5.55,1.42-7.52-6.52-12.98-4.55-.08-1.32-.34-2.66-.18-3.94.17-1.33,1.47-1.33,2.54-1.43Z"/>
  <path class="cls-28" d="M642.9,109.9c2.09,1.64,4.19,3.28,6.58,5.15,2.93-1.22,2.62-5.69,5.91-6.72,3.69,5.7-3.2,8.41-3.87,13.03-.31,2.14-3.01.26-4.55-.81-3.83-2.64-3.79-6.69-4.07-10.65Z"/>
  <path class="cls-56" d="M649.21,86.64c.59.59,1.18,1.18,1.77,1.76-4.93,2.43-2.63,8.34-6.38,11.5-.17-4.92-.39-9.84,4.61-13.26Z"/>
  <path class="cls-66" d="M979.48,336.14c1.55-1.79,2.69-3.73,2.34-6.24.9-7.01,5.17-11.42,11.19-14.39,3.2-1.58,6.19-1.82,7.74,2.35-7.63,1.81-11.95,6.54-12.97,14.36-.81,6.23-4.01,11.56-6.68,17.09-.59-1.28-1.17-2.55-1.76-3.83-1.65-3.13-2.25-6.25.13-9.33Z"/>
  <path class="cls-78" d="M979.48,336.14c-.04,3.11-.09,6.22-.13,9.33-3.28-2.73-8.8-.21-11.42-4.69,1.39-2.94,4.63-1.17,6.37-2.83,1.72-.6,3.45-1.21,5.19-1.82Z"/>
  <path class="cls-11" d="M839.65,392.99c6.98.72,9.74-5.61,14.48-8.64,4.39,6.52-1.03,9.07-5.12,11.6-3.78,2.35-7.66,2.51-9.36-2.96Z"/>
  <path class="cls-54" d="M851.4,362.74c-4.9-9.03-10.12-17.95-10.31-28.67-4.15-6.6-2.61-17.84,3.58-26.04,9.18-17.32,22.76-28.98,42.36-32.89,5.92-.85,11.84-.62,17.76-.11,3.27.68,6.54,1.36,9.82,2.04,11.62,5.11,21.44,12.49,28.8,22.95,11.78,11.41,14.62,37.66,5.76,55.35-15.54,31.04-52.44,41.41-81.75,22.77-6.9-3.52-11.1-9.82-16.01-15.41ZM925.68,306.08c-18.47-19.52-49.91-15.17-61.89,8.81-7.05,14.11-4.44,27.71,3.56,40.68,13.57,15.48,35.05,18.03,51.87,6.16,16.29-11.49,21.12-32.75,11.45-50.36-2.04-1.41-3.31-3.53-4.98-5.29Z"/>
  <path class="cls-72" d="M930.66,311.37c-6.57-2.65-10.79-8.64-17.41-11.55-14.21-6.24-26.78-3.1-37.78,6.17-11.71,9.86-15.75,22.88-11.52,38,1.08,3.87,3.75,7.28,3.4,11.57-11.23-11.9-13.09-25.84-7.24-40.43,6.17-15.41,18.4-24.09,35-24.56,15.71-.44,28.1,6.34,35.55,20.79Z"/>
  <path class="cls-67" d="M932.57,195.73c3.38-3.4,7.72-.04,11.35-1.62,1.79.93,2.72,3.9,5.86,1.03,1.67-1.53,5.39-.8,8.35-.04-1.35.44-2.71.88-4.55,1.48,1.99.48,3.46.84,4.93,1.19l.07.93c-3.21.21-6.43.41-9.64.62-5.45-1.23-11.95,2.34-16.37-3.59Z"/>
  <path class="cls-63" d="M951.93,140.39c4.11-1.19,6.37,6.19,11.04,2.38.55.9,1.35,1.74,1.59,2.72.49,1.99-1.1,2.8-2.54,3.49-4.82,2.29-8.78-1.16-9.99-8.69,0,0-.11.09-.11.09Z"/>
  <path class="cls-88" d="M968.63,110.26c-2.73,1.03-5.22,4.24-8.51,1.67-.47-.37-.66-2.09-.42-2.23,2.88-1.67,5.79.02,8.93.55Z"/>
  <path class="cls-14" d="M933.82,222.66c-2.43,1.39-4.7,3.94-7.1.71-.37-.5-.46-1.9-.13-2.13,2.76-2.02,4.81,1.03,7.23,1.42Z"/>
  <path class="cls-33" d="M829.36,204.18c5.86-1.17,10.27,1.06,15.33,1.79q-10.61,2.47-15.33-1.79Z"/>
  <path class="cls-46" d="M750.07,76.99c-1.95-1.18-3.58-2.3-2.27-5.14,1.12-2.42,2.42-1.27,3.83-.72-.17,2.04,2.2,4.77-1.56,5.86Z"/>
  <path class="cls-74" d="M861.04,110.87c-.81,3.34-2.1,5.99-5.05,6.12-3.48.15-4.6-3.07-5.69-5.77-.65-1.62.56-2.88,1.82-2.68,3,.48,5.92,1.51,8.92,2.34Z"/>
  <path class="cls-48" d="M878.27,76.17c1.67,3.98-7.94-2-2.54,4.68.72.89-1.42.91-2.36,1.03-2.24.28-3.34-.9-4.13-2.89-.74-1.87.45-2.4,1.64-2.95,2.59-1.2,5.15-1.07,7.38.13Z"/>
  <path class="cls-40" d="M880.37,83.36c1.15,4.52,2.98,8.65,7.07,11.62-2.22,2.12-4.33,2.47-6.73,1.39,2.47-4.35-3.92-8.51-.28-12.88l-.06-.13Z"/>
  <path class="cls-80" d="M862.75,80.11c6.2,3.25.7,6.23-.35,9.16-.67,1.87-1.88.28-1.97-.43-.18-1.45-4.44-1.69-1.27-3.94,1.27-.9,1.65-2.03,1.85-3.38-.16-1.37-.11-2.49,1.74-1.42Z"/>
  <path class="cls-76" d="M885.28,78.56c1.73,2.8,4.18,5.48,1.51,9.02-3.08-.13-4.15-3.08-6.42-4.23,0,0,.06.13.06.13,1.63-1.63,3.26-3.26,4.89-4.89,0,0-.04-.03-.04-.03Z"/>
  <path class="cls-73" d="M862.75,80.11c-.58.47-1.16.95-1.74,1.42-.93.47-1.84,1.31-2.79,1.34-1.85.06-4.9,1.43-5.11-1.57-.25-3.55,3.03-2.86,5.25-2.63,1.49.16,2.92.94,4.38,1.44Z"/>
  <text class="cls-45" transform="translate(349.78 466.33)"><tspan x="0" y="0">EN</tspan></text>
  <text class="cls-45" transform="translate(513.73 467.17)"><tspan x="0" y="0">DE </tspan><tspan class="cls-17" x="67.08" y="0">L</tspan><tspan x="91.42" y="0">A D</tspan><tspan class="cls-49" x="163.47" y="0">I</tspan><tspan class="cls-16" x="176.36" y="0">V</tspan><tspan x="204.95" y="0">E</tspan><tspan class="cls-22" x="230.06" y="0">R</tspan><tspan class="cls-35" x="259.41" y="0">SI</tspan><tspan class="cls-68" x="296.61" y="0">D</tspan><tspan x="326.18" y="0">AD E IN</tspan><tspan class="cls-79" x="479.31" y="0">C</tspan><tspan class="cls-49" x="504.54" y="0">L</tspan><tspan class="cls-44" x="527.18" y="0">U</tspan><tspan class="cls-35" x="557.13" y="0">SIÓN</tspan></text>
  <path class="cls-84" d="M453.9,409.9c4.31-.43,8.69-.23,12.93.63,6.64,1.33,12.95,4.28,18.24,8.51,3.89,3.1,7.25,6.88,9.86,11.12,2.21,3.59,3.89,7.5,4.96,11.57-1.06-1.21-2.44-2.11-3.93-2.67-1.23-.45-2.54-.67-3.85-.75-1.4-.08-2.82-.01-4.2.23-2.62.45-5.1,1.64-7.1,3.38-2.04,1.77-3.56,4.08-4.57,6.58-.53,1.29-.92,2.62-1.2,3.98-.33,1.64-.5,3.31-.42,4.98.07,1.37.3,2.74.78,4.03.59,1.59,1.55,3.06,2.9,4.1,1.36,1.07,3.02,1.74,4.72,2.02,1.23.21,2.48.26,3.73.22,1.82-.07,3.63-.4,5.32-1.08,1.49-.59,2.89-1.42,4.11-2.46,2.31-1.96,3.97-4.61,4.92-7.47,0,.37-.07.75-.1,1.12-.45,3.72-1.39,7.38-2.79,10.86-2.52,6.27-6.56,11.93-11.65,16.36-5.08,4.44-11.21,7.66-17.76,9.3-8.06,2.03-16.72,1.67-24.57-1.05-3.8-1.31-7.41-3.16-10.69-5.48-3.19-2.24-6.07-4.92-8.54-7.94,1.33-.44,2.57-1.22,3.45-2.31.33-.41.6-.88.77-1.38.1-.25.12-.53.17-.79.46-2.65.91-5.29,1.37-7.94,2.05.35,4.16.35,6.22.08,3.26-.43,6.44-1.72,8.96-3.86,2.17-1.82,3.8-4.23,4.84-6.86.7-1.78,1.13-3.65,1.38-5.54.27-2.02.33-4.1-.11-6.11-.32-1.52-.94-3-1.97-4.17-.93-1.1-2.18-1.9-3.54-2.33-1.03-.34-2.12-.49-3.2-.5-.94,0-1.88.1-2.79.36-1.59.47-3.11,1.25-4.34,2.37-.65.6-1.24,1.26-1.76,1.97.01-.55.05-1.11.03-1.66-.02-.5-.05-.99-.09-1.49-.03-.31-.06-.62-.18-.91-1.13-.24-2.28-.35-3.43-.32-.95,0-1.91.07-2.84.27-2.1,12.15-4.2,24.3-6.29,36.45-1.82-2.94-3.28-6.09-4.34-9.38-2.57-7.92-2.76-16.59-.56-24.62,1.71-6.29,4.89-12.17,9.2-17.05,4.44-5.06,10.08-9.06,16.34-11.55,3.71-1.49,7.63-2.45,11.61-2.85M458.76,438.64c-1.62,9.43-3.26,18.87-4.88,28.3.38.06.76.12,1.15.17.65.08,1.31.05,1.96-.01.94-.1,1.87-.32,2.73-.71.62-.29,1.21-.67,1.67-1.19.42-.46.72-1.03.83-1.65.56-3.25,1.12-6.5,1.68-9.75.24-1.41.55-2.82,1.13-4.13.33-.72.76-1.4,1.25-2.01.85-1.06,2.04-1.86,3.37-2.17.9-.18,1.81-.26,2.73-.24.63,0,1.27,0,1.89.1.5-1.3.82-2.66,1.07-4.03.16-.92.28-1.86.27-2.79-.32-.1-.65-.13-.99-.16-.54-.04-1.09-.07-1.63-.05-1.44.05-2.88.45-4.09,1.24-1.34.88-2.56,1.93-3.62,3.13.03-.96.07-1.91,0-2.87-.03-.38-.04-.78-.19-1.13-.9-.19-1.81-.35-2.73-.37-1.21-.03-2.41.08-3.59.33M489.22,444.4c1.07-.1,2.2-.03,3.18.47.65.33,1.18.89,1.49,1.55.38.81.54,1.7.6,2.58.08,1.18-.02,2.37-.19,3.54-.24,1.57-.59,3.13-1.17,4.61-.36.9-.8,1.76-1.38,2.53-.43.57-.96,1.08-1.58,1.45-.78.48-1.68.73-2.58.81-.96.07-1.96.01-2.84-.39-.66-.29-1.21-.81-1.55-1.44-.39-.71-.57-1.51-.66-2.31-.14-1.22-.06-2.46.1-3.68.18-1.31.44-2.61.84-3.88.37-1.18.87-2.34,1.59-3.36.41-.59.91-1.12,1.5-1.53.78-.55,1.72-.86,2.67-.96M437.25,445.49c.86-.44,1.85-.57,2.81-.52.76.04,1.54.23,2.16.7.73.52,1.21,1.31,1.47,2.16.33,1.11.29,2.3.2,3.44-.16,1.66-.5,3.32-1.1,4.88-.59,1.52-1.49,2.96-2.8,3.95-1.25.98-2.83,1.47-4.4,1.52-1.26.04-2.53-.06-3.74-.43.56-3.26,1.13-6.52,1.69-9.78.29-1.53.79-3.06,1.75-4.3.52-.68,1.19-1.25,1.96-1.63h0Z"/>
  <g class="cls-81">
    <path class="cls-2" d="M1169.06,489.72c-.32,9.27-3.05,16.54-8.01,16.74-8.65.4-17.31,4.43-25.96,2.62-9.29-2.01-18.1-.2-27.07,2.82-1.76.61-3.36,1.41-4.97.2-4.16-3.43-8.49-1.62-12.81-1.01-6.41.81-12.65,4.44-19.06-.61-.96-.8-2.56-.2-3.85.2-17.14,6.25-34.6,1.21-51.9,1.82-4.16-3.63-8.49.8-12.65-.2-4.81-1.21-9.45-1.21-14.26-.61-8.17.81-16.5,3.23-24.51-1.62-1.44-.8-3.36-.4-5.13-.4-7.36-.2-14.74,0-22.11-.81-4-.4-7.69-.81-11.21,2.62-1.92,2.01-4.16.81-6.25,0-7.85-3.23-17.94-5.65-23.87-3.83-4.97,1.42-9.45,1.01-14.26-.2-3.37-.8-6.89-1.21-10.42-1.41-39.73-1.42-79.45-3.03-119.19-6.25-20.51-1.61-41.01-2.82-61.51-4.23-7.85-.61-15.7-2.22-23.55-2.43-28.83-1-57.67-1-86.51-3.62-8.81-.81-17.14-3.83-25.95-4.64-14.74-1.61-29.64-4.03-44.37-6.05-2.08-.4-4.17-1-4.97-4.64,18.42,1.42,36.69,3.43,54.79,4.24,15.22.8,30.43.4,45.65.4,10.89,0,21.79-.19,32.68.2,18.42.61,36.69,2.43,55.1,2.43,10.58,0,20.99.8,31.4,1.61,10.9.81,21.79.2,32.52,1.01,33.48,2.42,66.96,4.64,100.6,2.82,5.93,3.22,12.18-1.42,18.1.6,8.33,3.03,16.34,2.82,24.67.4,2.4-.8,5.29-.2,7.85,0,7.37.61,14.74,1.42,22.11,1.82,19.7,1.21,39.25,1.21,58.79-2.43,1.28-.19,2.89-.8,3.84,0,7.37,5.05,15.22.2,22.91,2.02,5.13,1.21,11.37,1,16.82-.2,9.77-2.22,19.54-1.62,29.32-3.03,6.25-1.01,12.01,1.81,18.1,1.61,9.13-.4,18.42-.4,27.55-1,13.46-.81,27.07-.61,40.38-3.83,5.28-1.41,10.41-.81,15.7-.61,4.96.4,5.6,1.62,5.44,7.47Z"/>
  </g>
</svg>