<?xml version="1.0" encoding="UTF-8"?>
<svg id="Capa_1" data-name="Capa 1" xmlns="http://www.w3.org/2000/svg" xmlns:xlink="http://www.w3.org/1999/xlink" viewBox="0 0 802.35 756.86">
  <defs>
    <style>
      .cls-1 {
        fill: #6fc7da;
      }

      .cls-2 {
        fill: #1a5a93;
      }

      .cls-3 {
        fill: #cb6d14;
      }

      .cls-4 {
        fill: #3bb4d6;
      }

      .cls-5 {
        fill: #fbc794;
      }

      .cls-6 {
        fill: #b34693;
      }

      .cls-7 {
        fill: #b8e1ed;
      }

      .cls-8 {
        fill: #fcdb92;
      }

      .cls-9 {
        fill: #1a3f73;
      }

      .cls-10 {
        fill: #ef7d1a;
      }

      .cls-11 {
        fill: #fce810;
      }

      .cls-12 {
        fill: #fbc691;
      }

      .cls-13 {
        fill: #1d578e;
      }

      .cls-14 {
        fill: #fefefe;
      }

      .cls-15 {
        fill: #fce0a5;
      }

      .cls-16 {
        letter-spacing: .05em;
      }

      .cls-17 {
        fill: #efbe2c;
      }

      .cls-18 {
        fill: #40377a;
      }

      .cls-19 {
        fill: #20a2cb;
      }

      .cls-20 {
        fill: #1a5990;
      }

      .cls-21 {
        fill: #a8dae9;
      }

      .cls-22 {
        fill: #aeddec;
      }

      .cls-23, .cls-24 {
        fill: #fff;
      }

      .cls-25 {
        fill: #fbc692;
      }

      .cls-26 {
        letter-spacing: -.01em;
      }

      .cls-27 {
        fill: #0ea2cc;
      }

      .cls-28 {
        fill: #3ab5d6;
      }

      .cls-29 {
        fill: #f07e19;
      }

      .cls-30 {
        fill: #a9dbea;
      }

      .cls-31 {
        fill: #16639d;
      }

      .cls-32 {
        fill: none;
      }

      .cls-33 {
        fill: #fcde9b;
      }

      .cls-34 {
        fill: #205689;
      }

      .cls-24 {
        font-family: Flexo-Demi, Flexo;
        font-size: 20.08px;
        font-weight: 300;
      }

      .cls-35 {
        fill: #4cb4d5;
      }

      .cls-36 {
        letter-spacing: 0em;
      }

      .cls-37 {
        fill: #fccfa2;
      }

      .cls-38 {
        fill: #cf6d13;
      }

      .cls-39 {
        fill: #175b93;
      }

      .cls-40 {
        letter-spacing: 0em;
      }

      .cls-41 {
        clip-path: url(#clippath-1);
      }

      .cls-42 {
        fill: #1f5689;
      }

      .cls-43 {
        fill: #185b93;
      }

      .cls-44 {
        fill: #f4973a;
      }

      .cls-45 {
        fill: #f9e929;
      }

      .cls-46 {
        letter-spacing: 0em;
      }

      .cls-47 {
        fill: #166099;
      }

      .cls-48 {
        fill: #a5d9e8;
      }

      .cls-49 {
        fill: #f3b321;
      }

      .cls-50 {
        fill: #1d6fb5;
      }

      .cls-51 {
        fill: #f7e926;
      }

      .cls-52 {
        fill: #6abda3;
      }

      .cls-53 {
        fill: #98d5e7;
      }

      .cls-54 {
        fill: #1f62a4;
      }

      .cls-55 {
        fill: #1c446b;
      }

      .cls-56 {
        fill: #98d4e7;
      }

      .cls-57 {
        fill: #194d7c;
      }

      .cls-58 {
        fill: #f9b521;
      }

      .cls-59 {
        fill: #c4d0de;
      }

      .cls-60 {
        letter-spacing: 0em;
      }

      .cls-61 {
        fill: #1a5e98;
      }

      .cls-62 {
        fill: #1b5283;
      }

      .cls-63 {
        letter-spacing: 0em;
      }

      .cls-64 {
        fill: #0fa0cb;
      }

      .cls-65 {
        fill: #f4e728;
      }

      .cls-66 {
        fill: #bbe2ee;
      }

      .cls-67 {
        fill: #f07f17;
      }

      .cls-68 {
        letter-spacing: 0em;
      }

      .cls-69 {
        fill: #19619d;
      }

      .cls-70 {
        fill: #6d71b4;
      }

      .cls-71 {
        fill: #fce0a2;
      }

      .cls-72 {
        fill: #fbcb9a;
      }

      .cls-73 {
        fill: #f8c34b;
      }

      .cls-74 {
        fill: #8dd1e5;
      }

      .cls-75 {
        fill: #fcd7b2;
      }

      .cls-76 {
        fill: #a1d7e9;
      }

      .cls-77 {
        fill: #e68eaf;
      }

      .cls-78 {
        fill: #cb6a15;
      }

      .cls-79 {
        fill: #f7e826;
      }

      .cls-80 {
        fill: #f8e928;
      }

      .cls-81 {
        fill: #35beed;
      }

      .cls-82 {
        fill: #175d97;
      }

      .cls-83 {
        fill: #1a619c;
      }

      .cls-84 {
        fill: url(#Degradado_sin_nombre_107);
      }

      .cls-85 {
        letter-spacing: .01em;
      }

      .cls-86 {
        fill: #1c5388;
      }

      .cls-87 {
        clip-path: url(#clippath);
      }

      .cls-88 {
        fill: #fbc997;
      }

      .cls-89 {
        fill: #f8c348;
      }

      .cls-90 {
        fill: #3ab2d5;
      }

      .cls-91 {
        fill: #f7e928;
      }

      .cls-92 {
        fill: #194a7b;
      }
    </style>
    <linearGradient id="Degradado_sin_nombre_107" data-name="Degradado sin nombre 107" x1="175.32" y1="381.67" x2="675.32" y2="381.67" gradientUnits="userSpaceOnUse">
      <stop offset="0" stop-color="#3a4281"/>
      <stop offset="1" stop-color="#354986"/>
    </linearGradient>
    <clipPath id="clippath">
      <rect class="cls-32" x="377.34" y="447.33" width="297.11" height="17.91"/>
    </clipPath>
    <clipPath id="clippath-1">
      <rect class="cls-32" x="175.32" y="131.67" width="500" height="500"/>
    </clipPath>
  </defs>
  <rect class="cls-84" x="175.32" y="131.67" width="500" height="500"/>
  <g>
    <path class="cls-81" d="M287.48,344.93c.04-.84.1-1.68.12-2.53.1-7.17,1.34-8.76,8.41-10.27,2.97-.63,6.01-.54,9.01-.22,2.38.26,3.78,1.76,4.79,3.89,4.06,8.61,8.22,17.18,12.36,25.75.41.85.88,2.16,1.53,2.3,1.3.29,1.49-1.3,2.04-2.13,5.98-8.91,11.98-17.81,17.81-26.82,1.62-2.51,3.69-3.76,6.55-3.73,4.21.05,8.04,1.33,11.44,3.88,2.84,2.13,3.47,5.06,3.15,8.36,1.66,2.07.27,4.21-.06,6.2-2.51,15.18-4.78,30.37-6.34,45.69-.39,3.81-.46,7.67-1.31,11.46-.51,2.29-1.7,3.61-3.89,4.23-4.31,1.2-8.92-.05-11.02-3.04-1.16-2-.75-4.2-.77-6.32-.06-6.58-.07-13.16-.09-19.74-1.42-1.28-1.57-2.88-1.32-3.92-1.03,3.62-3.94,7.11-5.65,11.19-.09.22-.28.39-.44.56-2.63,2.76-11.33,2.88-14.28.2-2.39-3.41-4.79-6.82-7.18-10.23-1.83-1.14-3.33-2.62-4.82-4.72-.57,8.67-.21,16.97-.29,25.26-.03,3.07.17,6.34-3.4,7.6-3.81,1.35-7.71,1.74-11.13-1.24-2.04-2.4-1.88-5.38-2.17-8.23-.75-7.43-1.45-14.86-2.17-22.29-.05-2.43-.11-4.85-.16-7.28-.66-2.65.27-5.41-.53-8.06-.06-5.28-.11-10.55-.17-15.83Z"/>
    <path class="cls-10" d="M482.88,350.53c3.82-1.3,7.68-1.78,11.67-.77,3.12.79,5.18,2.88,6.93,5.39,2.99,3.02,2.87,7,3.14,10.78.61,8.57-.99,16.98-2.09,25.43-.59,4.49-1.44,8.99-1.1,13.56.13,1.78.36,3.76,3.08,3.1,3.22-1.96,4.26-5.45,5.73-8.54,1.8-3.79,3.14-7.8,4.67-11.71,3.01-.16,6.29-1.2,8.12,2.47-2.34,9.25-5.23,18.21-12.69,24.88-3.64,3.25-8.01,2.73-12.32,2.72-2.16-.54-4.4-.76-6.49-1.63-7.24-4.8-8.21-16.1-5.65-23.41.43-5.49,2.14-10.73,3.24-16.09.64-3.1,1.18-6.21,1.76-9.32.16-.19.28-.4.3-.64.27-2.97.05-6.57-2.4-7.77-2.34-1.14-4.65,1.82-6.52,3.62-3.45,3.33-5.65,7.4-7.14,11.97-1.4,4.31-4.03,7.42-9.17,7.1-1.71-.24-2.61-1.44-3.36-2.82-3.08-5.28-1.65-10.96-1.24-16.47.33-4.4.76-8.74-.4-13.07-3.35-1.77-4.91.68-6.38,2.87-3.72,5.54-6.31,11.66-8.53,17.92-3.1,8.76-5.66,17.67-6.85,26.93-.31,2.41-.54,4.84,0,7.19.5,2.13.15,3.83-1.52,5.19-1.85,1.51-3.77,1.27-5.67.04-2-1.39-3.81-2.92-4.41-5.45.11-8.76-.9-17.43-2.05-26.09-.18-1.32-.59-2.58-.72-3.89-.08-2.78-1.2-5.74,1.41-8.05,1.28-3.86,2.31-7.83,4.72-11.21,3.3-4.62,6.19-5.35,11.23-2.55,1.4.78,1.38-.31,1.77-.86,1.53-2.17,2.79-4.56,4.53-6.53,7.76-8.81,18.27-7.78,24.33,2.25,1.45,2.41,2.23,5.06,3.14,7.93,2.35-1.52,4.63-2.99,6.91-4.47Z"/>
    <path class="cls-81" d="M253.37,385.67c3.95,2.32,7.3,1.43,10.02-2.79,3.39-5.25,4.27-11.23,4.53-17.28.23-5.42.14-10.85.16-16.28.03-7.25,4.58-10.33,11.5-7.75.45.17.9.33,1.35.49.69,1.2,1.39,2.4,2.08,3.6,1.98,3.27,1.45,7.02,1.55,10.5.25,8.77.24,17.6-1.75,26.21-2.19,9.48-6.39,17.69-15.94,21.86-7.82,3.42-15.45,2.88-22.83-1.35-11.6-6.49-15.6-17.26-16.71-29.66-.13-7.35.26-14.65,1.39-21.93.71-4.62,2.21-8.51,7.16-9.76,4.94-1.26,9.31-.22,12.46,4.17,3.1,3.48,2.18,7.58,1.87,11.64-.58,7.73-2.31,15.48.62,23.17.7,1.83,1.95,3.32,2.53,5.16Z"/>
    <path class="cls-81" d="M201.05,361.01c4.4,2.37,9.25,3.75,13.58,6.35,4.47,2.69,7.7,6.27,9.77,10.99,3.59,6.43,1.87,12.62-1.25,18.48-7.53,14.13-27.23,14.93-36.44,6.06-1.95-2.08-3.98-4.1-5.82-6.27-2.57-3.03-2.6-6.59-.27-9.62,1.49-1.93,6.14-3.06,8.74-1.99,2.1.86,2.48,3.17,3.66,4.79,3.14,4.33,7.88,5.56,12.35,3.1,2.26-1.25,3.19-3.1,3.13-5.63-.05-2.48-.81-4.29-3.22-5.54-4.21-2.2-8.89-2.97-13.24-4.72-8.09-3.24-13.88-8.53-15.58-17.42-1.03-5.42.75-10.28,3.95-14.44,9.31-12.11,27.19-10.36,36.6-3.38,1.13.84,1.94,2.11,2.9,3.18,2.14,3.35,2.16,7.32-.03,10.33-2.84,3.89-6.55,5.91-11.48,4.96-2.68-.52-5.18-1.82-8.01-1.92-.36,1.1.77,1.75.66,2.69Z"/>
    <path class="cls-89" d="M493.75,298.47c1.12,3.24.63,6.68,1.2,10,.09.53-.11,1.54-.44,1.66-3.55,1.4-2.59,4.61-2.96,7.22-.71,5.05-1.28,10.12-1.91,15.24-1.38-.42-.88-1.77-1.59-2.38-.18-5.53-.35-11.07-.56-16.6-.03-.78.29-1.92-.88-2.05-1.1-.12-1.17,1.05-1.4,1.79-1.49,4.71-2.4,9.56-3.38,14.39-.37,1.81-1.1,3.56-2.05,5.27-.94-2.44-.49-4.86-.29-7.25.3-3.48.76-6.94,1.02-10.42.12-1.59.16-2.95-1.59-4.3-2.08-1.61-1.3-4.36-.49-6.69,2.99-3.05,6.43-5.39,10.61-6.51,1.65-.44,3.32-.94,4.7.63Z"/>
    <path class="cls-27" d="M443.7,320.32c-.39-.94-.79-1.87-1.25-2.98-3.03,5.41-2.84,11.36-3.79,17.06-.16.94-.09,1.92-.81,2.68-1.56.75-3.11,2.36-4.81.4-1.45-1.68-.81-3.35.42-4.9.51-4.34,1.02-8.68,1.53-13.03.51-2.15-.68-4.47.64-6.55-.01-1.28.36-2.63-.66-3.73-.24-.38-.19-.72.16-1.01,5.58.61,10.79-1.52,16.19-2.2.13.14.27.28.4.42-2.54,2.54-1.12,5.79-1.59,8.71-1.76,2.18-2.54,5.6-6.43,5.12Z"/>
    <path class="cls-27" d="M434.92,308.84c.02.15.03.3.05.45-2.96-2.72-.02-5.83-.59-8.7.88-1.28,1.7-2.59,3.07-3.48,3.87-2.52,7.13-5.67,9.88-9.4,1.34-1.82,2.92-3.59,5.59-3.34,2.08.57,1.41,1.99,1.03,3.32-3.81,2.85-3.59,6.63-2.75,10.76.53,2.62,2.07,5.28.51,8.06,0,0-.06-.04-.06-.04-2.56-1.04-4.2,1.49-6.61,1.65-3.37.22-6.8-.02-10.13.73Z"/>
    <path class="cls-2" d="M432.03,409.45c5.65-.17,6.2-.86,5.87-6.71-.27-4.73.43-9.4,1.44-14,2.58-11.82,6.31-23.25,11.9-34.01,1.22-2.35,2.51-4.72,4.56-6.48,2.08-1.79,4.08-2.28,5.19,1.07-6.4,2.26-8.07,8.43-10.43,13.59-5.17,11.31-8.67,23.22-10.29,35.62-.28,2.16-.43,4.34.13,6.46.74,2.79-.36,4.73-2.72,6.01-2.29,1.24-4.17.48-5.64-1.55Z"/>
    <path class="cls-73" d="M490.76,267.32c1.76.73,2.61,1.8,1.55,3.73-2.53,4.61-1.97,6.11,2.92,7.92,1.31,1.85-.35,2.51-1.37,3.42-.21.29-.42.57-.64.86-1.48,2.6-2.85,5.29-5.61,6.82-1.67.92-3.36,2.12-5.26.44.1-.47.18-.94.29-1.4q1.14-4.93-3.88-5.14c-5.75-.24-10.67-4.8-11.13-10.33,2.4,2.98,4.67,6.08,8.73,7.04,1.9.45,3.14.78,2.96-2.06-.22-3.47,1.3-6.51,3.56-9.15,2.29,2.45.25,4.39-.82,6.52,1.51-1.97,2.99-.28,4.47-.1-.87-2.8,1.08-6.75,4.23-8.55Z"/>
    <path class="cls-61" d="M244.05,402.89c10.14,3.73,19.85,3.84,28.44-3.74,6.2-5.47,8.77-12.86,9.96-20.72,1.66-10.87,1.69-21.81.56-32.75,1.82,1.38,2.32,3.47,2.32,5.48.01,10.48.87,21.01-1.41,31.37-2.28,10.39-7.17,18.88-17.42,23.4-6.97,3.07-17.88,1.65-22.46-3.02Z"/>
    <path class="cls-58" d="M482.35,290.51c3.25-.28,5.44-2.31,7.59-4.47,1.01-1.01,2.18-1.86,3.28-2.79-.69,5.1.41,10.15.52,15.22-4.79.36-8.89,2.31-12.65,5.22-.63.49-1.32,2.44-2.66.65.09-4.95,2.26-9.32,3.91-13.84Z"/>
    <path class="cls-28" d="M453.17,284.84c-2.5-.31-3.17,1.88-4.24,3.31-3.92,5.26-8.49,9.7-14.55,12.43-.01-.72-.05-1.44-.04-2.17q.08-5.64-5.86-5.85c-.72-1.57-.8-3.03.69-4.24,3.57-1.05,7.43-1.4,10.14-4.42.33.11.6.3.83.55.78,1.03.69,2.43,1.41,3.74,1.8-.99,2.21-2.81,3.23-4.11.15-.08.3-.15.45-.23,2.65,1.87,5.28-.2,7.92-.04.38-.06.74.08.75.45,0,.35-.34.54-.72.57Z"/>
    <path class="cls-43" d="M186.7,402.88c4.92,2.62,9.84,4.86,15.7,4.71,15.03-.38,25.35-13.37,22.09-28.16-.08-.35-.07-.72-.1-1.08,1.91-.35,1.77,1.33,2.08,2.3,4.12,13.04-7.38,28.64-21.11,28.9-5.91.11-11.56-.27-16.51-4.01-.98-.74-2.06-1.26-2.15-2.67Z"/>
    <path class="cls-28" d="M443.7,320.32c2.39-1.4,3.5-4.4,6.43-5.12.55,6.22,1.09,12.44.81,18.68-.06,1.28-.62,2.54-1.12,4.45-5.48-5.2-5.01-11.89-6.12-18.01Z"/>
    <path class="cls-54" d="M462.62,378.87c1.13.71,2.17,1.61,3.58,1.73,3.95,1.06,6.31-.07,8.21-4.27,1.73-3.82,2.76-7.96,5.64-11.24,1.85-2.11,3.75-4.09,6.15-5.55,1.27-.77,2.68-1.52,4.06-.61,1.6,1.06,1.16,2.64.52,4.13-5.92.56-8.14,5.32-10.68,9.58-1.47,2.46-2.33,5.28-3.8,7.75-1.77,2.98-4.74,4.1-8.05,3.58-2.82-.45-5.35-1.66-5.63-5.11Z"/>
    <path class="cls-13" d="M490.78,363.07c-.05-1.15.59-2.58-.82-3.24-1.11-.52-2.05.39-2.95.97-5.18,3.34-8.56,8.05-10.53,13.83-.66,1.95-1.35,3.94-2.95,5.33-2.24,1.95-4.65,3.16-7.33.64,4.87.21,6.79-3.06,7.95-6.98,1.63-5.5,4.53-10.13,8.99-13.72,1.21-.97,2.59-1.84,4.03-2.37,2.41-.89,4.15,0,4.25,2.7.09,2.38.5,4.84-.52,7.16-.04-1.44-.08-2.88-.12-4.32Z"/>
    <path class="cls-82" d="M372.57,409.58c7.87-.75,10.83-2.98,12.52-10.58.79-3.55,2.17-4.82,5.9-4.98,5.42-.22,10.85-.38,16.27-.49,1.24-.02,2.79-.57,3.12,1.44-5.73.63-11.48.92-17.24.77-3.47-.09-5.22,1.91-5.99,5.08-1.22,5.06-4.03,8.7-9.33,9.87-1.84.41-3.85.85-5.26-1.12Z"/>
    <path class="cls-69" d="M201.05,361.01c-1.95-.78-5.06-1.58-4.21-3.81.73-1.92,3.85-.86,5.85-.16,2.7.93,5.27,2.38,8.26,2.06,7.05-.74,10.48-6.19,8.97-14.16,2.59,2.1,3.32,7.4,1.46,10.68-2.95,5.22-9.02,7.47-14.85,5.32-1.92-.71-3.66-1.03-5.48.06Z"/>
    <path class="cls-4" d="M439.4,284.87c-.03-.32-.07-.64-.1-.97.41-2.08-.79-3.69-1.56-5.43-1.96-4.44-1.05-6.04,3.82-6.73,1.19.81,2.43,1.61,1,3.23-.38.28-.78.54-1.11.89.37-.44.9-.66,1.34-1,.91-.72,1.61-2.03,3.1-1.07-.12,2.43.27,4.9-1.25,7.14-.61.91-.1,2.05.57,2.94-.08.1-.16.2-.25.3-.47,1.45-.99,3.21-2.46,3.55-1.88.44-2.05-1.88-3.11-2.85Z"/>
    <path class="cls-83" d="M426.25,365.97c-.25,2.63-.49,5.26-.74,7.89-.48.98.53,2.33-.78,3.11-1.25-6.45-2.32-12.95-3.78-19.35-1.85-8.09-4.56-15.89-9.3-22.83,3.23,1.06,4.08,4.2,5.54,6.67,3.77,6.38,5.01,13.66,6.87,20.71.38,1.45.32,3.2,2.19,3.81Z"/>
    <path class="cls-3" d="M424.73,376.97c.26-1.04.52-2.07.78-3.11,1.4,3.75,1.64,7.75,1.88,11.63.39,6.15,2.25,12.33.23,18.52-.43-.68-.87-1.36-1.3-2.05.83-6.61-.69-13.1-1.1-19.64-.11-1.79-.32-3.57-.49-5.35Z"/>
    <path class="cls-90" d="M429.17,288.33c.01,1.45.06,2.91-.69,4.24-4.61-1.38-9.04-3.03-11.69-7.69,3.94,1.91,7.86,3.85,12.38,3.46Z"/>
    <path class="cls-64" d="M453.17,284.84c.35-.35.34-.69-.03-1.02,3.41-1.19,5.97-3.72,9.37-6.22-1.49,5.18-5.19,7.48-8.56,10.06-.26-.94-.52-1.89-.78-2.83Z"/>
    <path class="cls-21" d="M442.21,274.5c.96-1.2-2.31-1.4-.65-2.76.47-.3.94-.61,1.41-.91,2.81-.86,3.12.87,3.06,2.97,0,0-.14-.01-.14-.01-.96.5-1.93,1-2.89,1.5-.79.27-.94-.11-.79-.79Z"/>
    <path class="cls-50" d="M287.65,360.76c.95,2.63.55,5.36.53,8.06-1.15-2.62-.4-5.37-.53-8.06Z"/>
    <path class="cls-23" d="M648.24,373.96c-1.22-4.86-.38-9.82-.59-14.73-.47-10.96-.71-21.92-1.01-32.88-.17-6.24,1.32-7.86,7.59-8.3,1.2-.08,2.41-.08,3.61-.12,5.96,1.55,6.4,2.23,6.11,8.13-.73,15.13-1.61,30.25-3.16,45.32-.44,4.26-1.02,4.93-5.37,4.83-2.59-.06-5.32.19-7.19-2.25Z"/>
    <path class="cls-14" d="M648.26,394.27c-1.4-6.37-.19-8.89,5.23-10.93,4.39,1.62,6.34,4.3,5.75,8.22-.39,2.6-1.55,4.83-4.3,5.65-3.01.9-4.99-.75-6.69-2.95Z"/>
    <path class="cls-10" d="M596.23,349.03c-3.17-4.71-6.17-9.47-6.51-15.41-.8-13.75,7.46-23.02,22.39-25.02,6.56.19,12.62,1.73,17.46,6.49,6.51,6.41,7.78,19.03,2.95,26.78-2.47,3.96-7.96,4.86-9.38-.08-1.13-3.03.3-6.6,3.6-9,1.46-4.92.75-9.42-3.26-12.8-4.56-3.84-9.91-4.34-15.29-2.01-4.7,2.03-5.98,6.29-6.11,11.02-.22,7.83,4,13.51,9.37,18.42,4.54,4.14,9.45,7.88,14.19,11.79,5.58,4.6,10,10.08,12.57,16.92,5.35,12.67-3.39,25.74-15.36,30.11-7.38,2.69-14.79,2.77-22.34,1.18-2.16-.62-4.33-1.24-6.49-1.87-.52-.24-1.29-.61-2.2-1.1-1.81-.98-3.19-1.92-3.64-2.26-2.78-2.03-5.24-6.22-6.48-10.52-1.07-3.7-1.06-7.15.7-10.57,1.48,1.74,2.55,3.92,4.96,4.67.12,1.89,1.68,2.62,2.93,3.6.39.56.75,1.14,1.2,1.66,3.79,7.31,10.56,7.32,17.27,6.61,6.59-.7,11.68-4.14,13.68-10.7,1.25-4.11.72-8.31-1.76-12.13-3.47-5.34-8.09-9.5-13.09-13.34-4.52-3.47-8.4-7.54-11.36-12.44Z"/>
    <path class="cls-9" d="M600.51,407.42c5.06.28,10.14.65,15.15-.36,16.39-3.28,23.76-13.43,22.55-30.93,2.71,2.99,3.35,6.64,2.66,10.37-2.2,12.01-10.05,19.87-22.11,22.19-6.15,1.18-12.36,1.91-18.25-1.28Z"/>
    <path class="cls-59" d="M637.92,431.89c1-1.58,1.77-2.99,4.17-2.31-1,1.53-1.83,2.84-4.17,2.31Z"/>
    <path class="cls-10" d="M568.98,300.02c.58-.04,1.17-.09,1.75-.13,1.2-.03,2.4-.07,3.59-.1,1.4-.2,2.07.73,2.85,1.68,1.75,2.12,4.19,3.44,6.33,5.11,1.17.92,2.74,1.58,2.53,3.5-1.23,7.48-3.2,14.76-5.89,21.85-3.1-1.04-4.56-3.4-4.58-7.36.37-.28.74-.55,1.25-.52.21.01.42.19.64.03-.21-.15-.28-.35-.27-.6.02-.92-.41-.15-.47-.08-1.36,1.46-2.65,1.18-3.9-.14-1.19-2.03-3.98-3.07-3.74-6,.58-2.92.94-5.92,1.8-8.75.72-2.38.47-3.51-2.25-3.71-.89-.07-2.2-.41-2.37-1.82.03-.15.06-.3.09-.45.61-1.11,1.85-1.55,2.62-2.49Z"/>
    <path class="cls-44" d="M586.03,310.07c-4.63-2.61-8.43-6.15-11.71-10.29.98-.45,1.96-.9,2.93-1.35.81.72,1.29,1.72,1.65,2.06-.41-.3-.81-1.39-1.7-2.02,4.15-4.86,2.04-10.15,1.22-15.66,1.34.6,2.43-1.08,3.47-.97,3.09.33,4.96,2.67,5.98,5.41.79,2.11-.72,3.54-2.3,4.83-2.58,2.1-2.2,6.19.73,7.93,1.75,1.04,3.6,1.92,5.62,2.37.99.23,2.28.28,2.06,1.89-.04.15-.08.3-.12.45-.65,1.03-1.59,1.89-1.88,3.14-1.96.79-4.98-1.24-5.94,2.23Z"/>
    <path class="cls-44" d="M575.87,324.75c1.42,2.39,2.85,4.78,4.27,7.17,1.03,5.33-3.86,8.55-4.71,13.22-.12.69-.55,1.32-.84,1.97-.63.79-1.25,1.59-2.17,2.75-.32-5,2.34-9.33.49-13.81,1.19-.13,2.23.77,3.32.53-1.12.17-2.17-.53-3.32-.81-.05-.59-.1-1.19-.15-1.79-5.28,2.74-7.61,8.87-13.49,11.07.93-1.3,1.93-2.56,2.78-3.92,1.51-2.42,3.16-4.69,2.3-7.96-.45-1.71,1.11-3.34,1.86-4.97.75-1.64,1.47-3.29,2.21-4.94.16-.11.31-.22.47-.33,2.29.75,4.88.32,6.98,1.82Z"/>
    <path class="cls-29" d="M599.77,368.03c2.02.51,4,1.15,5.17,3.03,1.21,1.96,1.69,4.12.17,6.09-1.78,2.29-3.97,1.77-6.13.47-3.07-.61-4.76.34-6.43,3.54-.56,1.07-.52,2.83-2.53,2.37-1.42-2.9-5.02-2.34-6.98-4.38,2.98-7.62,8.68-11.14,16.73-11.11Z"/>
    <path class="cls-92" d="M539.51,404.5c4.23,1.19,8.2,3.07,12.82,3.02,18.64-.16,30.44-19.28,22-35.92-.33-.64-.62-1.3-.94-1.94,2.5,1,3.48,3.25,4.36,5.5,3.69,9.48,1.22,21.08-5.88,27.75-7.33,6.89-19.47,8.76-28.72,4.43-1.43-.67-2.83-1.38-3.65-2.84Z"/>
    <path class="cls-11" d="M583.03,379.14c2.95.4,6.9-1.15,7.5,3.83.81,1.11.5,2.13-.27,3.1-.93.79-1.92,1.25-3.09.5-4.43.65-5.09-1.99-4.78-5.47,0-.72-.16-1.5.64-1.97Z"/>
    <path class="cls-79" d="M549.05,419.45q-.58-5.86,6.44-6.4c1.16,1.76.81,3.73.38,5.51-.74,3.07-3.67,3.38-6.82.89Z"/>
    <path class="cls-80" d="M577.02,411.05c-1.27.03-5.88-3.45-5.41-4.09,1.31-1.8,2.89-3.48,4.63-4.86.76-.61,4.27,3.61,4.26,5.2-.01,2.28-1.2,3.54-3.48,3.75Z"/>
    <path class="cls-91" d="M571.41,358.7c.49-.52.98-1.04,1.47-1.57.64-.54,1.22-1.17,1.93-1.59,1.58-.92,3.24-1,4.64.32,1.43,1.35,1.35,3.08.51,4.66-1.82,3.41-3.56,3.64-6.27.85-.81-.83-2.06-1.33-2.28-2.67Z"/>
    <path class="cls-44" d="M593.98,304.26c3.88,1.25,7.81.8,12.17.1-3.11,3.44-6.75,3.67-10.51,3.36-1.06-.09-2.08-.64-3.15-.07-.7-1.6.75-2.29,1.4-3.32l.08-.07Z"/>
    <path class="cls-37" d="M593.9,304.33c.56,1.54-1.21,2.1-1.4,3.32,0,0-.22.21-.22.21,0,0-.3-.01-.3-.01.12-1.46-1.21-3.71,1.92-3.52Z"/>
    <path class="cls-19" d="M540.14,296.99c-.93,6.36-1.84,12.73-2.8,19.09-.14.93-.54,1.82-.82,2.73-.6.3-1.27.25-1.67-.17-3.43-3.59-7.69-6.38-10.44-10.63.77-5.45,1.38-10.93,2.37-16.35.39-2.14-.44-2.81-2.13-3.34-2.06-.64-4.05-1.35-5.8-2.78-2.56-2.08-2.02-5.48-3.76-7.95,3.46,1.67,5.27,5.54,9.2,6.34,1.91,1.16,3.87.84,5.84.19,2.44,4.99,7.38,8.04,10.03,12.87Z"/>
    <path class="cls-35" d="M524.4,308c5.11,2.4,8.48,6.76,12.12,10.81-.22,3.05-.53,6.09-.63,9.14-.05,1.57-1.23,1.85-2.19,2.45-1.79.47-1.84,2.81-3.64,3.37-1.52-.93.03-3.87-2.69-4.05-2.33-.16-2.28,2.67-4.33,3.15-3.93-8.56.31-16.64,1.36-24.86Z"/>
    <path class="cls-34" d="M504.52,408.02c-3.68,2.16-3.83-.92-4.02-3-.42-4.71.35-9.39.89-14.07.89-7.66,2.35-15.26,2.19-23.04-.09-4.37-.41-8.67-2.1-12.76,4.59,2.77,4.18,7.6,4.55,11.88.72,8.48-1.41,16.75-2.44,25.1-.51,4.17-1.28,8.33-1.11,12.57.06,1.52.14,2.96,2.04,3.32Z"/>
    <path class="cls-67" d="M524.27,369.49c1.43.6,2.5,1.56,3.09,3.01,1.35,3.44.23,6.37-1.87,9.1-1.22.7-2.44.12-3.66-.03-1.68-.44-3.83.16-4.65-2.13.64-1.91,1.47-3.78,1.87-5.74.61-2.95,2.25-4.34,5.22-4.22Z"/>
    <path class="cls-91" d="M527.89,363.96c-1.6-1.49-2.95-3.17-3.75-5.24.18-1.61.98-2.84,2.3-3.76,3.48-.8,5.01,2.06,7.14,3.8.02,3.73-1.93,5.51-5.68,5.2Z"/>
    <path class="cls-33" d="M490.76,267.32c.8,2.14-.98,3.3-2.05,4.4-2.35,2.42-2.42,3.15.49,4.94-1.86-.54-3.74,1.57-5.67-.27-.64-.61-.6.43-.59.7.07,1.58-1.78-.07-1.87,1.15-.78-.57-.48-1.37-.21-1.93,1.05-2.18,1.72-4.46,2.02-6.85.19-.27.38-.54.57-.81,1.09-.86,1.96.36,2.95.3.68-.48.43-1.38.88-1.95.83-.84,1.7-1.22,2.72-.3.25.21.5.41.75.62Z"/>
    <path class="cls-80" d="M517.18,379.45c1.65.51,3.62-.51,5.05,1.06,1.64,2.22,1.68,4.7-.36,6.35-2,1.63-4.45,1.3-6.32-.83-2.27-3.63-1.97-4.86,1.62-6.59Z"/>
    <path class="cls-49" d="M493.86,282.39c.46-1.14.91-2.28,1.37-3.42,4.91.31,9.36-.91,13.14-4.31-3.1,6.04-7.67,9.1-14.51,7.73Z"/>
    <path class="cls-38" d="M515.55,386.04c.7.12,1.41.25,2.11.37,3.32.6,5.02-.5,4.44-4.13-.09-.57.08-1.18.13-1.78.94.22,1.87.45,2.81.67,1.35,2.98-.13,7.85-2.9,9.54-1.73-2.63-5.17-1.08-7.21-2.95-.12-.7.16-1.25.63-1.74Z"/>
    <path class="cls-73" d="M487.19,270.2c-.29,1.53-.78,2.29-2.11.67-.58-.71.04-2.3-1.62-2.22,1.65-2.44,3.53-4.1,6.55-1.95-.86-.05-1.71-.11-2.13.89-.73.74-.85,1.64-.7,2.61Z"/>
    <path class="cls-35" d="M540.14,296.99c-4.87-3.1-8.88-6.88-10.03-12.87,5.08-2.46,2.31-6.82,1.98-10.16-.31-3.14.36-4,3.22-3.81,2.78.18,5.07-2.01,8.03-1.5,1.78.3,3.31.52,4.17,2.27-.06,1.42-.96,2.01-2.22,2.24-.87,1.46.84,2.34.81,3.11-.08-.71-1.46-1.57-.93-2.95,1.3-.3,2.73-.47,2.32-2.41,4,1.89,4.53,9.42.73,10.43-2.15.57-3.69-.56-5.08-2.04-1.48-1.58-1.3-4.1-3.32-5.93-.26,2.19-.96,3.66-2.21,5.08-2.16,2.43-.52,6.93,2.86,9.25,4.48,3.08,9.45,2.91,15.47,2.17-2.04,2.64-3.37,4.78-6.27,4.95-2.05.12-4.2.35-6.14-.14-2.38-.61-3.06.38-3.39,2.32Z"/>
    <path class="cls-86" d="M522.13,390.73c1.44-3.04,2.45-6.21,2.9-9.54,1.4-2.73,2.18-5.62,2.32-8.68.67.24,1.35.48,2.02.72-.87,3.82-1.79,7.64-1.59,11.61-3.16,3.89-4.27,8.74-6.08,13.25-2.39,5.93-4.44,12.01-9.38,16.49-4.11,3.73-10.54,4.8-14.18,2.28,9.49,1.02,15.03-3.92,18.57-12.11,1.99-4.61,4.1-9.16,5.42-14.02Z"/>
    <path class="cls-65" d="M548.98,352.83c-.05-1.07-.12-2.14-.16-3.22-.06-1.85.03-3.76,2.04-4.56,1.81-.72,3.53-.28,4.83,1.29,2.14,2.43,2.51,4.86,1.02,6.63-1.6,1.9-4.69,1.84-7.73-.15Z"/>
    <path class="cls-42" d="M548.98,352.83c.71-.02,1.43-.03,2.14-.07,5.64-.33,5.72-.45,4.57-6.41,3.34.34,3.43,2.85,3.37,5.29-.05,2-.63,4.04-3.08,4.06-2.64.02-6.02,1.34-7-2.87Z"/>
    <path class="cls-10" d="M566.27,302.96c-6.09-1.97-6.96-2.62-8.77-7.15,3.77,3.03,7.12,5.11,11.36,4.2-.29,1.41-1.72,1.81-2.47,2.82l-.12.13Z"/>
    <path class="cls-62" d="M527.89,363.96c2.5-1.07,4.05-3.18,5.68-5.2,2.87,1.56,1.44,3.25.01,4.73-1.69,1.75-3.53,3.64-5.7.46Z"/>
    <path class="cls-44" d="M569.08,317.24c1.33,1.89,3.58,2.98,4.55,5.19-1.43,2.05-3.36.58-5.06.72,0,0-.15.11-.15.11-1.25-2.17.04-4.06.66-6.02Z"/>
    <path class="cls-12" d="M572.92,335.78c1.94-.06,3.94-.84,6.25.62-2.48,1.75-4.4,1.83-6.24-.34,0,0,0-.28,0-.28Z"/>
    <path class="cls-42" d="M556.18,358.51c-2.64.02-5.28.03-7.92.05,2.64-.95,5.28-.91,7.92-.05Z"/>
    <path class="cls-88" d="M566.39,302.83c-.05-1.7,1.56-1.95,2.47-2.82,0,0,.13,0,.13,0-.58,1.2.24,3.69-2.59,2.81Z"/>
    <path class="cls-69" d="M342.07,407.97c2.5,2.06,5.54,2.24,8.52,2.16,4.01-.1,5.33-1.44,5.75-5.89,1.18-12.59,2.71-25.14,4.59-37.64,1.17-7.74,2.5-15.45,3.76-23.17.38-.72.75-1.43,1.29-2.46,1.59,3.07.2,5.77-.23,8.34-2.96,17.68-5.69,35.39-7.06,53.28-.14,1.8-.43,3.59-.84,5.35-.76,3.31-2.97,4.5-7.99,4.48-5.22-.02-6.93-1-7.79-4.45Z"/>
    <path class="cls-31" d="M292.68,406.61c3.14,1.41,6.39,1.05,9.59.45,2.6-.49,3.71-2.25,3.67-4.99-.1-8.33-.06-16.66,0-24.99.01-2.01.32-4.01.56-6.75,2.61,3.29,4.19,6.35,5.83,9.38-2.84-.77-3.88.08-3.75,3.22.25,6.37.17,12.76.03,19.14-.09,4.54-1.96,6.52-6.63,7.64-4.45,1.07-7.48.06-9.29-3.1Z"/>
    <path class="cls-39" d="M253.37,385.67c-5.71-5.42-5.67-12.45-5.34-19.49.22-4.58.75-9.14,1.11-13.71.18-2.3,0-4.57-.8-6.76,3.59.8,3.42,4.01,3.55,6.46.19,3.8-.09,7.68-.71,11.44-1.19,7.17-.88,14.08,2.32,20.72.17.35-.08.89-.13,1.35Z"/>
    <path class="cls-47" d="M319.5,389.94c3.26,1.24,6.6,1.02,9.93.47,2.4-.4,4.06-1.71,5.07-4.06,2.02-4.7,4.27-9.31,7.25-13.78-.18,3.11-.37,6.23-.55,9.34-3.11.87-3.83,3.74-5.1,6.13-2.46,4.62-11.38,6.82-15.73,3.84-.65-.45-1.61-.83-.87-1.94Z"/>
    <path class="cls-81" d="M365.37,403.48c-1.69-9.5,1.75-18.36,3.66-27.35,2.65-12.51,6.11-24.86,13.05-35.82,4.48-7.08,10.44-12.02,19.51-11.5,4.09.75,7.15,3.24,10.06,5.97,4.94,5.12,7.22,11.59,9.08,18.21,2.23,7.96,4,16.03,5.12,24.24.9,6.53,1.14,13.12,2.06,19.65.26,1.85.72,3.94-1.59,5.07-1.53,1.86-2.98,3.71-5.76,3.9-5.42.36-7.95-1.65-9.36-7.83-.24-1.03.12-2.21-.82-3.05-1.79-1.23-3.7-.52-5.59-.39-4.08.29-8.17-.01-12.27.26-3.87.26-5.89,1.9-6.57,5.68-.92,5.15-4.1,8.26-9.19,9.44-1.45.34-2.86.42-4.2-.39-3.21-1.08-5.43-3.33-7.2-6.1ZM396.19,356.4c-1.71,4.5-3.1,9.11-4.21,13.77-.62,2.59-2.02,5.25-.57,8.03,4.56.06,9.13.07,13.69.21,1.83.06,2.72-.42,2.31-2.44-1.68-8.08-2.97-16.27-6.48-23.86-2.83.05-3.88,2.07-4.73,4.28Z"/>
    <path class="cls-20" d="M400.92,352.12c-5.86,6.53-6.63,15.01-8.75,22.96-.28,1.04-.51,2.08-.76,3.13-1.44.23-2.51-.11-2.09-1.84,2.01-8.39,3.73-16.87,7.49-24.72.44-.93.86-2.31,2.1-2.19,1.34.13,1.79,1.43,2,2.67Z"/>
    <path class="cls-51" d="M527.87,402.13c2.79.72,3.96,3.26,5.72,5.13-1.14,3.95-2.98,5.05-6.46,3.86-1.32-.35-1.97-1.5-2.85-2.38-.73-3.25,2.25-4.48,3.58-6.61Z"/>
    <path class="cls-8" d="M489.14,307.26c1.05,0,1.3-.03,1.54,0,1.01.13,2.59-.38,2.71,1.05.15,1.75-1.89,1.7-2.69,1.51-3.07-.73-5.83.51-8.71.9-.88.12-2.18.49-2.32-.91-.1-1.01.99-1.22,1.84-1.36,2.81-.45,5.62-.88,7.63-1.2Z"/>
    <path class="cls-74" d="M434.92,308.84c2.89-2.46,6.49-1.45,9.66-1.49,2.47-.03,4.51-2.77,7.08-.89-5.37,2.3-10.83,3.91-16.74,2.38Z"/>
    <path class="cls-71" d="M484.97,278.54c.69-.03,1.22.33,1.38.94.5,1.89,1.66,2.56,3.5,2.04.95-.27,1.49.12,1.38.99-.15,1.09-1.01.33-1.52.46-2.47.63-3.35-2.91-5.79-2.03-.03-.59-.15-1.18-.08-1.76.08-.59.66-.59,1.13-.64Z"/>
    <path class="cls-22" d="M439.4,284.87c.93.73,1.87,1.46,2.93,2.3,1.31-.55,1.17-2.54,2.64-3,1.65,2.54-1.43,3.75-1.73,5.81-.14.95-1.34.11-2.03-.36-1.71-1.18-1.69-2.98-1.82-4.75Z"/>
    <path class="cls-53" d="M442.21,274.5c.26.26.53.52.79.79-2.2,1.08-1.17,3.72-2.84,5.13-.07-2.2-.17-4.39,2.06-5.91Z"/>
    <path class="cls-55" d="M589.49,385.76c.69-.8,1.2-1.66,1.05-2.78.4-3.12,2.31-5.09,4.99-6.42,1.43-.7,2.76-.81,3.45,1.05-3.4.81-5.33,2.92-5.78,6.41-.36,2.78-1.79,5.15-2.98,7.62-.26-.57-.52-1.14-.78-1.71-.74-1.4-1-2.79.06-4.16Z"/>
    <path class="cls-78" d="M589.49,385.76c-.02,1.39-.04,2.77-.06,4.16-1.46-1.22-3.92-.1-5.09-2.09.62-1.31,2.06-.52,2.84-1.26.77-.27,1.54-.54,2.31-.81Z"/>
    <path class="cls-92" d="M527.14,411.11c3.11.32,4.34-2.5,6.46-3.85,1.96,2.91-.46,4.04-2.28,5.17-1.69,1.05-3.42,1.12-4.17-1.32Z"/>
    <path class="cls-45" d="M532.38,397.63c-2.18-4.03-4.51-8-4.6-12.78-1.85-2.94-1.16-7.95,1.59-11.61,4.09-7.72,10.15-12.92,18.89-14.66,2.64-.38,5.28-.28,7.92-.05,1.46.3,2.92.61,4.38.91,5.18,2.28,9.56,5.57,12.84,10.23,5.25,5.09,6.52,16.79,2.57,24.68-6.93,13.84-23.39,18.46-36.46,10.15-3.08-1.57-4.95-4.38-7.14-6.87ZM565.5,372.36c-8.24-8.7-22.26-6.77-27.6,3.93-3.14,6.29-1.98,12.36,1.59,18.14,6.05,6.9,15.63,8.04,23.13,2.75,7.26-5.12,9.42-14.61,5.1-22.46-.91-.63-1.48-1.58-2.22-2.36Z"/>
    <path class="cls-57" d="M567.72,374.72c-2.93-1.18-4.81-3.85-7.77-5.15-6.34-2.78-11.94-1.38-16.85,2.75-5.22,4.4-7.02,10.2-5.14,16.95.48,1.73,1.67,3.25,1.52,5.16-5.01-5.31-5.84-11.52-3.23-18.03,2.75-6.87,8.2-10.74,15.61-10.95,7-.2,12.53,2.83,15.85,9.27Z"/>
    <path class="cls-72" d="M568.57,323.15c1.51-1.52,3.44-.02,5.06-.72.8.42,1.21,1.74,2.61.46.74-.68,2.41-.36,3.72-.02-.6.2-1.21.39-2.03.66.89.21,1.54.37,2.2.53l.03.42c-1.43.09-2.87.18-4.3.28-2.43-.55-5.33,1.04-7.3-1.6Z"/>
    <path class="cls-25" d="M577.2,298.47c1.83-.53,2.84,2.76,4.92,1.06.24.4.6.78.71,1.21.22.89-.49,1.25-1.13,1.56-2.15,1.02-3.91-.52-4.45-3.87,0,0-.05.04-.05.04Z"/>
    <path class="cls-5" d="M584.65,285.04c-1.22.46-2.33,1.89-3.8.75-.21-.16-.29-.93-.19-.99,1.28-.74,2.58.01,3.98.25Z"/>
    <path class="cls-75" d="M569.13,335.16c-1.09.62-2.1,1.76-3.16.32-.17-.22-.2-.85-.06-.95,1.23-.9,2.14.46,3.22.63Z"/>
    <path class="cls-30" d="M522.55,326.92c2.61-.52,4.58.47,6.84.8q-4.73,1.1-6.84-.8Z"/>
    <path class="cls-15" d="M487.19,270.2c-.87-.52-1.6-1.02-1.01-2.29.5-1.08,1.08-.57,1.71-.32-.07.91.98,2.13-.7,2.61Z"/>
    <path class="cls-7" d="M536.67,285.31c-.36,1.49-.94,2.67-2.25,2.73-1.55.07-2.05-1.37-2.54-2.57-.29-.72.25-1.29.81-1.2,1.34.21,2.64.67,3.98,1.04Z"/>
    <path class="cls-76" d="M544.36,269.84c.75,1.77-3.54-.89-1.13,2.09.32.4-.63.41-1.05.46-1,.13-1.49-.4-1.84-1.29-.33-.83.2-1.07.73-1.31,1.16-.53,2.3-.48,3.29.06Z"/>
    <path class="cls-48" d="M545.29,273.04c.51,2.02,1.33,3.86,3.15,5.18-.99.95-1.93,1.1-3,.62,1.1-1.94-1.75-3.79-.12-5.74l-.03-.06Z"/>
    <path class="cls-21" d="M537.44,271.59c2.77,1.45.31,2.78-.15,4.09-.3.83-.84.12-.88-.19-.08-.65-1.98-.75-.57-1.76.57-.4.73-.9.83-1.51-.07-.61-.05-1.11.78-.63Z"/>
    <path class="cls-56" d="M547.48,270.9c.77,1.25,1.87,2.44.67,4.02-1.37-.06-1.85-1.37-2.86-1.89,0,0,.03.06.03.06.73-.73,1.45-1.45,2.18-2.18,0,0-.02-.02-.02-.02Z"/>
    <path class="cls-66" d="M537.44,271.59c-.26.21-.52.42-.78.63-.41.21-.82.58-1.24.6-.83.03-2.18.64-2.28-.7-.11-1.58,1.35-1.28,2.34-1.17.67.07,1.3.42,1.95.64Z"/>
    <text class="cls-24" transform="translate(308.69 443.82)"><tspan x="0" y="0">EN</tspan></text>
    <text class="cls-24" transform="translate(381.8 444.19)"><tspan x="0" y="0">DE </tspan><tspan class="cls-16" x="29.91" y="0">L</tspan><tspan class="cls-36" x="40.77" y="0">A D</tspan><tspan class="cls-63" x="72.89" y="0">I</tspan><tspan class="cls-40" x="78.65" y="0">V</tspan><tspan x="91.39" y="0">E</tspan><tspan class="cls-85" x="102.59" y="0">R</tspan><tspan x="115.68" y="0">SI</tspan><tspan class="cls-26" x="132.27" y="0">D</tspan><tspan x="145.45" y="0">AD E IN</tspan><tspan class="cls-46" x="213.74" y="0">C</tspan><tspan class="cls-63" x="224.99" y="0">L</tspan><tspan class="cls-68" x="235.09" y="0">U</tspan><tspan class="cls-60" x="248.44" y="0">SIÓN</tspan></text>
    <path class="cls-23" d="M355.12,418.66c1.92-.19,3.87-.1,5.77.28,2.96.59,5.78,1.91,8.14,3.8,1.74,1.38,3.23,3.07,4.4,4.96.99,1.6,1.74,3.34,2.21,5.16-.47-.54-1.09-.94-1.75-1.19-.55-.2-1.13-.3-1.72-.33-.63-.03-1.26,0-1.87.1-1.17.2-2.27.73-3.17,1.51-.91.79-1.59,1.82-2.04,2.93-.23.57-.41,1.17-.53,1.78-.15.73-.22,1.48-.19,2.22.03.61.13,1.22.35,1.8.26.71.69,1.36,1.29,1.83.61.48,1.35.77,2.11.9.55.09,1.11.12,1.66.1.81-.03,1.62-.18,2.37-.48.66-.27,1.29-.63,1.83-1.1,1.03-.87,1.77-2.06,2.19-3.33,0,.17-.03.33-.05.5-.2,1.66-.62,3.29-1.24,4.84-1.12,2.8-2.92,5.32-5.2,7.3-2.26,1.98-5,3.42-7.92,4.15-3.6.9-7.45.75-10.96-.47-1.69-.58-3.3-1.41-4.77-2.44-1.42-1-2.71-2.19-3.81-3.54.59-.2,1.14-.54,1.54-1.03.15-.18.27-.39.34-.61.04-.11.06-.23.08-.35.2-1.18.41-2.36.61-3.54.92.16,1.86.16,2.78.04,1.46-.19,2.87-.77,4-1.72.97-.81,1.7-1.89,2.16-3.06.31-.79.5-1.63.61-2.47.12-.9.15-1.83-.05-2.72-.14-.68-.42-1.34-.88-1.86-.41-.49-.97-.85-1.58-1.04-.46-.15-.95-.22-1.43-.22-.42,0-.84.05-1.24.16-.71.21-1.39.56-1.93,1.06-.29.27-.55.56-.79.88,0-.25.02-.49.01-.74,0-.22-.02-.44-.04-.66-.01-.14-.03-.28-.08-.41-.5-.11-1.02-.16-1.53-.14-.42,0-.85.03-1.27.12-.94,5.42-1.87,10.84-2.81,16.25-.81-1.31-1.46-2.72-1.94-4.18-1.15-3.53-1.23-7.4-.25-10.98.76-2.8,2.18-5.42,4.1-7.6,1.98-2.26,4.5-4.04,7.29-5.15,1.66-.66,3.4-1.09,5.18-1.27M357.28,431.47c-.72,4.21-1.45,8.41-2.18,12.62.17.03.34.06.51.08.29.03.58.02.88,0,.42-.04.83-.14,1.22-.32.28-.13.54-.3.74-.53.19-.21.32-.46.37-.73.25-1.45.5-2.9.75-4.35.1-.63.24-1.26.5-1.84.15-.32.34-.62.56-.9.38-.47.91-.83,1.5-.97.4-.08.81-.12,1.22-.11.28,0,.57,0,.84.04.22-.58.37-1.19.48-1.8.07-.41.13-.83.12-1.25-.14-.04-.29-.06-.44-.07-.24-.02-.49-.03-.73-.02-.64.02-1.28.2-1.82.55-.6.39-1.14.86-1.62,1.4.01-.43.03-.85,0-1.28-.01-.17-.02-.35-.09-.5-.4-.08-.81-.16-1.22-.17-.54-.02-1.08.04-1.6.15M370.87,434.04c.48-.04.98-.01,1.42.21.29.15.53.4.66.69.17.36.24.76.27,1.15.03.53,0,1.06-.09,1.58-.11.7-.26,1.4-.52,2.06-.16.4-.36.79-.62,1.13-.19.26-.43.48-.7.65-.35.21-.75.33-1.15.36-.43.03-.87,0-1.27-.17-.29-.13-.54-.36-.69-.64-.17-.32-.25-.67-.3-1.03-.06-.55-.03-1.1.05-1.64.08-.58.2-1.17.37-1.73.17-.53.39-1.04.71-1.5.18-.26.41-.5.67-.68.35-.24.77-.38,1.19-.43M347.7,434.53c.38-.19.82-.25,1.25-.23.34.02.69.1.96.31.32.23.54.59.65.96.15.5.13,1.02.09,1.54-.07.74-.22,1.48-.49,2.18-.26.68-.66,1.32-1.25,1.76-.56.43-1.26.65-1.96.68-.56.02-1.13-.03-1.67-.19.25-1.45.5-2.91.75-4.36.13-.68.35-1.36.78-1.92.23-.3.53-.56.87-.73h0Z"/>
    <g class="cls-87">
      <path class="cls-1" d="M674.03,454.25c-.14,4.13-1.36,7.37-3.57,7.46-3.86.18-7.72,1.98-11.57,1.17-4.14-.9-8.07-.09-12.07,1.26-.79.27-1.5.63-2.22.09-1.86-1.53-3.79-.72-5.71-.45-2.86.36-5.64,1.98-8.5-.27-.43-.36-1.14-.09-1.72.09-7.64,2.79-15.43.54-23.15.81-1.86-1.62-3.79.36-5.64-.09-2.14-.54-4.22-.54-6.36-.27-3.64.36-7.36,1.44-10.93-.72-.64-.36-1.5-.18-2.29-.18-3.28-.09-6.57,0-9.86-.36-1.79-.18-3.43-.36-5,1.17-.86.9-1.86.36-2.79,0-3.5-1.44-8-2.52-10.64-1.71-2.22.63-4.22.45-6.36-.09-1.5-.36-3.07-.54-4.65-.63-17.72-.63-35.43-1.35-53.15-2.79-9.14-.72-18.29-1.26-27.43-1.89-3.5-.27-7-.99-10.5-1.08-12.86-.45-25.72-.45-38.58-1.62-3.93-.36-7.64-1.71-11.57-2.07-6.57-.72-13.22-1.8-19.79-2.7-.93-.18-1.86-.45-2.22-2.07,8.22.63,16.36,1.53,24.43,1.89,6.79.36,13.57.18,20.36.18,4.86,0,9.72-.09,14.57.09,8.22.27,16.36,1.08,24.57,1.08,4.72,0,9.36.36,14,.72,4.86.36,9.72.09,14.5.45,14.93,1.08,29.86,2.07,44.86,1.26,2.64,1.44,5.43-.63,8.07.27,3.72,1.35,7.29,1.26,11,.18,1.07-.36,2.36-.09,3.5,0,3.29.27,6.57.63,9.86.81,8.79.54,17.5.54,26.22-1.08.57-.09,1.29-.36,1.71,0,3.29,2.25,6.79.09,10.22.9,2.29.54,5.07.45,7.5-.09,4.36-.99,8.71-.72,13.07-1.35,2.79-.45,5.36.81,8.07.72,4.07-.18,8.21-.18,12.29-.45,6-.36,12.07-.27,18-1.71,2.36-.63,4.64-.36,7-.27,2.21.18,2.5.72,2.43,3.33Z"/>
    </g>
  </g>
  <g class="cls-41">
    <g>
      <path class="cls-52" d="M509.02,636.64s5.31-1.94,16.32-6.87c3.66-1.64,5.14-4.86,3.24-8.36-3.97-10.09-9.93-24.07-14.46-33.91-.96-3.25-4.23-3.74-7.08-2.38-3.83,1.46-16.93,7.14-16.93,7.14h0s-13.17,5.53-16.88,7.27c-2.95,1.11-4.86,3.81-3.18,6.76,3.96,10.09,9.92,24.07,14.45,33.92,1.21,3.8,4.55,4.96,8.27,3.45,11.19-4.53,16.26-7.02,16.26-7.02"/>
      <path class="cls-18" d="M484.38,594.24c.52,21.9,26.06,8.82,10.95-4.67"/>
      <path class="cls-18" d="M503.69,639.53c-15.44-15.54,11.68-24.91,10.95-4.67"/>
      <path class="cls-18" d="M479.48,629.65c21.9-.52,8.82-26.06-4.67-10.95"/>
      <path class="cls-18" d="M524.43,610.49c-15.54,15.44-24.91-11.68-4.67-10.95"/>
      <g>
        <path class="cls-18" d="M500.67,592.39c2.91-1.4,5.93-2.56,9.03-3.49.74-.22.43-1.39-.32-1.17-3.2.96-6.31,2.17-9.32,3.61-.7.34-.09,1.38.61,1.04h0Z"/>
        <path class="cls-18" d="M489.23,641.36c3.46-1.04,6.82-2.38,10.05-4.01.7-.35.08-1.39-.61-1.04-3.14,1.58-6.4,2.87-9.76,3.88-.74.22-.43,1.39.32,1.17h0Z"/>
        <path class="cls-18" d="M490.13,638.06c1.54-.58,3.07-1.16,4.61-1.73.31-.11.51-.41.42-.74-.08-.29-.44-.54-.74-.42-1.54.58-3.07,1.16-4.61,1.73-.31.11-.51.41-.42.74.08.29.44.54.74.42h0Z"/>
        <path class="cls-18" d="M504.59,594.08c1.38-.81,2.84-1.44,4.37-1.89.31-.09.51-.43.42-.74s-.43-.51-.74-.42c-1.63.48-3.2,1.16-4.66,2.01-.67.39-.06,1.44.61,1.04h0Z"/>
      </g>
    </g>
    <g>
      <path class="cls-77" d="M240.38,189.28s6.86-2.67,21.09-9.4c4.73-2.24,6.57-6.47,3.99-10.98-5.44-13.04-13.59-31.1-19.77-43.81-1.34-4.21-5.62-4.76-9.29-2.91-4.95,2.01-21.88,9.77-21.88,9.77h0s-17.02,7.56-21.8,9.94c-3.82,1.53-6.24,5.1-3.97,8.89,5.44,13.04,13.58,31.1,19.75,43.82,1.67,4.92,6.07,6.34,10.88,4.28,14.46-6.21,21-9.58,21-9.58"/>
      <path class="cls-77" d="M207.6,135.75c-20.54-19.84,14.55-32.78,14.15-6.38"/>
      <path class="cls-77" d="M233.02,192.1c1.27,28.53,34.2,10.79,14.15-6.38"/>
      <path class="cls-18" d="M201.69,180.96c28.53-1.27,10.79-34.2-6.38-14.15"/>
      <path class="cls-77" d="M256.89,156.06c28.53-1.27,10.79-34.2-6.38-14.15"/>
      <g>
        <path class="cls-18" d="M228.29,131.84c3.76-1.9,7.66-3.51,11.68-4.8.96-.31.55-1.83-.42-1.52-4.14,1.33-8.17,2.99-12.05,4.96-.91.46-.11,1.82.8,1.36h0Z"/>
        <path class="cls-18" d="M214.7,195.97c4.48-1.45,8.83-3.29,12.99-5.49.9-.47.1-1.84-.8-1.36-4.05,2.14-8.26,3.92-12.62,5.33-.96.31-.55,1.83.42,1.52h0Z"/>
        <path class="cls-18" d="M215.78,191.63c1.99-.79,3.98-1.59,5.96-2.38.4-.16.67-.53.55-.97-.1-.38-.57-.71-.97-.55-1.99.79-3.98,1.59-5.96,2.38-.4.16-.67.53-.55.97.1.38.57.71.97.55h0Z"/>
        <path class="cls-18" d="M233.45,133.93c1.77-1.09,3.66-1.96,5.65-2.59.41-.13.67-.55.55-.97-.11-.4-.56-.68-.97-.55-2.11.67-4.14,1.59-6.02,2.75-.36.22-.5.71-.28,1.08s.71.51,1.08.28h0Z"/>
      </g>
    </g>
    <g>
      <path class="cls-70" d="M365.74,642.72s-5.2,5.22-17.06,15.55c-3.94,3.43-8.56,3.42-11.66-.74-9.77-10.21-23.04-24.92-32.21-35.67-3.32-2.92-2.11-7.06,1.06-9.68,3.83-3.73,17.72-16.13,17.72-16.13h0s13.75-12.56,17.84-15.99c2.93-2.88,7.17-3.67,9.74-.07,9.77,10.21,23.05,24.91,32.22,35.66,3.83,3.51,3.38,8.1-.44,11.68-11.48,10.76-17.2,15.4-17.2,15.4"/>
      <path class="cls-70" d="M329.84,591.23c-9.94-26.77-35.87.19-11.52,10.4"/>
      <path class="cls-70" d="M371.28,637.1c25.62,12.6-3.82,35.66-11.52,10.4"/>
      <path class="cls-18" d="M373.63,603.93c-12.6,25.62-35.66-3.82-10.4-11.52"/>
      <path class="cls-18" d="M326.36,646.64c26.77-9.94-.19-35.87-10.4-11.52"/>
      <g>
        <path class="cls-18" d="M316.94,607.42c-3.3,2.72-6.39,5.71-9.22,8.91-.67.76.44,1.88,1.12,1.12,2.84-3.21,5.92-6.19,9.22-8.91.33-.27.28-.83,0-1.12-.33-.33-.79-.27-1.12,0h0Z"/>
        <path class="cls-18" d="M380.99,620.81c-3.08,3.47-6.45,6.67-10.09,9.56-.34.27-.27.84,0,1.12.33.33.78.26,1.12,0,3.63-2.89,7.01-6.09,10.09-9.56.67-.76-.44-1.88-1.12-1.12h0Z"/>
        <path class="cls-18" d="M376.59,620.07c-1.52,1.5-3.05,3-4.57,4.51-.29.29-.31.83,0,1.12s.8.31,1.12,0c1.52-1.5,3.05-3.01,4.57-4.51.29-.29.31-.83,0-1.12s-.8-.31-1.12,0h0Z"/>
        <path class="cls-18" d="M316.95,612.86c-1.82,1.26-3.49,2.73-4.94,4.4-.27.31-.33.81,0,1.12.3.27.83.33,1.12,0,.7-.8,1.44-1.55,2.23-2.26s1.52-1.29,2.4-1.89c.34-.23.53-.7.28-1.08-.22-.34-.72-.53-1.08-.28h0Z"/>
      </g>
    </g>
    <g>
      <path class="cls-52" d="M729.54,582.04s6.17,4.02,19.92,11.66c4.57,2.54,9.09,1.57,11.25-3.15,7.43-12.02,17.36-29.17,24.09-41.59,2.64-3.55.59-7.34-3.05-9.25-4.52-2.85-20.68-12.09-20.68-12.09h0s-16.06-9.43-20.78-11.93c-3.47-2.21-7.78-2.1-9.54,1.96-7.43,12.02-17.37,29.16-24.1,41.58-3.02,4.23-1.62,8.63,2.86,11.33,13.47,8.13,20.03,11.49,20.03,11.49"/>
      <path class="cls-18" d="M754.72,522.89c-22.44,17.66,11.16,34.09,13.43,7.78"/>
      <path class="cls-52" d="M722.96,577.7c-22.44,17.66,11.16,34.09,13.43,7.78"/>
      <path class="cls-18" d="M713.76,545.74c17.66,22.44,34.09-11.16,7.78-13.43"/>
      <path class="cls-18" d="M768.88,577.68c-28.25-4.16-7.27-35.12,7.78-13.43"/>
      <g>
        <path class="cls-18" d="M769.11,538.7c3.8,1.98,7.43,4.25,10.88,6.8.34.26.88.05,1.08-.28.24-.4.06-.83-.28-1.08-3.44-2.55-7.08-4.82-10.88-6.8-.9-.47-1.7.89-.8,1.36h0Z"/>
        <path class="cls-18" d="M709.24,565.13c3.74,2.76,7.7,5.19,11.86,7.26.91.45,1.71-.91.8-1.36-4.16-2.07-8.12-4.5-11.86-7.26-.82-.6-1.6.76-.8,1.36h0Z"/>
        <path class="cls-18" d="M713.4,563.48c1.8,1.15,3.61,2.31,5.41,3.46.36.23.87.07,1.08-.28.22-.38.08-.85-.28-1.08-1.8-1.15-3.61-2.31-5.41-3.46-.36-.23-.87-.07-1.08.28-.22.38-.08.85.28,1.08h0Z"/>
        <path class="cls-18" d="M770.6,544.2c1.9.8,3.72,1.87,5.38,3.11.34.26.88.06,1.08-.28.24-.4.06-.82-.28-1.08-1.78-1.33-3.71-2.41-5.76-3.27-.39-.16-.87.18-.97.55-.13.45.16.8.55.97h0Z"/>
      </g>
    </g>
    <g>
      <g>
        <path class="cls-17" d="M667.51,162.61c29.07,33,5.45,49.7-7.61,62.26-12.33,12.12-38.06,57.71-46.65,51.47-2.64-1.9.46-8.45,1.88-11.19,9.69-18.75,15.6-29.34,13.17-30.22-.91-1.81-38.58,44.97-46.16,37.7-7.4-7.1,35.09-48.6,32.03-51.26-2.65-2.22-50.44,40.39-58.7,31.8-6.6-6.86,47.63-46.74,45.48-48.98-1.34-1.39-47.5,20.53-52.95,15.62-11.56-7.87,49.31-33.5,64.14-45.86-9.19,2.35-23.07,3.38-32.15-.33-8.48-3.48-11.83-11.31-1.8-12.36,14.27-2.73,23.33-4.86,36.1-11.15,10.48-5.16,28.09-19.01,53.22,12.49"/>
        <path class="cls-17" d="M643.04,155.66c34.99-36.65,67.97-76.27,103.98-111.46,22.01,12.94,38.87,36.28,55.34,56-42.53,30.63-85.05,61.26-127.58,91.89"/>
      </g>
      <g>
        <path class="cls-18" d="M640.69,142.89c4.37,1.04,8.69,3.33,12.24,6.05,4.28,3.28,7.24,8.18,10.16,12.62,1.06,1.61,3.66.1,2.59-1.51-3.16-4.79-6.37-9.96-10.98-13.5-3.83-2.94-8.49-5.43-13.22-6.55-1.88-.45-2.68,2.45-.8,2.89h0Z"/>
        <path class="cls-18" d="M660.68,145.83c1.64,1.31,3.13,2.78,4.45,4.41.54.66,1.13,1.49,1.67,2.34.57.89,1.09,1.82,1.56,2.77.36.73,1.39.93,2.05.54.74-.43.9-1.32.54-2.05-1.94-3.91-4.75-7.4-8.16-10.13-.63-.51-1.5-.62-2.12,0-.52.52-.64,1.61,0,2.12h0Z"/>
      </g>
      <g>
        <path class="cls-6" d="M649.71,208.89s-4.17,2.51-13.42,7.22c-3.08,1.57-6.03.82-7.35-2.35-4.61-8.11-10.75-19.65-14.9-28.01-1.66-2.4-.22-4.86,2.23-6.03,3.05-1.77,13.93-7.48,13.93-7.48h0s10.82-5.84,13.99-7.37c2.34-1.37,5.18-1.2,6.25,1.52,4.62,8.1,10.76,19.65,14.91,28,1.89,2.86.86,5.73-2.16,7.4-9.08,5.04-13.48,7.1-13.48,7.1"/>
        <path class="cls-17" d="M634.36,168.98c14.38,12.18-8.17,22.22-9.04,4.81"/>
        <path class="cls-6" d="M654.16,206.18c14.38,12.18-8.17,22.22-9.04,4.81"/>
        <path class="cls-17" d="M660.99,185.33c-12.18,14.38-22.22-8.17-4.81-9.04"/>
        <path class="cls-17" d="M623.87,205.08c18.73-2.07,5.64-22.99-4.81-9.04"/>
        <g>
          <path class="cls-18" d="M624.14,178.46c-2.55,1.21-5,2.63-7.34,4.23-.55.38-.03,1.28.53.9,2.33-1.6,4.78-3.01,7.34-4.23.6-.29.08-1.19-.53-.9h0Z"/>
          <path class="cls-18" d="M663,197.31c-2.53,1.73-5.2,3.24-7.99,4.5-.61.28-.08,1.17.53.9,2.79-1.27,5.46-2.77,7.99-4.5.55-.38.03-1.28-.53-.9h0Z"/>
          <path class="cls-18" d="M660.3,196.13c-1.22.72-2.43,1.43-3.65,2.15-.58.34-.05,1.24.53.9,1.22-.72,2.43-1.43,3.65-2.15.58-.34.05-1.24-.53-.9h0Z"/>
          <path class="cls-18" d="M623.28,181.94c-1.37.52-2.67,1.19-3.87,2.02-.23.16-.34.46-.19.71.13.23.48.35.71.19,1.13-.78,2.34-1.43,3.62-1.92.26-.1.44-.35.36-.64-.07-.25-.38-.46-.64-.36h0Z"/>
        </g>
      </g>
    </g>
    <g>
      <g>
        <path class="cls-23" d="M147.82,241.78c-16.73,40.67,11.05,48.77,27.49,56.38,15.6,7.44,54.79,42.16,60.88,33.46,1.88-2.66-3.19-7.84-5.42-9.97-15.27-14.56-24.31-22.65-22.3-24.27.28-2.01,51.13,29.94,55.93,20.6,4.68-9.13-49.01-34.51-46.98-38.03,1.78-2.96,60.85,21.75,65.86,10.94,4.01-8.64-60.26-28.66-58.96-31.48.81-1.75,51.6,3.93,55.15-2.49,8.36-11.21-57.53-15.6-75.58-22.45,9.45-.78,22.91-4.32,30.29-10.78,6.88-6.06,7.5-14.54-2.33-12.27-14.38,2.07-23.64,3.01-37.77,1.22-11.59-1.47-32.75-8.82-46.24,29.15"/>
        <path class="cls-23" d="M168.69,227.23c-45.02-23.25-89.11-49.95-134.63-71.48C17.47,175.15,9.14,202.71,0,226.72c50.19,15.1,100.37,30.19,150.56,45.29"/>
      </g>
      <g>
        <path class="cls-18" d="M163.2,212.89c-2.51.55-4.31,2.39-5.74,4.43-1.61,2.29-2.92,4.81-4.03,7.37-2.27,5.23-3.59,10.77-3.94,16.45-.12,1.93,2.88,1.92,3,0,.31-4.97,1.44-9.88,3.34-14.49.93-2.24,2.06-4.41,3.34-6.46,1.17-1.88,2.54-3.91,4.83-4.41,1.89-.41,1.09-3.3-.8-2.89h0Z"/>
        <path class="cls-18" d="M146.16,223.22c-1.26,3.41-2.27,6.91-3.03,10.47-.17.79.23,1.62,1.05,1.85.75.21,1.67-.25,1.85-1.05.76-3.56,1.77-7.05,3.03-10.47.28-.76-.31-1.64-1.05-1.85-.84-.23-1.56.28-1.85,1.05h0Z"/>
      </g>
      <g>
        <path class="cls-70" d="M189.75,282.29s4.82-.62,15-2.68c3.38-.68,5.24-3.1,4.3-6.4-1.42-9.22-3.77-22.08-5.72-31.2-.19-2.91-2.85-3.94-5.49-3.34-3.49.5-15.57,2.79-15.57,2.79h0s-12.1,2.14-15.54,2.91c-2.69.38-4.8,2.28-3.95,5.07,1.41,9.22,3.77,22.08,5.71,31.2.29,3.42,2.88,5.02,6.29,4.46,10.25-1.68,14.98-2.81,14.98-2.81"/>
        <path class="cls-23" d="M177.1,242.03c-3.71,18.48,20.2,12.34,10.07-1.84"/>
        <path class="cls-23" d="M184.73,283.7c-10.01-15.97,14.52-18.69,10.07-1.84"/>
        <path class="cls-23" d="M166.28,270.82c18.48,3.71,12.34-20.2-1.84-10.07"/>
        <path class="cls-23" d="M207.64,263.25c-15.97,10.01-18.69-14.52-1.84-10.07"/>
        <g>
          <path class="cls-18" d="M191.11,243.57c2.71-.62,5.46-1.03,8.24-1.22.66-.05.67-1.09,0-1.04-2.87.2-5.71.62-8.51,1.26-.65.15-.38,1.15.28,1h0Z"/>
          <path class="cls-18" d="M172.22,282.5c3.1-.22,6.18-.7,9.2-1.45.65-.16.37-1.17-.28-1-2.93.73-5.91,1.2-8.92,1.42-.66.05-.67,1.09,0,1.04h0Z"/>
          <path class="cls-18" d="M173.74,279.88c1.4-.19,2.8-.39,4.2-.58.28-.04.43-.39.36-.64-.08-.3-.36-.4-.64-.36-1.4.19-2.8.39-4.2.58-.28.04-.43.39-.36.64.08.3.36.4.64.36h0Z"/>
          <path class="cls-18" d="M194.08,245.74c1.31-.42,2.65-.68,4.02-.76.28-.02.52-.23.52-.52,0-.27-.24-.54-.52-.52-1.46.09-2.91.36-4.3.8-.64.2-.36,1.21.28,1h0Z"/>
        </g>
      </g>
    </g>
    <g>
      <g>
        <path class="cls-52" d="M420.37,148.49c-41.71-13.95-47.91,14.31-54.4,31.22-6.37,16.07-38.37,57.51-29.28,62.99,2.78,1.69,7.61-3.71,9.58-6.08,13.5-16.22,20.96-25.79,22.72-23.89,2.02.14-26.43,53.04-16.78,57.19,9.42,4.06,31.13-51.23,34.77-49.44,3.07,1.57-17.6,62.18-6.47,66.45,8.89,3.41,24.54-62.06,27.44-60.95,1.8.69-.45,51.74,6.2,54.86,11.74,7.59,11.69-58.46,17.31-76.92,1.41,9.38,5.85,22.57,12.8,29.49,6.51,6.45,15.01,6.5,12.09-3.15-3.03-14.21-4.6-23.38-3.77-37.6.68-11.66,6.59-33.27-32.2-44.17"/>
        <path class="cls-52" d="M436.3,168.34c20.16-46.49,43.83-92.28,62.25-139.14-20.48-15.25-48.54-21.7-73.12-29.2-11.68,51.09-23.36,102.18-35.04,153.27"/>
      </g>
      <g>
        <path class="cls-18" d="M445.84,156.89c-7.86-3.4-16.03-5.94-24.45-7.5-1.89-.35-2.7,2.54-.8,2.89,8.15,1.51,16.13,3.91,23.74,7.2,1.75.76,3.28-1.83,1.51-2.59h0Z"/>
        <path class="cls-18" d="M427.51,146.96c3.41.23,6.8,1.04,10.01,2.35.75.31,1.65-.33,1.85-1.05.24-.86-.29-1.54-1.05-1.85-3.45-1.41-7.1-2.21-10.81-2.46-.81-.05-1.5.73-1.5,1.5,0,.86.69,1.45,1.5,1.5h0Z"/>
      </g>
      <g>
        <path class="cls-6" d="M389.35,204.67s-3.42-3.45-10.19-11.33c-2.25-2.62-2.22-5.67.54-7.69,6.78-6.4,16.55-15.1,23.69-21.1,1.94-2.18,4.67-1.36,6.38.74,2.44,2.54,10.57,11.77,10.57,11.77h0s8.23,9.13,10.47,11.85c1.89,1.95,2.39,4.75,0,6.43-6.78,6.4-16.54,15.1-23.68,21.11-2.33,2.51-5.36,2.19-7.7-.34-7.05-7.63-10.09-11.42-10.09-11.42"/>
        <path class="cls-6" d="M423.49,181.2c17.71-6.44.04-23.67-6.81-7.65"/>
        <path class="cls-6" d="M393.03,208.35c-8.43,16.85-23.52-2.68-6.81-7.65"/>
        <path class="cls-52" d="M414.91,210.05c-16.85-8.43,2.68-23.52,7.65-6.81"/>
        <path class="cls-6" d="M388.32,180.21c-16.85-8.43,2.68-23.52,7.65-6.81"/>
        <g>
          <path class="cls-18" d="M412.86,172.61c-1.78-2.19-3.74-4.24-5.84-6.13-.5-.45-1.24.29-.74.74,2.11,1.89,4.06,3.93,5.84,6.13.18.22.55.18.74,0,.22-.22.18-.52,0-.74h0Z"/>
          <path class="cls-18" d="M403.73,214.83c-2.28-2.05-4.38-4.29-6.27-6.7-.17-.22-.55-.18-.74,0-.22.22-.17.52,0,.74,1.89,2.41,3.99,4.65,6.27,6.7.5.45,1.24-.29.74-.74h0Z"/>
          <path class="cls-18" d="M404.24,211.93c-.98-1.01-1.97-2.03-2.95-3.04-.19-.2-.55-.21-.74,0s-.2.53,0,.74c.98,1.01,1.97,2.03,2.95,3.04.19.2.55.21.74,0s.2-.53,0-.74h0Z"/>
          <path class="cls-18" d="M409.27,172.6c-.82-1.21-1.79-2.31-2.88-3.28-.2-.18-.54-.22-.74,0-.18.2-.22.54,0,.74.52.46,1.02.96,1.48,1.48s.84,1,1.24,1.59c.15.22.46.35.71.19.22-.14.35-.47.19-.71h0Z"/>
        </g>
      </g>
    </g>
    <g>
      <g>
        <path class="cls-70" d="M625.36,605.39c39.16-20.01,23.33-44.22,15.8-60.7-7.01-15.8-14.19-67.66-24.47-65.01-3.15.8-2.68,8.03-2.37,11.1,2.12,20.99,3.73,33.02,1.15,32.94-1.51,1.34-19.36-56-29.08-52.03-9.5,3.88,14.77,58.1,10.95,59.45-3.27,1.09-32.07-56.1-42.91-51.15-8.66,3.95,27.12,60.97,24.3,62.26-1.76.8-36.63-36.55-43.51-33.98-13.64,3.07,33.55,49.27,42.8,66.22-7.69-5.56-20.21-11.63-30.02-11.51-9.16.13-15.15,6.17-6.21,10.84,12.27,7.78,19.91,13.09,29.48,23.64,7.85,8.65,19.14,28,54.08,7.94"/>
        <path class="cls-70" d="M600.04,602.87c19.07,46.95,35.19,95.91,55.75,141.87,25.23-3.94,49.48-19.46,72.05-31.75-28.3-44.11-56.59-88.23-84.89-132.34"/>
      </g>
      <g>
        <path class="cls-18" d="M587.8,616.15c13.04,2.69,27.01-.37,37.63-8.44,1.52-1.15.02-3.76-1.51-2.59-9.98,7.58-23.02,10.67-35.32,8.13-1.88-.39-2.69,2.5-.8,2.89h0Z"/>
        <path class="cls-18" d="M614.92,620.68c3.98-.56,7.83-1.88,11.34-3.83.71-.39.94-1.36.54-2.05s-1.34-.93-2.05-.54c-3.3,1.83-6.89,3-10.63,3.53-.8.11-1.24,1.14-1.05,1.85.24.86,1.04,1.16,1.85,1.05h0Z"/>
      </g>
      <g>
        <path class="cls-77" d="M603.41,586.94s4.6,1.57,14.64,4.23c3.34.88,6.07-.47,6.69-3.84,2.8-8.9,6.38-21.47,8.67-30.51,1.11-2.7-.81-4.79-3.45-5.42-3.35-1.09-15.19-4.38-15.19-4.38h0s-11.8-3.43-15.23-4.26c-2.58-.85-5.32-.08-5.79,2.8-2.81,8.89-6.38,21.47-8.68,30.51-1.25,3.19.36,5.78,3.67,6.78,9.94,3.02,14.67,4.1,14.67,4.1"/>
        <path class="cls-77" d="M609.65,545.99c-1.92-18.75,21.29-10.35,9.85,2.8"/>
        <path class="cls-77" d="M598.5,585.23c-11.49,14.93,12.67,20,9.85,2.8"/>
        <path class="cls-70" d="M587.43,566.28c14.94,11.49,20-12.67,2.8-9.85"/>
        <path class="cls-70" d="M627.88,577.77c-18.75,1.92-10.35-21.29,2.8-9.85"/>
        <g>
          <path class="cls-18" d="M621.71,552.81c2.75.65,5.45,1.52,8.06,2.59.26.11.57-.12.64-.36.09-.3-.1-.53-.36-.64-2.62-1.07-5.31-1.94-8.06-2.59-.65-.15-.93.85-.28,1h0Z"/>
          <path class="cls-18" d="M587.69,579.42c2.84,1.16,5.77,2.07,8.76,2.72.65.14.93-.86.28-1-2.99-.65-5.93-1.56-8.76-2.72-.62-.25-.89.75-.28,1h0Z"/>
          <path class="cls-18" d="M590.08,577.69c1.34.44,2.68.89,4.02,1.33.27.09.57-.1.64-.36.08-.28-.1-.55-.36-.64-1.34-.44-2.68-.89-4.02-1.33-.27-.09-.57.1-.64.36-.08.28.1.55.36.64h0Z"/>
          <path class="cls-18" d="M623.42,556.06c1.4.21,2.77.59,4.08,1.14.26.11.57-.12.64-.36.08-.3-.1-.53-.36-.64-1.31-.54-2.68-.93-4.08-1.14-.28-.04-.56.07-.64.36-.07.25.08.6.36.64h0Z"/>
        </g>
      </g>
    </g>
    <g>
      <g>
        <path class="cls-6" d="M210.14,617.29c-39.32-19.7-23.68-44.04-16.28-60.58,6.89-15.86,13.66-67.77,23.96-65.2,3.16.77,2.74,8.01,2.46,11.08-1.96,21.01-3.47,33.05-.89,32.95,1.52,1.33,18.92-56.15,28.67-52.25,9.53,3.81-14.32,58.21-10.48,59.53,3.28,1.06,31.63-56.35,42.51-51.49,8.69,3.89-26.65,61.18-23.81,62.45,1.76.79,36.34-36.84,43.24-34.32,13.66,2.96-33.16,49.54-42.28,66.55,7.64-5.62,20.12-11.78,29.93-11.75,9.16.05,15.2,6.05,6.3,10.79-12.21,7.88-19.81,13.24-29.29,23.87-7.78,8.71-18.92,28.15-54.02,8.36"/>
        <path class="cls-6" d="M235.44,614.56c-18.7,47.09-34.43,96.18-54.63,142.3-25.26-3.74-49.63-19.07-72.29-31.19,27.95-44.33,55.9-88.67,83.84-133"/>
      </g>
      <g>
        <path class="cls-18" d="M214.72,618.26c11.96,9.84,29.26,11.9,43.18,5.11,1.73-.85.22-3.43-1.51-2.59-12.62,6.16-28.7,4.29-39.55-4.64-1.48-1.22-3.61.89-2.12,2.12h0Z"/>
        <path class="cls-18" d="M208.45,623.19c2.79,2.44,6.12,4.2,9.74,5.06.76.18,1.66-.24,1.85-1.05.17-.77-.23-1.65-1.05-1.85s-1.59-.42-2.36-.7c-.19-.07-.38-.14-.58-.22-.1-.04-.19-.08-.29-.12.15.06,0,0-.07-.03-.4-.18-.79-.36-1.18-.56-.73-.38-1.44-.79-2.12-1.25-.17-.11-.34-.23-.51-.35-.08-.06-.17-.12-.25-.18-.02-.02-.24-.18-.16-.11-.19-.15-.64-.52-.92-.76-.59-.52-1.55-.62-2.12,0-.52.57-.63,1.57,0,2.12h0Z"/>
      </g>
      <g>
        <path class="cls-23" d="M234,597.75s-4.55,1.7-14.51,4.65c-3.31.98-6.08-.3-6.79-3.65-3.06-8.81-6.99-21.28-9.53-30.26-1.19-2.66.67-4.81,3.29-5.52,3.32-1.19,15.06-4.81,15.06-4.81h0s11.7-3.76,15.1-4.7c2.55-.92,5.31-.23,5.86,2.63,3.06,8.81,6.99,21.28,9.54,30.25,1.34,3.16-.2,5.79-3.47,6.89-9.84,3.3-14.55,4.52-14.55,4.52"/>
        <path class="cls-6" d="M226.41,556.41c11.92,14.6-12.09,20.35-9.77,3.08"/>
        <path class="cls-23" d="M238.86,595.9c11.92,14.6-12.09,20.35-9.77,3.08"/>
        <path class="cls-6" d="M249.44,576.62c-14.6,11.92-20.35-12.09-3.08-9.77"/>
        <path class="cls-23" d="M210.44,588.92c-14.6,11.92-20.35-12.09-3.08-9.77"/>
        <g>
          <path class="cls-18" d="M214.45,563.15c-2.78.74-5.48,1.7-8.11,2.87-.61.27-.08,1.17.53.9,2.54-1.13,5.17-2.05,7.86-2.76.65-.17.37-1.18-.28-1h0Z"/>
          <path class="cls-18" d="M249.09,588.83c-2.76,1.22-5.63,2.19-8.56,2.92-.65.16-.37,1.16.28,1,3.02-.75,5.96-1.76,8.81-3.02.61-.27.08-1.17-.53-.9h0Z"/>
          <path class="cls-18" d="M246.77,587.12c-1.33.48-2.66.97-3.98,1.45-.26.1-.44.35-.36.64.07.25.37.46.64.36,1.33-.48,2.66-.97,3.98-1.45.26-.1.44-.35.36-.64-.07-.25-.37-.46-.64-.36h0Z"/>
          <path class="cls-18" d="M212.83,566.45c-1.44.26-2.83.7-4.17,1.31-.26.12-.32.49-.19.71.15.26.45.3.71.19,1.25-.56,2.57-.96,3.92-1.2.28-.05.43-.39.36-.64-.08-.29-.36-.41-.64-.36h0Z"/>
        </g>
      </g>
    </g>
  </g>
</svg>