<?xml version="1.0" encoding="UTF-8"?>
<svg id="Capa_1" data-name="Capa 1" xmlns="http://www.w3.org/2000/svg" viewBox="0 0 263.45 580.95">
  <defs>
    <style>
      .cls-1 {
        fill: #862922;
      }

      .cls-2 {
        fill: #882a23;
      }

      .cls-3 {
        fill: #222b56;
      }

      .cls-4 {
        fill: #f6b198;
      }

      .cls-5 {
        fill: #231f20;
      }

      .cls-6 {
        fill: #cc7e60;
      }

      .cls-7 {
        fill: #202020;
      }

      .cls-8 {
        fill: #8c95cb;
      }

      .cls-9 {
        fill: #dc4537;
      }

      .cls-10 {
        fill: #664031;
      }

      .cls-11 {
        fill: #868686;
      }

      .cls-12 {
        fill: #a97d50;
      }

      .cls-13 {
        fill: #942d25;
      }

      .cls-14 {
        fill: #886441;
      }
    </style>
  </defs>
  <g>
    <path class="cls-10" d="M142.91,277.21H44.43l10.71-122.83c0-33.21,23.56-60.92,54.88-67.33l30.89,19.17,2.01,170.99Z"/>
    <path class="cls-13" d="M122.03,138.27c0,11.88-9.62,21.51-21.5,21.51s-21.5-9.63-21.5-21.51,9.62-21.51,21.5-21.51,21.5,9.63,21.5,21.51Z"/>
    <path class="cls-6" d="M100.53,116.77c11.88,0,21.5,9.63,21.5,21.51s-9.62,21.51-21.5,21.51-21.5-9.63-21.5-21.51,9.62-21.51,21.5-21.51h0ZM100.53,113.52c-13.65,0-24.75,11.11-24.75,24.76s11.1,24.76,24.75,24.76,24.75-11.11,24.75-24.76-11.1-24.76-24.75-24.76h0Z"/>
    <polygon class="cls-6" points="140.9 106.21 110.01 87.05 113.86 82.78 143.52 98.37 140.9 106.21"/>
  </g>
  <g>
    <path class="cls-11" d="M256.76,552.23h-9.74v-264.66c0-7.42-6.03-13.46-13.45-13.46h-14.9v-9.74h14.9c12.78,0,23.19,10.41,23.19,23.2v264.66Z"/>
    <polygon class="cls-5" points="259.4 552.23 244.37 552.23 240.32 580.95 263.45 580.95 259.4 552.23"/>
    <path class="cls-7" d="M215.69,258.07v6.3h-46.32c-2.59,0-4.69,2.1-4.69,4.68v.09c0,2.59,2.1,4.68,4.69,4.68h46.32v6.3h2.97v-22.05h-2.97Z"/>
  </g>
  <g>
    <path class="cls-12" d="M127.03,442.09c-11.27,2.38-22.34-4.82-24.73-16.1l-23.72-112.27c-2.39-11.27,4.82-22.34,16.1-24.72,11.27-2.38,22.34,4.82,24.72,16.1l23.73,112.27c2.39,11.27-4.82,22.34-16.1,24.72Z"/>
    <path class="cls-5" d="M150.8,563.38l-43.31-13.47c-.85-.26-1.73-.4-2.62-.4l-23.77-.09-.08,22.39c0,4.92,3.96,8.92,8.88,8.95l58.22.2c4.92.02,8.92-3.96,8.95-8.88v-.16c0-3.91-2.53-7.38-6.27-8.54Z"/>
    <path class="cls-12" d="M94.07,580.76c1.23-32.59-14.5-23.48-12.98-31.35l22.44-110.66c3.29-16.83,15.23-29.34,26.43-26.59,11.18,2.75,15.96,19.38,11.06,35.81l-30.66,102.82s-9.52-2.36-10.74,29.98l-5.55-.02Z"/>
  </g>
  <g>
    <path class="cls-12" d="M82.54,444.72c-11.48-.99-19.98-11.11-18.99-22.58l9.88-114.31c.99-11.48,11.1-19.98,22.58-18.99,11.47.99,19.98,11.1,18.99,22.58l-9.88,114.31c-.99,11.48-11.1,19.98-22.58,18.99Z"/>
    <path class="cls-5" d="M70.19,563.38l-43.32-13.47c-.85-.26-1.73-.4-2.61-.4l-23.77-.09-.08,22.39c-.02,4.92,3.96,8.92,8.88,8.95l58.21.2c4.92.02,8.92-3.96,8.95-8.88v-.16c.01-3.91-2.53-7.38-6.26-8.54Z"/>
    <path class="cls-14" d="M13.18,580.76c2.16-37.6-16.38-25.7-12.7-31.35l58.06-110.42c8.03-15.15,23.1-23.66,33-17.78,9.91,5.88,9.65,23.18.19,37.49l-61.08,92.37s-15.58-1.56-11.26,29.7l-6.22-.02Z"/>
  </g>
  <g>
    <polygon class="cls-1" points="183.13 249.9 189 253.18 183.19 267.71 174.79 264.53 183.13 249.9"/>
    <path class="cls-4" d="M189,253.18c6.12,1.18,15.47.08,18.78,1.34,3.31,1.26,3.18,7.23,3.18,7.23,0,0,3.68,9.66-.88,18.77-4.56,9.11-19.73,2.92-23.92.18-2.88-1.89-2.97-12.98-2.97-12.98l5.81-14.54Z"/>
    <path class="cls-9" d="M109.44,231.91c-8.92.8-16.82-5.79-17.61-14.72l-6.73-75.19c-.79-8.93,5.8-16.82,14.72-17.62,8.94-.8,16.82,5.8,17.61,14.72l6.73,75.18c.81,8.93-5.78,16.82-14.72,17.62Z"/>
    <path class="cls-9" d="M182.11,258.3c-3.2,6.48-5.08,8.9-11.93,5.75l-62.62-25.11c-9.6-4.41-15.5-11.38-15.9-23.79,3.98-8.04,20.47-9.26,29.79-4.3l57.73,34.34c6.67,3.54,6.14,6.62,2.94,13.11Z"/>
  </g>
  <g>
    <polygon class="cls-3" points="161.31 449.28 26.03 449.28 44.43 277.21 142.91 277.21 161.31 449.28"/>
    <path class="cls-8" d="M58.38,417.28c0,3.03-2.45,5.49-5.48,5.49s-5.49-2.46-5.49-5.49,2.45-5.49,5.49-5.49,5.48,2.46,5.48,5.49Z"/>
    <path class="cls-8" d="M104.4,433.51c0,3.04-2.46,5.49-5.5,5.49s-5.49-2.46-5.49-5.49,2.46-5.49,5.49-5.49,5.5,2.46,5.5,5.49Z"/>
    <path class="cls-8" d="M138.02,366.77c0,3.03-2.46,5.49-5.5,5.49s-5.49-2.46-5.49-5.49,2.46-5.49,5.49-5.49,5.5,2.46,5.5,5.49Z"/>
    <path class="cls-8" d="M100.26,380.37c0,3.03-2.46,5.49-5.49,5.49s-5.5-2.46-5.5-5.49,2.46-5.49,5.5-5.49,5.49,2.46,5.49,5.49Z"/>
    <path class="cls-8" d="M143.52,408.3c0,3.03-2.46,5.49-5.49,5.49s-5.5-2.46-5.5-5.49,2.46-5.49,5.5-5.49,5.49,2.46,5.49,5.49Z"/>
    <path class="cls-8" d="M63.88,343.63c0,3.03-2.46,5.49-5.49,5.49s-5.48-2.46-5.48-5.49,2.45-5.49,5.48-5.49,5.49,2.46,5.49,5.49Z"/>
    <path class="cls-8" d="M100.26,327.15c0,3.03-2.46,5.49-5.49,5.49s-5.5-2.46-5.5-5.49,2.46-5.49,5.5-5.49,5.49,2.46,5.49,5.49Z"/>
    <path class="cls-8" d="M135.22,298.99c0,3.03-2.46,5.49-5.49,5.49s-5.48-2.46-5.48-5.49,2.45-5.49,5.48-5.49,5.49,2.46,5.49,5.49Z"/>
    <path class="cls-8" d="M71.35,293.49c0,3.03-2.46,5.49-5.49,5.49s-5.49-2.46-5.49-5.49,2.46-5.49,5.49-5.49,5.49,2.46,5.49,5.49Z"/>
  </g>
  <g>
    <path class="cls-2" d="M151.26,87.19c8.44-6.88,12.75,15.9,12.75,15.9,0,0-21.19-9.02-12.75-15.9Z"/>
    <path class="cls-4" d="M173.07,51.44c3.89-18.47,3.31-37.38-8.37-40.93-48.49-14.7-54.25,22.24-50.74,48.79,2.48,18.7,19.61,36.3,41.92,27.75,3.18-.52,7.32-3.99,12.04-17.84,0,0,5.81,3.22,8.73-.66-.99-8.47-3.59-17.11-3.59-17.11Z"/>
    <polygon class="cls-4" points="113.13 82.35 139.6 96.32 147.12 80.41 120.98 72.42 113.13 82.35"/>
    <path class="cls-10" d="M142.91,12.16c-16.18,5.35,7.11,24.74,11.56,23.32,9.55-3.05,24.3-6.55,14.02,4.96,21.96-1,45.92-48.48-25.58-28.28Z"/>
    <path class="cls-4" d="M134.08,38.32c-4.26-.26-7.92,3.09-8.19,7.48-.28,4.39,2.96,8.16,7.21,8.42,4.26.26,7.92-3.09,8.19-7.48.27-4.39-2.96-8.16-7.21-8.42Z"/>
    <path class="cls-9" d="M183.42,4.92c-5.56,27.86-38.42,46.38-31.46,87.23-33.28-4.54-53.98,12.7-97.78,15.36,45.74-34.61,31.3-81.39,58.95-99.05,32.95-21.06,61.2,4.85,70.29-3.54Z"/>
    <path class="cls-9" d="M148.57,90.71c10.54-2.75,4.97,19.77,4.97,19.77,0,0-15.51-17.03-4.97-19.77Z"/>
  </g>
</svg>