<?xml version="1.0" encoding="UTF-8"?>
<svg id="Capa_1" data-name="Capa 1" xmlns="http://www.w3.org/2000/svg" viewBox="0 0 200.13 586.39">
  <defs>
    <style>
      .cls-1 {
        fill: #252a58;
      }

      .cls-2 {
        fill: #f6b198;
      }

      .cls-3 {
        fill: #231f20;
      }

      .cls-4 {
        fill: #3d519f;
      }

      .cls-5 {
        fill: #ef7b1a;
      }

      .cls-6 {
        fill: #333d81;
      }

      .cls-7 {
        fill: #543428;
      }

      .cls-8 {
        fill: #664031;
      }

      .cls-9 {
        fill: #f7b5a5;
      }

      .cls-10 {
        fill: #be877a;
      }

      .cls-11 {
        fill: #394a9a;
      }

      .cls-12 {
        fill: #f39249;
      }

      .cls-13 {
        fill: #263683;
      }
    </style>
  </defs>
  <rect class="cls-10" x="91.69" y="63.72" width="29.74" height="30.47"/>
  <path class="cls-2" d="M177.3,280.81s.87,4.73-.44,6.66c-2.57,3.8-8.04,9.05-6.41,12.52.38.83,2.22,4.18,2.22,4.18,0,0-2.02,12.44.86,14.42,17,6.37,25.27-10.44,25.64-14.46.38-4.03-5.41-10.76-5.8-17.2-.09-1.53-.27-7.06-.27-7.06l-15.8.94Z"/>
  <path class="cls-2" d="M43.93,274.46s.65,4.77,2.5,6.2c3.63,2.8,10.46,6.08,10,9.89-.11.91-.81,4.66-.81,4.66,0,0,5.81,11.18,3.68,13.97-14.16,11.37-27.26-2.02-28.88-5.73-1.61-3.71,1.78-11.92.13-18.16-.39-1.49-1.94-6.79-1.94-6.79l15.31-4.04Z"/>
  <path class="cls-3" d="M187.44,563.66l-41.51-14.98c-.84-.15-1.67-.29-2.5-.44h-25.14c-.11,0-.2.11-.2.24v24.94c0,5.53,3.82,10.02,8.52,10.02h58.32c4.71,0,8.53-4.49,8.53-10.02v-.18c0-4.4-2.44-8.28-6.03-9.58Z"/>
  <g>
    <path class="cls-11" d="M125.43,100.08l-37.99.35c-2.1.02-3.81-1.66-3.84-3.76l-.17-11.38c-.02-2.1,1.66-3.82,3.76-3.84l37.99-.36c2.1-.02,3.81,1.67,3.84,3.76l.17,11.38c.02,2.1-1.67,3.82-3.76,3.84Z"/>
    <polygon class="cls-13" points="93.51 100.38 89.87 100.41 89.62 81.43 93.26 81.4 93.51 100.38"/>
    <polygon class="cls-13" points="100.37 100.32 96.73 100.35 96.48 81.37 100.13 81.33 100.37 100.32"/>
    <polygon class="cls-13" points="107.24 100.25 103.59 100.28 103.34 81.3 106.99 81.27 107.24 100.25"/>
    <polygon class="cls-13" points="114.1 100.19 110.46 100.22 110.21 81.24 113.85 81.2 114.1 100.19"/>
    <polygon class="cls-13" points="120.97 100.12 117.32 100.16 117.07 81.17 120.72 81.14 120.97 100.12"/>
  </g>
  <g>
    <path class="cls-4" d="M187.82,215.67c4.06-1.06,10.05,7.84,11.9,4.94,1.07-13.7-.24-18.8-.75-25.46,0,0-8.58-80.41-37.08-90.51-5.27,10.96-4.18,33.36-.86,42.88l11.32,57.31c.56,1.59.28,3.7-.62,6.73,2.91,5.63,8.81,3.41,16.1,4.11Z"/>
    <path class="cls-4" d="M186.01,289.19c5.04.31,8.32.81,9.02-4.73l4.52-62.3c.59-4.68.27-9.26-.78-13.24-1.93-7.36-6.35-12.72-12.12-13.07-8.88-.54-16.04,11.15-15.98,24.56l4.81,62.87c.03,5.58,5.47,5.61,10.52,5.91Z"/>
  </g>
  <g>
    <path class="cls-4" d="M10.42,213.51c-3.31-1.39-7.61,1.77-9.55,2.3-.85-3.97-1.21-8.66-.5-14.91.3-2.57,1.26-5.83,1.9-9.28,0,0,21.29-78.3,50.93-84.27,3.68,11.6,5.76,27.44,1.13,36.39l-27.07,61.22c-4.63,8.95-8.07,8.95-16.84,8.55Z"/>
    <path class="cls-4" d="M37.01,283.85c-4.78,1.66-7.8,3.02-9.97-2.12L3.14,223.33c-1.83-4.35-2.76-8.84-2.82-12.96-.12-7.61,2.69-13.96,8.14-15.85,8.41-2.91,18.45,6.41,22.01,19.34l15.05,61.46c1.48,5.38-3.75,6.87-8.52,8.53Z"/>
  </g>
  <path class="cls-8" d="M162.29,316.29c1.35-33.19-3.69-46.96-3.69-46.96,0,0-93.77-.2-96.33,0-5.18,21.09-4.54,49.78-4.38,54.72l.37,95.01c-.43,10.28,8.24,19.03,19.35,19.79,11.11.75,20.89-6.74,21.85-16.98l5.59-98.77c3.17-.16,6.35-.33,9.52-.51l.78,89.73c-.04,5.3.18,11.6.18,20.26-.06.08-.12.19-.18.26-6.01,17.48-4.22,118.17-4.16,122.75,18.76-1.04,46.9-6.93,46.9-6.93-4.86-78.15,1.53-115.51,1.53-115.51.94-10.45-.04-15.15,0-20.52l2.48-96.02c.07-.11.18-.21.18-.32Z"/>
  <rect class="cls-6" x="62.27" y="251.8" width="96.33" height="17.53"/>
  <path class="cls-4" d="M161.89,104.65l-33.34-7.87-44.4,2.07-32.69,8.98s.75,9.94,2.71,47.2c6.67,38.39-1.25,67.95,8.11,96.77,3.71,0,96.33,0,96.33,0,7.48-39.43.62-52.66,4.28-93.41,4.63,3.86-.99-53.75-.99-53.75Z"/>
  <g>
    <rect class="cls-12" x="42.5" y="158.39" width="10.41" height="399.74"/>
    <path class="cls-8" d="M42.33,142.38h10.77c2.76,0,5,2.24,5,5v6.01c0,2.76-2.24,5-5,5h-10.76c-2.76,0-5.01-2.24-5.01-5.01v-6c0-2.76,2.24-5,5-5Z"/>
    <polygon class="cls-3" points="55.09 558.13 40.34 558.13 35.53 586.39 59.9 586.39 55.09 558.13"/>
  </g>
  <rect class="cls-1" x="67.27" y="251.81" width="4.72" height="17.44"/>
  <rect class="cls-1" x="74.14" y="251.81" width="4.72" height="17.44"/>
  <rect class="cls-1" x="81" y="251.81" width="4.72" height="17.44"/>
  <rect class="cls-1" x="87.87" y="251.81" width="4.72" height="17.44"/>
  <rect class="cls-1" x="94.73" y="251.81" width="4.72" height="17.44"/>
  <rect class="cls-1" x="101.59" y="251.81" width="4.72" height="17.44"/>
  <rect class="cls-1" x="108.46" y="251.81" width="4.72" height="17.44"/>
  <rect class="cls-1" x="115.32" y="251.81" width="4.72" height="17.44"/>
  <rect class="cls-1" x="122.18" y="251.81" width="4.73" height="17.44"/>
  <rect class="cls-1" x="129.04" y="251.81" width="4.72" height="17.44"/>
  <rect class="cls-1" x="135.91" y="251.81" width="4.72" height="17.44"/>
  <rect class="cls-1" x="142.77" y="251.81" width="4.72" height="17.44"/>
  <rect class="cls-1" x="149.64" y="251.81" width="4.72" height="17.44"/>
  <path class="cls-7" d="M116.48,311.57h-.11c-5.81,0-10.52-4.71-10.52-10.51v-31.73h10.63v42.24Z"/>
  <g>
    <path class="cls-5" d="M76.91,37.8c-4.6,8.63,5.65,38.7,12.73,38.7h34.06c7.06,0,19.31-32.17,13.02-38.49-7.82-5.32-27.37-11.97-27.37-11.97,0,0-26.56,6.69-32.45,11.77Z"/>
    <path class="cls-9" d="M80.58,55.25c-4.03.81-8.06-2.17-8.99-6.69-.93-4.51,1.57-8.86,5.6-9.71,4.03-.81,7.46,15.56,3.39,16.4Z"/>
    <path class="cls-9" d="M132.53,55.25c4.03.81,8.06-2.17,8.99-6.69.97-4.51-1.53-8.86-5.6-9.71-4.03-.81-7.41,15.56-3.39,16.4Z"/>
    <path class="cls-9" d="M106.77,85.2c31.48,0,28.09-57.4,28.09-57.4,0,0-1.37-18.78-27.36-18.78-22.7,0-28.26,19.27-28.26,19.27,0,0-3.46,56.91,27.53,56.91Z"/>
    <path class="cls-5" d="M75.61,39.41c2.75-.6,5.69,4.6,5.69,4.6l1.1-19.3s37,4.76,37-8.92c10.7,0,11.32,8.27,11.32,8.27,0,0,2.37,21.76,2.29,20.92,1.42-5.6,5.4-5.04,5.4-5.04,0,0,8.55-39.94-31.43-39.94s-31.4,38.29-31.37,39.41Z"/>
  </g>
</svg>