<?xml version="1.0" encoding="UTF-8"?>
<svg id="Capa_1" data-name="Capa 1" xmlns="http://www.w3.org/2000/svg" viewBox="0 0 432.74 578.23">
  <defs>
    <style>
      .cls-1 {
        fill: #7a5b9d;
      }
    </style>
  </defs>
  <path class="cls-1" d="M309.88,453.47c-22.17,52.41-73.25,86.27-130.15,86.27-77.88,0-141.24-63.36-141.24-141.24,0-52.59,29.88-101.05,75.79-125.18v-42.24c-33.15,12.97-61.49,35.27-81.96,64.58C11.17,325.91,0,361.47,0,398.5c0,99.1,80.63,179.73,179.73,179.73,65.03,0,124.07-34.78,155.86-90.18l-24.77-36.48c-.34.61-.66,1.24-.94,1.9Z"/>
  <rect class="cls-1" x="133.81" y="112.39" width="69.3" height="268.85" rx="34.65" ry="34.65"/>
  <rect class="cls-1" x="158.88" y="172.65" width="168.38" height="52.48" rx="26.24" ry="26.24"/>
  <path class="cls-1" d="M390.13,474.73l31.07-21.02c12-8.12,15.15-24.44,7.03-36.44h0c-8.12-12-24.44-15.15-36.44-7.03l-31.07,21.02,29.41,43.47Z"/>
  <path class="cls-1" d="M289.29,371.37l64.94,95.99c8.12,12,24.44,15.15,36.44,7.03h0c12-8.12,15.15-24.44,7.03-36.44l-64.94-95.99c-8.12-12-24.44-15.15-36.44-7.03h0c-12,8.12-15.15,24.44-7.03,36.44Z"/>
  <path class="cls-1" d="M167.8,328.75h142.14c14.48,0,26.24,11.76,26.24,26.24h0c0,14.48-11.76,26.24-26.24,26.24h-142.14v-52.48h0Z"/>
  <circle class="cls-1" cx="168.8" cy="46.62" r="46.62" transform="translate(16.47 133.02) rotate(-45)"/>
</svg>