<?xml version="1.0" encoding="UTF-8"?>
<svg id="Capa_1" data-name="Capa 1" xmlns="http://www.w3.org/2000/svg" viewBox="0 0 324.2 572.79">
  <defs>
    <style>
      .cls-1 {
        fill: #432a20;
      }

      .cls-2 {
        fill: #f6b198;
      }

      .cls-3 {
        fill: #231f20;
      }

      .cls-4 {
        fill: #7e5d3c;
      }

      .cls-5 {
        fill: #ee722b;
      }

      .cls-6 {
        fill: #664031;
      }

      .cls-7 {
        fill: #010101;
      }

      .cls-8 {
        fill: #271914;
      }

      .cls-9 {
        fill: #a97d50;
      }
    </style>
  </defs>
  <g>
    <polygon class="cls-2" points="148.16 95 121.27 93.7 121.84 66.29 149.51 77.01 148.16 95"/>
    <path class="cls-2" d="M160.69,9.85c-44.6-10.59-47.77,23.08-43.12,46.86,3.28,16.75,22.79,23.23,37.02,25.35,4.39.34,9.66-9.79,13.16-22.56l7.82.84-5.06-13.99c2.5-16.9.93-33.94-9.81-36.5Z"/>
    <path class="cls-8" d="M161.17,5.25c-19.58-7.61-41.67-7.46-44.74,3.82-14.3,5.72-9.46,33.2-2.41,49.45,3.31,7.63-3.76,10.95-6.12,14.88,4.49-.95,10.45.33,15.93-4.04,12.32-11.39,4.62-30.81,8.27-32,8.79-3.26,12.72,9.55,12.72,9.55l-2.4-20.93s28.35,6.88,38.52,1.15c-7.17-2.29-8.93-17.67-19.78-21.88Z"/>
    <path class="cls-2" d="M134.57,36.66c-3.86,0-7,3.22-7,7.2s3.13,7.21,7,7.21,6.99-3.23,6.99-7.21-3.13-7.2-6.99-7.2Z"/>
    <polygon class="cls-8" points="168.56 60.47 154.17 62.39 167.1 67.76 168.56 60.47"/>
    <polygon class="cls-7" points="173.74 49.34 171.07 49.15 172.18 33.45 174.84 33.64 173.74 49.34"/>
    <polygon class="cls-7" points="171.88 37.53 137.32 37.24 139.38 38.46 171.76 39.3 171.88 37.53"/>
  </g>
  <g>
    <path class="cls-1" d="M72.88,202.48c-7.14-5.81-8.23-16.31-2.42-23.46l48.93-60.18c5.81-7.16,16.32-8.23,23.47-2.42,7.15,5.81,8.24,16.31,2.42,23.46l-48.93,60.18c-5.81,7.16-16.32,8.23-23.46,2.42Z"/>
    <path class="cls-2" d="M74.11,276.43c1.78,9-.21,18.84-2.52,22-2.31,3.15-7.89,8.38-11.49,8.48-3.61.11-12.37-1.47-13.15-4.57-.78-3.09,10.16-13.15,10.16-13.15,0,0-2.96-11.11.85-15.02.82.11,15.73.44,16.15,2.26Z"/>
    <rect class="cls-6" x="62.05" y="262.64" width="8.86" height="17.73" transform="translate(-211.37 302.09) rotate(-82.52)"/>
    <path class="cls-1" d="M65.87,267.92c-7.34-1.13-9.26.09-8.31-7.61l3.42-63.31c.84-6.71,7.28-17.19,12.09-20.12,2.91-1.77,3.43,2.31,6.86,2.84,9.11,1.4,16.53,11.57,14.57,22.24l-16.67,61.64c-1.4,7.63-4.63,5.45-11.97,4.32Z"/>
  </g>
  <path class="cls-3" d="M217.6,550.36l-41.64-15.02c-.85-.16-1.67-.31-2.51-.45h-25.22c-.11,0-.2.11-.2.24v25.01c0,5.55,3.83,10.05,8.56,10.05h58.49c4.72,0,8.56-4.5,8.56-10.05v-.17c0-4.42-2.45-8.31-6.04-9.61Z"/>
  <path class="cls-3" d="M66.3,553.42l-27.94-34.34c-.64-.55-1.28-1.11-1.93-1.67l-21.61-13c-.1-.06-.23-.01-.29.1l-12.89,21.43c-2.87,4.76-1.9,10.59,2.15,13.02l50.13,30.16c4.05,2.43,9.65.55,12.51-4.2l.09-.15c2.27-3.79,2.18-8.39-.23-11.35Z"/>
  <path class="cls-4" d="M186.67,534.48c-5.33,1.45-39.06,3.11-43.64.8-2.49-79.18,14.38-114.28,8.86-133.37l-40.54-112.94c-3.13-11.43,11.99-13.07,23.41-16.19,11.42-3.13,31.54-.21,31.54-.21l27.86,125.21c3.12,11.42-7.72,95.54-7.49,136.7Z"/>
  <path class="cls-9" d="M165.77,293.63s-.01-.02-.01-.03c2.43-14,.3-20.98.3-20.98l-68.59-4.06s-2.35,12.74.69,24.78c4.15,54.22-14.56,112.72-14.56,112.72-3.23,11.39-39.81,24.27-73.48,98.9,4.27,1.21,37.23,23.45,41.15,22.15,22.84-59.33,69.38-89.69,73.57-109.34l36.28-110.05c2.36-4.69,3.82-9.46,4.62-14.02l.02-.08Z"/>
  <g>
    <polygon class="cls-1" points="155.36 86.2 115.37 82.02 113.28 96.39 155.36 96.39 155.36 86.2"/>
    <path class="cls-6" d="M142.48,93.75l-21.78.41c-12.25.89-18.71,8.15-20.56,23.79.36,41.72-7.23,89.88-1.95,112.96-.23,4.01-.49,7.87-.76,11.54-3.59,9.87-7.31,38.2-6.54,76.3h90.9c-4.1-60.53-15.52-204.44-15.52-204.44-.89-12.24-11.54-21.45-23.79-20.56Z"/>
    <polygon class="cls-1" points="107.64 244.91 94.59 244.5 95.06 229.13 108.11 229.52 107.64 244.91"/>
  </g>
  <g>
    <path class="cls-1" d="M157.34,221.12c-8.94,2.2-17.98-3.26-20.19-12.2l-18.55-75.31c-2.2-8.95,3.25-17.98,12.21-20.19,8.94-2.2,17.98,3.25,20.18,12.21l18.56,75.3c2.2,8.95-3.27,17.98-12.21,20.19Z"/>
    <path class="cls-5" d="M320.36,572.51c-.62-.29-1.12-.83-1.37-1.53l-95.85-274.39c-.97-2.79-2.93-4.97-5.65-6.33-2.67-1.28-5.67-1.45-8.47-.46-5.97,2.11-9,8.42-7.01,14.13l1.72,4.96c.49,1.39-.25,2.92-1.65,3.4-1.4.49-2.92-.25-3.4-1.65l-1.73-4.95c-2.95-8.49,1.55-17.84,10.03-20.84,4.41-1.56,8.87-1.31,12.84.59.01.01.02.02.05.02,3.93,1.91,6.89,5.23,8.34,9.38l95.85,274.39c.49,1.39-.26,2.92-1.65,3.4-.7.25-1.44.18-2.05-.13Z"/>
    <path class="cls-2" d="M209.49,277.94c7.39,5.44,12.58,14.05,13,17.93.42,3.89-1.38,6.7-5.32,9.97-2.58,2.52-17.11,5.1-16.63-6.63.56-2.88,5.03-.36,5.03-.36,0,0-9.69-6.19-9.52-11.65.69-.46,11.9-10.3,13.44-9.25Z"/>
    <polygon class="cls-6" points="195.81 288.19 190.72 280.93 200.92 264.01 210.33 278 195.81 288.19"/>
    <path class="cls-1" d="M197.65,277.23c-6.17,4.13-6.76,6.32-11.26,0l-44.57-55.73c-3.91-5.52-6.24-17.6-4.67-23,.95-3.28,4.08-.62,6.97-2.54,7.66-5.12,20.01-2.63,25.77,6.57l33.66,63.44c4.13,6.57.27,7.14-5.91,11.27Z"/>
  </g>
</svg>