<?xml version="1.0" encoding="UTF-8"?>
<svg id="Capa_1" data-name="Capa 1" xmlns="http://www.w3.org/2000/svg" viewBox="0 0 411.47 567.35">
  <defs>
    <style>
      .cls-1 {
        fill: #919292;
      }

      .cls-2 {
        fill: #f6b198;
      }

      .cls-3 {
        fill: #45311d;
      }

      .cls-4 {
        fill: #fff;
      }

      .cls-5 {
        fill: #636363;
      }

      .cls-6 {
        fill: #3d519f;
      }

      .cls-7 {
        fill: #101010;
      }

      .cls-8 {
        fill: #494949;
      }

      .cls-9 {
        fill: #a2a1a1;
      }

      .cls-10 {
        fill: #6f4f2f;
      }

      .cls-11 {
        fill: #664031;
      }

      .cls-12 {
        fill: #a97d50;
      }

      .cls-13 {
        fill: #2f1c11;
      }

      .cls-14 {
        fill: #e73331;
      }
    </style>
  </defs>
  <g>
    <g>
      <polygon class="cls-2" points="154.91 106.86 124.31 107.54 122.77 76.41 155.01 86.36 154.91 106.86"/>
      <path class="cls-2" d="M162.31,9.29c-51.42-8.44-52.32,30-45.15,56.6,5.05,18.74,27.7,24.53,44,25.79,5,.03,10.18-11.88,13.12-26.64l8.94-1.56-6.86-13.59c1.48-19.36-1.67-38.56-14.05-40.6Z"/>
      <path class="cls-11" d="M162.48,4.03c-22.81-7.05-47.86-5.12-50.43,7.92-15.77,7.63-8.07,38.41,1.22,56.28,4.37,8.39,5.02,14.02,12,11.51,13.05-13.91,2.77-35.32,6.82-36.96,9.71-4.39,15.18,9.82,15.18,9.82l-4.38-23.54s24.91,5.52,35.99-1.79c2.13-8.63-3.75-19.32-16.41-23.23Z"/>
      <path class="cls-2" d="M134.83,41.79c-4.38.31-7.67,4.22-7.35,8.73.32,4.51,4.13,7.92,8.5,7.61,4.38-.31,7.67-4.22,7.35-8.73-.32-4.51-4.12-7.92-8.5-7.61Z"/>
    </g>
    <path class="cls-14" d="M402.85,440.27l-47.37-7.18c-1.05-.21-2.12-.27-3.18-.16l-27.17,2.65c-2.52.25-4.38,2.5-4.13,5.03l1.62,18.67c.58,5.9,5.83,10.22,11.73,9.64l67.43-7.25c5.9-.58,10.22-5.83,9.65-11.73l-.02-.18c-.46-4.69-3.93-8.54-8.55-9.48Z"/>
    <g>
      <path class="cls-6" d="M354.75,432.99c8.83-30.58,1.64-47.79-5.6-110.45-1.8-30.58-23.84-38.21-40.73-37.58-.11.02-.2.05-.3.07-.51-.02-1-.14-1.52-.13l-83.53.44h0c-6.99-2.98-12.22-10.24-12.22-10.24l-80.59,7.6,3.27,24.36c2.43,18.19,18.22,31.59,36.55,31.04l134.2-2.85s10.13,84.79,17.73,102l32.75-4.28Z"/>
      <path class="cls-4" d="M334.01,435.62l-14.01-108.61c-.99-6.55-6.52-11.31-13.15-11.31l-112.59-1.32c-9.02,0-16.98-6.07-19.36-14.77l-3.13-11.33,6.81-.6,2.85,10.14c1.58,5.76,6.85,9.79,12.83,9.79l112.59,1.31c10,0,18.36,7.19,19.85,17.08l14.3,108.79-7,.84Z"/>
    </g>
    <g>
      <path class="cls-10" d="M158.65,111.74l-37.48-1.43c-3.32.25-4.87,1.95-5.13-1.37l-.44-5.73c-.25-3.32,2.23-6.21,5.55-6.47l36.15-2.75c3.32-.25,6.21,2.23,6.47,5.55l.43,5.73c.25,3.32-2.23,6.21-5.55,6.47Z"/>
      <path class="cls-12" d="M151.86,104.86l-25.9,1.85c-14.62,1.79-19.05,14.77-16.81,36.05,17.95,80,6.61,117.09,19.75,137.55,0,0,85.4-8.94,87.39-9.3,9.75-41.81-12.61-71.78-36.29-143.65-4.41-16.16-10.17-22.03-28.13-22.5Z"/>
      <polygon class="cls-10" points="222.07 283.86 130.25 291.92 128.36 279.24 216.28 271.01 222.07 283.86"/>
    </g>
    <g>
      <path class="cls-10" d="M161.86,235.95c-10.58,2.19-20.93-4.62-23.11-15.2l-14.28-83.25c-2.19-10.58,4.62-20.93,15.2-23.12,10.58-2.19,20.93,4.62,23.12,15.2l14.28,83.25c2.19,10.58-4.62,20.93-15.2,23.12Z"/>
      <path class="cls-2" d="M259.74,229.29s1.25.02,4.72.07c3.47.05,17.55-6.39,22.49-5.89,4.94.49,14.59,6.74,15.38,11.26.78,4.51-2.77,15.76-11.71,16.74-1.96.42-3.12-7.08-3.12-7.08l-27.95-1.64.19-13.46Z"/>
      <polygon class="cls-3" points="262.85 243.28 249.4 243.32 249.77 225.33 262.32 226.99 262.85 243.28"/>
      <path class="cls-10" d="M255.93,233.64c-.08,3.7-.22,5.9-1.03,7.22-1.1,1.78-2.87,2.52-8.1,2.55l-79.58,1.49c-7.61.05-22.17-6.3-26.23-17.54-2.2-4.54,1.99.63,2.08-3.71.25-10.8,11.12-19,23.84-18.34l79.84,18.59c9.08.47,9.39,1.03,9.19,9.74Z"/>
    </g>
  </g>
  <g>
    <g>
      <polygon class="cls-5" points="286.94 360.81 303.98 530.66 289.84 533.24 274.49 360.81 286.94 360.81"/>
      <rect class="cls-1" x="296.93" y="468.64" width="84.4" height="14.12" transform="translate(-51.62 41.4) rotate(-6.49)"/>
      <polygon class="cls-1" points="292.98 346.54 123.01 348.04 100.37 195.32 28.48 200.35 29.34 208.06 86.46 204.03 110.19 360.81 117.83 443.89 130.3 443.89 123.39 360.81 296.25 360.81 292.98 346.54"/>
      <path class="cls-13" d="M319.96,461.41c4.7-5.09-8-122.75-13.27-125.39-5.27-2.64-164.91,4.59-171.32.41-6.39-4.18-20.45-162.64-25.02-163.24-4.57-.61-11.37-2.22-14.16.93-2.79,3.15,21.05,169.49,26.36,175.07,5.31,5.59,169.81,0,169.81,0,0,0,6.28,107.12,10.24,112.21,3.95,5.09,12.64,5.09,17.36,0Z"/>
      <polygon class="cls-7" points="29.47 210.44 85.29 205.9 84.29 195.32 28.48 199.86 29.47 210.44"/>
      <path class="cls-13" d="M166.46,265.78c5.67,3.77,119.1-.67,122.18-4.31,3.08-3.65,1.42-13.02-.59-16.73-2.01-3.71-117.74.56-122.21,4.3-4.42,3.75-5.06,12.96.61,16.74Z"/>
      <polygon class="cls-1" points="104.12 284.19 268.19 275.74 274.49 350.46 283.78 349.7 278.4 262.15 101.79 270.8 104.12 284.19"/>
    </g>
    <g>
      <path class="cls-7" d="M259.71,530.66c0,20.26,16.42,36.69,36.68,36.69s36.69-16.43,36.69-36.69-16.43-36.69-36.69-36.69-36.68,16.43-36.68,36.69Z"/>
      <path class="cls-5" d="M270,530.66c0,14.57,11.82,26.39,26.39,26.39s26.39-11.82,26.39-26.39-11.81-26.39-26.39-26.39-26.39,11.82-26.39,26.39Z"/>
      <path class="cls-9" d="M282.71,530.66c0,7.56,6.11,13.69,13.68,13.69s13.7-6.13,13.7-13.69-6.13-13.7-13.7-13.7-13.68,6.13-13.68,13.7Z"/>
    </g>
    <g>
      <rect class="cls-8" x="86.43" y="358.92" width="4.13" height="98.84" transform="translate(-262.61 181.86) rotate(-44.95)"/>
      <polygon class="cls-8" points="53.8 516.47 125.51 444.75 122.59 441.83 50.87 513.56 53.8 516.47"/>
      <rect class="cls-8" x="23.64" y="441.23" width="100.42" height="4.12"/>
      <rect class="cls-8" x="124.06" y="441.23" width="100.64" height="4.12"/>
      <polygon class="cls-8" points="125.51 444.75 200.8 369.74 197.87 366.82 122.59 441.83 125.51 444.75"/>
      <polygon class="cls-8" points="193.72 515.87 196.64 512.97 125.51 441.83 122.59 444.75 193.72 515.87"/>
      <rect class="cls-8" x="121.99" y="443.29" width="4.13" height="99.74"/>
      <rect class="cls-8" x="121.99" y="341.34" width="4.13" height="101.95"/>
      <path class="cls-7" d="M0,443.29c0-68.41,55.65-124.06,124.06-124.06s124.06,55.65,124.06,124.06-55.66,124.06-124.06,124.06S0,511.7,0,443.29ZM13.1,443.29c0,61.18,49.78,110.95,110.96,110.95s110.96-49.77,110.96-110.95-49.79-110.95-110.96-110.95S13.1,382.12,13.1,443.29Z"/>
      <path class="cls-5" d="M43.31,522.29c-20.86-21.15-32.16-49.03-31.74-78.47.79-60.63,51.31-111.83,110.3-111.83l1.68.02c62.68,1.03,111.79,50.17,111.79,111.89s-50.19,111.9-111.88,111.9c-30.37,0-58.82-11.9-80.15-33.5ZM24.67,443.99c-.35,25.92,9.58,50.46,27.99,69.09,18.82,19.09,43.96,29.6,70.8,29.6,54.47,0,98.76-44.31,98.76-98.79s-43.43-97.87-98.88-98.78l-1.47-.02c-51.98,0-96.49,45.3-97.2,98.9Z"/>
      <path class="cls-5" d="M98.13,443.29c0,14.33,11.61,25.94,25.93,25.94s25.93-11.61,25.93-25.94-11.61-25.92-25.93-25.92-25.93,11.61-25.93,25.92Z"/>
    </g>
  </g>
</svg>