<?xml version="1.0" encoding="UTF-8"?>
<svg id="Capa_1" data-name="Capa 1" xmlns="http://www.w3.org/2000/svg" viewBox="0 0 500 500">
  <defs>
    <style>
      .cls-1 {
        fill: #3063ad;
      }

      .cls-2 {
        fill: #068437;
      }

      .cls-3 {
        fill: #4478bc;
      }

      .cls-4 {
        fill: #fff;
      }

      .cls-5 {
        fill: #21a849;
      }

      .cls-6 {
        fill: #e84336;
      }

      .cls-7 {
        fill: #fbb911;
      }
    </style>
  </defs>
  <path class="cls-3" d="M368.92,26.69v110.01h-237.84v237.84H21.07V60.83c0-18.85,15.28-34.13,34.13-34.13h313.72Z"/>
  <path class="cls-1" d="M478.93,60.83v75.88h-110.01V26.69h75.88c18.85,0,34.13,15.28,34.13,34.13Z"/>
  <rect class="cls-7" x="368.92" y="136.71" width="110.01" height="237.84"/>
  <rect class="cls-5" x="131.08" y="374.55" width="237.84" height="110.01"/>
  <path class="cls-2" d="M131.08,374.55v110.01H55.2c-18.85,0-34.13-15.28-34.13-34.13v-75.88h110.01Z"/>
  <rect class="cls-4" x="131.08" y="136.71" width="237.84" height="237.84"/>
  <polygon class="cls-6" points="478.93 374.55 368.92 484.56 368.92 374.55 478.93 374.55"/>
  <g>
    <path class="cls-3" d="M182.57,301.51c5.15,3.28,17.11,8.4,29.69,8.4,23.3,0,30.51-14.75,30.31-25.81-.21-18.64-17.11-26.63-34.63-26.63h-10.1v-13.52h10.1c13.19,0,29.89-6.76,29.89-22.53,0-10.65-6.8-20.07-23.5-20.07-10.72,0-21.03,4.71-26.8,8.81l-4.74-13.11c7.01-5.12,20.62-10.24,35.05-10.24,26.39,0,38.34,15.57,38.34,31.75,0,13.72-8.25,25.4-24.74,31.34v.41c16.49,3.28,29.89,15.57,29.89,34.21,0,21.3-16.7,39.94-48.86,39.94-15.05,0-28.24-4.71-34.84-9.01l4.95-13.93Z"/>
    <path class="cls-3" d="M304.87,204.16h-.41l-23.27,12.92-3.5-14.19,29.24-16.09h15.45v137.66h-17.5v-120.29Z"/>
  </g>
</svg>