<?xml version="1.0" encoding="UTF-8"?>
<svg id="Capa_1" data-name="Capa 1" xmlns="http://www.w3.org/2000/svg" viewBox="0 0 500 500">
  <defs>
    <style>
      .cls-1 {
        fill: #3063ad;
      }

      .cls-2 {
        fill: #068437;
      }

      .cls-3 {
        fill: #4478bc;
      }

      .cls-4 {
        fill: #fff;
      }

      .cls-5 {
        fill: #21a849;
      }

      .cls-6 {
        fill: #e84336;
      }

      .cls-7 {
        fill: #fbb911;
      }
    </style>
  </defs>
  <path class="cls-5" d="M466.94,134.16l-.05,149.59-.03,74.04c0,18.59-15.07,33.66-33.66,33.67l-74.72.06-109.23.09h0l-83.2,83.07c-8.95,8.93-24.24,2.6-24.24-10.05v-127.67l53.5-53.09v-.16s163.17.08,163.17.08v-149.66h.16l108.29.02Z"/>
  <path class="cls-2" d="M141.81,283.91v107.81l-74.35.06c-18.62.02-33.72-15.08-33.71-33.7l.03-74.12,108.03-.05Z"/>
  <polygon class="cls-3" points="141.81 134.11 141.81 283.91 33.78 283.96 33.84 134.1 141.81 134.11"/>
  <path class="cls-1" d="M141.82,26.24v107.88l-107.97-.02.03-74.19c0-18.6,15.09-33.67,33.68-33.67h74.26Z"/>
  <polygon class="cls-4" points="358.49 134.15 358.49 283.81 195.31 283.73 195.31 283.88 141.81 336.97 141.81 134.11 358.49 134.15"/>
  <polygon class="cls-7" points="358.64 26.24 358.64 134.15 358.49 134.15 141.81 134.11 141.81 26.24 358.64 26.24"/>
  <polygon class="cls-6" points="466.94 134.16 358.49 134.15 358.64 26.24 466.94 134.16"/>
</svg>