<?xml version="1.0" encoding="UTF-8"?>
<svg id="Capa_1" data-name="Capa 1" xmlns="http://www.w3.org/2000/svg" viewBox="0 0 500 500">
  <defs>
    <style>
      .cls-1 {
        fill: #009c4e;
      }

      .cls-2 {
        fill: #fab600;
      }

      .cls-3 {
        fill: #00863c;
      }

      .cls-4 {
        fill: #0065af;
      }

      .cls-5 {
        fill: #0b77bd;
      }

      .cls-6 {
        fill: #e9493e;
      }
    </style>
  </defs>
  <path class="cls-2" d="M486.94,309.9c4.58,7.89,6.85,16.71,6.78,25.52h-151.86l-91.65-158.74,75.99-131.62c6.86,4.25,12.7,10.17,16.9,17.39l26.94,46.35,91.16,156.84,25.73,44.26Z"/>
  <path class="cls-6" d="M341.87,335.43h151.86c-.06,8.53-2.29,17.05-6.71,24.69l-51.46,89.13c-4.33,7.51-10.45,13.62-17.63,17.92l-76.06-131.74Z"/>
  <path class="cls-5" d="M341.87,335.43l76.06,131.74c-7.65,4.58-16.52,7.12-25.74,7.12H107.82c-9.09,0-17.84-2.47-25.41-6.93l76.17-131.93h183.29Z"/>
  <path class="cls-3" d="M326.22,45.07l-75.99,131.62L174.11,44.87c7.73-4.71,16.72-7.33,26.08-7.33h99.61c9.49,0,18.61,2.69,26.41,7.53Z"/>
  <path class="cls-1" d="M174.11,44.87l76.11,131.82-91.65,158.74H6.27c-.06-8.81,2.2-17.64,6.78-25.53l25.73-44.26,91.17-156.84,26.94-46.35c4.26-7.33,10.22-13.32,17.22-17.59Z"/>
  <path class="cls-4" d="M158.58,335.43l-76.17,131.93c-7.33-4.31-13.56-10.49-17.97-18.12l-51.46-89.13c-4.41-7.64-6.65-16.16-6.71-24.69h152.3Z"/>
</svg>