<?xml version="1.0" encoding="UTF-8"?>
<svg id="Capa_1" data-name="Capa 1" xmlns="http://www.w3.org/2000/svg" viewBox="0 0 600 600">
  <defs>
    <style>
      .cls-1 {
        fill: #654b99;
      }

      .cls-2 {
        fill: #fff;
      }

      .cls-3 {
        fill: #56368b;
      }
    </style>
  </defs>
  <path class="cls-3" d="M366.96,151.86l80.86,15.28,66.59-15.28L366.96,4.41l-20.34,69.9,20.34,77.54Z"/>
  <path class="cls-1" d="M366.96,151.86V4.41H125.68c-22.22,0-40.21,18-40.21,40.21v509.37c0,22.22,18,40.21,40.21,40.21h348.52c22.22,0,40.21-18,40.21-40.21V151.86h-147.45Z"/>
  <path class="cls-2" d="M199.41,430c-11.09,0-20.11-9.01-20.11-20.11s9.01-20.11,20.11-20.11,20.11,9.01,20.11,20.11-9.01,20.11-20.11,20.11ZM199.41,349.57c-11.09,0-20.11-9.01-20.11-20.11s9.01-20.11,20.11-20.11,20.11,9.01,20.11,20.11-9.01,20.11-20.11,20.11ZM199.41,269.15c-11.09,0-20.11-9.01-20.11-20.11s9.01-20.11,20.11-20.11,20.11,9.01,20.11,20.11-9.01,20.11-20.11,20.11ZM420.58,426.65h-167.56v-33.51h167.56v33.51ZM420.58,346.22h-167.56v-33.51h167.56v33.51ZM420.58,265.79h-167.56v-33.51h167.56v33.51Z"/>
</svg>