<?xml version="1.0" encoding="UTF-8"?>
<svg id="Capa_1" data-name="Capa 1" xmlns="http://www.w3.org/2000/svg" viewBox="0 0 500 500">
  <defs>
    <style>
      .cls-1 {
        fill: #009c4e;
      }

      .cls-2 {
        fill: #e41f1a;
      }

      .cls-3 {
        fill: #fab600;
      }

      .cls-4 {
        fill: #0b77bd;
      }

      .cls-5 {
        fill: #e9493e;
      }
    </style>
  </defs>
  <path class="cls-1" d="M492.19,166.58v236.38c0,17.61-14.24,31.88-31.81,31.88h-77.24v-187.29l109.05-80.97Z"/>
  <path class="cls-3" d="M492.19,121.18v45.41l-109.05,80.97V105.66l34.72-25.78c7.2-5.35,15.94-8.24,24.91-8.24h0c27.29,0,49.42,22.18,49.42,49.54Z"/>
  <polygon class="cls-5" points="383.14 105.66 383.14 247.55 250.44 346.09 116.86 245.52 116.86 103.62 250.44 204.19 383.14 105.66"/>
  <path class="cls-4" d="M116.86,245.52v189.33H39.62c-17.57,0-31.81-14.27-31.81-31.88v-239.55l109.05,82.1Z"/>
  <path class="cls-2" d="M116.86,103.62v141.9L7.81,163.41v-42.24c0-27.36,22.13-49.54,49.42-49.54h3.18c9.07,0,17.89,2.95,25.13,8.4l31.32,23.58Z"/>
</svg>