<?xml version="1.0" encoding="UTF-8"?>
<svg id="Capa_1" data-name="Capa 1" xmlns="http://www.w3.org/2000/svg" viewBox="0 0 600 600">
  <defs>
    <style>
      .cls-1 {
        fill: #32a853;
      }

      .cls-2 {
        fill: #fff;
      }

      .cls-3 {
        fill: #198139;
      }
    </style>
  </defs>
  <path class="cls-3" d="M366.73,9.17l146.94,146.94-73.47,13.36-73.47-13.36-13.36-73.47,13.36-73.47Z"/>
  <path class="cls-1" d="M366.73,156.11V9.17H126.28c-22.14,0-40.07,17.93-40.07,40.07v507.61c0,22.14,17.93,40.07,40.07,40.07h347.31c22.14,0,40.07-17.93,40.07-40.07V156.11h-146.94Z"/>
  <path class="cls-2" d="M166.36,236.26v193.69h267.16v-193.69H166.36ZM283.24,396.55h-83.49v-46.75h83.49v46.75ZM283.24,316.41h-83.49v-46.75h83.49v46.75ZM400.12,396.55h-83.49v-46.75h83.49v46.75ZM400.12,316.41h-83.49v-46.75h83.49v46.75Z"/>
</svg>