<?xml version="1.0" encoding="UTF-8"?>
<svg id="Capa_1" data-name="Capa 1" xmlns="http://www.w3.org/2000/svg" viewBox="0 0 600 600">
  <defs>
    <style>
      .cls-1 {
        fill: #32a853;
      }

      .cls-2 {
        fill: #e84436;
      }

      .cls-3 {
        fill: #517cbe;
      }

      .cls-4 {
        fill: #fbbc0c;
      }
    </style>
  </defs>
  <g id="Layer_2" data-name="Layer 2">
    <g id="specs">
      <path class="cls-1" d="M298.69,6.45c-28.38.01-51.38,23.03-51.37,51.41,0,10.2,3.05,20.18,8.74,28.65l21.95-21.92c-.73-2.19-1.09-4.48-1.08-6.78,0-11.97,9.7-21.67,21.67-21.67s21.67,9.7,21.67,21.67-9.7,21.67-21.67,21.67c-2.29,0-4.57-.36-6.75-1.08l-21.92,21.92c23.48,15.92,55.41,9.8,71.33-13.68,15.92-23.48,9.8-55.41-13.68-71.33-8.53-5.78-18.59-8.87-28.9-8.85Z"/>
      <path class="cls-4" d="M278.26,156.13c.03-17.35-5.58-34.24-16.01-48.11l-28.48,28.45c8.91,16.29,5.7,36.54-7.8,49.29l15.48,37.83c22.93-14.77,36.8-40.18,36.81-67.46Z"/>
      <path class="cls-2" d="M198.67,196.97h-.74c-22.57,0-40.87-18.29-40.87-40.86,0-22.57,18.29-40.87,40.86-40.87,7.98,0,15.78,2.33,22.45,6.72l28.2-28.2c-34.45-27.93-85.02-22.64-112.95,11.81-27.93,34.45-22.64,85.02,11.81,112.95,14.28,11.58,32.11,17.91,50.5,17.92,5.45,0,10.88-.54,16.22-1.61l-15.48-37.86Z"/>
      <path class="cls-3" d="M299.78,229.69c-17.83-.02-35.56,2.58-52.63,7.71l22.57,55.14c9.82-2.43,19.91-3.66,30.03-3.65,67.9.02,122.92,55.08,122.9,122.97-.02,67.9-55.08,122.92-122.97,122.9-67.9-.02-122.92-55.08-122.9-122.97,0-32.59,12.96-63.85,36.01-86.9,8.65-8.63,18.53-15.93,29.32-21.67l-22.32-54.98c-90.4,44.27-127.79,153.44-83.52,243.84,44.27,90.4,153.44,127.79,243.84,83.52,90.4-44.27,127.79-153.44,83.52-243.84-30.6-62.49-94.11-102.1-163.69-102.09l-.15.03Z"/>
    </g>
  </g>
</svg>