<?xml version="1.0" encoding="UTF-8"?>
<svg id="Capa_1" data-name="Capa 1" xmlns="http://www.w3.org/2000/svg" viewBox="0 0 500 500">
  <defs>
    <style>
      .cls-1 {
        fill: #009c4e;
      }

      .cls-2 {
        fill: #00873d;
      }

      .cls-3 {
        fill: #fab600;
      }

      .cls-4 {
        fill: #0065af;
      }

      .cls-5 {
        fill: #0b77bd;
      }

      .cls-6 {
        fill: #e9493e;
      }
    </style>
  </defs>
  <polygon class="cls-6" points="126.98 54.18 126.98 162.48 18.68 162.48 126.98 54.18"/>
  <path class="cls-4" d="M126.98,326.51v108.31H50.06c-17.34,0-31.39-14.05-31.39-31.39v-76.92h108.31Z"/>
  <rect class="cls-5" x="18.68" y="162.48" width="108.31" height="164.03"/>
  <polygon class="cls-2" points="386.08 155.66 386.08 333.34 280.38 244.5 386.08 155.66"/>
  <path class="cls-1" d="M280.38,326.51v-82.01l105.69,88.84v70.09c0,17.34-14.05,31.39-31.39,31.39H126.98v-108.31h153.4Z"/>
  <path class="cls-1" d="M481.32,111.51v265.98c0,14.22-16.61,21.95-27.49,12.8l-67.76-56.95v-177.68l67.76-56.95c10.88-9.15,27.49-1.41,27.49,12.8Z"/>
  <path class="cls-3" d="M280.38,162.48H126.98V54.18h227.71c17.34,0,31.39,14.05,31.39,31.39v70.09l-105.69,88.84v-82.01Z"/>
</svg>