<?xml version="1.0" encoding="UTF-8"?>
<svg id="Layer_1" data-name="Layer 1" xmlns="http://www.w3.org/2000/svg" xmlns:xlink="http://www.w3.org/1999/xlink" viewBox="0 0 1920 1080">
  <defs>
    <style>
      .cls-1, .cls-2, .cls-3, .cls-4, .cls-5, .cls-6, .cls-7 {
        fill: none;
      }

      .cls-2 {
        stroke: url(#linear-gradient-6);
      }

      .cls-2, .cls-3, .cls-4, .cls-5, .cls-6, .cls-7 {
        stroke-miterlimit: 10;
        stroke-width: 5px;
      }

      .cls-8 {
        clip-path: url(#clippath-1);
      }

      .cls-3 {
        stroke: url(#linear-gradient-4);
      }

      .cls-9 {
        clip-path: url(#clippath-3);
      }

      .cls-4 {
        stroke: url(#linear-gradient);
      }

      .cls-5 {
        stroke: url(#linear-gradient-2);
      }

      .cls-6 {
        stroke: url(#linear-gradient-3);
      }

      .cls-10 {
        clip-path: url(#clippath-2);
      }

      .cls-11 {
        clip-path: url(#clippath);
      }

      .cls-7 {
        stroke: url(#linear-gradient-5);
      }
    </style>
    <clipPath id="clippath">
      <rect class="cls-1" x="-1940.02" y="-1100.34" width="1920.03" height="1080.68"/>
    </clipPath>
    <linearGradient id="linear-gradient" x1="-1103.07" y1="-42.19" x2="24.9" y2="-1170.17" gradientUnits="userSpaceOnUse">
      <stop offset="0" stop-color="#009343"/>
      <stop offset="1" stop-color="#32fa6e"/>
    </linearGradient>
    <clipPath id="clippath-1">
      <rect class="cls-1" x="-1940.02" y="-.34" width="1920.03" height="1080.68"/>
    </clipPath>
    <linearGradient id="linear-gradient-2" x1="-1049.62" y1="1188.44" x2="-227.12" y2="365.94" xlink:href="#linear-gradient"/>
    <linearGradient id="linear-gradient-3" x1="206.39" y1="1293.61" x2="1713.61" y2="-213.61" xlink:href="#linear-gradient"/>
    <clipPath id="clippath-2">
      <rect class="cls-6" x="-.34" y="-1.88" width="1920.69" height="1083.76"/>
    </clipPath>
    <linearGradient id="linear-gradient-4" x1="968.5" y1="1181.53" x2="1884.58" y2="265.45" xlink:href="#linear-gradient"/>
    <linearGradient id="linear-gradient-5" x1="206.39" y1="1293.61" x2="1713.61" y2="-213.61" xlink:href="#linear-gradient"/>
    <clipPath id="clippath-3">
      <rect class="cls-1" x="-.34" y="1098.12" width="1920.69" height="1083.76"/>
    </clipPath>
    <linearGradient id="linear-gradient-6" x1="249.95" y1="2440.82" x2="1436.86" y2="1253.91" xlink:href="#linear-gradient"/>
  </defs>
  <g class="cls-11">
    <path class="cls-4" d="M513.37-673.33c-.99.99-1490.28,1.65-1836.43.15-36.32-.16-62.5-34.85-52.7-69.82,57.12-203.92,203.97-686.37,258.86-869.52-20.67,4.06-80.76,8.86-100.86,14.36-29.16,97.45-187.86,600.74-311.59,992.85-31.42,99.57,30.78,204.32,133.25,224.39C-875.87-279.04,520.95-4.69,523.18-2.46l-9.81-670.88Z"/>
  </g>
  <g class="cls-8">
    <path class="cls-5" d="M209.33,952.65c-1,1-1300.97-357.94-1580.84-436.7-29.5-8.3-46.52-39.11-37.85-68.51,59.87-203.12,247.91-763.79,304.45-952.45-20.67,4.06-80.76,8.86-100.86,14.36-29.93,100.02-212.37,627.48-341.28,1023.54-29.46,90.52,8.97,189.26,91.87,236.05,430.69,243.11,1693.03,957.73,1695.31,960.01l-30.79-776.29Z"/>
  </g>
  <g>
    <g class="cls-10">
      <path class="cls-3" d="M1408.25-172.76l52.94,20.47-534.61,452.51c-25.1,21.24-27.53,59.08-5.37,83.36l883.62,968.44-550.69,110.96-484.98-949.93c-30.66-60.04-15.88-133.3,35.65-176.77l603.44-509.03Z"/>
    </g>
    <rect class="cls-7" x="-.34" y="-1.88" width="1920.69" height="1083.76"/>
  </g>
  <g class="cls-9">
    <path class="cls-2" d="M1547.5,2320.82l-555.38-467.44c-41.5-34.93-65.45-86.4-65.45-140.64v-964.03h-166.53s0,963.74,0,963.74c0,54.42-24.04,106.07-65.67,141.11l-555.16,467.25h1408.2Z"/>
  </g>
</svg>